M48
; DRILL file {KiCad 8.0.4} date 2025-03-19T01:09:58-0500
; FORMAT={-:-/ absolute / inch / decimal}
; #@! TF.CreationDate,2025-03-19T01:09:58-05:00
; #@! TF.GenerationSoftware,Kicad,Pcbnew,8.0.4
; #@! TF.FileFunction,Plated,1,6,PTH
FMAT,2
INCH
; #@! TA.AperFunction,Plated,PTH,ViaDrill
T1C0.0118
; #@! TA.AperFunction,Plated,PTH,ComponentDrill
T2C0.0354
; #@! TA.AperFunction,Plated,PTH,ComponentDrill
T3C0.0709
; #@! TA.AperFunction,Plated,PTH,ComponentDrill
T4C0.0866
%
G90
G05
T1
X6.122Y-2.4016
X6.122Y-2.4409
X6.122Y-2.4803
X6.122Y-2.5197
X6.122Y-2.5591
X6.1614Y-2.4016
X6.1614Y-2.4409
X6.1614Y-2.4803
X6.1614Y-2.5197
X6.1614Y-2.5591
X6.1614Y-2.5984
X6.1614Y-2.6378
X6.1614Y-2.6772
X6.1614Y-2.7165
X6.1614Y-2.7559
X6.2008Y-2.3661
X6.2008Y-2.4016
X6.2008Y-2.4409
X6.2008Y-2.6378
X6.2008Y-2.6772
X6.2008Y-2.7165
X6.2008Y-2.7559
X6.2402Y-2.3661
X6.2402Y-2.4016
X6.2402Y-2.4409
X6.2402Y-2.6378
X6.2402Y-2.6772
X6.2402Y-2.7165
X6.2402Y-2.7559
X6.2795Y-2.3661
X6.2795Y-2.4016
X6.2795Y-2.4409
X6.2795Y-2.6378
X6.2795Y-2.6772
X6.2795Y-2.7165
X6.2795Y-2.7559
X6.3189Y-2.3661
X6.3189Y-2.4016
X6.3189Y-2.4409
X6.3189Y-2.6378
X6.3189Y-2.6772
X6.3189Y-2.7165
X6.3189Y-2.7559
X6.3583Y-2.3661
X6.3583Y-2.4016
X6.3583Y-2.4409
X6.3583Y-2.6378
X6.3583Y-2.6772
X6.3583Y-2.7165
X6.3583Y-2.7559
X6.4606Y-2.5748
X6.4606Y-2.6142
X6.4606Y-2.6535
X6.4606Y-2.6929
X6.4606Y-2.7323
X6.5Y-2.5748
X6.5Y-2.6142
X6.5Y-2.6535
X6.5Y-2.6929
X6.5Y-2.7323
X6.5059Y-2.0098
X6.5394Y-2.5748
X6.5394Y-2.6142
X6.5394Y-2.6535
X6.5394Y-2.6929
X6.5394Y-2.7323
X6.5787Y-2.5748
X6.5787Y-2.6142
X6.5787Y-2.6535
X6.5787Y-2.6929
X6.5787Y-2.7323
X6.6043Y-2.0079
X6.6181Y-2.5748
X6.6181Y-2.6142
X6.6181Y-2.6535
X6.6181Y-2.6929
X6.6181Y-2.7323
X6.7323Y-2.5748
X6.7323Y-2.6142
X6.7323Y-2.6535
X6.7323Y-2.6929
X6.7323Y-2.7323
X6.7717Y-2.5748
X6.7717Y-2.6142
X6.7717Y-2.6535
X6.7717Y-2.6929
X6.7717Y-2.7323
X6.811Y-2.5748
X6.811Y-2.6142
X6.811Y-2.6535
X6.811Y-2.6929
X6.811Y-2.7323
X6.8504Y-2.5748
X6.8504Y-2.6142
X6.8504Y-2.6535
X6.8504Y-2.6929
X6.8504Y-2.7323
X6.8898Y-2.5748
X6.8898Y-2.6142
X6.8898Y-2.6535
X6.8898Y-2.6929
X6.8898Y-2.7323
X6.9006Y-2.008
X6.9006Y-2.1476
X6.9006Y-2.2874
X6.9272Y-2.2323
X6.9646Y-2.7618
X6.9685Y-2.0335
X6.9712Y-2.1102
X7.0Y-2.7677
X7.0004Y-2.733
X7.0059Y-2.5791
X7.0236Y-2.3622
X7.0354Y-2.1929
X7.0364Y-2.0078
X7.0394Y-2.1535
X7.0433Y-2.2869
X7.0453Y-2.2441
X7.0728Y-2.7224
X7.0768Y-2.1201
X7.0772Y-2.0476
X7.0792Y-2.369
X7.0866Y-2.7559
X7.1083Y-2.7224
X7.1102Y-2.6516
X7.1122Y-2.6201
X7.124Y-2.3622
X7.127Y-2.5423
X7.1476Y-2.6161
X7.1476Y-2.6555
X7.1516Y-2.5787
X7.1532Y-2.4977
X7.1693Y-2.3622
X7.1832Y-2.75
X7.187Y-2.4646
X7.189Y-2.6161
X7.2362Y-2.6161
X7.2933Y-2.4528
X7.2933Y-2.5079
X7.2933Y-2.5512
X7.2933Y-2.6083
X7.2933Y-2.6457
X7.2933Y-2.7106
X7.3366Y-2.0807
X7.3366Y-2.3819
X7.3386Y-2.1791
X7.3386Y-2.4803
X7.3386Y-2.5807
X7.3386Y-2.6811
X7.3439Y-2.2848
X7.3819Y-2.5079
X7.3819Y-2.5512
X7.3839Y-2.4528
X7.3839Y-2.6083
X7.3839Y-2.6457
X7.3839Y-2.7106
X7.4764Y-2.4075
X7.4764Y-2.4764
X7.5413Y-2.0118
X7.5748Y-2.2835
X7.5768Y-2.1614
X7.5846Y-2.5551
X7.6024Y-2.4606
X7.6122Y-2.0079
X7.6299Y-2.5551
X7.6772Y-2.0925
X7.6772Y-2.1594
X7.6811Y-2.5531
X7.7303Y-2.5551
X7.7579Y-2.0669
X7.7579Y-2.3858
X7.7618Y-2.0079
X7.7618Y-2.2657
X7.9744Y-2.4823
X7.9744Y-2.6831
X7.9749Y-2.08
X7.9749Y-2.38
T2
X6.1795Y-2.0778
X6.2795Y-2.0778
X6.3795Y-2.0778
T3
X6.0236Y-2.2835
X6.0236Y-2.4803
T4
X6.0236Y-2.0669
X6.0236Y-2.6969
X7.1457Y-2.252
M30
