%TF.GenerationSoftware,KiCad,Pcbnew,8.0.4*%
%TF.CreationDate,2025-03-19T01:09:58-05:00*%
%TF.ProjectId,Melty,4d656c74-792e-46b6-9963-61645f706362,rev?*%
%TF.SameCoordinates,Original*%
%TF.FileFunction,Copper,L6,Bot*%
%TF.FilePolarity,Positive*%
%FSLAX46Y46*%
G04 Gerber Fmt 4.6, Leading zero omitted, Abs format (unit mm)*
G04 Created by KiCad (PCBNEW 8.0.4) date 2025-03-19 01:09:58*
%MOMM*%
%LPD*%
G01*
G04 APERTURE LIST*
G04 Aperture macros list*
%AMRoundRect*
0 Rectangle with rounded corners*
0 $1 Rounding radius*
0 $2 $3 $4 $5 $6 $7 $8 $9 X,Y pos of 4 corners*
0 Add a 4 corners polygon primitive as box body*
4,1,4,$2,$3,$4,$5,$6,$7,$8,$9,$2,$3,0*
0 Add four circle primitives for the rounded corners*
1,1,$1+$1,$2,$3*
1,1,$1+$1,$4,$5*
1,1,$1+$1,$6,$7*
1,1,$1+$1,$8,$9*
0 Add four rect primitives between the rounded corners*
20,1,$1+$1,$2,$3,$4,$5,0*
20,1,$1+$1,$4,$5,$6,$7,0*
20,1,$1+$1,$6,$7,$8,$9,0*
20,1,$1+$1,$8,$9,$2,$3,0*%
G04 Aperture macros list end*
%TA.AperFunction,ComponentPad*%
%ADD10C,3.800000*%
%TD*%
%TA.AperFunction,ComponentPad*%
%ADD11RoundRect,0.250200X0.649800X0.649800X-0.649800X0.649800X-0.649800X-0.649800X0.649800X-0.649800X0*%
%TD*%
%TA.AperFunction,ComponentPad*%
%ADD12C,1.800000*%
%TD*%
%TA.AperFunction,SMDPad,CuDef*%
%ADD13RoundRect,1.250000X1.250000X-2.750000X1.250000X2.750000X-1.250000X2.750000X-1.250000X-2.750000X0*%
%TD*%
%TA.AperFunction,ComponentPad*%
%ADD14R,3.000000X3.000000*%
%TD*%
%TA.AperFunction,ComponentPad*%
%ADD15C,3.000000*%
%TD*%
%TA.AperFunction,SMDPad,CuDef*%
%ADD16RoundRect,0.150000X-0.150000X0.587500X-0.150000X-0.587500X0.150000X-0.587500X0.150000X0.587500X0*%
%TD*%
%TA.AperFunction,SMDPad,CuDef*%
%ADD17RoundRect,0.237500X0.300000X0.237500X-0.300000X0.237500X-0.300000X-0.237500X0.300000X-0.237500X0*%
%TD*%
%TA.AperFunction,SMDPad,CuDef*%
%ADD18RoundRect,0.237500X-0.237500X0.300000X-0.237500X-0.300000X0.237500X-0.300000X0.237500X0.300000X0*%
%TD*%
%TA.AperFunction,SMDPad,CuDef*%
%ADD19RoundRect,0.237500X-0.300000X-0.237500X0.300000X-0.237500X0.300000X0.237500X-0.300000X0.237500X0*%
%TD*%
%TA.AperFunction,SMDPad,CuDef*%
%ADD20R,0.700000X0.700000*%
%TD*%
%TA.AperFunction,SMDPad,CuDef*%
%ADD21RoundRect,0.150000X0.150000X-0.587500X0.150000X0.587500X-0.150000X0.587500X-0.150000X-0.587500X0*%
%TD*%
%TA.AperFunction,SMDPad,CuDef*%
%ADD22RoundRect,0.375000X0.375000X-0.625000X0.375000X0.625000X-0.375000X0.625000X-0.375000X-0.625000X0*%
%TD*%
%TA.AperFunction,SMDPad,CuDef*%
%ADD23RoundRect,0.500000X1.400000X-0.500000X1.400000X0.500000X-1.400000X0.500000X-1.400000X-0.500000X0*%
%TD*%
%TA.AperFunction,SMDPad,CuDef*%
%ADD24RoundRect,0.062500X-0.062500X0.117500X-0.062500X-0.117500X0.062500X-0.117500X0.062500X0.117500X0*%
%TD*%
%TA.AperFunction,SMDPad,CuDef*%
%ADD25RoundRect,0.150000X0.150000X0.700000X-0.150000X0.700000X-0.150000X-0.700000X0.150000X-0.700000X0*%
%TD*%
%TA.AperFunction,SMDPad,CuDef*%
%ADD26RoundRect,0.250000X0.250000X1.100000X-0.250000X1.100000X-0.250000X-1.100000X0.250000X-1.100000X0*%
%TD*%
%TA.AperFunction,SMDPad,CuDef*%
%ADD27RoundRect,1.250000X-1.250000X-2.250000X1.250000X-2.250000X1.250000X2.250000X-1.250000X2.250000X0*%
%TD*%
%TA.AperFunction,ViaPad*%
%ADD28C,0.600000*%
%TD*%
%TA.AperFunction,ViaPad*%
%ADD29C,0.450000*%
%TD*%
%TA.AperFunction,Conductor*%
%ADD30C,0.200000*%
%TD*%
%TA.AperFunction,Conductor*%
%ADD31C,0.400000*%
%TD*%
%TA.AperFunction,Conductor*%
%ADD32C,1.000000*%
%TD*%
G04 APERTURE END LIST*
D10*
%TO.P,REF\u002A\u002A,1*%
%TO.N,N/C*%
X153000000Y-52500000D03*
%TD*%
%TO.P,REF\u002A\u002A,1*%
%TO.N,N/C*%
X181500000Y-57200000D03*
%TD*%
%TO.P,REF\u002A\u002A,1*%
%TO.N,N/C*%
X153000000Y-68500000D03*
%TD*%
D11*
%TO.P,U5,1,OUT*%
%TO.N,/IR*%
X162040000Y-52775000D03*
D12*
%TO.P,U5,2,GND*%
%TO.N,GND*%
X159500000Y-52775000D03*
%TO.P,U5,3,Vs*%
%TO.N,+3V3*%
X156960000Y-52775000D03*
%TD*%
D13*
%TO.P,J5,2,Pin_2*%
%TO.N,Net-(J4-Pin_1)*%
X159425000Y-66950000D03*
%TD*%
D14*
%TO.P,J4,1,Pin_1*%
%TO.N,Net-(J4-Pin_1)*%
X153000000Y-63000000D03*
D15*
%TO.P,J4,2,Pin_2*%
%TO.N,GND*%
X153000000Y-58000000D03*
%TD*%
D16*
%TO.P,Q3,1,G*%
%TO.N,+3V3*%
X197050000Y-60000000D03*
%TO.P,Q3,2,S*%
%TO.N,/LED*%
X198950000Y-60000000D03*
%TO.P,Q3,3,D*%
%TO.N,Net-(D1-DIN)*%
X198000000Y-61875000D03*
%TD*%
%TO.P,Q2,1,G*%
%TO.N,+3V3*%
X197050000Y-53062500D03*
%TO.P,Q2,2,S*%
%TO.N,/TX*%
X198950000Y-53062500D03*
%TO.P,Q2,3,D*%
%TO.N,Net-(Q2-D)*%
X198000000Y-54937500D03*
%TD*%
D17*
%TO.P,R1,1*%
%TO.N,+5V*%
X193362500Y-51000000D03*
%TO.P,R1,2*%
%TO.N,Net-(Q1-D)*%
X191637500Y-51000000D03*
%TD*%
D18*
%TO.P,C4,1*%
%TO.N,+3V3*%
X189900000Y-61137500D03*
%TO.P,C4,2*%
%TO.N,GND*%
X189900000Y-62862500D03*
%TD*%
D19*
%TO.P,C6,1*%
%TO.N,+3V3*%
X181787500Y-70250000D03*
%TO.P,C6,2*%
%TO.N,GND*%
X183512500Y-70250000D03*
%TD*%
%TO.P,R5,1*%
%TO.N,+3V3*%
X197137500Y-57500000D03*
%TO.P,R5,2*%
%TO.N,/LED*%
X198862500Y-57500000D03*
%TD*%
D20*
%TO.P,D5,1,DOUT*%
%TO.N,Net-(D5-DOUT)*%
X176085000Y-55100000D03*
%TO.P,D5,2,VSS*%
%TO.N,GND*%
X176085000Y-54000000D03*
%TO.P,D5,3,DIN*%
%TO.N,Net-(D4-DOUT)*%
X177915000Y-54000000D03*
%TO.P,D5,4,VDD*%
%TO.N,+5V*%
X177915000Y-55100000D03*
%TD*%
D19*
%TO.P,R6,1*%
%TO.N,+5V*%
X193137500Y-62500000D03*
%TO.P,R6,2*%
%TO.N,Net-(D1-DIN)*%
X194862500Y-62500000D03*
%TD*%
D17*
%TO.P,R3,1*%
%TO.N,+3V3*%
X192362500Y-58000000D03*
%TO.P,R3,2*%
%TO.N,/RX*%
X190637500Y-58000000D03*
%TD*%
D21*
%TO.P,Q1,1,G*%
%TO.N,+3V3*%
X192450000Y-54875000D03*
%TO.P,Q1,2,S*%
%TO.N,/RX*%
X190550000Y-54875000D03*
%TO.P,Q1,3,D*%
%TO.N,Net-(Q1-D)*%
X191500000Y-53000000D03*
%TD*%
D20*
%TO.P,D7,1,DOUT*%
%TO.N,unconnected-(D7-DOUT-Pad1)*%
X176085000Y-51550000D03*
%TO.P,D7,2,VSS*%
%TO.N,GND*%
X176085000Y-50450000D03*
%TO.P,D7,3,DIN*%
%TO.N,Net-(D5-DOUT)*%
X177915000Y-50450000D03*
%TO.P,D7,4,VDD*%
%TO.N,+5V*%
X177915000Y-51550000D03*
%TD*%
D22*
%TO.P,U3,1,GND*%
%TO.N,GND*%
X183200000Y-67300000D03*
%TO.P,U3,2,VO*%
%TO.N,+5V*%
X180900000Y-67300000D03*
D23*
X180900000Y-61000000D03*
D22*
%TO.P,U3,3,VI*%
%TO.N,+BATT*%
X178600000Y-67300000D03*
%TD*%
D24*
%TO.P,D6,1,A1*%
%TO.N,/VSense*%
X199850000Y-65020000D03*
%TO.P,D6,2,A2*%
%TO.N,GND*%
X199850000Y-64180000D03*
%TD*%
D20*
%TO.P,D4,1,DOUT*%
%TO.N,Net-(D4-DOUT)*%
X176085000Y-58650000D03*
%TO.P,D4,2,VSS*%
%TO.N,GND*%
X176085000Y-57550000D03*
%TO.P,D4,3,DIN*%
%TO.N,Net-(D3-DOUT)*%
X177915000Y-57550000D03*
%TO.P,D4,4,VDD*%
%TO.N,+5V*%
X177915000Y-58650000D03*
%TD*%
D19*
%TO.P,R4,1*%
%TO.N,+3V3*%
X197137500Y-51000000D03*
%TO.P,R4,2*%
%TO.N,/TX*%
X198862500Y-51000000D03*
%TD*%
D25*
%TO.P,J1,1,Pin_1*%
%TO.N,/ESC1*%
X196375000Y-66150000D03*
%TO.P,J1,2,Pin_2*%
%TO.N,GND*%
X195125000Y-66150000D03*
%TO.P,J1,3,Pin_3*%
%TO.N,/ESC2*%
X193875000Y-66150000D03*
%TO.P,J1,4,Pin_4*%
%TO.N,GND*%
X192625000Y-66150000D03*
D26*
%TO.P,J1,MP*%
%TO.N,N/C*%
X198225000Y-69350000D03*
X190775000Y-69350000D03*
%TD*%
D18*
%TO.P,R2,1*%
%TO.N,+5V*%
X195000000Y-53137500D03*
%TO.P,R2,2*%
%TO.N,Net-(Q2-D)*%
X195000000Y-54862500D03*
%TD*%
D27*
%TO.P,J2,1,Pin_1*%
%TO.N,+BATT*%
X166000000Y-67075000D03*
%TO.P,J2,2,Pin_2*%
%TO.N,GND*%
X173000000Y-67075000D03*
%TD*%
D28*
%TO.N,+5V*%
X181650000Y-65500000D03*
D29*
%TO.N,GND*%
X175000000Y-65400000D03*
X172000000Y-69400000D03*
X173000000Y-66400000D03*
X174000000Y-68400000D03*
D28*
X195100000Y-64850000D03*
X175275460Y-58100000D03*
X179650000Y-69150000D03*
D29*
X171000000Y-66400000D03*
X171000000Y-68400000D03*
D28*
X183800000Y-66450000D03*
D29*
X175000000Y-69400000D03*
X172000000Y-67400000D03*
D28*
X182600000Y-66450000D03*
D29*
X174000000Y-65400000D03*
D28*
X186400000Y-65550000D03*
D29*
X173000000Y-68400000D03*
D28*
X175275460Y-51002962D03*
D29*
X171000000Y-67400000D03*
D28*
X187550000Y-66250000D03*
X185250000Y-64800000D03*
X189900000Y-62900000D03*
D29*
X173000000Y-67400000D03*
X173000000Y-69400000D03*
D28*
X187500000Y-64800000D03*
D29*
X174000000Y-66400000D03*
D28*
X165250000Y-51050000D03*
X185250000Y-66250000D03*
D29*
X172000000Y-66400000D03*
X174000000Y-67400000D03*
X173000000Y-65400000D03*
X175000000Y-67400000D03*
X175000000Y-66400000D03*
D28*
X192650000Y-64900000D03*
D29*
X171000000Y-69400000D03*
D28*
X175275460Y-54550000D03*
D29*
X172000000Y-68400000D03*
X172000000Y-65400000D03*
X171000000Y-65400000D03*
X175000000Y-68400000D03*
X174000000Y-69400000D03*
%TO.N,+BATT*%
X166100000Y-68400000D03*
X166100000Y-66400000D03*
X168100000Y-67400000D03*
X168100000Y-66400000D03*
X168100000Y-69400000D03*
X160500000Y-62000000D03*
X161500000Y-60100000D03*
X161500000Y-62000000D03*
X165100000Y-67400000D03*
X168100000Y-65400000D03*
X160500000Y-60100000D03*
X159500000Y-60100000D03*
X164100000Y-66400000D03*
X165100000Y-68400000D03*
X157500000Y-61000000D03*
X160500000Y-61000000D03*
X166100000Y-69400000D03*
X157500000Y-60100000D03*
X167100000Y-68400000D03*
X157500000Y-62000000D03*
X165100000Y-69400000D03*
X167100000Y-65400000D03*
X168100000Y-68400000D03*
X166100000Y-65400000D03*
X159500000Y-62000000D03*
X167100000Y-67400000D03*
X164100000Y-65400000D03*
X166100000Y-67400000D03*
X164100000Y-67400000D03*
D28*
X176900000Y-70150000D03*
D29*
X165100000Y-66400000D03*
X158500000Y-62000000D03*
X164100000Y-69400000D03*
X158500000Y-61000000D03*
X159500000Y-61000000D03*
X165100000Y-65400000D03*
X158500000Y-60100000D03*
X167100000Y-69400000D03*
X164100000Y-68400000D03*
X161500000Y-61000000D03*
X167100000Y-66400000D03*
D28*
%TO.N,+5V*%
X181550000Y-67450000D03*
X181550000Y-66450000D03*
X167750000Y-51000000D03*
X180950000Y-60000000D03*
X182100000Y-60000000D03*
X193100000Y-62500000D03*
X180600000Y-67350000D03*
X195000000Y-53150000D03*
X187550000Y-67200000D03*
X178900000Y-58086194D03*
X185250000Y-68850000D03*
X185250000Y-67200000D03*
X178724540Y-50997038D03*
X193350000Y-51000000D03*
X181025000Y-64575000D03*
X178800000Y-54700000D03*
X180650000Y-66550000D03*
X179812932Y-60171670D03*
X181692463Y-63442463D03*
X186400000Y-68100000D03*
X187550000Y-68850000D03*
%TO.N,+3V3*%
X197050000Y-60600000D03*
X185250000Y-62300000D03*
X192450000Y-54900000D03*
X182453399Y-69850252D03*
X197150000Y-57550000D03*
X177950000Y-65509620D03*
X197150000Y-51000000D03*
X180550000Y-69150000D03*
X189900000Y-61150000D03*
X192400000Y-58000000D03*
X185250000Y-63700000D03*
X187550000Y-62300000D03*
X186400000Y-63000000D03*
X197050000Y-52500000D03*
X187500000Y-63700000D03*
%TO.N,Net-(D1-DIN)*%
X179759620Y-52009620D03*
%TO.N,Net-(D1-DOUT)*%
X177067505Y-53600000D03*
X177000000Y-51650000D03*
%TO.N,Net-(D3-DOUT)*%
X175950000Y-56699998D03*
X178950000Y-57000000D03*
%TO.N,/VSense*%
X202550000Y-68150000D03*
X182550000Y-62600000D03*
%TO.N,/ESC2*%
X193800000Y-64900000D03*
%TO.N,/ESC1*%
X196350000Y-64900000D03*
%TO.N,/RX*%
X186350000Y-52850000D03*
%TO.N,Net-(Q1-D)*%
X191550000Y-51100000D03*
%TO.N,/TX*%
X202561364Y-52833000D03*
%TO.N,Net-(Q2-D)*%
X195000000Y-54850000D03*
%TO.N,/LED*%
X202561364Y-60453000D03*
%TO.N,/SCK*%
X177809311Y-69418621D03*
X186400000Y-55350000D03*
%TO.N,/MOSI*%
X177800000Y-70300000D03*
X186350000Y-60500000D03*
%TO.N,/IR*%
X178400000Y-60000000D03*
X202550000Y-63050000D03*
%TO.N,/MISO*%
X186534620Y-58034620D03*
X180000000Y-70000000D03*
D29*
%TO.N,Net-(J4-Pin_1)*%
X156500000Y-62000000D03*
X157500000Y-67000000D03*
X155500000Y-64000000D03*
X156500000Y-66000000D03*
X157500000Y-70000000D03*
X155500000Y-62000000D03*
X160500000Y-69000000D03*
X158500000Y-68000000D03*
X156500000Y-69000000D03*
X160500000Y-68000000D03*
X161500000Y-68000000D03*
X160500000Y-67000000D03*
X159500000Y-70000000D03*
X156500000Y-70000000D03*
X157500000Y-68000000D03*
X161500000Y-67000000D03*
X159500000Y-68000000D03*
X156500000Y-65000000D03*
X156500000Y-64000000D03*
X156500000Y-61000000D03*
X158500000Y-67000000D03*
X161500000Y-70000000D03*
X161500000Y-69000000D03*
X160500000Y-70000000D03*
X155500000Y-63000000D03*
X159500000Y-67000000D03*
X159500000Y-69000000D03*
X158500000Y-70000000D03*
X156500000Y-67000000D03*
X156500000Y-68000000D03*
X157500000Y-69000000D03*
X155500000Y-61000000D03*
X158500000Y-69000000D03*
X155500000Y-65000000D03*
X156500000Y-63000000D03*
D28*
%TO.N,Net-(D5-DOUT)*%
X179750000Y-53850000D03*
X178700000Y-55700000D03*
%TD*%
D30*
%TO.N,GND*%
X175828422Y-50450000D02*
X176085000Y-50450000D01*
X175825460Y-57550000D02*
X176085000Y-57550000D01*
X175825460Y-54000000D02*
X176085000Y-54000000D01*
X183512500Y-70250000D02*
X183512500Y-67612500D01*
X175275460Y-58100000D02*
X175825460Y-57550000D01*
X183512500Y-67612500D02*
X183200000Y-67300000D01*
X175275460Y-54550000D02*
X175825460Y-54000000D01*
X175275460Y-51002962D02*
X175828422Y-50450000D01*
D31*
%TO.N,+BATT*%
X176900000Y-69000000D02*
X176900000Y-70150000D01*
D30*
X176900000Y-70150000D02*
X176175000Y-70875000D01*
X166175000Y-70875000D02*
X166000000Y-70700000D01*
X176175000Y-70875000D02*
X166175000Y-70875000D01*
D31*
X178600000Y-67300000D02*
X176900000Y-69000000D01*
D30*
%TO.N,+5V*%
X193921814Y-54215686D02*
X194987500Y-53150000D01*
X178400000Y-55100000D02*
X177915000Y-55100000D01*
X178800000Y-54700000D02*
X178400000Y-55100000D01*
X195000000Y-53137500D02*
X193362500Y-51500000D01*
X178336194Y-58650000D02*
X178900000Y-58086194D01*
X193362500Y-51500000D02*
X193350000Y-51000000D01*
X193100000Y-62537500D02*
X193921814Y-61715686D01*
X193921814Y-61715686D02*
X193921814Y-54215686D01*
X193100000Y-62500000D02*
X193100000Y-62537500D01*
D31*
X181025000Y-64575000D02*
X180900000Y-64450000D01*
D32*
X180900000Y-64450000D02*
X180900000Y-61000000D01*
D30*
X193350000Y-51000000D02*
X193362500Y-51000000D01*
X178171578Y-51550000D02*
X177915000Y-51550000D01*
X178724540Y-50997038D02*
X178171578Y-51550000D01*
X193137500Y-62500000D02*
X193137500Y-62500000D01*
X177915000Y-58650000D02*
X178336194Y-58650000D01*
D31*
X181025000Y-64575000D02*
X180900000Y-64700000D01*
D30*
X195000000Y-53150000D02*
X195000000Y-53137500D01*
X193137500Y-62500000D02*
X193100000Y-62500000D01*
X195000000Y-53137500D02*
X195000000Y-53137500D01*
X194987500Y-53150000D02*
X195000000Y-53150000D01*
D32*
X180900000Y-64700000D02*
X180900000Y-67300000D01*
D30*
%TO.N,+3V3*%
X192400000Y-58000000D02*
X192400000Y-57962500D01*
X197150000Y-57550000D02*
X197150000Y-57487500D01*
X197050000Y-53062500D02*
X197050000Y-51087500D01*
X197087500Y-57550000D02*
X197150000Y-57550000D01*
X192425000Y-54900000D02*
X192450000Y-54900000D01*
X197050000Y-57587500D02*
X197087500Y-57550000D01*
X197150000Y-51000000D02*
X197150000Y-50987500D01*
X189900000Y-61137500D02*
X189900000Y-60462500D01*
X197150000Y-57487500D02*
X197137500Y-57500000D01*
X192400000Y-57962500D02*
X192362500Y-58000000D01*
X197137500Y-57500000D02*
X197137500Y-57412500D01*
X197150000Y-50987500D02*
X197137500Y-51000000D01*
X197050000Y-60000000D02*
X197050000Y-57587500D01*
X192450000Y-54875000D02*
X192450000Y-54875000D01*
X192450000Y-54900000D02*
X192450000Y-54875000D01*
X197137500Y-51000000D02*
X197150000Y-51000000D01*
X192362500Y-58000000D02*
X192362500Y-54962500D01*
X197050000Y-51087500D02*
X197137500Y-51000000D01*
X192362500Y-54962500D02*
X192425000Y-54900000D01*
X197137500Y-57412500D02*
X197050000Y-57325000D01*
X192362500Y-58000000D02*
X192400000Y-58000000D01*
X189900000Y-60462500D02*
X192362500Y-58000000D01*
%TO.N,Net-(D1-DIN)*%
X179759620Y-52348350D02*
X179759620Y-52009620D01*
X197375000Y-62500000D02*
X194862500Y-62500000D01*
X191616722Y-63275000D02*
X190341722Y-62000000D01*
X198000000Y-61875000D02*
X197375000Y-62500000D01*
X189411270Y-62000000D02*
X179759620Y-52348350D01*
X190341722Y-62000000D02*
X189411270Y-62000000D01*
X194087500Y-63275000D02*
X191616722Y-63275000D01*
X194862500Y-62500000D02*
X194087500Y-63275000D01*
%TO.N,Net-(D1-DOUT)*%
X177067505Y-53600000D02*
X177000000Y-53532495D01*
X177000000Y-53532495D02*
X177000000Y-51650000D01*
%TO.N,Net-(D3-DOUT)*%
X178465000Y-57000000D02*
X177915000Y-57550000D01*
X178950000Y-57000000D02*
X178465000Y-57000000D01*
%TO.N,Net-(D4-DOUT)*%
X177265000Y-57035000D02*
X178000000Y-56300000D01*
X179494365Y-56094365D02*
X179494365Y-54465372D01*
X179494365Y-54465372D02*
X178973069Y-53944076D01*
X177970924Y-53944076D02*
X177915000Y-54000000D01*
X178000000Y-56300000D02*
X179288730Y-56300000D01*
X179288730Y-56300000D02*
X179494365Y-56094365D01*
X178973069Y-53944076D02*
X177970924Y-53944076D01*
X176635000Y-58650000D02*
X177265000Y-58020000D01*
X177265000Y-58020000D02*
X177265000Y-57035000D01*
X176085000Y-58650000D02*
X176635000Y-58650000D01*
%TO.N,/VSense*%
X200500000Y-66100000D02*
X199850000Y-65450000D01*
X199850000Y-65450000D02*
X199850000Y-65020000D01*
X202550000Y-68150000D02*
X200500000Y-66100000D01*
X202100000Y-67700000D02*
X202550000Y-68150000D01*
X184550000Y-64600000D02*
X184550000Y-69450000D01*
X182550000Y-62600000D02*
X184550000Y-64600000D01*
X188950000Y-68650000D02*
X189900000Y-67700000D01*
X189900000Y-67700000D02*
X202100000Y-67700000D01*
X184800000Y-69700000D02*
X188300000Y-69700000D01*
X184550000Y-69450000D02*
X184800000Y-69700000D01*
X188950000Y-69050000D02*
X188950000Y-68650000D01*
X188300000Y-69700000D02*
X188950000Y-69050000D01*
%TO.N,/ESC2*%
X193800000Y-66075000D02*
X193875000Y-66150000D01*
X193800000Y-64900000D02*
X193800000Y-66075000D01*
%TO.N,/ESC1*%
X196350000Y-66125000D02*
X196375000Y-66150000D01*
X196350000Y-64900000D02*
X196350000Y-66125000D01*
%TO.N,/RX*%
X188525000Y-52850000D02*
X186350000Y-52850000D01*
X190550000Y-54875000D02*
X188525000Y-52850000D01*
X190550000Y-57912500D02*
X190637500Y-58000000D01*
X190550000Y-54875000D02*
X190550000Y-57912500D01*
%TO.N,Net-(Q1-D)*%
X191637500Y-51000000D02*
X191637500Y-52862500D01*
X191637500Y-52862500D02*
X191500000Y-53000000D01*
%TO.N,/TX*%
X198950000Y-53062500D02*
X198950000Y-51087500D01*
X202331864Y-53062500D02*
X202561364Y-52833000D01*
X198950000Y-53062500D02*
X202331864Y-53062500D01*
X198950000Y-51087500D02*
X198862500Y-51000000D01*
%TO.N,Net-(Q2-D)*%
X195000000Y-54862500D02*
X197925000Y-54862500D01*
X197925000Y-54862500D02*
X198000000Y-54937500D01*
%TO.N,/LED*%
X198950000Y-60000000D02*
X198950000Y-57587500D01*
X198950000Y-60000000D02*
X199403000Y-60453000D01*
X199403000Y-60453000D02*
X202561364Y-60453000D01*
X198950000Y-57587500D02*
X198862500Y-57500000D01*
%TO.N,/IR*%
X188100000Y-61500000D02*
X186750000Y-61500000D01*
X188900000Y-63350000D02*
X188900000Y-62300000D01*
X186750000Y-61500000D02*
X186600000Y-61650000D01*
X179715686Y-59400000D02*
X179415686Y-59700000D01*
X188900000Y-62300000D02*
X188100000Y-61500000D01*
X179415686Y-59700000D02*
X178700000Y-59700000D01*
X186600000Y-61650000D02*
X186100000Y-61650000D01*
X183850000Y-59400000D02*
X179715686Y-59400000D01*
X186100000Y-61650000D02*
X183850000Y-59400000D01*
X201900000Y-63700000D02*
X189300000Y-63700000D01*
X189300000Y-63700000D02*
X189275000Y-63725000D01*
X178700000Y-59700000D02*
X178400000Y-60000000D01*
X202550000Y-63050000D02*
X201900000Y-63700000D01*
X189275000Y-63725000D02*
X188900000Y-63350000D01*
%TO.N,Net-(D5-DOUT)*%
X179097038Y-50397038D02*
X177967962Y-50397038D01*
X177967962Y-50397038D02*
X177915000Y-50450000D01*
X179324540Y-51525460D02*
X179324540Y-50624540D01*
X176085000Y-55100000D02*
X176735000Y-55750000D01*
X178650000Y-55750000D02*
X178700000Y-55700000D01*
X178750000Y-52100000D02*
X179324540Y-51525460D01*
X178750000Y-52850000D02*
X178750000Y-52100000D01*
X179750000Y-53850000D02*
X178750000Y-52850000D01*
X179324540Y-50624540D02*
X179097038Y-50397038D01*
X176735000Y-55750000D02*
X178650000Y-55750000D01*
%TD*%
%TA.AperFunction,Conductor*%
%TO.N,GND*%
G36*
X175400000Y-55050000D02*
G01*
X175400000Y-56660120D01*
X175394750Y-56699997D01*
X175394750Y-56699998D01*
X175400000Y-56739874D01*
X175400000Y-70524500D01*
X168674000Y-70524500D01*
X168606961Y-70504815D01*
X168561206Y-70452011D01*
X168550000Y-70400500D01*
X168550000Y-70108784D01*
X168567476Y-70045312D01*
X168602656Y-69986273D01*
X168662080Y-69833980D01*
X168693046Y-69754625D01*
X168693046Y-69754621D01*
X168693050Y-69754614D01*
X168744081Y-69511237D01*
X168750500Y-69407842D01*
X168750500Y-64742158D01*
X168744081Y-64638763D01*
X168693050Y-64395386D01*
X168693048Y-64395381D01*
X168693046Y-64395374D01*
X168602656Y-64163728D01*
X168602656Y-64163727D01*
X168567477Y-64104688D01*
X168550000Y-64041215D01*
X168550000Y-60450003D01*
X168550000Y-60450000D01*
X168550000Y-59450000D01*
X167550000Y-59450000D01*
X167549997Y-59450000D01*
X157774992Y-59450000D01*
X157250000Y-59450000D01*
X157250000Y-59695436D01*
X157185413Y-59736942D01*
X157185409Y-59736946D01*
X157095872Y-59840278D01*
X157095867Y-59840285D01*
X157039070Y-59964654D01*
X157039068Y-59964662D01*
X157019610Y-60100000D01*
X157039068Y-60235341D01*
X157039069Y-60235345D01*
X157050394Y-60260141D01*
X157060338Y-60329300D01*
X157031313Y-60392855D01*
X157013086Y-60410029D01*
X157000451Y-60419724D01*
X156972418Y-60435909D01*
X156875961Y-60475863D01*
X156844694Y-60484241D01*
X156746010Y-60497233D01*
X156733058Y-60498939D01*
X156716874Y-60500000D01*
X151008845Y-60500000D01*
X150996694Y-60499403D01*
X150819866Y-60481991D01*
X150796030Y-60477251D01*
X150631850Y-60427460D01*
X150609398Y-60418163D01*
X150514640Y-60367530D01*
X150469105Y-60343198D01*
X150419255Y-60294243D01*
X150403546Y-60233886D01*
X150401465Y-54951579D01*
X175400000Y-55050000D01*
G37*
%TD.AperFunction*%
%TD*%
%TA.AperFunction,Conductor*%
%TO.N,Net-(J4-Pin_1)*%
G36*
X150563752Y-60673799D02*
G01*
X150721868Y-60721751D01*
X150721874Y-60721752D01*
X150721879Y-60721754D01*
X150746197Y-60727844D01*
X150770033Y-60732584D01*
X150794828Y-60736261D01*
X150794834Y-60736261D01*
X150794837Y-60736262D01*
X150971645Y-60753672D01*
X150971648Y-60753672D01*
X150971656Y-60753673D01*
X150984156Y-60754595D01*
X150996307Y-60755192D01*
X151008845Y-60755500D01*
X151008864Y-60755500D01*
X156716862Y-60755500D01*
X156716874Y-60755500D01*
X156733588Y-60754953D01*
X156749772Y-60753892D01*
X156766424Y-60752251D01*
X156779376Y-60750545D01*
X156779375Y-60750544D01*
X156781044Y-60750324D01*
X156854318Y-60740678D01*
X156923352Y-60751444D01*
X156975607Y-60797825D01*
X156994500Y-60863617D01*
X156994500Y-62786263D01*
X156999454Y-62836328D01*
X156999456Y-62836336D01*
X157008979Y-62883983D01*
X157008986Y-62884015D01*
X157014513Y-62906372D01*
X157060883Y-62994613D01*
X157060886Y-62994618D01*
X157104818Y-63048926D01*
X157104834Y-63048944D01*
X157129035Y-63073930D01*
X157136518Y-63081656D01*
X157223241Y-63130824D01*
X157289577Y-63152764D01*
X157289585Y-63152765D01*
X157289596Y-63152769D01*
X157310353Y-63157632D01*
X157333920Y-63163154D01*
X157433458Y-63157632D01*
X157433461Y-63157631D01*
X157433463Y-63157631D01*
X157501112Y-63140229D01*
X157501110Y-63140229D01*
X157501124Y-63140226D01*
X157568261Y-63112269D01*
X157617508Y-63082922D01*
X157635889Y-63073936D01*
X157808972Y-63006399D01*
X157828574Y-63000562D01*
X158014285Y-62961622D01*
X158032043Y-62959222D01*
X158078911Y-62956313D01*
X158096238Y-62955238D01*
X158103919Y-62955000D01*
X159500000Y-62955000D01*
X159500000Y-63000000D01*
X160993912Y-63000000D01*
X161006043Y-63000595D01*
X161015943Y-63001570D01*
X161048856Y-63009453D01*
X161214094Y-63073930D01*
X161232491Y-63082924D01*
X161392102Y-63178031D01*
X161408771Y-63189932D01*
X161550527Y-63309995D01*
X161565006Y-63324474D01*
X161685070Y-63466233D01*
X161696965Y-63482892D01*
X161792073Y-63642504D01*
X161801066Y-63660900D01*
X161868596Y-63833965D01*
X161874439Y-63853588D01*
X161913374Y-64039278D01*
X161915775Y-64057040D01*
X161919762Y-64121246D01*
X161920000Y-64128931D01*
X161920000Y-69771067D01*
X161919762Y-69778752D01*
X161915775Y-69842958D01*
X161913374Y-69860719D01*
X161874440Y-70046406D01*
X161868596Y-70066035D01*
X161796003Y-70252073D01*
X161794550Y-70255633D01*
X161771148Y-70310517D01*
X161771143Y-70310532D01*
X161753668Y-70373999D01*
X161753666Y-70374009D01*
X161744500Y-70441825D01*
X161744500Y-70486231D01*
X161744809Y-70498804D01*
X161745413Y-70511023D01*
X161746345Y-70523603D01*
X161758006Y-70641432D01*
X161758008Y-70641440D01*
X161758309Y-70644481D01*
X161758309Y-70644484D01*
X161759163Y-70653112D01*
X161763933Y-70701309D01*
X161763938Y-70701347D01*
X161767646Y-70726220D01*
X161772433Y-70750168D01*
X161778588Y-70774617D01*
X161778589Y-70774622D01*
X161828884Y-70939574D01*
X161834860Y-70956187D01*
X161839026Y-71025933D01*
X161814032Y-71076817D01*
X161797422Y-71097056D01*
X161739679Y-71136391D01*
X161701569Y-71142393D01*
X151014064Y-71142393D01*
X151000181Y-71141613D01*
X150975195Y-71138797D01*
X150887588Y-71128927D01*
X150860518Y-71122749D01*
X150760178Y-71087639D01*
X150735160Y-71075591D01*
X150645150Y-71019034D01*
X150623441Y-71001721D01*
X150548278Y-70926558D01*
X150530965Y-70904849D01*
X150474408Y-70814839D01*
X150462360Y-70789821D01*
X150457040Y-70774618D01*
X150427249Y-70689479D01*
X150421072Y-70662410D01*
X150420024Y-70653112D01*
X150408387Y-70549819D01*
X150407607Y-70535936D01*
X150407607Y-70476531D01*
X150407580Y-70476166D01*
X150406801Y-68500000D01*
X150844475Y-68500000D01*
X150864551Y-68793511D01*
X150864552Y-68793513D01*
X150924404Y-69081543D01*
X150924409Y-69081559D01*
X151022927Y-69358762D01*
X151158278Y-69619977D01*
X151158282Y-69619983D01*
X151327932Y-69860323D01*
X151327935Y-69860326D01*
X151520054Y-70066035D01*
X151528743Y-70075338D01*
X151656384Y-70179181D01*
X151756951Y-70260999D01*
X151756953Y-70261000D01*
X151756954Y-70261001D01*
X152008319Y-70413860D01*
X152008324Y-70413862D01*
X152260975Y-70523603D01*
X152278159Y-70531067D01*
X152561445Y-70610440D01*
X152809111Y-70644481D01*
X152852901Y-70650500D01*
X152852902Y-70650500D01*
X153147099Y-70650500D01*
X153190889Y-70644481D01*
X153438555Y-70610440D01*
X153721841Y-70531067D01*
X153991682Y-70413859D01*
X154243049Y-70260999D01*
X154471260Y-70075335D01*
X154672065Y-69860326D01*
X154841722Y-69619976D01*
X154977072Y-69358764D01*
X155075592Y-69081554D01*
X155075592Y-69081549D01*
X155075595Y-69081543D01*
X155108511Y-68923135D01*
X155135448Y-68793511D01*
X155155525Y-68500000D01*
X155135448Y-68206489D01*
X155118089Y-68122955D01*
X155075595Y-67918456D01*
X155075590Y-67918440D01*
X154977072Y-67641237D01*
X154977072Y-67641236D01*
X154841722Y-67380024D01*
X154841721Y-67380022D01*
X154841717Y-67380016D01*
X154672067Y-67139676D01*
X154471256Y-66924661D01*
X154243045Y-66738998D01*
X153991680Y-66586139D01*
X153991675Y-66586137D01*
X153721845Y-66468934D01*
X153438560Y-66389561D01*
X153438556Y-66389560D01*
X153438555Y-66389560D01*
X153292826Y-66369530D01*
X153147099Y-66349500D01*
X153147098Y-66349500D01*
X152852902Y-66349500D01*
X152852901Y-66349500D01*
X152561445Y-66389560D01*
X152561439Y-66389561D01*
X152278154Y-66468934D01*
X152008324Y-66586137D01*
X152008319Y-66586139D01*
X151756954Y-66738998D01*
X151528743Y-66924661D01*
X151327932Y-67139676D01*
X151158282Y-67380016D01*
X151158278Y-67380022D01*
X151022927Y-67641237D01*
X150924409Y-67918440D01*
X150924404Y-67918456D01*
X150864552Y-68206486D01*
X150864551Y-68206488D01*
X150844475Y-68500000D01*
X150406801Y-68500000D01*
X150403765Y-60792508D01*
X150423423Y-60725464D01*
X150476209Y-60679688D01*
X150545364Y-60669717D01*
X150563752Y-60673799D01*
G37*
%TD.AperFunction*%
%TD*%
%TA.AperFunction,Conductor*%
%TO.N,+BATT*%
G36*
X168234214Y-59725185D02*
G01*
X168245828Y-59733637D01*
X168247655Y-59735136D01*
X168264845Y-59752322D01*
X168266347Y-59754153D01*
X168293665Y-59818459D01*
X168294500Y-59832824D01*
X168294500Y-64041218D01*
X168303666Y-64109041D01*
X168321144Y-64172515D01*
X168347987Y-64235473D01*
X168347989Y-64235477D01*
X168367069Y-64267498D01*
X168376062Y-64285893D01*
X168443596Y-64458963D01*
X168449440Y-64478592D01*
X168488374Y-64664278D01*
X168490775Y-64682040D01*
X168494762Y-64746246D01*
X168495000Y-64753931D01*
X168495000Y-69396067D01*
X168494762Y-69403752D01*
X168490775Y-69467958D01*
X168488374Y-69485720D01*
X168449440Y-69671403D01*
X168443597Y-69691029D01*
X168424250Y-69740613D01*
X168424249Y-69740615D01*
X168376065Y-69864100D01*
X168367071Y-69882497D01*
X168347990Y-69914518D01*
X168347986Y-69914526D01*
X168321146Y-69977479D01*
X168321142Y-69977491D01*
X168303668Y-70040955D01*
X168303666Y-70040963D01*
X168294500Y-70108782D01*
X168294500Y-70400502D01*
X168300338Y-70454812D01*
X168311543Y-70506318D01*
X168311546Y-70506327D01*
X168318779Y-70532692D01*
X168318783Y-70532703D01*
X168368105Y-70619318D01*
X168368110Y-70619325D01*
X168368112Y-70619328D01*
X168406817Y-70663995D01*
X168413866Y-70672131D01*
X168413872Y-70672137D01*
X168445218Y-70702385D01*
X168479791Y-70763101D01*
X168476050Y-70832871D01*
X168468613Y-70849803D01*
X168388758Y-71000063D01*
X168375380Y-71020209D01*
X168313000Y-71096739D01*
X168255390Y-71136264D01*
X168216888Y-71142393D01*
X162304625Y-71142393D01*
X162237586Y-71122708D01*
X162209038Y-71097381D01*
X162177933Y-71059736D01*
X162164319Y-71039487D01*
X162082660Y-70887587D01*
X162073273Y-70865045D01*
X162022980Y-70700101D01*
X162018192Y-70676149D01*
X162012567Y-70619318D01*
X162000603Y-70498429D01*
X162000000Y-70486216D01*
X162000000Y-70441829D01*
X162017477Y-70378354D01*
X162027656Y-70361273D01*
X162118050Y-70129614D01*
X162169081Y-69886237D01*
X162175500Y-69782842D01*
X162175500Y-64117158D01*
X162169081Y-64013763D01*
X162118050Y-63770386D01*
X162118048Y-63770381D01*
X162118046Y-63770374D01*
X162027657Y-63538730D01*
X162027656Y-63538727D01*
X161900366Y-63325106D01*
X161900363Y-63325103D01*
X161900360Y-63325097D01*
X161739651Y-63135350D01*
X161739649Y-63135348D01*
X161549902Y-62974639D01*
X161549894Y-62974634D01*
X161336273Y-62847344D01*
X161336271Y-62847343D01*
X161336269Y-62847342D01*
X161104625Y-62756953D01*
X161104615Y-62756950D01*
X160861238Y-62705919D01*
X160861235Y-62705918D01*
X160757850Y-62699500D01*
X160757842Y-62699500D01*
X158092158Y-62699500D01*
X158092149Y-62699500D01*
X157988764Y-62705918D01*
X157988761Y-62705919D01*
X157745384Y-62756950D01*
X157745374Y-62756953D01*
X157513728Y-62847343D01*
X157513727Y-62847343D01*
X157437473Y-62892781D01*
X157369807Y-62910187D01*
X157303471Y-62888247D01*
X157259528Y-62833926D01*
X157250000Y-62786258D01*
X157250000Y-60556007D01*
X157263605Y-60505535D01*
X157261231Y-60504451D01*
X157263723Y-60498995D01*
X157292748Y-60435440D01*
X157307902Y-60392485D01*
X157313237Y-60292937D01*
X157303293Y-60223778D01*
X157301602Y-60218022D01*
X157301602Y-60148154D01*
X157301806Y-60147467D01*
X157322579Y-60078987D01*
X157331871Y-60056556D01*
X157412775Y-59905195D01*
X157426272Y-59884995D01*
X157535152Y-59752326D01*
X157552367Y-59735117D01*
X157553040Y-59734564D01*
X157554198Y-59733616D01*
X157618519Y-59706328D01*
X157632825Y-59705500D01*
X168167175Y-59705500D01*
X168234214Y-59725185D01*
G37*
%TD.AperFunction*%
%TD*%
%TA.AperFunction,Conductor*%
%TO.N,GND*%
G36*
X177371044Y-49922174D02*
G01*
X177392718Y-49974500D01*
X177380246Y-50015614D01*
X177376133Y-50021768D01*
X177364500Y-50080253D01*
X177364500Y-50819746D01*
X177376133Y-50878232D01*
X177379066Y-50882621D01*
X177420448Y-50944552D01*
X177420451Y-50944554D01*
X177423571Y-50947674D01*
X177445245Y-51000000D01*
X177423571Y-51052326D01*
X177420447Y-51055449D01*
X177376133Y-51121767D01*
X177366461Y-51170394D01*
X177334995Y-51217486D01*
X177279446Y-51228535D01*
X177253876Y-51218210D01*
X177210056Y-51190049D01*
X177210053Y-51190047D01*
X177210050Y-51190046D01*
X177071964Y-51149500D01*
X177071961Y-51149500D01*
X176928039Y-51149500D01*
X176928036Y-51149500D01*
X176789949Y-51190046D01*
X176789941Y-51190049D01*
X176746122Y-51218210D01*
X176690385Y-51228266D01*
X176643863Y-51195963D01*
X176633539Y-51170397D01*
X176623867Y-51121769D01*
X176623105Y-51120629D01*
X176609027Y-51099560D01*
X176579552Y-51055448D01*
X176557343Y-51040608D01*
X176513232Y-51011133D01*
X176513233Y-51011133D01*
X176483989Y-51005316D01*
X176454748Y-50999500D01*
X175715252Y-50999500D01*
X175686010Y-51005316D01*
X175656767Y-51011133D01*
X175590449Y-51055447D01*
X175590447Y-51055449D01*
X175546133Y-51121767D01*
X175546133Y-51121769D01*
X175534500Y-51180252D01*
X175534500Y-51919748D01*
X175542255Y-51958736D01*
X175546133Y-51978232D01*
X175546877Y-51979345D01*
X175590448Y-52044552D01*
X175629889Y-52070906D01*
X175656767Y-52088866D01*
X175656768Y-52088866D01*
X175656769Y-52088867D01*
X175715252Y-52100500D01*
X175715254Y-52100500D01*
X176454746Y-52100500D01*
X176454748Y-52100500D01*
X176513231Y-52088867D01*
X176579552Y-52044552D01*
X176579552Y-52044551D01*
X176584387Y-52041321D01*
X176639935Y-52030271D01*
X176687028Y-52061736D01*
X176699500Y-52102849D01*
X176699500Y-53232814D01*
X176681426Y-53281273D01*
X176642129Y-53326624D01*
X176642128Y-53326626D01*
X176582339Y-53457545D01*
X176561858Y-53600000D01*
X176582339Y-53742454D01*
X176582339Y-53742455D01*
X176582340Y-53742457D01*
X176631454Y-53850000D01*
X176642128Y-53873373D01*
X176736373Y-53982139D01*
X176736374Y-53982140D01*
X176736377Y-53982143D01*
X176857452Y-54059953D01*
X176963908Y-54091211D01*
X176995540Y-54100499D01*
X176995542Y-54100500D01*
X176995544Y-54100500D01*
X177139467Y-54100500D01*
X177178817Y-54088945D01*
X177269652Y-54062274D01*
X177325964Y-54068328D01*
X177361502Y-54112427D01*
X177364500Y-54133276D01*
X177364500Y-54369746D01*
X177376133Y-54428232D01*
X177405608Y-54472343D01*
X177420448Y-54494552D01*
X177420451Y-54494554D01*
X177423571Y-54497674D01*
X177445245Y-54550000D01*
X177423571Y-54602326D01*
X177420447Y-54605449D01*
X177376133Y-54671767D01*
X177364500Y-54730253D01*
X177364500Y-55375500D01*
X177342826Y-55427826D01*
X177290500Y-55449500D01*
X176890123Y-55449500D01*
X176837797Y-55427826D01*
X176657174Y-55247203D01*
X176635500Y-55194877D01*
X176635500Y-54730253D01*
X176635500Y-54730252D01*
X176623867Y-54671769D01*
X176579552Y-54605448D01*
X176557343Y-54590608D01*
X176513232Y-54561133D01*
X176513233Y-54561133D01*
X176483989Y-54555316D01*
X176454748Y-54549500D01*
X175715252Y-54549500D01*
X175686010Y-54555316D01*
X175656767Y-54561133D01*
X175590449Y-54605447D01*
X175590447Y-54605449D01*
X175546133Y-54671767D01*
X175546133Y-54671769D01*
X175534500Y-54730252D01*
X175534500Y-55469748D01*
X175539017Y-55492454D01*
X175546133Y-55528232D01*
X175565719Y-55557543D01*
X175590448Y-55594552D01*
X175599350Y-55600500D01*
X175656767Y-55638866D01*
X175656768Y-55638866D01*
X175656769Y-55638867D01*
X175715252Y-55650500D01*
X176179877Y-55650500D01*
X176232203Y-55672174D01*
X176494540Y-55934511D01*
X176550489Y-55990460D01*
X176619011Y-56030021D01*
X176619012Y-56030021D01*
X176619014Y-56030022D01*
X176657224Y-56040260D01*
X176695435Y-56050499D01*
X176695436Y-56050500D01*
X176695438Y-56050500D01*
X177645877Y-56050500D01*
X177698203Y-56072174D01*
X177719877Y-56124500D01*
X177698203Y-56176826D01*
X177024540Y-56850488D01*
X176984979Y-56919009D01*
X176984977Y-56919014D01*
X176964500Y-56995435D01*
X176964500Y-57864876D01*
X176942826Y-57917202D01*
X176693390Y-58166637D01*
X176641064Y-58188311D01*
X176588738Y-58166637D01*
X176579574Y-58155471D01*
X176579554Y-58155451D01*
X176579552Y-58155448D01*
X176540143Y-58129115D01*
X176513232Y-58111133D01*
X176513233Y-58111133D01*
X176483989Y-58105316D01*
X176454748Y-58099500D01*
X175715252Y-58099500D01*
X175686010Y-58105316D01*
X175656767Y-58111133D01*
X175590449Y-58155447D01*
X175590447Y-58155449D01*
X175546133Y-58221767D01*
X175534500Y-58280253D01*
X175534500Y-59019746D01*
X175546133Y-59078232D01*
X175571516Y-59116219D01*
X175590448Y-59144552D01*
X175612879Y-59159540D01*
X175656767Y-59188866D01*
X175656768Y-59188866D01*
X175656769Y-59188867D01*
X175715252Y-59200500D01*
X175715254Y-59200500D01*
X176454746Y-59200500D01*
X176454748Y-59200500D01*
X176513231Y-59188867D01*
X176579552Y-59144552D01*
X176623867Y-59078231D01*
X176635500Y-59019748D01*
X176635500Y-59017748D01*
X176635758Y-59017123D01*
X176635857Y-59016127D01*
X176636159Y-59016156D01*
X176657174Y-58965422D01*
X176690344Y-58946270D01*
X176750989Y-58930021D01*
X176819511Y-58890460D01*
X176875460Y-58834511D01*
X177238174Y-58471797D01*
X177290500Y-58450123D01*
X177342826Y-58471797D01*
X177364500Y-58524123D01*
X177364500Y-59019746D01*
X177376133Y-59078232D01*
X177401516Y-59116219D01*
X177420448Y-59144552D01*
X177442879Y-59159540D01*
X177486767Y-59188866D01*
X177486768Y-59188866D01*
X177486769Y-59188867D01*
X177545252Y-59200500D01*
X177545254Y-59200500D01*
X178284746Y-59200500D01*
X178284748Y-59200500D01*
X178343231Y-59188867D01*
X178409552Y-59144552D01*
X178453867Y-59078231D01*
X178465500Y-59019748D01*
X178465500Y-58965056D01*
X178487174Y-58912730D01*
X178502496Y-58900972D01*
X178520705Y-58890460D01*
X178576654Y-58834511D01*
X178802796Y-58608367D01*
X178855122Y-58586694D01*
X178971963Y-58586694D01*
X178971964Y-58586693D01*
X179110053Y-58546147D01*
X179231128Y-58468337D01*
X179325377Y-58359567D01*
X179385165Y-58228651D01*
X179405647Y-58086194D01*
X179388954Y-57970092D01*
X179402961Y-57915217D01*
X179406242Y-57913269D01*
X179389919Y-57912433D01*
X179354389Y-57876348D01*
X179325377Y-57812821D01*
X179286575Y-57768041D01*
X179231131Y-57704054D01*
X179231129Y-57704053D01*
X179231128Y-57704051D01*
X179110053Y-57626241D01*
X179093699Y-57621439D01*
X179049600Y-57585900D01*
X179043547Y-57529587D01*
X179079086Y-57485488D01*
X179093688Y-57479439D01*
X179160053Y-57459953D01*
X179281128Y-57382143D01*
X179281136Y-57382133D01*
X179285128Y-57378676D01*
X179286330Y-57380063D01*
X179330963Y-57357712D01*
X179384705Y-57375589D01*
X179410066Y-57426231D01*
X179410082Y-57426472D01*
X179414200Y-57486677D01*
X179414203Y-57486697D01*
X179472663Y-57768023D01*
X179472668Y-57768041D01*
X179491428Y-57820825D01*
X179488528Y-57877388D01*
X179472690Y-57891681D01*
X179506547Y-57900323D01*
X179531928Y-57934782D01*
X179568892Y-58038788D01*
X179568894Y-58038794D01*
X179701098Y-58293935D01*
X179701103Y-58293942D01*
X179737476Y-58345471D01*
X179866811Y-58528698D01*
X180062947Y-58738708D01*
X180285853Y-58920055D01*
X180285860Y-58920059D01*
X180285861Y-58920060D01*
X180355277Y-58962273D01*
X180388724Y-59007979D01*
X180380055Y-59063949D01*
X180334349Y-59097396D01*
X180316828Y-59099500D01*
X179676122Y-59099500D01*
X179599700Y-59119977D01*
X179599695Y-59119979D01*
X179557135Y-59144552D01*
X179531174Y-59159540D01*
X179312889Y-59377826D01*
X179260563Y-59399500D01*
X178660436Y-59399500D01*
X178584014Y-59419977D01*
X178584009Y-59419979D01*
X178515488Y-59459540D01*
X178497203Y-59477826D01*
X178444877Y-59499500D01*
X178328036Y-59499500D01*
X178189949Y-59540046D01*
X178189945Y-59540047D01*
X178068875Y-59617855D01*
X178068868Y-59617860D01*
X177974623Y-59726626D01*
X177914834Y-59857545D01*
X177894353Y-60000000D01*
X177914834Y-60142454D01*
X177914834Y-60142455D01*
X177914835Y-60142457D01*
X177919422Y-60152500D01*
X177974623Y-60273373D01*
X178068868Y-60382139D01*
X178068869Y-60382140D01*
X178068872Y-60382143D01*
X178189947Y-60459953D01*
X178296403Y-60491211D01*
X178328035Y-60500499D01*
X178328037Y-60500500D01*
X178328039Y-60500500D01*
X178471963Y-60500500D01*
X178471964Y-60500499D01*
X178610053Y-60459953D01*
X178685495Y-60411469D01*
X178741229Y-60401414D01*
X178787753Y-60433715D01*
X178799500Y-60473723D01*
X178799500Y-61556623D01*
X178805913Y-61627190D01*
X178805913Y-61627191D01*
X178805913Y-61627193D01*
X178805914Y-61627196D01*
X178856522Y-61789606D01*
X178944528Y-61935185D01*
X179064815Y-62055472D01*
X179210394Y-62143478D01*
X179372804Y-62194086D01*
X179443384Y-62200500D01*
X180125500Y-62200500D01*
X180177826Y-62222174D01*
X180199500Y-62274500D01*
X180199500Y-64518993D01*
X180207768Y-64560565D01*
X180207768Y-64589435D01*
X180199500Y-64631006D01*
X180199500Y-66162870D01*
X180177826Y-66215196D01*
X180170549Y-66221577D01*
X180114553Y-66264545D01*
X180114550Y-66264548D01*
X180022302Y-66384766D01*
X179964312Y-66524764D01*
X179964312Y-66524765D01*
X179949500Y-66637281D01*
X179949500Y-67962718D01*
X179964312Y-68075234D01*
X179964312Y-68075235D01*
X179995281Y-68149999D01*
X180022302Y-68215233D01*
X180114549Y-68335451D01*
X180234767Y-68427698D01*
X180374764Y-68485687D01*
X180487280Y-68500500D01*
X180487282Y-68500500D01*
X181312718Y-68500500D01*
X181312720Y-68500500D01*
X181425236Y-68485687D01*
X181565233Y-68427698D01*
X181685451Y-68335451D01*
X181777698Y-68215233D01*
X181835687Y-68075236D01*
X181850500Y-67962720D01*
X181850500Y-67892233D01*
X181872174Y-67839907D01*
X181877288Y-67835787D01*
X181877131Y-67835606D01*
X181881131Y-67832140D01*
X181936829Y-67767860D01*
X181975377Y-67723373D01*
X182035165Y-67592457D01*
X182055647Y-67450000D01*
X182035165Y-67307543D01*
X181975377Y-67176627D01*
X181942945Y-67139198D01*
X181881131Y-67067860D01*
X181877128Y-67064392D01*
X181879041Y-67062183D01*
X181852183Y-67023459D01*
X181850500Y-67007766D01*
X181850500Y-66892233D01*
X181872174Y-66839907D01*
X181877288Y-66835787D01*
X181877131Y-66835606D01*
X181881131Y-66832140D01*
X181926357Y-66779945D01*
X181975377Y-66723373D01*
X182035165Y-66592457D01*
X182055647Y-66450000D01*
X182035165Y-66307543D01*
X181975377Y-66176627D01*
X181940560Y-66136446D01*
X181881131Y-66067860D01*
X181877128Y-66064392D01*
X181878746Y-66062524D01*
X181851207Y-66022876D01*
X181861253Y-65967137D01*
X181883504Y-65944881D01*
X181981128Y-65882143D01*
X182075377Y-65773373D01*
X182135165Y-65642457D01*
X182155647Y-65500000D01*
X182135165Y-65357543D01*
X182075377Y-65226627D01*
X182018213Y-65160656D01*
X181981131Y-65117860D01*
X181981129Y-65117859D01*
X181981128Y-65117857D01*
X181924182Y-65081260D01*
X181860054Y-65040047D01*
X181860050Y-65040046D01*
X181721964Y-64999500D01*
X181721961Y-64999500D01*
X181674500Y-64999500D01*
X181622174Y-64977826D01*
X181600500Y-64925500D01*
X181600500Y-64631009D01*
X181600500Y-64631007D01*
X181592230Y-64589432D01*
X181592230Y-64560565D01*
X181600500Y-64518993D01*
X181600500Y-64016963D01*
X181622174Y-63964637D01*
X181674500Y-63942963D01*
X181764426Y-63942963D01*
X181764427Y-63942962D01*
X181902516Y-63902416D01*
X182023591Y-63824606D01*
X182117840Y-63715836D01*
X182177628Y-63584920D01*
X182198110Y-63442463D01*
X182177628Y-63300006D01*
X182117840Y-63169090D01*
X182086677Y-63133126D01*
X182023594Y-63060323D01*
X182023592Y-63060322D01*
X182023591Y-63060320D01*
X181953798Y-63015467D01*
X181902517Y-62982510D01*
X181902513Y-62982509D01*
X181764427Y-62941963D01*
X181764424Y-62941963D01*
X181674500Y-62941963D01*
X181622174Y-62920289D01*
X181600500Y-62867963D01*
X181600500Y-62274500D01*
X181622174Y-62222174D01*
X181674500Y-62200500D01*
X182071875Y-62200500D01*
X182124201Y-62222174D01*
X182145875Y-62274500D01*
X182127802Y-62322958D01*
X182124624Y-62326625D01*
X182064834Y-62457545D01*
X182044353Y-62600000D01*
X182064834Y-62742454D01*
X182064834Y-62742455D01*
X182064835Y-62742457D01*
X182106962Y-62834702D01*
X182124623Y-62873373D01*
X182218868Y-62982139D01*
X182218869Y-62982140D01*
X182218872Y-62982143D01*
X182339947Y-63059953D01*
X182421402Y-63083870D01*
X182478035Y-63100499D01*
X182478037Y-63100500D01*
X182594877Y-63100500D01*
X182647203Y-63122174D01*
X184227826Y-64702797D01*
X184249500Y-64755123D01*
X184249500Y-69489564D01*
X184269977Y-69565985D01*
X184269979Y-69565990D01*
X184301671Y-69620882D01*
X184309540Y-69634511D01*
X184559540Y-69884511D01*
X184615489Y-69940460D01*
X184684011Y-69980021D01*
X184684012Y-69980021D01*
X184684014Y-69980022D01*
X184722224Y-69990260D01*
X184760435Y-70000499D01*
X184760436Y-70000500D01*
X184760438Y-70000500D01*
X188339564Y-70000500D01*
X188339564Y-70000499D01*
X188415989Y-69980021D01*
X188484511Y-69940460D01*
X188540460Y-69884511D01*
X189190460Y-69234511D01*
X189205872Y-69207816D01*
X189230021Y-69165989D01*
X189250499Y-69089564D01*
X189250500Y-69089564D01*
X189250500Y-68805123D01*
X189272174Y-68752797D01*
X189615431Y-68409540D01*
X189965269Y-68059701D01*
X190017594Y-68038028D01*
X190069920Y-68059702D01*
X190091594Y-68112028D01*
X190087442Y-68136467D01*
X190077355Y-68165295D01*
X190077354Y-68165299D01*
X190077354Y-68165301D01*
X190074500Y-68195734D01*
X190074500Y-70504266D01*
X190077354Y-70534699D01*
X190077354Y-70534701D01*
X190077355Y-70534704D01*
X190122206Y-70662881D01*
X190122207Y-70662883D01*
X190202846Y-70772146D01*
X190202853Y-70772153D01*
X190312116Y-70852792D01*
X190312118Y-70852793D01*
X190440295Y-70897644D01*
X190440301Y-70897646D01*
X190470734Y-70900500D01*
X190470741Y-70900500D01*
X191079258Y-70900500D01*
X191079266Y-70900500D01*
X191109699Y-70897646D01*
X191237882Y-70852793D01*
X191347150Y-70772150D01*
X191427793Y-70662882D01*
X191472646Y-70534699D01*
X191475500Y-70504266D01*
X191475500Y-68195734D01*
X191472646Y-68165301D01*
X191461388Y-68133126D01*
X191449426Y-68098941D01*
X191452601Y-68042393D01*
X191494832Y-68004653D01*
X191519273Y-68000500D01*
X197480727Y-68000500D01*
X197533053Y-68022174D01*
X197554727Y-68074500D01*
X197550574Y-68098941D01*
X197527355Y-68165295D01*
X197527354Y-68165299D01*
X197527354Y-68165301D01*
X197524500Y-68195734D01*
X197524500Y-70504266D01*
X197527354Y-70534699D01*
X197527354Y-70534701D01*
X197527355Y-70534704D01*
X197572206Y-70662881D01*
X197572207Y-70662883D01*
X197652846Y-70772146D01*
X197652853Y-70772153D01*
X197762116Y-70852792D01*
X197762118Y-70852793D01*
X197890295Y-70897644D01*
X197890301Y-70897646D01*
X197920734Y-70900500D01*
X197920741Y-70900500D01*
X198529258Y-70900500D01*
X198529266Y-70900500D01*
X198559699Y-70897646D01*
X198687882Y-70852793D01*
X198797150Y-70772150D01*
X198877793Y-70662882D01*
X198922646Y-70534699D01*
X198925500Y-70504266D01*
X198925500Y-68195734D01*
X198922646Y-68165301D01*
X198911388Y-68133126D01*
X198899426Y-68098941D01*
X198902601Y-68042393D01*
X198944832Y-68004653D01*
X198969273Y-68000500D01*
X201944877Y-68000500D01*
X201997203Y-68022174D01*
X202028301Y-68053272D01*
X202049975Y-68105598D01*
X202049222Y-68116127D01*
X202044353Y-68149998D01*
X202044353Y-68149999D01*
X202064834Y-68292454D01*
X202064834Y-68292455D01*
X202064835Y-68292457D01*
X202084470Y-68335451D01*
X202124623Y-68423373D01*
X202218868Y-68532139D01*
X202218869Y-68532140D01*
X202218872Y-68532143D01*
X202339947Y-68609953D01*
X202431510Y-68636838D01*
X202478035Y-68650499D01*
X202478037Y-68650500D01*
X202478039Y-68650500D01*
X202621963Y-68650500D01*
X202621964Y-68650499D01*
X202760053Y-68609953D01*
X202881128Y-68532143D01*
X202975377Y-68423373D01*
X203035165Y-68292457D01*
X203055647Y-68150000D01*
X203035165Y-68007543D01*
X202975377Y-67876627D01*
X202881128Y-67767857D01*
X202824182Y-67731260D01*
X202760054Y-67690047D01*
X202760050Y-67690046D01*
X202621964Y-67649500D01*
X202621961Y-67649500D01*
X202505123Y-67649500D01*
X202452797Y-67627826D01*
X200172174Y-65347203D01*
X200150500Y-65294877D01*
X200150500Y-65277141D01*
X200159441Y-65247675D01*
X200157451Y-65246851D01*
X200160239Y-65240119D01*
X200160239Y-65240118D01*
X200160240Y-65240117D01*
X200175500Y-65163401D01*
X200175499Y-64876600D01*
X200160240Y-64799883D01*
X200102112Y-64712888D01*
X200015117Y-64654760D01*
X199938401Y-64639500D01*
X199938399Y-64639500D01*
X199761600Y-64639500D01*
X199684882Y-64654760D01*
X199597888Y-64712887D01*
X199597887Y-64712888D01*
X199539760Y-64799882D01*
X199539760Y-64799883D01*
X199526435Y-64866874D01*
X199524500Y-64876600D01*
X199524500Y-65163399D01*
X199539760Y-65240117D01*
X199542549Y-65246850D01*
X199540560Y-65247673D01*
X199549500Y-65277141D01*
X199549500Y-65489564D01*
X199569977Y-65565986D01*
X199604225Y-65625305D01*
X199609540Y-65634511D01*
X201248203Y-67273174D01*
X201269877Y-67325500D01*
X201248203Y-67377826D01*
X201195877Y-67399500D01*
X189860436Y-67399500D01*
X189784014Y-67419977D01*
X189784009Y-67419979D01*
X189732013Y-67450000D01*
X189715488Y-67459540D01*
X188709540Y-68465488D01*
X188669979Y-68534009D01*
X188669977Y-68534014D01*
X188649500Y-68610435D01*
X188649500Y-68894877D01*
X188627826Y-68947203D01*
X188197203Y-69377826D01*
X188144877Y-69399500D01*
X187872736Y-69399500D01*
X187820410Y-69377826D01*
X187798736Y-69325500D01*
X187820410Y-69273174D01*
X187832729Y-69263247D01*
X187848331Y-69253220D01*
X187881128Y-69232143D01*
X187975377Y-69123373D01*
X188035165Y-68992457D01*
X188055647Y-68850000D01*
X188035165Y-68707543D01*
X187975377Y-68576627D01*
X187893507Y-68482143D01*
X187881131Y-68467860D01*
X187881129Y-68467859D01*
X187881128Y-68467857D01*
X187818638Y-68427697D01*
X187760054Y-68390047D01*
X187760050Y-68390046D01*
X187621964Y-68349500D01*
X187621961Y-68349500D01*
X187478039Y-68349500D01*
X187478036Y-68349500D01*
X187339949Y-68390046D01*
X187339945Y-68390047D01*
X187218875Y-68467855D01*
X187218868Y-68467860D01*
X187124623Y-68576626D01*
X187064834Y-68707545D01*
X187044353Y-68850000D01*
X187064834Y-68992454D01*
X187064834Y-68992455D01*
X187064835Y-68992457D01*
X187099349Y-69068032D01*
X187124623Y-69123373D01*
X187218868Y-69232139D01*
X187218870Y-69232140D01*
X187218872Y-69232143D01*
X187218874Y-69232144D01*
X187218875Y-69232145D01*
X187267271Y-69263247D01*
X187299573Y-69309770D01*
X187289517Y-69365507D01*
X187242994Y-69397809D01*
X187227264Y-69399500D01*
X185572736Y-69399500D01*
X185520410Y-69377826D01*
X185498736Y-69325500D01*
X185520410Y-69273174D01*
X185532729Y-69263247D01*
X185548331Y-69253220D01*
X185581128Y-69232143D01*
X185675377Y-69123373D01*
X185735165Y-68992457D01*
X185755647Y-68850000D01*
X185735165Y-68707543D01*
X185675377Y-68576627D01*
X185593507Y-68482143D01*
X185581131Y-68467860D01*
X185581129Y-68467859D01*
X185581128Y-68467857D01*
X185518638Y-68427697D01*
X185460054Y-68390047D01*
X185460050Y-68390046D01*
X185321964Y-68349500D01*
X185321961Y-68349500D01*
X185178039Y-68349500D01*
X185178036Y-68349500D01*
X185039949Y-68390046D01*
X185039945Y-68390047D01*
X184964507Y-68438529D01*
X184908770Y-68448585D01*
X184862247Y-68416283D01*
X184850500Y-68376276D01*
X184850500Y-68100000D01*
X185894353Y-68100000D01*
X185914834Y-68242454D01*
X185914834Y-68242455D01*
X185914835Y-68242457D01*
X185969959Y-68363161D01*
X185974623Y-68373373D01*
X186068868Y-68482139D01*
X186068869Y-68482140D01*
X186068872Y-68482143D01*
X186189947Y-68559953D01*
X186293236Y-68590281D01*
X186328035Y-68600499D01*
X186328037Y-68600500D01*
X186328039Y-68600500D01*
X186471963Y-68600500D01*
X186471964Y-68600499D01*
X186610053Y-68559953D01*
X186731128Y-68482143D01*
X186825377Y-68373373D01*
X186885165Y-68242457D01*
X186905647Y-68100000D01*
X186885165Y-67957543D01*
X186825377Y-67826627D01*
X186731128Y-67717857D01*
X186662454Y-67673723D01*
X186610054Y-67640047D01*
X186610050Y-67640046D01*
X186471964Y-67599500D01*
X186471961Y-67599500D01*
X186328039Y-67599500D01*
X186328036Y-67599500D01*
X186189949Y-67640046D01*
X186189945Y-67640047D01*
X186068875Y-67717855D01*
X186068868Y-67717860D01*
X185974623Y-67826626D01*
X185914834Y-67957545D01*
X185894353Y-68100000D01*
X184850500Y-68100000D01*
X184850500Y-67673723D01*
X184872174Y-67621397D01*
X184924500Y-67599723D01*
X184964503Y-67611468D01*
X185039947Y-67659953D01*
X185122209Y-67684107D01*
X185178035Y-67700499D01*
X185178037Y-67700500D01*
X185178039Y-67700500D01*
X185321963Y-67700500D01*
X185321964Y-67700499D01*
X185460053Y-67659953D01*
X185581128Y-67582143D01*
X185675377Y-67473373D01*
X185735165Y-67342457D01*
X185755647Y-67200000D01*
X187044353Y-67200000D01*
X187064834Y-67342454D01*
X187064834Y-67342455D01*
X187064835Y-67342457D01*
X187080988Y-67377826D01*
X187124623Y-67473373D01*
X187218868Y-67582139D01*
X187218869Y-67582140D01*
X187218872Y-67582143D01*
X187303979Y-67636838D01*
X187324940Y-67650309D01*
X187339947Y-67659953D01*
X187422209Y-67684107D01*
X187478035Y-67700499D01*
X187478037Y-67700500D01*
X187478039Y-67700500D01*
X187621963Y-67700500D01*
X187621964Y-67700499D01*
X187760053Y-67659953D01*
X187881128Y-67582143D01*
X187975377Y-67473373D01*
X188035165Y-67342457D01*
X188055647Y-67200000D01*
X188035165Y-67057543D01*
X187975377Y-66926627D01*
X187910562Y-66851826D01*
X187881131Y-66817860D01*
X187881129Y-66817859D01*
X187881128Y-66817857D01*
X187800877Y-66766283D01*
X187760054Y-66740047D01*
X187760050Y-66740046D01*
X187621964Y-66699500D01*
X187621961Y-66699500D01*
X187478039Y-66699500D01*
X187478036Y-66699500D01*
X187339949Y-66740046D01*
X187339945Y-66740047D01*
X187218875Y-66817855D01*
X187218868Y-66817860D01*
X187124623Y-66926626D01*
X187064834Y-67057545D01*
X187044353Y-67200000D01*
X185755647Y-67200000D01*
X185735165Y-67057543D01*
X185675377Y-66926627D01*
X185610562Y-66851826D01*
X185581131Y-66817860D01*
X185581129Y-66817859D01*
X185581128Y-66817857D01*
X185500877Y-66766283D01*
X185460054Y-66740047D01*
X185460050Y-66740046D01*
X185321964Y-66699500D01*
X185321961Y-66699500D01*
X185178039Y-66699500D01*
X185178036Y-66699500D01*
X185039949Y-66740046D01*
X185039945Y-66740047D01*
X184964507Y-66788529D01*
X184908770Y-66798585D01*
X184862247Y-66766283D01*
X184850500Y-66726276D01*
X184850500Y-64900000D01*
X193294353Y-64900000D01*
X193314834Y-65042454D01*
X193314834Y-65042455D01*
X193314835Y-65042457D01*
X193370069Y-65163401D01*
X193374624Y-65173375D01*
X193374626Y-65173377D01*
X193403605Y-65206821D01*
X193421491Y-65260560D01*
X193414162Y-65287780D01*
X193384427Y-65348607D01*
X193374500Y-65416735D01*
X193374500Y-66883264D01*
X193384427Y-66951393D01*
X193384427Y-66951394D01*
X193435801Y-67056482D01*
X193435802Y-67056483D01*
X193518517Y-67139198D01*
X193623607Y-67190573D01*
X193691740Y-67200500D01*
X193691746Y-67200500D01*
X194058254Y-67200500D01*
X194058260Y-67200500D01*
X194126393Y-67190573D01*
X194231483Y-67139198D01*
X194314198Y-67056483D01*
X194365573Y-66951393D01*
X194375500Y-66883260D01*
X194375500Y-65416740D01*
X194365573Y-65348607D01*
X194314198Y-65243517D01*
X194267562Y-65196881D01*
X194245888Y-65144555D01*
X194252575Y-65113817D01*
X194285165Y-65042457D01*
X194305647Y-64900000D01*
X195844353Y-64900000D01*
X195864834Y-65042454D01*
X195864834Y-65042455D01*
X195864835Y-65042457D01*
X195924623Y-65173373D01*
X195924624Y-65173374D01*
X195924625Y-65173376D01*
X195927484Y-65177825D01*
X195924842Y-65179522D01*
X195939524Y-65223709D01*
X195932196Y-65250891D01*
X195884428Y-65348604D01*
X195884427Y-65348606D01*
X195874500Y-65416735D01*
X195874500Y-66883264D01*
X195884427Y-66951393D01*
X195884427Y-66951394D01*
X195935801Y-67056482D01*
X195935802Y-67056483D01*
X196018517Y-67139198D01*
X196123607Y-67190573D01*
X196191740Y-67200500D01*
X196191746Y-67200500D01*
X196558254Y-67200500D01*
X196558260Y-67200500D01*
X196626393Y-67190573D01*
X196731483Y-67139198D01*
X196814198Y-67056483D01*
X196865573Y-66951393D01*
X196875500Y-66883260D01*
X196875500Y-65416740D01*
X196865573Y-65348607D01*
X196814198Y-65243517D01*
X196801887Y-65231206D01*
X196780213Y-65178880D01*
X196786901Y-65148139D01*
X196800732Y-65117855D01*
X196835165Y-65042457D01*
X196855647Y-64900000D01*
X196835165Y-64757543D01*
X196775377Y-64626627D01*
X196725613Y-64569196D01*
X196681131Y-64517860D01*
X196681129Y-64517859D01*
X196681128Y-64517857D01*
X196624182Y-64481260D01*
X196560054Y-64440047D01*
X196560050Y-64440046D01*
X196421964Y-64399500D01*
X196421961Y-64399500D01*
X196278039Y-64399500D01*
X196278036Y-64399500D01*
X196139949Y-64440046D01*
X196139945Y-64440047D01*
X196018875Y-64517855D01*
X196018868Y-64517860D01*
X195924623Y-64626626D01*
X195864834Y-64757545D01*
X195844353Y-64900000D01*
X194305647Y-64900000D01*
X194285165Y-64757543D01*
X194225377Y-64626627D01*
X194175613Y-64569196D01*
X194131131Y-64517860D01*
X194131129Y-64517859D01*
X194131128Y-64517857D01*
X194074182Y-64481260D01*
X194010054Y-64440047D01*
X194010050Y-64440046D01*
X193871964Y-64399500D01*
X193871961Y-64399500D01*
X193728039Y-64399500D01*
X193728036Y-64399500D01*
X193589949Y-64440046D01*
X193589945Y-64440047D01*
X193468875Y-64517855D01*
X193468868Y-64517860D01*
X193374623Y-64626626D01*
X193314834Y-64757545D01*
X193294353Y-64900000D01*
X184850500Y-64900000D01*
X184850500Y-64560436D01*
X184850499Y-64560435D01*
X184830022Y-64484014D01*
X184830020Y-64484009D01*
X184790459Y-64415488D01*
X184074971Y-63700000D01*
X184744353Y-63700000D01*
X184764834Y-63842454D01*
X184764834Y-63842455D01*
X184764835Y-63842457D01*
X184809592Y-63940459D01*
X184824623Y-63973373D01*
X184918868Y-64082139D01*
X184918869Y-64082140D01*
X184918872Y-64082143D01*
X185039947Y-64159953D01*
X185146403Y-64191211D01*
X185178035Y-64200499D01*
X185178037Y-64200500D01*
X185178039Y-64200500D01*
X185321963Y-64200500D01*
X185321964Y-64200499D01*
X185460053Y-64159953D01*
X185581128Y-64082143D01*
X185675377Y-63973373D01*
X185735165Y-63842457D01*
X185755647Y-63700000D01*
X186994353Y-63700000D01*
X187014834Y-63842454D01*
X187014834Y-63842455D01*
X187014835Y-63842457D01*
X187059592Y-63940459D01*
X187074623Y-63973373D01*
X187168868Y-64082139D01*
X187168869Y-64082140D01*
X187168872Y-64082143D01*
X187289947Y-64159953D01*
X187396403Y-64191211D01*
X187428035Y-64200499D01*
X187428037Y-64200500D01*
X187428039Y-64200500D01*
X187571963Y-64200500D01*
X187571964Y-64200499D01*
X187710053Y-64159953D01*
X187831128Y-64082143D01*
X187925377Y-63973373D01*
X187985165Y-63842457D01*
X188005647Y-63700000D01*
X187985165Y-63557543D01*
X187925377Y-63426627D01*
X187862671Y-63354260D01*
X187831131Y-63317860D01*
X187831129Y-63317859D01*
X187831128Y-63317857D01*
X187774182Y-63281260D01*
X187710054Y-63240047D01*
X187710050Y-63240046D01*
X187571964Y-63199500D01*
X187571961Y-63199500D01*
X187428039Y-63199500D01*
X187428036Y-63199500D01*
X187289949Y-63240046D01*
X187289945Y-63240047D01*
X187168875Y-63317855D01*
X187168868Y-63317860D01*
X187074623Y-63426626D01*
X187014834Y-63557545D01*
X186994353Y-63700000D01*
X185755647Y-63700000D01*
X185735165Y-63557543D01*
X185675377Y-63426627D01*
X185612671Y-63354260D01*
X185581131Y-63317860D01*
X185581129Y-63317859D01*
X185581128Y-63317857D01*
X185524182Y-63281260D01*
X185460054Y-63240047D01*
X185460050Y-63240046D01*
X185321964Y-63199500D01*
X185321961Y-63199500D01*
X185178039Y-63199500D01*
X185178036Y-63199500D01*
X185039949Y-63240046D01*
X185039945Y-63240047D01*
X184918875Y-63317855D01*
X184918868Y-63317860D01*
X184824623Y-63426626D01*
X184764834Y-63557545D01*
X184744353Y-63700000D01*
X184074971Y-63700000D01*
X183374971Y-63000000D01*
X185894353Y-63000000D01*
X185914834Y-63142454D01*
X185914834Y-63142455D01*
X185914835Y-63142457D01*
X185965419Y-63253220D01*
X185974623Y-63273373D01*
X186068868Y-63382139D01*
X186068869Y-63382140D01*
X186068872Y-63382143D01*
X186189947Y-63459953D01*
X186296403Y-63491211D01*
X186328035Y-63500499D01*
X186328037Y-63500500D01*
X186328039Y-63500500D01*
X186471963Y-63500500D01*
X186471964Y-63500499D01*
X186610053Y-63459953D01*
X186731128Y-63382143D01*
X186825377Y-63273373D01*
X186885165Y-63142457D01*
X186905647Y-63000000D01*
X186885165Y-62857543D01*
X186825377Y-62726627D01*
X186774451Y-62667855D01*
X186731131Y-62617860D01*
X186731129Y-62617859D01*
X186731128Y-62617857D01*
X186674182Y-62581260D01*
X186610054Y-62540047D01*
X186610050Y-62540046D01*
X186471964Y-62499500D01*
X186471961Y-62499500D01*
X186328039Y-62499500D01*
X186328036Y-62499500D01*
X186189949Y-62540046D01*
X186189945Y-62540047D01*
X186068875Y-62617855D01*
X186068868Y-62617860D01*
X185974623Y-62726626D01*
X185914834Y-62857545D01*
X185894353Y-63000000D01*
X183374971Y-63000000D01*
X183071697Y-62696726D01*
X183050023Y-62644400D01*
X183050777Y-62633866D01*
X183055647Y-62600002D01*
X183055647Y-62600001D01*
X183055647Y-62600000D01*
X183035165Y-62457543D01*
X182975377Y-62326627D01*
X182952305Y-62300000D01*
X184744353Y-62300000D01*
X184764834Y-62442454D01*
X184764834Y-62442455D01*
X184764835Y-62442457D01*
X184820294Y-62563893D01*
X184824623Y-62573373D01*
X184918868Y-62682139D01*
X184918869Y-62682140D01*
X184918872Y-62682143D01*
X184988089Y-62726626D01*
X185033338Y-62755706D01*
X185039947Y-62759953D01*
X185108297Y-62780022D01*
X185178035Y-62800499D01*
X185178037Y-62800500D01*
X185178039Y-62800500D01*
X185321963Y-62800500D01*
X185321964Y-62800499D01*
X185460053Y-62759953D01*
X185581128Y-62682143D01*
X185675377Y-62573373D01*
X185735165Y-62442457D01*
X185755647Y-62300000D01*
X185735165Y-62157543D01*
X185675377Y-62026627D01*
X185591668Y-61930021D01*
X185581131Y-61917860D01*
X185581129Y-61917859D01*
X185581128Y-61917857D01*
X185513663Y-61874500D01*
X185460054Y-61840047D01*
X185460050Y-61840046D01*
X185321964Y-61799500D01*
X185321961Y-61799500D01*
X185178039Y-61799500D01*
X185178036Y-61799500D01*
X185039949Y-61840046D01*
X185039945Y-61840047D01*
X184918875Y-61917855D01*
X184918868Y-61917860D01*
X184824623Y-62026626D01*
X184764834Y-62157545D01*
X184744353Y-62300000D01*
X182952305Y-62300000D01*
X182930209Y-62274500D01*
X182881131Y-62217860D01*
X182881129Y-62217859D01*
X182881128Y-62217857D01*
X182770677Y-62146874D01*
X182738376Y-62100353D01*
X182748432Y-62044616D01*
X182758354Y-62032302D01*
X182855472Y-61935185D01*
X182943478Y-61789606D01*
X182994086Y-61627196D01*
X183000500Y-61556616D01*
X183000500Y-60443384D01*
X182994086Y-60372804D01*
X182943478Y-60210394D01*
X182855472Y-60064815D01*
X182735185Y-59944528D01*
X182602368Y-59864237D01*
X182573340Y-59831651D01*
X182561277Y-59805238D01*
X182559259Y-59748637D01*
X182597853Y-59707186D01*
X182628592Y-59700500D01*
X183694877Y-59700500D01*
X183747203Y-59722174D01*
X185915489Y-61890460D01*
X185915491Y-61890461D01*
X185915492Y-61890462D01*
X185932354Y-61900197D01*
X185984012Y-61930022D01*
X186060438Y-61950500D01*
X186060440Y-61950500D01*
X186639564Y-61950500D01*
X186639564Y-61950499D01*
X186715989Y-61930021D01*
X186784511Y-61890460D01*
X186840460Y-61834511D01*
X186852797Y-61822174D01*
X186905123Y-61800500D01*
X187158525Y-61800500D01*
X187210851Y-61822174D01*
X187232525Y-61874500D01*
X187214451Y-61922959D01*
X187124623Y-62026626D01*
X187064834Y-62157545D01*
X187044353Y-62300000D01*
X187064834Y-62442454D01*
X187064834Y-62442455D01*
X187064835Y-62442457D01*
X187120294Y-62563893D01*
X187124623Y-62573373D01*
X187218868Y-62682139D01*
X187218869Y-62682140D01*
X187218872Y-62682143D01*
X187288089Y-62726626D01*
X187333338Y-62755706D01*
X187339947Y-62759953D01*
X187408297Y-62780022D01*
X187478035Y-62800499D01*
X187478037Y-62800500D01*
X187478039Y-62800500D01*
X187621963Y-62800500D01*
X187621964Y-62800499D01*
X187760053Y-62759953D01*
X187881128Y-62682143D01*
X187975377Y-62573373D01*
X188035165Y-62442457D01*
X188055647Y-62300000D01*
X188035165Y-62157543D01*
X187975377Y-62026627D01*
X187885549Y-61922959D01*
X187867664Y-61869221D01*
X187893016Y-61818574D01*
X187941475Y-61800500D01*
X187944877Y-61800500D01*
X187997203Y-61822174D01*
X188577826Y-62402797D01*
X188599500Y-62455123D01*
X188599500Y-63389564D01*
X188619977Y-63465985D01*
X188619979Y-63465990D01*
X188649671Y-63517418D01*
X188659540Y-63534511D01*
X189090489Y-63965460D01*
X189159012Y-64005021D01*
X189235435Y-64025499D01*
X189235436Y-64025500D01*
X189235438Y-64025500D01*
X189314564Y-64025500D01*
X189314564Y-64025499D01*
X189358854Y-64013631D01*
X189395673Y-64003766D01*
X189395902Y-64004621D01*
X189416622Y-64000500D01*
X201939564Y-64000500D01*
X201939564Y-64000499D01*
X202015989Y-63980021D01*
X202084511Y-63940460D01*
X202140460Y-63884511D01*
X202452796Y-63572173D01*
X202505122Y-63550500D01*
X202621963Y-63550500D01*
X202621964Y-63550499D01*
X202760053Y-63509953D01*
X202881128Y-63432143D01*
X202975377Y-63323373D01*
X203035165Y-63192457D01*
X203055647Y-63050000D01*
X203035165Y-62907543D01*
X202975377Y-62776627D01*
X202893507Y-62682143D01*
X202881131Y-62667860D01*
X202881129Y-62667859D01*
X202881128Y-62667857D01*
X202803331Y-62617860D01*
X202760054Y-62590047D01*
X202760050Y-62590046D01*
X202621964Y-62549500D01*
X202621961Y-62549500D01*
X202478039Y-62549500D01*
X202478036Y-62549500D01*
X202339949Y-62590046D01*
X202339945Y-62590047D01*
X202218875Y-62667855D01*
X202218868Y-62667860D01*
X202124623Y-62776626D01*
X202064834Y-62907545D01*
X202044353Y-63050000D01*
X202049222Y-63083870D01*
X202035214Y-63138748D01*
X202028301Y-63146726D01*
X201797203Y-63377826D01*
X201744877Y-63399500D01*
X194566623Y-63399500D01*
X194514297Y-63377826D01*
X194492623Y-63325500D01*
X194514297Y-63273174D01*
X194590297Y-63197174D01*
X194642623Y-63175500D01*
X195215249Y-63175500D01*
X195215256Y-63175500D01*
X195244849Y-63172725D01*
X195341949Y-63138748D01*
X195369473Y-63129117D01*
X195369473Y-63129116D01*
X195369475Y-63129116D01*
X195475711Y-63050711D01*
X195554116Y-62944475D01*
X195587154Y-62850059D01*
X195624894Y-62807828D01*
X195657001Y-62800500D01*
X197414564Y-62800500D01*
X197414564Y-62800499D01*
X197490989Y-62780021D01*
X197556469Y-62742215D01*
X197612621Y-62734823D01*
X197637693Y-62749298D01*
X197638525Y-62748134D01*
X197643517Y-62751698D01*
X197748607Y-62803073D01*
X197816740Y-62813000D01*
X197816746Y-62813000D01*
X198183254Y-62813000D01*
X198183260Y-62813000D01*
X198251393Y-62803073D01*
X198356483Y-62751698D01*
X198439198Y-62668983D01*
X198490573Y-62563893D01*
X198500500Y-62495760D01*
X198500500Y-61254240D01*
X198490573Y-61186107D01*
X198439198Y-61081017D01*
X198356483Y-60998302D01*
X198356482Y-60998301D01*
X198251394Y-60946927D01*
X198183264Y-60937000D01*
X198183260Y-60937000D01*
X197816740Y-60937000D01*
X197816735Y-60937000D01*
X197748606Y-60946927D01*
X197748605Y-60946927D01*
X197643517Y-60998301D01*
X197560801Y-61081017D01*
X197509427Y-61186105D01*
X197509427Y-61186106D01*
X197499500Y-61254235D01*
X197499500Y-61919877D01*
X197477826Y-61972203D01*
X197272203Y-62177826D01*
X197219877Y-62199500D01*
X195657001Y-62199500D01*
X195604675Y-62177826D01*
X195587154Y-62149941D01*
X195569802Y-62100353D01*
X195554116Y-62055525D01*
X195475711Y-61949289D01*
X195403990Y-61896357D01*
X195369473Y-61870882D01*
X195244854Y-61827276D01*
X195244855Y-61827276D01*
X195244850Y-61827275D01*
X195244849Y-61827275D01*
X195215256Y-61824500D01*
X194509744Y-61824500D01*
X194480151Y-61827275D01*
X194480149Y-61827275D01*
X194480145Y-61827276D01*
X194355527Y-61870882D01*
X194321010Y-61896357D01*
X194266038Y-61909989D01*
X194217527Y-61880758D01*
X194203895Y-61825786D01*
X194205590Y-61817663D01*
X194222314Y-61755248D01*
X194222314Y-61676124D01*
X194222314Y-57209744D01*
X196399500Y-57209744D01*
X196399500Y-57790256D01*
X196402275Y-57819849D01*
X196402275Y-57819851D01*
X196402276Y-57819854D01*
X196445882Y-57944473D01*
X196486962Y-58000135D01*
X196524289Y-58050711D01*
X196630525Y-58129116D01*
X196699942Y-58153406D01*
X196742171Y-58191144D01*
X196749500Y-58223252D01*
X196749500Y-59049739D01*
X196727826Y-59102065D01*
X196708003Y-59116219D01*
X196693517Y-59123301D01*
X196610801Y-59206017D01*
X196559427Y-59311105D01*
X196559427Y-59311106D01*
X196549500Y-59379235D01*
X196549500Y-60558907D01*
X196548747Y-60569437D01*
X196544353Y-60599999D01*
X196564834Y-60742454D01*
X196564834Y-60742455D01*
X196564835Y-60742457D01*
X196607162Y-60835139D01*
X196624623Y-60873373D01*
X196718868Y-60982139D01*
X196718869Y-60982140D01*
X196718872Y-60982143D01*
X196839947Y-61059953D01*
X196946403Y-61091211D01*
X196978035Y-61100499D01*
X196978037Y-61100500D01*
X196978039Y-61100500D01*
X197121963Y-61100500D01*
X197121964Y-61100499D01*
X197260053Y-61059953D01*
X197381128Y-60982143D01*
X197475377Y-60873373D01*
X197535165Y-60742457D01*
X197555647Y-60600000D01*
X197551253Y-60569437D01*
X197550500Y-60558907D01*
X197550500Y-59379246D01*
X197550500Y-59379240D01*
X197540573Y-59311107D01*
X197489198Y-59206017D01*
X197406483Y-59123302D01*
X197406482Y-59123301D01*
X197391997Y-59116219D01*
X197354509Y-59073764D01*
X197350500Y-59049739D01*
X197350500Y-58249500D01*
X197372174Y-58197174D01*
X197424500Y-58175500D01*
X197490249Y-58175500D01*
X197490256Y-58175500D01*
X197519849Y-58172725D01*
X197580297Y-58151573D01*
X197644473Y-58129117D01*
X197644473Y-58129116D01*
X197644475Y-58129116D01*
X197750711Y-58050711D01*
X197829116Y-57944475D01*
X197829375Y-57943737D01*
X197872723Y-57819854D01*
X197872722Y-57819854D01*
X197872725Y-57819849D01*
X197875500Y-57790256D01*
X197875500Y-57209744D01*
X198124500Y-57209744D01*
X198124500Y-57790256D01*
X198127275Y-57819849D01*
X198127275Y-57819851D01*
X198127276Y-57819854D01*
X198170882Y-57944473D01*
X198211962Y-58000135D01*
X198249289Y-58050711D01*
X198316074Y-58100000D01*
X198355526Y-58129117D01*
X198480145Y-58172723D01*
X198480151Y-58172725D01*
X198509744Y-58175500D01*
X198575500Y-58175500D01*
X198627826Y-58197174D01*
X198649500Y-58249500D01*
X198649500Y-59049739D01*
X198627826Y-59102065D01*
X198608003Y-59116219D01*
X198593517Y-59123301D01*
X198510801Y-59206017D01*
X198459427Y-59311105D01*
X198459427Y-59311106D01*
X198449500Y-59379235D01*
X198449500Y-60620764D01*
X198459427Y-60688893D01*
X198459427Y-60688894D01*
X198510801Y-60793982D01*
X198510802Y-60793983D01*
X198593517Y-60876698D01*
X198698607Y-60928073D01*
X198766740Y-60938000D01*
X198766746Y-60938000D01*
X199133254Y-60938000D01*
X199133260Y-60938000D01*
X199201393Y-60928073D01*
X199306483Y-60876698D01*
X199389198Y-60793983D01*
X199389199Y-60793979D01*
X199392760Y-60788994D01*
X199394276Y-60790076D01*
X199431154Y-60757510D01*
X199455182Y-60753500D01*
X202125697Y-60753500D01*
X202178023Y-60775174D01*
X202181623Y-60779041D01*
X202230232Y-60835139D01*
X202230235Y-60835142D01*
X202230236Y-60835143D01*
X202351311Y-60912953D01*
X202457767Y-60944211D01*
X202489399Y-60953499D01*
X202489401Y-60953500D01*
X202489403Y-60953500D01*
X202633327Y-60953500D01*
X202633328Y-60953499D01*
X202771417Y-60912953D01*
X202892492Y-60835143D01*
X202986741Y-60726373D01*
X203046529Y-60595457D01*
X203067011Y-60453000D01*
X203046529Y-60310543D01*
X202986741Y-60179627D01*
X202933220Y-60117860D01*
X202892495Y-60070860D01*
X202892493Y-60070859D01*
X202892492Y-60070857D01*
X202835546Y-60034260D01*
X202771418Y-59993047D01*
X202771414Y-59993046D01*
X202633328Y-59952500D01*
X202633325Y-59952500D01*
X202489403Y-59952500D01*
X202489400Y-59952500D01*
X202351313Y-59993046D01*
X202351309Y-59993047D01*
X202230235Y-60070857D01*
X202230232Y-60070860D01*
X202181623Y-60126959D01*
X202130976Y-60152311D01*
X202125697Y-60152500D01*
X199558123Y-60152500D01*
X199505797Y-60130826D01*
X199472174Y-60097203D01*
X199450500Y-60044877D01*
X199450500Y-59379246D01*
X199450500Y-59379240D01*
X199440573Y-59311107D01*
X199389198Y-59206017D01*
X199306483Y-59123302D01*
X199306482Y-59123301D01*
X199291997Y-59116219D01*
X199254509Y-59073764D01*
X199250500Y-59049739D01*
X199250500Y-58223252D01*
X199272174Y-58170926D01*
X199300055Y-58153406D01*
X199369475Y-58129116D01*
X199475711Y-58050711D01*
X199554116Y-57944475D01*
X199554375Y-57943737D01*
X199597723Y-57819854D01*
X199597722Y-57819854D01*
X199597725Y-57819849D01*
X199600500Y-57790256D01*
X199600500Y-57209744D01*
X199597725Y-57180151D01*
X199563430Y-57082142D01*
X199554117Y-57055526D01*
X199493484Y-56973371D01*
X199475711Y-56949289D01*
X199425135Y-56911962D01*
X199369473Y-56870882D01*
X199244854Y-56827276D01*
X199244855Y-56827276D01*
X199244850Y-56827275D01*
X199244849Y-56827275D01*
X199215256Y-56824500D01*
X198509744Y-56824500D01*
X198480151Y-56827275D01*
X198480149Y-56827275D01*
X198480145Y-56827276D01*
X198355526Y-56870882D01*
X198249290Y-56949288D01*
X198249288Y-56949290D01*
X198170882Y-57055526D01*
X198127276Y-57180145D01*
X198127275Y-57180149D01*
X198127275Y-57180151D01*
X198124500Y-57209744D01*
X197875500Y-57209744D01*
X197872725Y-57180151D01*
X197838430Y-57082142D01*
X197829117Y-57055526D01*
X197768484Y-56973371D01*
X197750711Y-56949289D01*
X197700135Y-56911962D01*
X197644473Y-56870882D01*
X197519854Y-56827276D01*
X197519855Y-56827276D01*
X197519850Y-56827275D01*
X197519849Y-56827275D01*
X197490256Y-56824500D01*
X196784744Y-56824500D01*
X196755151Y-56827275D01*
X196755149Y-56827275D01*
X196755145Y-56827276D01*
X196630526Y-56870882D01*
X196524290Y-56949288D01*
X196524288Y-56949290D01*
X196445882Y-57055526D01*
X196402276Y-57180145D01*
X196402275Y-57180149D01*
X196402275Y-57180151D01*
X196399500Y-57209744D01*
X194222314Y-57209744D01*
X194222314Y-55380420D01*
X194243988Y-55328094D01*
X194296314Y-55306420D01*
X194348640Y-55328094D01*
X194366161Y-55355979D01*
X194370882Y-55369473D01*
X194411962Y-55425135D01*
X194449289Y-55475711D01*
X194520452Y-55528231D01*
X194555526Y-55554117D01*
X194680145Y-55597723D01*
X194680151Y-55597725D01*
X194709744Y-55600500D01*
X194709751Y-55600500D01*
X195290249Y-55600500D01*
X195290256Y-55600500D01*
X195319849Y-55597725D01*
X195376532Y-55577890D01*
X195444473Y-55554117D01*
X195444473Y-55554116D01*
X195444475Y-55554116D01*
X195550711Y-55475711D01*
X195629116Y-55369475D01*
X195642706Y-55330639D01*
X195672723Y-55244854D01*
X195672722Y-55244854D01*
X195672725Y-55244849D01*
X195674108Y-55230090D01*
X195700572Y-55180018D01*
X195747785Y-55163000D01*
X197425500Y-55163000D01*
X197477826Y-55184674D01*
X197499500Y-55237000D01*
X197499500Y-55558264D01*
X197509427Y-55626393D01*
X197509427Y-55626394D01*
X197560801Y-55731482D01*
X197560802Y-55731483D01*
X197643517Y-55814198D01*
X197748607Y-55865573D01*
X197816740Y-55875500D01*
X197816746Y-55875500D01*
X198183254Y-55875500D01*
X198183260Y-55875500D01*
X198251393Y-55865573D01*
X198356483Y-55814198D01*
X198439198Y-55731483D01*
X198490573Y-55626393D01*
X198500500Y-55558260D01*
X198500500Y-54316740D01*
X198490573Y-54248607D01*
X198439198Y-54143517D01*
X198356483Y-54060802D01*
X198356482Y-54060801D01*
X198251394Y-54009427D01*
X198183264Y-53999500D01*
X198183260Y-53999500D01*
X197816740Y-53999500D01*
X197816735Y-53999500D01*
X197748606Y-54009427D01*
X197748605Y-54009427D01*
X197643517Y-54060801D01*
X197560801Y-54143517D01*
X197509427Y-54248605D01*
X197509427Y-54248606D01*
X197499500Y-54316735D01*
X197499500Y-54488000D01*
X197477826Y-54540326D01*
X197425500Y-54562000D01*
X195747785Y-54562000D01*
X195695459Y-54540326D01*
X195674108Y-54494910D01*
X195672725Y-54480151D01*
X195654558Y-54428232D01*
X195629117Y-54355526D01*
X195600488Y-54316735D01*
X195550711Y-54249289D01*
X195465102Y-54186107D01*
X195444473Y-54170882D01*
X195319854Y-54127276D01*
X195319855Y-54127276D01*
X195319850Y-54127275D01*
X195319849Y-54127275D01*
X195290256Y-54124500D01*
X194709744Y-54124500D01*
X194693303Y-54126041D01*
X194680147Y-54127275D01*
X194609366Y-54152043D01*
X194552818Y-54148866D01*
X194515078Y-54106635D01*
X194518255Y-54050087D01*
X194532596Y-54029873D01*
X194665296Y-53897173D01*
X194717622Y-53875500D01*
X195290249Y-53875500D01*
X195290256Y-53875500D01*
X195319849Y-53872725D01*
X195419018Y-53838024D01*
X195444473Y-53829117D01*
X195444473Y-53829116D01*
X195444475Y-53829116D01*
X195550711Y-53750711D01*
X195629116Y-53644475D01*
X195631461Y-53637775D01*
X195672723Y-53519854D01*
X195672722Y-53519854D01*
X195672725Y-53519849D01*
X195675500Y-53490256D01*
X195675500Y-52784744D01*
X195672725Y-52755151D01*
X195669944Y-52747203D01*
X195629117Y-52630526D01*
X195585866Y-52571923D01*
X195550711Y-52524289D01*
X195476569Y-52469570D01*
X195444473Y-52445882D01*
X195319854Y-52402276D01*
X195319855Y-52402276D01*
X195319850Y-52402275D01*
X195319849Y-52402275D01*
X195290256Y-52399500D01*
X194717623Y-52399500D01*
X194665297Y-52377826D01*
X193957385Y-51669914D01*
X193935711Y-51617588D01*
X193957385Y-51565262D01*
X193965769Y-51558047D01*
X193975711Y-51550711D01*
X193976482Y-51549667D01*
X194042693Y-51459953D01*
X194054116Y-51444475D01*
X194097725Y-51319849D01*
X194100500Y-51290256D01*
X194100500Y-50709744D01*
X196399500Y-50709744D01*
X196399500Y-51290256D01*
X196402275Y-51319849D01*
X196402275Y-51319851D01*
X196402276Y-51319854D01*
X196445882Y-51444473D01*
X196455121Y-51456991D01*
X196524289Y-51550711D01*
X196630525Y-51629116D01*
X196699942Y-51653406D01*
X196742171Y-51691144D01*
X196749500Y-51723252D01*
X196749500Y-52057766D01*
X196727826Y-52110092D01*
X196722715Y-52114211D01*
X196722872Y-52114392D01*
X196718868Y-52117860D01*
X196624623Y-52226626D01*
X196564835Y-52357542D01*
X196563344Y-52362622D01*
X196562614Y-52362407D01*
X196560878Y-52368038D01*
X196561124Y-52368114D01*
X196559428Y-52373603D01*
X196559428Y-52373604D01*
X196559427Y-52373607D01*
X196557032Y-52390046D01*
X196549500Y-52441737D01*
X196549500Y-52458907D01*
X196548747Y-52469437D01*
X196544652Y-52497919D01*
X196544353Y-52500000D01*
X196548354Y-52527826D01*
X196548747Y-52530560D01*
X196549500Y-52541091D01*
X196549500Y-53683264D01*
X196559427Y-53751393D01*
X196559427Y-53751394D01*
X196610801Y-53856482D01*
X196610802Y-53856483D01*
X196693517Y-53939198D01*
X196798607Y-53990573D01*
X196866740Y-54000500D01*
X196866746Y-54000500D01*
X197233254Y-54000500D01*
X197233260Y-54000500D01*
X197301393Y-53990573D01*
X197406483Y-53939198D01*
X197489198Y-53856483D01*
X197540573Y-53751393D01*
X197550500Y-53683260D01*
X197550500Y-52541091D01*
X197551253Y-52530560D01*
X197551646Y-52527826D01*
X197555647Y-52500000D01*
X197552065Y-52475089D01*
X197551253Y-52469437D01*
X197550500Y-52458907D01*
X197550500Y-52441746D01*
X197550500Y-52441740D01*
X197540573Y-52373607D01*
X197540572Y-52373604D01*
X197538876Y-52368115D01*
X197539128Y-52368037D01*
X197537396Y-52362407D01*
X197536657Y-52362625D01*
X197535165Y-52357545D01*
X197535165Y-52357543D01*
X197475377Y-52226627D01*
X197433865Y-52178719D01*
X197381131Y-52117860D01*
X197377128Y-52114392D01*
X197379041Y-52112183D01*
X197352183Y-52073459D01*
X197350500Y-52057766D01*
X197350500Y-51749500D01*
X197372174Y-51697174D01*
X197424500Y-51675500D01*
X197490249Y-51675500D01*
X197490256Y-51675500D01*
X197519849Y-51672725D01*
X197597856Y-51645429D01*
X197644473Y-51629117D01*
X197644473Y-51629116D01*
X197644475Y-51629116D01*
X197750711Y-51550711D01*
X197829116Y-51444475D01*
X197832390Y-51435120D01*
X197872723Y-51319854D01*
X197872722Y-51319854D01*
X197872725Y-51319849D01*
X197875500Y-51290256D01*
X197875500Y-50709744D01*
X198124500Y-50709744D01*
X198124500Y-51290256D01*
X198127275Y-51319849D01*
X198127275Y-51319851D01*
X198127276Y-51319854D01*
X198170882Y-51444473D01*
X198180121Y-51456991D01*
X198249289Y-51550711D01*
X198277509Y-51571538D01*
X198355526Y-51629117D01*
X198480145Y-51672723D01*
X198480151Y-51672725D01*
X198509744Y-51675500D01*
X198575500Y-51675500D01*
X198627826Y-51697174D01*
X198649500Y-51749500D01*
X198649500Y-52112239D01*
X198627826Y-52164565D01*
X198608003Y-52178719D01*
X198593517Y-52185801D01*
X198510801Y-52268517D01*
X198459427Y-52373605D01*
X198459427Y-52373606D01*
X198449500Y-52441735D01*
X198449500Y-53683264D01*
X198459427Y-53751393D01*
X198459427Y-53751394D01*
X198510801Y-53856482D01*
X198510802Y-53856483D01*
X198593517Y-53939198D01*
X198698607Y-53990573D01*
X198766740Y-54000500D01*
X198766746Y-54000500D01*
X199133254Y-54000500D01*
X199133260Y-54000500D01*
X199201393Y-53990573D01*
X199306483Y-53939198D01*
X199389198Y-53856483D01*
X199440573Y-53751393D01*
X199450500Y-53683260D01*
X199450500Y-53437000D01*
X199472174Y-53384674D01*
X199524500Y-53363000D01*
X202371428Y-53363000D01*
X202371428Y-53362999D01*
X202447853Y-53342521D01*
X202447857Y-53342518D01*
X202452336Y-53340664D01*
X202452923Y-53342082D01*
X202484111Y-53336074D01*
X202484111Y-53333500D01*
X202633327Y-53333500D01*
X202633328Y-53333499D01*
X202650510Y-53328454D01*
X202771417Y-53292953D01*
X202892492Y-53215143D01*
X202986741Y-53106373D01*
X203046529Y-52975457D01*
X203067011Y-52833000D01*
X203046529Y-52690543D01*
X202986741Y-52559627D01*
X202963178Y-52532434D01*
X202892495Y-52450860D01*
X202892493Y-52450859D01*
X202892492Y-52450857D01*
X202835546Y-52414260D01*
X202771418Y-52373047D01*
X202771414Y-52373046D01*
X202633328Y-52332500D01*
X202633325Y-52332500D01*
X202489403Y-52332500D01*
X202489400Y-52332500D01*
X202351313Y-52373046D01*
X202351309Y-52373047D01*
X202230239Y-52450855D01*
X202230232Y-52450860D01*
X202135987Y-52559626D01*
X202076198Y-52690544D01*
X202075050Y-52698533D01*
X202046148Y-52747241D01*
X202001803Y-52762000D01*
X199524500Y-52762000D01*
X199472174Y-52740326D01*
X199450500Y-52688000D01*
X199450500Y-52441746D01*
X199450500Y-52441740D01*
X199440573Y-52373607D01*
X199389198Y-52268517D01*
X199306483Y-52185802D01*
X199306482Y-52185801D01*
X199291997Y-52178719D01*
X199254509Y-52136264D01*
X199250500Y-52112239D01*
X199250500Y-51723252D01*
X199272174Y-51670926D01*
X199300055Y-51653406D01*
X199369475Y-51629116D01*
X199475711Y-51550711D01*
X199554116Y-51444475D01*
X199557390Y-51435120D01*
X199597723Y-51319854D01*
X199597722Y-51319854D01*
X199597725Y-51319849D01*
X199600500Y-51290256D01*
X199600500Y-50709744D01*
X199597725Y-50680151D01*
X199580399Y-50630637D01*
X199554117Y-50555526D01*
X199512768Y-50499500D01*
X199475711Y-50449289D01*
X199408249Y-50399500D01*
X199369473Y-50370882D01*
X199244854Y-50327276D01*
X199244855Y-50327276D01*
X199244850Y-50327275D01*
X199244849Y-50327275D01*
X199215256Y-50324500D01*
X198509744Y-50324500D01*
X198480151Y-50327275D01*
X198480149Y-50327275D01*
X198480145Y-50327276D01*
X198355526Y-50370882D01*
X198249290Y-50449288D01*
X198249288Y-50449290D01*
X198170882Y-50555526D01*
X198127276Y-50680145D01*
X198127275Y-50680149D01*
X198127275Y-50680151D01*
X198124500Y-50709744D01*
X197875500Y-50709744D01*
X197872725Y-50680151D01*
X197855399Y-50630637D01*
X197829117Y-50555526D01*
X197787768Y-50499500D01*
X197750711Y-50449289D01*
X197683249Y-50399500D01*
X197644473Y-50370882D01*
X197519854Y-50327276D01*
X197519855Y-50327276D01*
X197519850Y-50327275D01*
X197519849Y-50327275D01*
X197490256Y-50324500D01*
X196784744Y-50324500D01*
X196755151Y-50327275D01*
X196755149Y-50327275D01*
X196755145Y-50327276D01*
X196630526Y-50370882D01*
X196524290Y-50449288D01*
X196524288Y-50449290D01*
X196445882Y-50555526D01*
X196402276Y-50680145D01*
X196402275Y-50680149D01*
X196402275Y-50680151D01*
X196399500Y-50709744D01*
X194100500Y-50709744D01*
X194097725Y-50680151D01*
X194080399Y-50630637D01*
X194054117Y-50555526D01*
X194012768Y-50499500D01*
X193975711Y-50449289D01*
X193908249Y-50399500D01*
X193869473Y-50370882D01*
X193744854Y-50327276D01*
X193744855Y-50327276D01*
X193744850Y-50327275D01*
X193744849Y-50327275D01*
X193715256Y-50324500D01*
X193009744Y-50324500D01*
X192980151Y-50327275D01*
X192980149Y-50327275D01*
X192980145Y-50327276D01*
X192855526Y-50370882D01*
X192749290Y-50449288D01*
X192749288Y-50449290D01*
X192670882Y-50555526D01*
X192627276Y-50680145D01*
X192627275Y-50680149D01*
X192627275Y-50680151D01*
X192624500Y-50709744D01*
X192624500Y-51290256D01*
X192627275Y-51319849D01*
X192627275Y-51319851D01*
X192627276Y-51319854D01*
X192670882Y-51444473D01*
X192680121Y-51456991D01*
X192749289Y-51550711D01*
X192777509Y-51571538D01*
X192855526Y-51629117D01*
X192980145Y-51672723D01*
X192980151Y-51672725D01*
X193009744Y-51675500D01*
X193081422Y-51675500D01*
X193132422Y-51695881D01*
X193152039Y-51714541D01*
X193153322Y-51715793D01*
X194302826Y-52865297D01*
X194324500Y-52917623D01*
X194324500Y-53357377D01*
X194302826Y-53409703D01*
X193681354Y-54031174D01*
X193641793Y-54099695D01*
X193641791Y-54099700D01*
X193621314Y-54176121D01*
X193621314Y-61560563D01*
X193599640Y-61612889D01*
X193409703Y-61802826D01*
X193357377Y-61824500D01*
X192784744Y-61824500D01*
X192755151Y-61827275D01*
X192755149Y-61827275D01*
X192755145Y-61827276D01*
X192630526Y-61870882D01*
X192524290Y-61949288D01*
X192524288Y-61949290D01*
X192445882Y-62055526D01*
X192402276Y-62180145D01*
X192402275Y-62180149D01*
X192402275Y-62180151D01*
X192399500Y-62209744D01*
X192399500Y-62790256D01*
X192402275Y-62819849D01*
X192402275Y-62819851D01*
X192402276Y-62819854D01*
X192421943Y-62876059D01*
X192418768Y-62932607D01*
X192376537Y-62970347D01*
X192352096Y-62974500D01*
X191771845Y-62974500D01*
X191719519Y-62952826D01*
X190524060Y-61757367D01*
X190502386Y-61705041D01*
X190516846Y-61661099D01*
X190529116Y-61644475D01*
X190572725Y-61519849D01*
X190575500Y-61490256D01*
X190575500Y-60784744D01*
X190572725Y-60755151D01*
X190562655Y-60726373D01*
X190529117Y-60630526D01*
X190484031Y-60569437D01*
X190450711Y-60524289D01*
X190411998Y-60495718D01*
X190382769Y-60447208D01*
X190396402Y-60392236D01*
X190403609Y-60383860D01*
X192090297Y-58697174D01*
X192142623Y-58675500D01*
X192715249Y-58675500D01*
X192715256Y-58675500D01*
X192744849Y-58672725D01*
X192815631Y-58647957D01*
X192869473Y-58629117D01*
X192869473Y-58629116D01*
X192869475Y-58629116D01*
X192975711Y-58550711D01*
X193054116Y-58444475D01*
X193063815Y-58416759D01*
X193088759Y-58345471D01*
X193097725Y-58319849D01*
X193100500Y-58290256D01*
X193100500Y-57709744D01*
X193097725Y-57680151D01*
X193095912Y-57674970D01*
X193054117Y-57555526D01*
X193003304Y-57486677D01*
X192975711Y-57449289D01*
X192884731Y-57382143D01*
X192869473Y-57370882D01*
X192744854Y-57327276D01*
X192744855Y-57327276D01*
X192744850Y-57327275D01*
X192744849Y-57327275D01*
X192730087Y-57325890D01*
X192680016Y-57299424D01*
X192663000Y-57252214D01*
X192663000Y-55868035D01*
X192684674Y-55815709D01*
X192704500Y-55801554D01*
X192750500Y-55779066D01*
X192806483Y-55751698D01*
X192889198Y-55668983D01*
X192940573Y-55563893D01*
X192950500Y-55495760D01*
X192950500Y-54941091D01*
X192951253Y-54930560D01*
X192955647Y-54900000D01*
X192951253Y-54869437D01*
X192950500Y-54858907D01*
X192950500Y-54254246D01*
X192950500Y-54254240D01*
X192940573Y-54186107D01*
X192889198Y-54081017D01*
X192806483Y-53998302D01*
X192806482Y-53998301D01*
X192701394Y-53946927D01*
X192633264Y-53937000D01*
X192633260Y-53937000D01*
X192266740Y-53937000D01*
X192266735Y-53937000D01*
X192198606Y-53946927D01*
X192198605Y-53946927D01*
X192093517Y-53998301D01*
X192010801Y-54081017D01*
X191959427Y-54186105D01*
X191959427Y-54186106D01*
X191949500Y-54254235D01*
X191949500Y-54858907D01*
X191948747Y-54869437D01*
X191944353Y-54899999D01*
X191948747Y-54930560D01*
X191949500Y-54941091D01*
X191949500Y-55495764D01*
X191959427Y-55563893D01*
X191959427Y-55563894D01*
X192010801Y-55668982D01*
X192040326Y-55698507D01*
X192062000Y-55750833D01*
X192062000Y-57252214D01*
X192040326Y-57304540D01*
X191994912Y-57325890D01*
X191980151Y-57327275D01*
X191980149Y-57327275D01*
X191980144Y-57327276D01*
X191855526Y-57370882D01*
X191749290Y-57449288D01*
X191749288Y-57449290D01*
X191670882Y-57555526D01*
X191627276Y-57680145D01*
X191624500Y-57709749D01*
X191624500Y-58282376D01*
X191602826Y-58334702D01*
X191470130Y-58467397D01*
X191417804Y-58489071D01*
X191365478Y-58467397D01*
X191343804Y-58415071D01*
X191347956Y-58390633D01*
X191367528Y-58334702D01*
X191372724Y-58319853D01*
X191372724Y-58319851D01*
X191372725Y-58319849D01*
X191375500Y-58290256D01*
X191375500Y-57709744D01*
X191372725Y-57680151D01*
X191370912Y-57674970D01*
X191329117Y-57555526D01*
X191278304Y-57486677D01*
X191250711Y-57449289D01*
X191159731Y-57382143D01*
X191144473Y-57370882D01*
X191019854Y-57327276D01*
X191019855Y-57327276D01*
X191019850Y-57327275D01*
X191019849Y-57327275D01*
X190990256Y-57324500D01*
X190990250Y-57324500D01*
X190924500Y-57324500D01*
X190872174Y-57302826D01*
X190850500Y-57250500D01*
X190850500Y-55825259D01*
X190872174Y-55772933D01*
X190891997Y-55758779D01*
X190906483Y-55751698D01*
X190989198Y-55668983D01*
X191040573Y-55563893D01*
X191050500Y-55495760D01*
X191050500Y-54254240D01*
X191040573Y-54186107D01*
X190989198Y-54081017D01*
X190906483Y-53998302D01*
X190906482Y-53998301D01*
X190801394Y-53946927D01*
X190733264Y-53937000D01*
X190733260Y-53937000D01*
X190366740Y-53937000D01*
X190366735Y-53937000D01*
X190298606Y-53946927D01*
X190298605Y-53946927D01*
X190193518Y-53998301D01*
X190188952Y-54001561D01*
X190133771Y-54014323D01*
X190093630Y-53993659D01*
X188709511Y-52609540D01*
X188673605Y-52588810D01*
X188640990Y-52569979D01*
X188640985Y-52569977D01*
X188564564Y-52549500D01*
X188564562Y-52549500D01*
X186785667Y-52549500D01*
X186733341Y-52527826D01*
X186729741Y-52523959D01*
X186681131Y-52467860D01*
X186681128Y-52467857D01*
X186560054Y-52390047D01*
X186560050Y-52390046D01*
X186421964Y-52349500D01*
X186421961Y-52349500D01*
X186278039Y-52349500D01*
X186278036Y-52349500D01*
X186139949Y-52390046D01*
X186139945Y-52390047D01*
X186018875Y-52467855D01*
X186018868Y-52467860D01*
X185924623Y-52576626D01*
X185864834Y-52707545D01*
X185844353Y-52850000D01*
X185864834Y-52992454D01*
X185864834Y-52992455D01*
X185864835Y-52992457D01*
X185916859Y-53106373D01*
X185924623Y-53123373D01*
X186018868Y-53232139D01*
X186018869Y-53232140D01*
X186018872Y-53232143D01*
X186139947Y-53309953D01*
X186220142Y-53333500D01*
X186278035Y-53350499D01*
X186278037Y-53350500D01*
X186278039Y-53350500D01*
X186421963Y-53350500D01*
X186421964Y-53350499D01*
X186422611Y-53350309D01*
X186560053Y-53309953D01*
X186681128Y-53232143D01*
X186729741Y-53176041D01*
X186780388Y-53150689D01*
X186785667Y-53150500D01*
X188369877Y-53150500D01*
X188422203Y-53172174D01*
X190027826Y-54777797D01*
X190049500Y-54830123D01*
X190049500Y-55495764D01*
X190059427Y-55563893D01*
X190059427Y-55563894D01*
X190110801Y-55668982D01*
X190110802Y-55668983D01*
X190193517Y-55751698D01*
X190208000Y-55758778D01*
X190245490Y-55801230D01*
X190249500Y-55825259D01*
X190249500Y-57276746D01*
X190227826Y-57329072D01*
X190199941Y-57346593D01*
X190130526Y-57370882D01*
X190024290Y-57449288D01*
X190024288Y-57449290D01*
X189945882Y-57555526D01*
X189902276Y-57680145D01*
X189902275Y-57680149D01*
X189902275Y-57680151D01*
X189899500Y-57709744D01*
X189899500Y-58290256D01*
X189902275Y-58319849D01*
X189902275Y-58319851D01*
X189902276Y-58319854D01*
X189945882Y-58444473D01*
X189966048Y-58471797D01*
X190024289Y-58550711D01*
X190073045Y-58586694D01*
X190130526Y-58629117D01*
X190255145Y-58672723D01*
X190255151Y-58672725D01*
X190284744Y-58675500D01*
X190284751Y-58675500D01*
X190990249Y-58675500D01*
X190990256Y-58675500D01*
X191019849Y-58672725D01*
X191019851Y-58672724D01*
X191019853Y-58672724D01*
X191052082Y-58661446D01*
X191090630Y-58647957D01*
X191147177Y-58651132D01*
X191184918Y-58693362D01*
X191181743Y-58749910D01*
X191167397Y-58770130D01*
X189715489Y-60222040D01*
X189659540Y-60277988D01*
X189619979Y-60346509D01*
X189619977Y-60346515D01*
X189617732Y-60354893D01*
X189583251Y-60399824D01*
X189570696Y-60405583D01*
X189455526Y-60445883D01*
X189349290Y-60524288D01*
X189349288Y-60524290D01*
X189270882Y-60630526D01*
X189227276Y-60755145D01*
X189227275Y-60755149D01*
X189227275Y-60755151D01*
X189225398Y-60775174D01*
X189224500Y-60784749D01*
X189224500Y-61209607D01*
X189202826Y-61261933D01*
X189150500Y-61283607D01*
X189098174Y-61261933D01*
X186497687Y-58661446D01*
X186476013Y-58609120D01*
X186497687Y-58556794D01*
X186550013Y-58535120D01*
X186606583Y-58535120D01*
X186606584Y-58535119D01*
X186744673Y-58494573D01*
X186865748Y-58416763D01*
X186959997Y-58307993D01*
X187019785Y-58177077D01*
X187040267Y-58034620D01*
X187019785Y-57892163D01*
X186959997Y-57761247D01*
X186913228Y-57707272D01*
X186865751Y-57652480D01*
X186865749Y-57652479D01*
X186865748Y-57652477D01*
X186794608Y-57606758D01*
X186744674Y-57574667D01*
X186744670Y-57574666D01*
X186606584Y-57534120D01*
X186606581Y-57534120D01*
X186462659Y-57534120D01*
X186462656Y-57534120D01*
X186324569Y-57574666D01*
X186324565Y-57574667D01*
X186203495Y-57652475D01*
X186203488Y-57652480D01*
X186109243Y-57761246D01*
X186049454Y-57892165D01*
X186030136Y-58026527D01*
X186001235Y-58075236D01*
X185946358Y-58089243D01*
X185904563Y-58068322D01*
X183186241Y-55350000D01*
X185894353Y-55350000D01*
X185914834Y-55492454D01*
X185914834Y-55492455D01*
X185914835Y-55492457D01*
X185947459Y-55563893D01*
X185974623Y-55623373D01*
X186068868Y-55732139D01*
X186068869Y-55732140D01*
X186068872Y-55732143D01*
X186132343Y-55772933D01*
X186176373Y-55801230D01*
X186189947Y-55809953D01*
X186274038Y-55834644D01*
X186328035Y-55850499D01*
X186328037Y-55850500D01*
X186328039Y-55850500D01*
X186471963Y-55850500D01*
X186471964Y-55850499D01*
X186610053Y-55809953D01*
X186731128Y-55732143D01*
X186825377Y-55623373D01*
X186885165Y-55492457D01*
X186905647Y-55350000D01*
X186885165Y-55207543D01*
X186825377Y-55076627D01*
X186731128Y-54967857D01*
X186673093Y-54930560D01*
X186610054Y-54890047D01*
X186610050Y-54890046D01*
X186471964Y-54849500D01*
X186471961Y-54849500D01*
X186328039Y-54849500D01*
X186328036Y-54849500D01*
X186189949Y-54890046D01*
X186189945Y-54890047D01*
X186068875Y-54967855D01*
X186068868Y-54967860D01*
X185974623Y-55076626D01*
X185914834Y-55207545D01*
X185894353Y-55350000D01*
X183186241Y-55350000D01*
X180200710Y-52364469D01*
X180179036Y-52312143D01*
X180185722Y-52281404D01*
X180244785Y-52152077D01*
X180265267Y-52009620D01*
X180244785Y-51867163D01*
X180184997Y-51736247D01*
X180131494Y-51674501D01*
X180090751Y-51627480D01*
X180090749Y-51627479D01*
X180090748Y-51627477D01*
X180003705Y-51571538D01*
X179969674Y-51549667D01*
X179969670Y-51549666D01*
X179831584Y-51509120D01*
X179831581Y-51509120D01*
X179699040Y-51509120D01*
X179646714Y-51487446D01*
X179625040Y-51435120D01*
X179625040Y-50709744D01*
X190899500Y-50709744D01*
X190899500Y-51290256D01*
X190902275Y-51319849D01*
X190902275Y-51319851D01*
X190902276Y-51319854D01*
X190945882Y-51444473D01*
X190955121Y-51456991D01*
X191024289Y-51550711D01*
X191052509Y-51571538D01*
X191130526Y-51629117D01*
X191255145Y-51672723D01*
X191255151Y-51672725D01*
X191269909Y-51674108D01*
X191319982Y-51700572D01*
X191337000Y-51747785D01*
X191337000Y-51995048D01*
X191315326Y-52047374D01*
X191273671Y-52068275D01*
X191248605Y-52071927D01*
X191143517Y-52123301D01*
X191060801Y-52206017D01*
X191009427Y-52311105D01*
X191009427Y-52311106D01*
X190999500Y-52379235D01*
X190999500Y-53620764D01*
X191009427Y-53688893D01*
X191009427Y-53688894D01*
X191060801Y-53793982D01*
X191060802Y-53793983D01*
X191143517Y-53876698D01*
X191248607Y-53928073D01*
X191316740Y-53938000D01*
X191316746Y-53938000D01*
X191683254Y-53938000D01*
X191683260Y-53938000D01*
X191751393Y-53928073D01*
X191856483Y-53876698D01*
X191939198Y-53793983D01*
X191990573Y-53688893D01*
X192000500Y-53620760D01*
X192000500Y-52379240D01*
X191990573Y-52311107D01*
X191945519Y-52218946D01*
X191938000Y-52186446D01*
X191938000Y-51747785D01*
X191959674Y-51695459D01*
X192005089Y-51674108D01*
X192019849Y-51672725D01*
X192097856Y-51645429D01*
X192144473Y-51629117D01*
X192144473Y-51629116D01*
X192144475Y-51629116D01*
X192250711Y-51550711D01*
X192329116Y-51444475D01*
X192332390Y-51435120D01*
X192372723Y-51319854D01*
X192372722Y-51319854D01*
X192372725Y-51319849D01*
X192375500Y-51290256D01*
X192375500Y-50709744D01*
X192372725Y-50680151D01*
X192355399Y-50630637D01*
X192329117Y-50555526D01*
X192287768Y-50499500D01*
X192250711Y-50449289D01*
X192183249Y-50399500D01*
X192144473Y-50370882D01*
X192019854Y-50327276D01*
X192019855Y-50327276D01*
X192019850Y-50327275D01*
X192019849Y-50327275D01*
X191990256Y-50324500D01*
X191284744Y-50324500D01*
X191255151Y-50327275D01*
X191255149Y-50327275D01*
X191255145Y-50327276D01*
X191130526Y-50370882D01*
X191024290Y-50449288D01*
X191024288Y-50449290D01*
X190945882Y-50555526D01*
X190902276Y-50680145D01*
X190902275Y-50680149D01*
X190902275Y-50680151D01*
X190899500Y-50709744D01*
X179625040Y-50709744D01*
X179625040Y-50584976D01*
X179625039Y-50584975D01*
X179604562Y-50508554D01*
X179604560Y-50508549D01*
X179579548Y-50465227D01*
X179565000Y-50440029D01*
X179509051Y-50384080D01*
X179281549Y-50156578D01*
X179281139Y-50156341D01*
X179213028Y-50117017D01*
X179213023Y-50117015D01*
X179136602Y-50096538D01*
X179136600Y-50096538D01*
X178529469Y-50096538D01*
X178477143Y-50074864D01*
X178456891Y-50036973D01*
X178453867Y-50021769D01*
X178449754Y-50015614D01*
X178438703Y-49960065D01*
X178470168Y-49912972D01*
X178511282Y-49900500D01*
X201292417Y-49900500D01*
X201347917Y-49900500D01*
X201352065Y-49900615D01*
X201636914Y-49916612D01*
X201645150Y-49917541D01*
X201924345Y-49964978D01*
X201932428Y-49966823D01*
X202204578Y-50045227D01*
X202212390Y-50047961D01*
X202474053Y-50156345D01*
X202481503Y-50159932D01*
X202729388Y-50296934D01*
X202736394Y-50301336D01*
X202967388Y-50465235D01*
X202973856Y-50470394D01*
X203069119Y-50555526D01*
X203185025Y-50659107D01*
X203190892Y-50664974D01*
X203230906Y-50709749D01*
X203379603Y-50876141D01*
X203384766Y-50882613D01*
X203507398Y-51055447D01*
X203548661Y-51113602D01*
X203553068Y-51120616D01*
X203690063Y-51368489D01*
X203693657Y-51375953D01*
X203797841Y-51627477D01*
X203802033Y-51637596D01*
X203804774Y-51645429D01*
X203883175Y-51917567D01*
X203885021Y-51925657D01*
X203932457Y-52204843D01*
X203933387Y-52213090D01*
X203949383Y-52497919D01*
X203949499Y-52502097D01*
X203942417Y-70480013D01*
X203942393Y-70480357D01*
X203942393Y-70538738D01*
X203941928Y-70547023D01*
X203928296Y-70668015D01*
X203924608Y-70684171D01*
X203885779Y-70795136D01*
X203878590Y-70810065D01*
X203816039Y-70909616D01*
X203805707Y-70922572D01*
X203722572Y-71005707D01*
X203709616Y-71016039D01*
X203610065Y-71078590D01*
X203595136Y-71085779D01*
X203510314Y-71115460D01*
X203484169Y-71124608D01*
X203468015Y-71128296D01*
X203347023Y-71141928D01*
X203338738Y-71142393D01*
X176511230Y-71142393D01*
X176458904Y-71120719D01*
X176437230Y-71068393D01*
X176458904Y-71016067D01*
X176802796Y-70672174D01*
X176855122Y-70650500D01*
X176971963Y-70650500D01*
X176971964Y-70650499D01*
X177110053Y-70609953D01*
X177231128Y-70532143D01*
X177237361Y-70524949D01*
X177288005Y-70499597D01*
X177341745Y-70517481D01*
X177360599Y-70542666D01*
X177374622Y-70573372D01*
X177468868Y-70682139D01*
X177468869Y-70682140D01*
X177468872Y-70682143D01*
X177589947Y-70759953D01*
X177696403Y-70791211D01*
X177728035Y-70800499D01*
X177728037Y-70800500D01*
X177728039Y-70800500D01*
X177871963Y-70800500D01*
X177871964Y-70800499D01*
X177890229Y-70795136D01*
X178010053Y-70759953D01*
X178131128Y-70682143D01*
X178225377Y-70573373D01*
X178285165Y-70442457D01*
X178305647Y-70300000D01*
X178285165Y-70157543D01*
X178225377Y-70026627D01*
X178202305Y-70000000D01*
X179494353Y-70000000D01*
X179514834Y-70142454D01*
X179574623Y-70273373D01*
X179668868Y-70382139D01*
X179668869Y-70382140D01*
X179668872Y-70382143D01*
X179789947Y-70459953D01*
X179896403Y-70491211D01*
X179928035Y-70500499D01*
X179928037Y-70500500D01*
X179928039Y-70500500D01*
X180071963Y-70500500D01*
X180071964Y-70500499D01*
X180075036Y-70499597D01*
X180210053Y-70459953D01*
X180331128Y-70382143D01*
X180425377Y-70273373D01*
X180485165Y-70142457D01*
X180505647Y-70000000D01*
X180499859Y-69959744D01*
X181049500Y-69959744D01*
X181049500Y-70540256D01*
X181052275Y-70569849D01*
X181052275Y-70569851D01*
X181052276Y-70569854D01*
X181095882Y-70694473D01*
X181114695Y-70719963D01*
X181174289Y-70800711D01*
X181244857Y-70852792D01*
X181280526Y-70879117D01*
X181405145Y-70922723D01*
X181405151Y-70922725D01*
X181434744Y-70925500D01*
X181434751Y-70925500D01*
X182140249Y-70925500D01*
X182140256Y-70925500D01*
X182169849Y-70922725D01*
X182241526Y-70897644D01*
X182294473Y-70879117D01*
X182294473Y-70879116D01*
X182294475Y-70879116D01*
X182400711Y-70800711D01*
X182479116Y-70694475D01*
X182490172Y-70662881D01*
X182512000Y-70600500D01*
X182522725Y-70569849D01*
X182525500Y-70540256D01*
X182525500Y-70406106D01*
X182547174Y-70353780D01*
X182578651Y-70335103D01*
X182663452Y-70310205D01*
X182784527Y-70232395D01*
X182878776Y-70123625D01*
X182938564Y-69992709D01*
X182959046Y-69850252D01*
X182938564Y-69707795D01*
X182878776Y-69576879D01*
X182784527Y-69468109D01*
X182707522Y-69418621D01*
X182663453Y-69390299D01*
X182663449Y-69390298D01*
X182525363Y-69349752D01*
X182525360Y-69349752D01*
X182381438Y-69349752D01*
X182381435Y-69349752D01*
X182243348Y-69390298D01*
X182243344Y-69390299D01*
X182122270Y-69468109D01*
X182122266Y-69468112D01*
X182052212Y-69548960D01*
X182001566Y-69574311D01*
X181996287Y-69574500D01*
X181434744Y-69574500D01*
X181405151Y-69577275D01*
X181405149Y-69577275D01*
X181405145Y-69577276D01*
X181280526Y-69620882D01*
X181174290Y-69699288D01*
X181174288Y-69699290D01*
X181095882Y-69805526D01*
X181052276Y-69930145D01*
X181052275Y-69930149D01*
X181052275Y-69930151D01*
X181049500Y-69959744D01*
X180499859Y-69959744D01*
X180485165Y-69857543D01*
X180438443Y-69755239D01*
X180436423Y-69698640D01*
X180475016Y-69657187D01*
X180505757Y-69650500D01*
X180621963Y-69650500D01*
X180621964Y-69650499D01*
X180760053Y-69609953D01*
X180881128Y-69532143D01*
X180975377Y-69423373D01*
X181035165Y-69292457D01*
X181055647Y-69150000D01*
X181035165Y-69007543D01*
X180975377Y-68876627D01*
X180913419Y-68805123D01*
X180881131Y-68767860D01*
X180881129Y-68767859D01*
X180881128Y-68767857D01*
X180824182Y-68731260D01*
X180760054Y-68690047D01*
X180760050Y-68690046D01*
X180621964Y-68649500D01*
X180621961Y-68649500D01*
X180478039Y-68649500D01*
X180478036Y-68649500D01*
X180339949Y-68690046D01*
X180339945Y-68690047D01*
X180218875Y-68767855D01*
X180218868Y-68767860D01*
X180124623Y-68876626D01*
X180064834Y-69007545D01*
X180044353Y-69150000D01*
X180064834Y-69292454D01*
X180064834Y-69292455D01*
X180064835Y-69292457D01*
X180111556Y-69394760D01*
X180113577Y-69451360D01*
X180074984Y-69492813D01*
X180044243Y-69499500D01*
X179928036Y-69499500D01*
X179789949Y-69540046D01*
X179789945Y-69540047D01*
X179668875Y-69617855D01*
X179668868Y-69617860D01*
X179574623Y-69726626D01*
X179514834Y-69857545D01*
X179494353Y-70000000D01*
X178202305Y-70000000D01*
X178131128Y-69917857D01*
X178131127Y-69917856D01*
X178127662Y-69913857D01*
X178129110Y-69912602D01*
X178106860Y-69868146D01*
X178124749Y-69814408D01*
X178136464Y-69804258D01*
X178136439Y-69804229D01*
X178140432Y-69800768D01*
X178140439Y-69800764D01*
X178234688Y-69691994D01*
X178294476Y-69561078D01*
X178314958Y-69418621D01*
X178294476Y-69276164D01*
X178234688Y-69145248D01*
X178186436Y-69089562D01*
X178140442Y-69036481D01*
X178140440Y-69036480D01*
X178140439Y-69036478D01*
X178071936Y-68992454D01*
X178019365Y-68958668D01*
X178019361Y-68958667D01*
X177881275Y-68918121D01*
X177881272Y-68918121D01*
X177737350Y-68918121D01*
X177737345Y-68918121D01*
X177736579Y-68918231D01*
X177736148Y-68918121D01*
X177732057Y-68918121D01*
X177732057Y-68917075D01*
X177681704Y-68904214D01*
X177652812Y-68855500D01*
X177666829Y-68800625D01*
X177673725Y-68792667D01*
X177973292Y-68493099D01*
X178025617Y-68471426D01*
X178053937Y-68477060D01*
X178074761Y-68485686D01*
X178074762Y-68485686D01*
X178074764Y-68485687D01*
X178187280Y-68500500D01*
X178187282Y-68500500D01*
X179012718Y-68500500D01*
X179012720Y-68500500D01*
X179125236Y-68485687D01*
X179265233Y-68427698D01*
X179385451Y-68335451D01*
X179477698Y-68215233D01*
X179535687Y-68075236D01*
X179550500Y-67962720D01*
X179550500Y-66637280D01*
X179535687Y-66524764D01*
X179477698Y-66384767D01*
X179385451Y-66264549D01*
X179265233Y-66172302D01*
X179125235Y-66114312D01*
X179038897Y-66102946D01*
X179012720Y-66099500D01*
X178209903Y-66099500D01*
X178157577Y-66077826D01*
X178135903Y-66025500D01*
X178157577Y-65973174D01*
X178169896Y-65963247D01*
X178281128Y-65891763D01*
X178375377Y-65782993D01*
X178435165Y-65652077D01*
X178455647Y-65509620D01*
X178435165Y-65367163D01*
X178375377Y-65236247D01*
X178325669Y-65178880D01*
X178281131Y-65127480D01*
X178281129Y-65127479D01*
X178281128Y-65127477D01*
X178224182Y-65090880D01*
X178160054Y-65049667D01*
X178160050Y-65049666D01*
X178021964Y-65009120D01*
X178021961Y-65009120D01*
X177878039Y-65009120D01*
X177878036Y-65009120D01*
X177739949Y-65049666D01*
X177739945Y-65049667D01*
X177618875Y-65127475D01*
X177618868Y-65127480D01*
X177524623Y-65236246D01*
X177464834Y-65367165D01*
X177444353Y-65509620D01*
X177464834Y-65652074D01*
X177524623Y-65782993D01*
X177618868Y-65891759D01*
X177618869Y-65891760D01*
X177618872Y-65891763D01*
X177701524Y-65944880D01*
X177736156Y-65967137D01*
X177739947Y-65969573D01*
X177843573Y-66000000D01*
X177878035Y-66010119D01*
X177878037Y-66010120D01*
X177954285Y-66010120D01*
X178006611Y-66031794D01*
X178028285Y-66084120D01*
X178006611Y-66136446D01*
X177982604Y-66152487D01*
X177934766Y-66172302D01*
X177814549Y-66264549D01*
X177722302Y-66384766D01*
X177664312Y-66524764D01*
X177664312Y-66524765D01*
X177649500Y-66637281D01*
X177649500Y-67653455D01*
X177627826Y-67705781D01*
X176579517Y-68754090D01*
X176526791Y-68845414D01*
X176526790Y-68845418D01*
X176518948Y-68874692D01*
X176518947Y-68874696D01*
X176499500Y-68947270D01*
X176499500Y-69820316D01*
X176481425Y-69868776D01*
X176474626Y-69876622D01*
X176474624Y-69876624D01*
X176414834Y-70007545D01*
X176394353Y-70150000D01*
X176399222Y-70183870D01*
X176385214Y-70238748D01*
X176378301Y-70246726D01*
X176072203Y-70552826D01*
X176019877Y-70574500D01*
X175400000Y-70574500D01*
X175400000Y-56699998D01*
X175444353Y-56699998D01*
X175464834Y-56842452D01*
X175464834Y-56842453D01*
X175464835Y-56842455D01*
X175524623Y-56973371D01*
X175618868Y-57082137D01*
X175618869Y-57082138D01*
X175618872Y-57082141D01*
X175739947Y-57159951D01*
X175808743Y-57180151D01*
X175878035Y-57200497D01*
X175878037Y-57200498D01*
X175878039Y-57200498D01*
X176021963Y-57200498D01*
X176021964Y-57200497D01*
X176023684Y-57199992D01*
X176160053Y-57159951D01*
X176281128Y-57082141D01*
X176375377Y-56973371D01*
X176435165Y-56842455D01*
X176455647Y-56699998D01*
X176435165Y-56557541D01*
X176375377Y-56426625D01*
X176281128Y-56317855D01*
X176224182Y-56281258D01*
X176160054Y-56240045D01*
X176160050Y-56240044D01*
X176021964Y-56199498D01*
X176021961Y-56199498D01*
X175878039Y-56199498D01*
X175878036Y-56199498D01*
X175739949Y-56240044D01*
X175739945Y-56240045D01*
X175618875Y-56317853D01*
X175618868Y-56317858D01*
X175524623Y-56426624D01*
X175464834Y-56557543D01*
X175444353Y-56699998D01*
X175400000Y-56699998D01*
X175400000Y-55050000D01*
X150401465Y-54951580D01*
X150401461Y-54941091D01*
X150401114Y-54059952D01*
X150400500Y-52502067D01*
X150400558Y-52499992D01*
X150894592Y-52499992D01*
X150894592Y-52500007D01*
X150914200Y-52786677D01*
X150914203Y-52786697D01*
X150972663Y-53068023D01*
X150972668Y-53068041D01*
X151068892Y-53338789D01*
X151068894Y-53338794D01*
X151201098Y-53593935D01*
X151201103Y-53593942D01*
X151268127Y-53688894D01*
X151366811Y-53828698D01*
X151562947Y-54038708D01*
X151785853Y-54220055D01*
X152031375Y-54369361D01*
X152294942Y-54483844D01*
X152571642Y-54561371D01*
X152856322Y-54600500D01*
X152856329Y-54600500D01*
X153143671Y-54600500D01*
X153143678Y-54600500D01*
X153428358Y-54561371D01*
X153705058Y-54483844D01*
X153968625Y-54369361D01*
X154214147Y-54220055D01*
X154437053Y-54038708D01*
X154633189Y-53828698D01*
X154798901Y-53593936D01*
X154931104Y-53338797D01*
X154958961Y-53260415D01*
X155027331Y-53068041D01*
X155027331Y-53068038D01*
X155027334Y-53068032D01*
X155043039Y-52992454D01*
X155085796Y-52786697D01*
X155085799Y-52786677D01*
X155086598Y-52774996D01*
X155854785Y-52774996D01*
X155854785Y-52775003D01*
X155873601Y-52978076D01*
X155873602Y-52978082D01*
X155914942Y-53123373D01*
X155929418Y-53174250D01*
X156020327Y-53356821D01*
X156020328Y-53356822D01*
X156020329Y-53356825D01*
X156143234Y-53519578D01*
X156143235Y-53519579D01*
X156254219Y-53620753D01*
X156293959Y-53656981D01*
X156467363Y-53764348D01*
X156657544Y-53838024D01*
X156858024Y-53875500D01*
X156858026Y-53875500D01*
X157061974Y-53875500D01*
X157061976Y-53875500D01*
X157262456Y-53838024D01*
X157452637Y-53764348D01*
X157626041Y-53656981D01*
X157776764Y-53519579D01*
X157784348Y-53509537D01*
X157899670Y-53356825D01*
X157899670Y-53356824D01*
X157899673Y-53356821D01*
X157990582Y-53174250D01*
X158046397Y-52978083D01*
X158046641Y-52975457D01*
X158065215Y-52775003D01*
X158065215Y-52774996D01*
X158046398Y-52571923D01*
X158046397Y-52571917D01*
X158032846Y-52524290D01*
X157990582Y-52375750D01*
X157899673Y-52193179D01*
X157899670Y-52193175D01*
X157899670Y-52193174D01*
X157807344Y-52070914D01*
X160939500Y-52070914D01*
X160939500Y-53479080D01*
X160939501Y-53479093D01*
X160942354Y-53509534D01*
X160942355Y-53509540D01*
X160981275Y-53620764D01*
X160987228Y-53637777D01*
X161067907Y-53747093D01*
X161177223Y-53827772D01*
X161206516Y-53838022D01*
X161305456Y-53872643D01*
X161305458Y-53872643D01*
X161305463Y-53872645D01*
X161335909Y-53875500D01*
X162744090Y-53875499D01*
X162774537Y-53872645D01*
X162902777Y-53827772D01*
X163012093Y-53747093D01*
X163092772Y-53637777D01*
X163137645Y-53509537D01*
X163140500Y-53479091D01*
X163140499Y-52070910D01*
X163137645Y-52040463D01*
X163134131Y-52030421D01*
X163099681Y-51931968D01*
X163092772Y-51912223D01*
X163012093Y-51802907D01*
X162988717Y-51785655D01*
X162921772Y-51736247D01*
X162902777Y-51722228D01*
X162902775Y-51722227D01*
X162774543Y-51677356D01*
X162774538Y-51677355D01*
X162770731Y-51676998D01*
X162744091Y-51674500D01*
X162744084Y-51674500D01*
X161335919Y-51674500D01*
X161335906Y-51674501D01*
X161305465Y-51677354D01*
X161305459Y-51677355D01*
X161177224Y-51722227D01*
X161067907Y-51802906D01*
X161067906Y-51802907D01*
X160987227Y-51912224D01*
X160942356Y-52040456D01*
X160942355Y-52040461D01*
X160941707Y-52047374D01*
X160939501Y-52070906D01*
X160939500Y-52070914D01*
X157807344Y-52070914D01*
X157776765Y-52030421D01*
X157776764Y-52030420D01*
X157626041Y-51893019D01*
X157564439Y-51854877D01*
X157452637Y-51785652D01*
X157262456Y-51711976D01*
X157174097Y-51695459D01*
X157061979Y-51674500D01*
X157061976Y-51674500D01*
X156858024Y-51674500D01*
X156858020Y-51674500D01*
X156718550Y-51700572D01*
X156657544Y-51711976D01*
X156657542Y-51711976D01*
X156657540Y-51711977D01*
X156479689Y-51780877D01*
X156467363Y-51785652D01*
X156467358Y-51785654D01*
X156467358Y-51785655D01*
X156293958Y-51893019D01*
X156293957Y-51893019D01*
X156143235Y-52030420D01*
X156143234Y-52030421D01*
X156020329Y-52193174D01*
X156020328Y-52193177D01*
X155929418Y-52375750D01*
X155929416Y-52375755D01*
X155873602Y-52571917D01*
X155873601Y-52571923D01*
X155854785Y-52774996D01*
X155086598Y-52774996D01*
X155105408Y-52500007D01*
X155105408Y-52499992D01*
X155085799Y-52213322D01*
X155085796Y-52213302D01*
X155027336Y-51931976D01*
X155027331Y-51931958D01*
X154931107Y-51661210D01*
X154931105Y-51661205D01*
X154922930Y-51645429D01*
X154798901Y-51406064D01*
X154633189Y-51171302D01*
X154473204Y-51000000D01*
X167244353Y-51000000D01*
X167264834Y-51142454D01*
X167264834Y-51142455D01*
X167264835Y-51142457D01*
X167286570Y-51190049D01*
X167324623Y-51273373D01*
X167418868Y-51382139D01*
X167418869Y-51382140D01*
X167418872Y-51382143D01*
X167539947Y-51459953D01*
X167633581Y-51487446D01*
X167678035Y-51500499D01*
X167678037Y-51500500D01*
X167678039Y-51500500D01*
X167821963Y-51500500D01*
X167821964Y-51500499D01*
X167960053Y-51459953D01*
X168081128Y-51382143D01*
X168175377Y-51273373D01*
X168235165Y-51142457D01*
X168255647Y-51000000D01*
X168235165Y-50857543D01*
X168175377Y-50726627D01*
X168135106Y-50680151D01*
X168081131Y-50617860D01*
X168081129Y-50617859D01*
X168081128Y-50617857D01*
X167984139Y-50555526D01*
X167960054Y-50540047D01*
X167960050Y-50540046D01*
X167821964Y-50499500D01*
X167821961Y-50499500D01*
X167678039Y-50499500D01*
X167678036Y-50499500D01*
X167539949Y-50540046D01*
X167539945Y-50540047D01*
X167418875Y-50617855D01*
X167418868Y-50617860D01*
X167324623Y-50726626D01*
X167264834Y-50857545D01*
X167244353Y-51000000D01*
X154473204Y-51000000D01*
X154437053Y-50961292D01*
X154214147Y-50779945D01*
X154214141Y-50779941D01*
X154214138Y-50779939D01*
X154098707Y-50709744D01*
X153968625Y-50630639D01*
X153968622Y-50630637D01*
X153968621Y-50630637D01*
X153705056Y-50516155D01*
X153428356Y-50438628D01*
X153143682Y-50399500D01*
X153143678Y-50399500D01*
X152856322Y-50399500D01*
X152856317Y-50399500D01*
X152571643Y-50438628D01*
X152294943Y-50516155D01*
X152031378Y-50630637D01*
X152031375Y-50630639D01*
X151785861Y-50779939D01*
X151785853Y-50779945D01*
X151571804Y-50954087D01*
X151562945Y-50961294D01*
X151366809Y-51171304D01*
X151201103Y-51406057D01*
X151201098Y-51406064D01*
X151068894Y-51661205D01*
X151068892Y-51661210D01*
X150972668Y-51931958D01*
X150972663Y-51931976D01*
X150914203Y-52213302D01*
X150914200Y-52213322D01*
X150894592Y-52499992D01*
X150400558Y-52499992D01*
X150400615Y-52497949D01*
X150416612Y-52213083D01*
X150417542Y-52204843D01*
X150417547Y-52204819D01*
X150464979Y-51925650D01*
X150466824Y-51917567D01*
X150467423Y-51915489D01*
X150545229Y-51645416D01*
X150547959Y-51637615D01*
X150656348Y-51375938D01*
X150659929Y-51368503D01*
X150796938Y-51120603D01*
X150801330Y-51113613D01*
X150965241Y-50882602D01*
X150970387Y-50876151D01*
X151159111Y-50664969D01*
X151164969Y-50659111D01*
X151376151Y-50470387D01*
X151382602Y-50465241D01*
X151613613Y-50301330D01*
X151620603Y-50296938D01*
X151868503Y-50159929D01*
X151875938Y-50156348D01*
X152137615Y-50047959D01*
X152145416Y-50045229D01*
X152417575Y-49966822D01*
X152425650Y-49964979D01*
X152704851Y-49917541D01*
X152713083Y-49916612D01*
X152997934Y-49900615D01*
X153002083Y-49900500D01*
X153057583Y-49900500D01*
X177318718Y-49900500D01*
X177371044Y-49922174D01*
G37*
%TD.AperFunction*%
%TA.AperFunction,Conductor*%
G36*
X189293653Y-62279585D02*
G01*
X189335848Y-62290891D01*
X189371705Y-62300499D01*
X189371706Y-62300500D01*
X189371708Y-62300500D01*
X190186599Y-62300500D01*
X190238925Y-62322174D01*
X191189925Y-63273174D01*
X191211599Y-63325500D01*
X191189925Y-63377826D01*
X191137599Y-63399500D01*
X189405123Y-63399500D01*
X189352797Y-63377826D01*
X189222174Y-63247203D01*
X189200500Y-63194877D01*
X189200500Y-62351063D01*
X189222174Y-62298737D01*
X189274500Y-62277063D01*
X189293653Y-62279585D01*
G37*
%TD.AperFunction*%
%TD*%
M02*
