%TF.GenerationSoftware,KiCad,Pcbnew,8.0.4*%
%TF.CreationDate,2025-03-19T01:09:58-05:00*%
%TF.ProjectId,Melty,4d656c74-792e-46b6-9963-61645f706362,rev?*%
%TF.SameCoordinates,Original*%
%TF.FileFunction,Soldermask,Top*%
%TF.FilePolarity,Negative*%
%FSLAX46Y46*%
G04 Gerber Fmt 4.6, Leading zero omitted, Abs format (unit mm)*
G04 Created by KiCad (PCBNEW 8.0.4) date 2025-03-19 01:09:58*
%MOMM*%
%LPD*%
G01*
G04 APERTURE LIST*
G04 Aperture macros list*
%AMRoundRect*
0 Rectangle with rounded corners*
0 $1 Rounding radius*
0 $2 $3 $4 $5 $6 $7 $8 $9 X,Y pos of 4 corners*
0 Add a 4 corners polygon primitive as box body*
4,1,4,$2,$3,$4,$5,$6,$7,$8,$9,$2,$3,0*
0 Add four circle primitives for the rounded corners*
1,1,$1+$1,$2,$3*
1,1,$1+$1,$4,$5*
1,1,$1+$1,$6,$7*
1,1,$1+$1,$8,$9*
0 Add four rect primitives between the rounded corners*
20,1,$1+$1,$2,$3,$4,$5,0*
20,1,$1+$1,$4,$5,$6,$7,0*
20,1,$1+$1,$6,$7,$8,$9,0*
20,1,$1+$1,$8,$9,$2,$3,0*%
G04 Aperture macros list end*
%ADD10C,1.000000*%
%ADD11R,0.457200X0.355600*%
%ADD12R,0.355600X0.457200*%
%ADD13RoundRect,0.237500X-0.300000X-0.237500X0.300000X-0.237500X0.300000X0.237500X-0.300000X0.237500X0*%
%ADD14RoundRect,0.437500X0.437500X0.562500X-0.437500X0.562500X-0.437500X-0.562500X0.437500X-0.562500X0*%
%ADD15C,3.800000*%
%ADD16RoundRect,1.250000X-1.250000X-2.250000X1.250000X-2.250000X1.250000X2.250000X-1.250000X2.250000X0*%
%ADD17R,0.700000X0.700000*%
%ADD18RoundRect,0.250200X0.649800X0.649800X-0.649800X0.649800X-0.649800X-0.649800X0.649800X-0.649800X0*%
%ADD19C,1.800000*%
%ADD20RoundRect,1.250000X1.250000X-2.750000X1.250000X2.750000X-1.250000X2.750000X-1.250000X-2.750000X0*%
%ADD21R,3.000000X3.000000*%
%ADD22C,3.000000*%
%ADD23RoundRect,0.525400X0.900400X0.525400X-0.900400X0.525400X-0.900400X-0.525400X0.900400X-0.525400X0*%
G04 APERTURE END LIST*
D10*
%TO.C,TP1*%
X183000000Y-68100000D03*
%TD*%
D11*
%TO.C,U2*%
X178704600Y-68499748D03*
X178704600Y-68999874D03*
X178704600Y-69500000D03*
X178704600Y-70000126D03*
X178704600Y-70500252D03*
D12*
X179499874Y-70795400D03*
X180000000Y-70795400D03*
X180500126Y-70795400D03*
D11*
X181295400Y-70500252D03*
X181295400Y-70000126D03*
X181295400Y-69500000D03*
X181295400Y-68999874D03*
X181295400Y-68499748D03*
D12*
X180500126Y-68204600D03*
X180000000Y-68204600D03*
X179499874Y-68204600D03*
%TD*%
D13*
%TO.C,C2*%
X181637500Y-63400000D03*
X183362500Y-63400000D03*
%TD*%
D10*
%TO.C,TP2*%
X183650000Y-70100000D03*
%TD*%
D14*
%TO.C,U4*%
X172750000Y-51000000D03*
X170250000Y-51000000D03*
X167750000Y-51000000D03*
X165250000Y-51000000D03*
%TD*%
D15*
%TO.C,REF\u002A\u002A*%
X153000000Y-52500000D03*
%TD*%
D16*
%TO.C,J3*%
X166000000Y-67025000D03*
X173000000Y-67025000D03*
%TD*%
D15*
%TO.C,REF\u002A\u002A*%
X181500000Y-57200000D03*
%TD*%
D17*
%TO.C,D2*%
X176085000Y-54000000D03*
X176085000Y-55100000D03*
X177915000Y-55100000D03*
X177915000Y-54000000D03*
%TD*%
D13*
%TO.C,C5*%
X178137500Y-65500000D03*
X179862500Y-65500000D03*
%TD*%
D17*
%TO.C,D3*%
X176085000Y-57550000D03*
X176085000Y-58650000D03*
X177915000Y-58650000D03*
X177915000Y-57550000D03*
%TD*%
D15*
%TO.C,REF\u002A\u002A*%
X153000000Y-68500000D03*
%TD*%
D13*
%TO.C,C1*%
X178237500Y-63400000D03*
X179962500Y-63400000D03*
%TD*%
D18*
%TO.C,U5*%
X162040000Y-52775000D03*
D19*
X159500000Y-52775000D03*
X156960000Y-52775000D03*
%TD*%
D13*
%TO.C,R8*%
X181637500Y-61400000D03*
X183362500Y-61400000D03*
%TD*%
D20*
%TO.C,J5*%
X159425000Y-61450000D03*
%TD*%
D21*
%TO.C,J4*%
X153000000Y-63000000D03*
D22*
X153000000Y-58000000D03*
%TD*%
D13*
%TO.C,R7*%
X178237500Y-61400000D03*
X179962500Y-61400000D03*
%TD*%
D23*
%TO.C,U1*%
X202561364Y-68073000D03*
X202561364Y-65533000D03*
X202561364Y-62993000D03*
X202561364Y-60453000D03*
X202561364Y-57913000D03*
X202561364Y-55373000D03*
X202561364Y-52833000D03*
X186396364Y-52833000D03*
X186396364Y-55373000D03*
X186396364Y-57913000D03*
X186396364Y-60453000D03*
X186396364Y-62993000D03*
X186396364Y-65533000D03*
X186396364Y-68073000D03*
%TD*%
D17*
%TO.C,D1*%
X176085000Y-50450000D03*
X176085000Y-51550000D03*
X177915000Y-51550000D03*
X177915000Y-50450000D03*
%TD*%
M02*
