%TF.GenerationSoftware,KiCad,Pcbnew,8.0.4*%
%TF.CreationDate,2025-03-19T01:09:58-05:00*%
%TF.ProjectId,Melty,4d656c74-792e-46b6-9963-61645f706362,rev?*%
%TF.SameCoordinates,Original*%
%TF.FileFunction,Copper,L1,Top*%
%TF.FilePolarity,Positive*%
%FSLAX46Y46*%
G04 Gerber Fmt 4.6, Leading zero omitted, Abs format (unit mm)*
G04 Created by KiCad (PCBNEW 8.0.4) date 2025-03-19 01:09:58*
%MOMM*%
%LPD*%
G01*
G04 APERTURE LIST*
G04 Aperture macros list*
%AMRoundRect*
0 Rectangle with rounded corners*
0 $1 Rounding radius*
0 $2 $3 $4 $5 $6 $7 $8 $9 X,Y pos of 4 corners*
0 Add a 4 corners polygon primitive as box body*
4,1,4,$2,$3,$4,$5,$6,$7,$8,$9,$2,$3,0*
0 Add four circle primitives for the rounded corners*
1,1,$1+$1,$2,$3*
1,1,$1+$1,$4,$5*
1,1,$1+$1,$6,$7*
1,1,$1+$1,$8,$9*
0 Add four rect primitives between the rounded corners*
20,1,$1+$1,$2,$3,$4,$5,0*
20,1,$1+$1,$4,$5,$6,$7,0*
20,1,$1+$1,$6,$7,$8,$9,0*
20,1,$1+$1,$8,$9,$2,$3,0*%
G04 Aperture macros list end*
%TA.AperFunction,SMDPad,CuDef*%
%ADD10C,1.000000*%
%TD*%
%TA.AperFunction,SMDPad,CuDef*%
%ADD11R,0.457200X0.355600*%
%TD*%
%TA.AperFunction,SMDPad,CuDef*%
%ADD12R,0.355600X0.457200*%
%TD*%
%TA.AperFunction,SMDPad,CuDef*%
%ADD13RoundRect,0.237500X-0.300000X-0.237500X0.300000X-0.237500X0.300000X0.237500X-0.300000X0.237500X0*%
%TD*%
%TA.AperFunction,SMDPad,CuDef*%
%ADD14RoundRect,0.437500X0.437500X0.562500X-0.437500X0.562500X-0.437500X-0.562500X0.437500X-0.562500X0*%
%TD*%
%TA.AperFunction,ComponentPad*%
%ADD15C,3.800000*%
%TD*%
%TA.AperFunction,SMDPad,CuDef*%
%ADD16RoundRect,1.250000X-1.250000X-2.250000X1.250000X-2.250000X1.250000X2.250000X-1.250000X2.250000X0*%
%TD*%
%TA.AperFunction,SMDPad,CuDef*%
%ADD17R,0.700000X0.700000*%
%TD*%
%TA.AperFunction,ComponentPad*%
%ADD18RoundRect,0.250200X0.649800X0.649800X-0.649800X0.649800X-0.649800X-0.649800X0.649800X-0.649800X0*%
%TD*%
%TA.AperFunction,ComponentPad*%
%ADD19C,1.800000*%
%TD*%
%TA.AperFunction,SMDPad,CuDef*%
%ADD20RoundRect,1.250000X1.250000X-2.750000X1.250000X2.750000X-1.250000X2.750000X-1.250000X-2.750000X0*%
%TD*%
%TA.AperFunction,ComponentPad*%
%ADD21R,3.000000X3.000000*%
%TD*%
%TA.AperFunction,ComponentPad*%
%ADD22C,3.000000*%
%TD*%
%TA.AperFunction,SMDPad,CuDef*%
%ADD23RoundRect,0.500000X0.875000X0.500000X-0.875000X0.500000X-0.875000X-0.500000X0.875000X-0.500000X0*%
%TD*%
%TA.AperFunction,ViaPad*%
%ADD24C,0.600000*%
%TD*%
%TA.AperFunction,ViaPad*%
%ADD25C,0.450000*%
%TD*%
%TA.AperFunction,Conductor*%
%ADD26C,0.200000*%
%TD*%
%TA.AperFunction,Conductor*%
%ADD27C,0.100000*%
%TD*%
G04 APERTURE END LIST*
D10*
%TO.P,TP1,1,1*%
%TO.N,/INT1*%
X183000000Y-68100000D03*
%TD*%
D11*
%TO.P,U2,1,VDD_IO*%
%TO.N,+3V3*%
X178704600Y-68499748D03*
%TO.P,U2,2,NC*%
%TO.N,unconnected-(U2-NC-Pad2)*%
X178704600Y-68999874D03*
%TO.P,U2,3,NC*%
%TO.N,unconnected-(U2-NC-Pad3)*%
X178704600Y-69500000D03*
%TO.P,U2,4,SCL/SPC*%
%TO.N,/SCK*%
X178704600Y-70000126D03*
%TO.P,U2,5,GND*%
%TO.N,GND*%
X178704600Y-70500252D03*
D12*
%TO.P,U2,6,SDA/SDI/SDO*%
%TO.N,/MOSI*%
X179499874Y-70795400D03*
%TO.P,U2,7,SDO/SA0*%
%TO.N,/MISO*%
X180000000Y-70795400D03*
%TO.P,U2,8,CS*%
%TO.N,GND*%
X180500126Y-70795400D03*
D11*
%TO.P,U2,9,INT2*%
%TO.N,/INT2*%
X181295400Y-70500252D03*
%TO.P,U2,10,RESERVED*%
%TO.N,GND*%
X181295400Y-70000126D03*
%TO.P,U2,11,INT1*%
%TO.N,/INT1*%
X181295400Y-69500000D03*
%TO.P,U2,12,GND*%
%TO.N,GND*%
X181295400Y-68999874D03*
%TO.P,U2,13,GND*%
X181295400Y-68499748D03*
D12*
%TO.P,U2,14,VDD*%
%TO.N,+3V3*%
X180500126Y-68204600D03*
%TO.P,U2,15,RESERVED*%
X180000000Y-68204600D03*
%TO.P,U2,16,GND*%
%TO.N,GND*%
X179499874Y-68204600D03*
%TD*%
D13*
%TO.P,C2,1*%
%TO.N,+5V*%
X181637500Y-63400000D03*
%TO.P,C2,2*%
%TO.N,GND*%
X183362500Y-63400000D03*
%TD*%
D10*
%TO.P,TP2,1,1*%
%TO.N,/INT2*%
X183650000Y-70100000D03*
%TD*%
D14*
%TO.P,U4,1,RX*%
%TO.N,Net-(Q1-D)*%
X172750000Y-51000000D03*
%TO.P,U4,2,TX*%
%TO.N,Net-(Q2-D)*%
X170250000Y-51000000D03*
%TO.P,U4,3,5V*%
%TO.N,+5V*%
X167750000Y-51000000D03*
%TO.P,U4,4,GND*%
%TO.N,GND*%
X165250000Y-51000000D03*
%TD*%
D15*
%TO.P,REF\u002A\u002A,1*%
%TO.N,N/C*%
X153000000Y-52500000D03*
%TD*%
D16*
%TO.P,J3,1,Pin_1*%
%TO.N,+BATT*%
X166000000Y-67025000D03*
%TO.P,J3,2,Pin_2*%
%TO.N,GND*%
X173000000Y-67025000D03*
%TD*%
D15*
%TO.P,REF\u002A\u002A,1*%
%TO.N,N/C*%
X181500000Y-57200000D03*
%TD*%
D17*
%TO.P,D2,1,DOUT*%
%TO.N,Net-(D2-DOUT)*%
X176085000Y-54000000D03*
%TO.P,D2,2,VSS*%
%TO.N,GND*%
X176085000Y-55100000D03*
%TO.P,D2,3,DIN*%
%TO.N,Net-(D1-DOUT)*%
X177915000Y-55100000D03*
%TO.P,D2,4,VDD*%
%TO.N,+5V*%
X177915000Y-54000000D03*
%TD*%
D13*
%TO.P,C5,1*%
%TO.N,+3V3*%
X178137500Y-65500000D03*
%TO.P,C5,2*%
%TO.N,GND*%
X179862500Y-65500000D03*
%TD*%
D17*
%TO.P,D3,1,DOUT*%
%TO.N,Net-(D3-DOUT)*%
X176085000Y-57550000D03*
%TO.P,D3,2,VSS*%
%TO.N,GND*%
X176085000Y-58650000D03*
%TO.P,D3,3,DIN*%
%TO.N,Net-(D2-DOUT)*%
X177915000Y-58650000D03*
%TO.P,D3,4,VDD*%
%TO.N,+5V*%
X177915000Y-57550000D03*
%TD*%
D15*
%TO.P,REF\u002A\u002A,1*%
%TO.N,N/C*%
X153000000Y-68500000D03*
%TD*%
D13*
%TO.P,C1,1*%
%TO.N,+BATT*%
X178237500Y-63400000D03*
%TO.P,C1,2*%
%TO.N,GND*%
X179962500Y-63400000D03*
%TD*%
D18*
%TO.P,U5,1,OUT*%
%TO.N,/IR*%
X162040000Y-52775000D03*
D19*
%TO.P,U5,2,GND*%
%TO.N,GND*%
X159500000Y-52775000D03*
%TO.P,U5,3,Vs*%
%TO.N,+3V3*%
X156960000Y-52775000D03*
%TD*%
D13*
%TO.P,R8,1*%
%TO.N,/VSense*%
X181637500Y-61400000D03*
%TO.P,R8,2*%
%TO.N,GND*%
X183362500Y-61400000D03*
%TD*%
D20*
%TO.P,J5,1,Pin_1*%
%TO.N,+BATT*%
X159425000Y-61450000D03*
%TD*%
D21*
%TO.P,J4,1,Pin_1*%
%TO.N,Net-(J4-Pin_1)*%
X153000000Y-63000000D03*
D22*
%TO.P,J4,2,Pin_2*%
%TO.N,GND*%
X153000000Y-58000000D03*
%TD*%
D13*
%TO.P,R7,1*%
%TO.N,+BATT*%
X178237500Y-61400000D03*
%TO.P,R7,2*%
%TO.N,/VSense*%
X179962500Y-61400000D03*
%TD*%
D23*
%TO.P,U1,1,GPIO2/A0/D0*%
%TO.N,/VSense*%
X202561364Y-68073000D03*
%TO.P,U1,2,GPIO3/A1/D1*%
%TO.N,unconnected-(U1-GPIO3{slash}A1{slash}D1-Pad2)*%
X202561364Y-65533000D03*
%TO.P,U1,3,GPIO4/A2/D2*%
%TO.N,/IR*%
X202561364Y-62993000D03*
%TO.P,U1,4,GPIO5/A3/D3*%
%TO.N,/LED*%
X202561364Y-60453000D03*
%TO.P,U1,5,GPIO6/D4/SDA*%
%TO.N,/ESC1*%
X202561364Y-57913000D03*
%TO.P,U1,6,GPIO7/D5/SCL*%
%TO.N,/ESC2*%
X202561364Y-55373000D03*
%TO.P,U1,7,GPIO21/D6/TX*%
%TO.N,/TX*%
X202561364Y-52833000D03*
%TO.P,U1,8,GPIO20/D7/RX*%
%TO.N,/RX*%
X186396364Y-52833000D03*
%TO.P,U1,9,GPIO8/D8/SCK*%
%TO.N,/SCK*%
X186396364Y-55373000D03*
%TO.P,U1,10,GPIO9/D9/MISO*%
%TO.N,/MISO*%
X186396364Y-57913000D03*
%TO.P,U1,11,GPIO10/D10/MOSI*%
%TO.N,/MOSI*%
X186396364Y-60453000D03*
%TO.P,U1,12,VCC_3V3*%
%TO.N,+3V3*%
X186396364Y-62993000D03*
%TO.P,U1,13,GND*%
%TO.N,GND*%
X186396364Y-65533000D03*
%TO.P,U1,14,VBUS*%
%TO.N,+5V*%
X186396364Y-68073000D03*
%TD*%
D17*
%TO.P,D1,1,DOUT*%
%TO.N,Net-(D1-DOUT)*%
X176085000Y-50450000D03*
%TO.P,D1,2,VSS*%
%TO.N,GND*%
X176085000Y-51550000D03*
%TO.P,D1,3,DIN*%
%TO.N,Net-(D1-DIN)*%
X177915000Y-51550000D03*
%TO.P,D1,4,VDD*%
%TO.N,+5V*%
X177915000Y-50450000D03*
%TD*%
D24*
%TO.N,+5V*%
X181650000Y-65500000D03*
D25*
%TO.N,GND*%
X175000000Y-65400000D03*
X172000000Y-69400000D03*
X173000000Y-66400000D03*
X174000000Y-68400000D03*
D24*
X195100000Y-64850000D03*
X175275460Y-58100000D03*
X179650000Y-69150000D03*
D25*
X171000000Y-66400000D03*
X171000000Y-68400000D03*
D24*
X183800000Y-66450000D03*
D25*
X175000000Y-69400000D03*
X172000000Y-67400000D03*
D24*
X182600000Y-66450000D03*
D25*
X174000000Y-65400000D03*
D24*
X186400000Y-65550000D03*
D25*
X173000000Y-68400000D03*
D24*
X175275460Y-51002962D03*
D25*
X171000000Y-67400000D03*
D24*
X187550000Y-66250000D03*
X185250000Y-64800000D03*
X189900000Y-62900000D03*
D25*
X173000000Y-67400000D03*
X173000000Y-69400000D03*
D24*
X187500000Y-64800000D03*
D25*
X174000000Y-66400000D03*
D24*
X165250000Y-51050000D03*
X185250000Y-66250000D03*
D25*
X172000000Y-66400000D03*
X174000000Y-67400000D03*
X173000000Y-65400000D03*
X175000000Y-67400000D03*
X175000000Y-66400000D03*
D24*
X192650000Y-64900000D03*
D25*
X171000000Y-69400000D03*
D24*
X175275460Y-54550000D03*
D25*
X172000000Y-68400000D03*
X172000000Y-65400000D03*
X171000000Y-65400000D03*
X175000000Y-68400000D03*
X174000000Y-69400000D03*
%TO.N,+BATT*%
X166100000Y-68400000D03*
X166100000Y-66400000D03*
X168100000Y-67400000D03*
X168100000Y-66400000D03*
X168100000Y-69400000D03*
X160500000Y-62000000D03*
X161500000Y-60100000D03*
X161500000Y-62000000D03*
X165100000Y-67400000D03*
X168100000Y-65400000D03*
X160500000Y-60100000D03*
X159500000Y-60100000D03*
X164100000Y-66400000D03*
X165100000Y-68400000D03*
X157500000Y-61000000D03*
X160500000Y-61000000D03*
X166100000Y-69400000D03*
X157500000Y-60100000D03*
X167100000Y-68400000D03*
X157500000Y-62000000D03*
X165100000Y-69400000D03*
X167100000Y-65400000D03*
X168100000Y-68400000D03*
X166100000Y-65400000D03*
X159500000Y-62000000D03*
X167100000Y-67400000D03*
X164100000Y-65400000D03*
X166100000Y-67400000D03*
X164100000Y-67400000D03*
D24*
X176900000Y-70150000D03*
D25*
X165100000Y-66400000D03*
X158500000Y-62000000D03*
X164100000Y-69400000D03*
X158500000Y-61000000D03*
X159500000Y-61000000D03*
X165100000Y-65400000D03*
X158500000Y-60100000D03*
X167100000Y-69400000D03*
X164100000Y-68400000D03*
X161500000Y-61000000D03*
X167100000Y-66400000D03*
D24*
%TO.N,+5V*%
X181550000Y-67450000D03*
X181550000Y-66450000D03*
X167750000Y-51000000D03*
X180950000Y-60000000D03*
X182100000Y-60000000D03*
X193100000Y-62500000D03*
X180600000Y-67350000D03*
X195000000Y-53150000D03*
X187550000Y-67200000D03*
X178900000Y-58086194D03*
X185250000Y-68850000D03*
X185250000Y-67200000D03*
X178724540Y-50997038D03*
X193350000Y-51000000D03*
X181025000Y-64575000D03*
X178800000Y-54700000D03*
X180650000Y-66550000D03*
X179812932Y-60171670D03*
X181692463Y-63442463D03*
X186400000Y-68100000D03*
X187550000Y-68850000D03*
%TO.N,+3V3*%
X197050000Y-60600000D03*
X185250000Y-62300000D03*
X192450000Y-54900000D03*
X182453399Y-69850252D03*
X197150000Y-57550000D03*
X177950000Y-65509620D03*
X197150000Y-51000000D03*
X180550000Y-69150000D03*
X189900000Y-61150000D03*
X192400000Y-58000000D03*
X185250000Y-63700000D03*
X187550000Y-62300000D03*
X186400000Y-63000000D03*
X197050000Y-52500000D03*
X187500000Y-63700000D03*
%TO.N,Net-(D1-DIN)*%
X179759620Y-52009620D03*
%TO.N,Net-(D1-DOUT)*%
X177067505Y-53600000D03*
X177000000Y-51650000D03*
%TO.N,Net-(D3-DOUT)*%
X175950000Y-56699998D03*
X178950000Y-57000000D03*
%TO.N,/VSense*%
X202550000Y-68150000D03*
X182550000Y-62600000D03*
%TO.N,/ESC2*%
X193800000Y-64900000D03*
%TO.N,/ESC1*%
X196350000Y-64900000D03*
%TO.N,/RX*%
X186350000Y-52850000D03*
%TO.N,Net-(Q1-D)*%
X191550000Y-51100000D03*
%TO.N,/TX*%
X202561364Y-52833000D03*
%TO.N,Net-(Q2-D)*%
X195000000Y-54850000D03*
%TO.N,/LED*%
X202561364Y-60453000D03*
%TO.N,/SCK*%
X177809311Y-69418621D03*
X186400000Y-55350000D03*
%TO.N,/MOSI*%
X177800000Y-70300000D03*
X186350000Y-60500000D03*
%TO.N,/IR*%
X178400000Y-60000000D03*
X202550000Y-63050000D03*
%TO.N,/MISO*%
X186534620Y-58034620D03*
X180000000Y-70000000D03*
D25*
%TO.N,Net-(J4-Pin_1)*%
X156500000Y-62000000D03*
X157500000Y-67000000D03*
X155500000Y-64000000D03*
X156500000Y-66000000D03*
X157500000Y-70000000D03*
X155500000Y-62000000D03*
X160500000Y-69000000D03*
X158500000Y-68000000D03*
X156500000Y-69000000D03*
X160500000Y-68000000D03*
X161500000Y-68000000D03*
X160500000Y-67000000D03*
X159500000Y-70000000D03*
X156500000Y-70000000D03*
X157500000Y-68000000D03*
X161500000Y-67000000D03*
X159500000Y-68000000D03*
X156500000Y-65000000D03*
X156500000Y-64000000D03*
X156500000Y-61000000D03*
X158500000Y-67000000D03*
X161500000Y-70000000D03*
X161500000Y-69000000D03*
X160500000Y-70000000D03*
X155500000Y-63000000D03*
X159500000Y-67000000D03*
X159500000Y-69000000D03*
X158500000Y-70000000D03*
X156500000Y-67000000D03*
X156500000Y-68000000D03*
X157500000Y-69000000D03*
X155500000Y-61000000D03*
X158500000Y-69000000D03*
X155500000Y-65000000D03*
X156500000Y-63000000D03*
D24*
%TO.N,Net-(D5-DOUT)*%
X179750000Y-53850000D03*
X178700000Y-55700000D03*
%TD*%
D26*
%TO.N,GND*%
X175822498Y-51550000D02*
X176085000Y-51550000D01*
X175825460Y-58650000D02*
X176085000Y-58650000D01*
X175275460Y-58100000D02*
X175825460Y-58650000D01*
X175825460Y-55100000D02*
X176085000Y-55100000D01*
X175275460Y-51002962D02*
X175822498Y-51550000D01*
X175275460Y-54550000D02*
X175825460Y-55100000D01*
%TO.N,+BATT*%
X178237500Y-63400000D02*
X178237500Y-61400000D01*
X176900000Y-64737500D02*
X176900000Y-70150000D01*
X167400000Y-70900000D02*
X166350000Y-70900000D01*
X175850000Y-70900000D02*
X167400000Y-70900000D01*
X176900000Y-70150000D02*
X176150000Y-70900000D01*
X166350000Y-70900000D02*
X166200000Y-70750000D01*
X176150000Y-70900000D02*
X175850000Y-70900000D01*
X178237500Y-63400000D02*
X176900000Y-64737500D01*
%TO.N,+5V*%
X178100000Y-54000000D02*
X177915000Y-54000000D01*
X178363806Y-57550000D02*
X178900000Y-58086194D01*
X178724540Y-50997038D02*
X178177502Y-50450000D01*
X178177502Y-50450000D02*
X177915000Y-50450000D01*
X178800000Y-54700000D02*
X178100000Y-54000000D01*
X177915000Y-57550000D02*
X178363806Y-57550000D01*
D27*
%TO.N,+3V3*%
X179072074Y-67726000D02*
X179650000Y-67726000D01*
X178137500Y-65500000D02*
X178137500Y-67932648D01*
X180000000Y-67798326D02*
X180000000Y-68204600D01*
X178704600Y-68093474D02*
X179072074Y-67726000D01*
D26*
X180550000Y-68254474D02*
X180500126Y-68204600D01*
D27*
X179927674Y-67726000D02*
X180000000Y-67798326D01*
D26*
X180550000Y-69150000D02*
X180550000Y-68254474D01*
D27*
X178137500Y-67932648D02*
X178704600Y-68499748D01*
X180500126Y-68204600D02*
X180000000Y-68204600D01*
X180632778Y-68071948D02*
X180500126Y-68204600D01*
X179650000Y-67726000D02*
X179927674Y-67726000D01*
X178704600Y-68499748D02*
X178704600Y-68093474D01*
D26*
%TO.N,Net-(D1-DIN)*%
X177915000Y-51550000D02*
X178374620Y-52009620D01*
X178374620Y-52009620D02*
X179759620Y-52009620D01*
%TO.N,Net-(D1-DOUT)*%
X177000000Y-51165000D02*
X177000000Y-51650000D01*
X176285000Y-50450000D02*
X177000000Y-51165000D01*
X177365000Y-55100000D02*
X177915000Y-55100000D01*
X176085000Y-50450000D02*
X176285000Y-50450000D01*
X177067505Y-53600000D02*
X177135000Y-53667495D01*
X177135000Y-53667495D02*
X177135000Y-54870000D01*
X177135000Y-54870000D02*
X177365000Y-55100000D01*
%TO.N,Net-(D2-DOUT)*%
X177550000Y-58650000D02*
X177915000Y-58650000D01*
X176470000Y-54185000D02*
X176735000Y-54450000D01*
X176735000Y-54450000D02*
X176735000Y-57835000D01*
X176735000Y-57835000D02*
X177550000Y-58650000D01*
X176085000Y-54000000D02*
X176085000Y-54185000D01*
X176085000Y-54185000D02*
X176470000Y-54185000D01*
%TO.N,Net-(D3-DOUT)*%
X176085000Y-56834998D02*
X175950000Y-56699998D01*
X176085000Y-57550000D02*
X176085000Y-56834998D01*
%TO.N,/VSense*%
X202550000Y-68084364D02*
X202561364Y-68073000D01*
X181637500Y-61400000D02*
X179962500Y-61400000D01*
X181637500Y-61687500D02*
X182550000Y-62600000D01*
X181637500Y-61400000D02*
X181637500Y-61687500D01*
X202550000Y-68150000D02*
X202550000Y-68084364D01*
%TO.N,/ESC2*%
X202561364Y-55373000D02*
X201186364Y-55373000D01*
X193800000Y-62759364D02*
X193800000Y-64900000D01*
X201186364Y-55373000D02*
X193800000Y-62759364D01*
%TO.N,/ESC1*%
X202561364Y-57913000D02*
X202561364Y-57939358D01*
X202561364Y-57939358D02*
X196350000Y-64150722D01*
X196350000Y-64150722D02*
X196350000Y-64900000D01*
%TO.N,Net-(Q1-D)*%
X179490381Y-52659620D02*
X180028859Y-52659620D01*
X172750000Y-51000000D02*
X174159620Y-52409620D01*
X185050036Y-51100000D02*
X191550000Y-51100000D01*
X183871177Y-52278859D02*
X185050036Y-51100000D01*
X180409620Y-52278859D02*
X183871177Y-52278859D01*
X174159620Y-52409620D02*
X179240381Y-52409620D01*
X180028859Y-52659620D02*
X180409620Y-52278859D01*
X179240381Y-52409620D02*
X179490381Y-52659620D01*
%TO.N,Net-(Q2-D)*%
X194450000Y-54850000D02*
X195000000Y-54850000D01*
X180254165Y-53000000D02*
X183715722Y-53000000D01*
X173490686Y-52375000D02*
X174115686Y-53000000D01*
X191133000Y-51533000D02*
X194450000Y-54850000D01*
X183715722Y-53000000D02*
X185182722Y-51533000D01*
X171625000Y-52375000D02*
X173490686Y-52375000D01*
X174115686Y-53000000D02*
X179265076Y-53000000D01*
X170250000Y-51000000D02*
X171625000Y-52375000D01*
X180194545Y-53059620D02*
X180254165Y-53000000D01*
X179265076Y-53000000D02*
X179324695Y-53059620D01*
X185182722Y-51533000D02*
X191133000Y-51533000D01*
X179324695Y-53059620D02*
X180194545Y-53059620D01*
D27*
%TO.N,/SCK*%
X178390816Y-70000126D02*
X177809311Y-69418621D01*
D26*
X186396364Y-55353636D02*
X186400000Y-55350000D01*
D27*
X178704600Y-70000126D02*
X178390816Y-70000126D01*
D26*
X186396364Y-55373000D02*
X186396364Y-55353636D01*
D27*
%TO.N,/MOSI*%
X177800000Y-70300000D02*
X177800000Y-70502052D01*
D26*
X186396364Y-60453636D02*
X186350000Y-60500000D01*
D27*
X177800000Y-70502052D02*
X178247948Y-70950000D01*
X179345274Y-70950000D02*
X179499874Y-70795400D01*
X178247948Y-70950000D02*
X179345274Y-70950000D01*
D26*
X186396364Y-60453000D02*
X186396364Y-60453636D01*
%TO.N,/IR*%
X174350000Y-58215000D02*
X175885000Y-59750000D01*
X178150000Y-59750000D02*
X178400000Y-60000000D01*
X174350000Y-53800000D02*
X174350000Y-58215000D01*
X162040000Y-52775000D02*
X173325000Y-52775000D01*
X175885000Y-59750000D02*
X178150000Y-59750000D01*
X173325000Y-52775000D02*
X174350000Y-53800000D01*
%TO.N,/MISO*%
X180000000Y-70000000D02*
X180000000Y-70795400D01*
X186396364Y-57913000D02*
X186517984Y-58034620D01*
X186517984Y-58034620D02*
X186534620Y-58034620D01*
%TO.N,/INT2*%
X183249748Y-70500252D02*
X183650000Y-70100000D01*
X181295400Y-70500252D02*
X183249748Y-70500252D01*
%TO.N,/INT1*%
X181884412Y-69500000D02*
X183000000Y-68384412D01*
X181295400Y-69500000D02*
X181884412Y-69500000D01*
X183000000Y-68384412D02*
X183000000Y-68100000D01*
%TO.N,Net-(D5-DOUT)*%
X178700000Y-55700000D02*
X179750000Y-54650000D01*
X179750000Y-54650000D02*
X179750000Y-53850000D01*
%TD*%
%TA.AperFunction,Conductor*%
%TO.N,GND*%
G36*
X173999500Y-55044486D02*
G01*
X173999500Y-58261144D01*
X174001977Y-58270386D01*
X174023386Y-58350287D01*
X174023387Y-58350290D01*
X174069527Y-58430208D01*
X174069531Y-58430213D01*
X175400000Y-59760682D01*
X175400000Y-70549500D01*
X168674000Y-70549500D01*
X168606961Y-70529815D01*
X168561206Y-70477011D01*
X168550000Y-70425500D01*
X168550000Y-70058784D01*
X168567476Y-69995312D01*
X168602656Y-69936273D01*
X168693050Y-69704614D01*
X168744081Y-69461237D01*
X168750500Y-69357842D01*
X168750500Y-64692158D01*
X168744081Y-64588763D01*
X168693050Y-64345386D01*
X168693048Y-64345381D01*
X168693046Y-64345374D01*
X168602656Y-64113728D01*
X168602656Y-64113727D01*
X168567477Y-64054688D01*
X168550000Y-63991215D01*
X168550000Y-60450003D01*
X168550000Y-60450000D01*
X168550000Y-59450000D01*
X167550000Y-59450000D01*
X167549997Y-59450000D01*
X162299500Y-59450000D01*
X162232461Y-59430315D01*
X162186706Y-59377511D01*
X162175500Y-59326000D01*
X162175500Y-58617168D01*
X162175500Y-58617158D01*
X162169081Y-58513763D01*
X162118050Y-58270386D01*
X162118048Y-58270381D01*
X162118046Y-58270374D01*
X162027657Y-58038730D01*
X162027656Y-58038727D01*
X161900366Y-57825106D01*
X161900363Y-57825103D01*
X161900360Y-57825097D01*
X161739651Y-57635350D01*
X161739649Y-57635348D01*
X161549902Y-57474639D01*
X161549894Y-57474634D01*
X161336273Y-57347344D01*
X161336271Y-57347343D01*
X161336269Y-57347342D01*
X161104625Y-57256953D01*
X161104615Y-57256950D01*
X160861238Y-57205919D01*
X160861235Y-57205918D01*
X160757850Y-57199500D01*
X160757842Y-57199500D01*
X158092158Y-57199500D01*
X158092149Y-57199500D01*
X157988764Y-57205918D01*
X157988761Y-57205919D01*
X157745384Y-57256950D01*
X157745374Y-57256953D01*
X157513730Y-57347342D01*
X157300097Y-57474639D01*
X157110350Y-57635348D01*
X157110348Y-57635350D01*
X156949639Y-57825097D01*
X156822342Y-58038730D01*
X156731953Y-58270374D01*
X156731950Y-58270384D01*
X156680919Y-58513761D01*
X156680918Y-58513764D01*
X156674500Y-58617149D01*
X156674500Y-60376000D01*
X156654815Y-60443039D01*
X156602011Y-60488794D01*
X156550500Y-60500000D01*
X151008845Y-60500000D01*
X150996694Y-60499403D01*
X150819866Y-60481991D01*
X150796030Y-60477251D01*
X150631850Y-60427460D01*
X150609398Y-60418163D01*
X150514640Y-60367530D01*
X150469105Y-60343198D01*
X150419255Y-60294243D01*
X150403546Y-60233886D01*
X150401465Y-54951579D01*
X173999500Y-55044486D01*
G37*
%TD.AperFunction*%
%TA.AperFunction,Conductor*%
G36*
X175400000Y-55050000D02*
G01*
X175400000Y-56660120D01*
X175394750Y-56699997D01*
X175394750Y-56699998D01*
X175400000Y-56739874D01*
X175400000Y-58769318D01*
X174736819Y-58106137D01*
X174703334Y-58044814D01*
X174700500Y-58018456D01*
X174700500Y-55047246D01*
X175400000Y-55050000D01*
G37*
%TD.AperFunction*%
%TD*%
%TA.AperFunction,Conductor*%
%TO.N,Net-(J4-Pin_1)*%
G36*
X150563752Y-60673799D02*
G01*
X150721868Y-60721751D01*
X150721874Y-60721752D01*
X150721879Y-60721754D01*
X150746197Y-60727844D01*
X150770033Y-60732584D01*
X150794828Y-60736261D01*
X150794834Y-60736261D01*
X150794837Y-60736262D01*
X150971645Y-60753672D01*
X150971648Y-60753672D01*
X150971656Y-60753673D01*
X150984156Y-60754595D01*
X150996307Y-60755192D01*
X151008845Y-60755500D01*
X151008864Y-60755500D01*
X156550500Y-60755500D01*
X156617539Y-60775185D01*
X156663294Y-60827989D01*
X156674500Y-60879500D01*
X156674500Y-64282850D01*
X156680918Y-64386235D01*
X156680919Y-64386238D01*
X156731950Y-64629615D01*
X156731953Y-64629625D01*
X156822342Y-64861269D01*
X156949639Y-65074902D01*
X157110348Y-65264649D01*
X157110350Y-65264651D01*
X157300097Y-65425360D01*
X157300103Y-65425363D01*
X157300106Y-65425366D01*
X157513727Y-65552656D01*
X157513730Y-65552657D01*
X157745374Y-65643046D01*
X157745381Y-65643048D01*
X157745386Y-65643050D01*
X157988763Y-65694081D01*
X158092158Y-65700500D01*
X158092169Y-65700500D01*
X160757831Y-65700500D01*
X160757842Y-65700500D01*
X160861237Y-65694081D01*
X161104614Y-65643050D01*
X161104621Y-65643046D01*
X161104625Y-65643046D01*
X161183980Y-65612080D01*
X161336273Y-65552656D01*
X161549894Y-65425366D01*
X161549898Y-65425361D01*
X161554299Y-65422740D01*
X161555100Y-65424085D01*
X161614446Y-65403464D01*
X161682366Y-65419852D01*
X161730645Y-65470359D01*
X161744500Y-65527316D01*
X161744500Y-70486231D01*
X161744809Y-70498804D01*
X161745413Y-70511023D01*
X161746345Y-70523603D01*
X161761071Y-70672398D01*
X161761087Y-70672547D01*
X161763935Y-70701318D01*
X161763936Y-70701325D01*
X161767650Y-70726239D01*
X161772433Y-70750169D01*
X161778588Y-70774617D01*
X161778589Y-70774622D01*
X161828884Y-70939574D01*
X161834860Y-70956187D01*
X161839026Y-71025933D01*
X161814032Y-71076817D01*
X161797422Y-71097056D01*
X161739679Y-71136391D01*
X161701569Y-71142393D01*
X151014064Y-71142393D01*
X151000181Y-71141613D01*
X150975195Y-71138797D01*
X150887588Y-71128927D01*
X150860518Y-71122749D01*
X150760178Y-71087639D01*
X150735160Y-71075591D01*
X150645150Y-71019034D01*
X150623441Y-71001721D01*
X150548278Y-70926558D01*
X150530965Y-70904849D01*
X150474408Y-70814839D01*
X150462360Y-70789821D01*
X150457040Y-70774618D01*
X150427249Y-70689479D01*
X150421072Y-70662410D01*
X150420024Y-70653112D01*
X150408387Y-70549819D01*
X150407607Y-70535936D01*
X150407607Y-70476531D01*
X150407580Y-70476166D01*
X150406801Y-68500000D01*
X150844475Y-68500000D01*
X150864551Y-68793511D01*
X150864552Y-68793513D01*
X150924404Y-69081543D01*
X150924409Y-69081559D01*
X151022927Y-69358762D01*
X151158278Y-69619977D01*
X151158282Y-69619983D01*
X151327932Y-69860323D01*
X151528743Y-70075338D01*
X151656384Y-70179181D01*
X151756951Y-70260999D01*
X151756953Y-70261000D01*
X151756954Y-70261001D01*
X152008319Y-70413860D01*
X152008324Y-70413862D01*
X152260975Y-70523603D01*
X152278159Y-70531067D01*
X152561445Y-70610440D01*
X152817681Y-70645659D01*
X152852901Y-70650500D01*
X152852902Y-70650500D01*
X153147099Y-70650500D01*
X153178520Y-70646180D01*
X153438555Y-70610440D01*
X153721841Y-70531067D01*
X153991682Y-70413859D01*
X154243049Y-70260999D01*
X154471260Y-70075335D01*
X154672065Y-69860326D01*
X154841722Y-69619976D01*
X154977072Y-69358764D01*
X155075592Y-69081554D01*
X155075592Y-69081549D01*
X155075595Y-69081543D01*
X155108511Y-68923135D01*
X155135448Y-68793511D01*
X155155525Y-68500000D01*
X155135448Y-68206489D01*
X155118089Y-68122955D01*
X155075595Y-67918456D01*
X155075590Y-67918440D01*
X154977072Y-67641237D01*
X154977072Y-67641236D01*
X154841722Y-67380024D01*
X154841721Y-67380022D01*
X154841717Y-67380016D01*
X154672067Y-67139676D01*
X154471256Y-66924661D01*
X154243045Y-66738998D01*
X153991680Y-66586139D01*
X153991675Y-66586137D01*
X153721845Y-66468934D01*
X153438560Y-66389561D01*
X153438556Y-66389560D01*
X153438555Y-66389560D01*
X153292826Y-66369530D01*
X153147099Y-66349500D01*
X153147098Y-66349500D01*
X152852902Y-66349500D01*
X152852901Y-66349500D01*
X152561445Y-66389560D01*
X152561439Y-66389561D01*
X152278154Y-66468934D01*
X152008324Y-66586137D01*
X152008319Y-66586139D01*
X151756954Y-66738998D01*
X151528743Y-66924661D01*
X151327932Y-67139676D01*
X151158282Y-67380016D01*
X151158278Y-67380022D01*
X151022927Y-67641237D01*
X150924409Y-67918440D01*
X150924404Y-67918456D01*
X150864552Y-68206486D01*
X150864551Y-68206488D01*
X150844475Y-68500000D01*
X150406801Y-68500000D01*
X150403765Y-60792508D01*
X150423423Y-60725464D01*
X150476209Y-60679688D01*
X150545364Y-60669717D01*
X150563752Y-60673799D01*
G37*
%TD.AperFunction*%
%TD*%
%TA.AperFunction,Conductor*%
%TO.N,+BATT*%
G36*
X161934567Y-59469685D02*
G01*
X161975282Y-59512640D01*
X161993607Y-59544821D01*
X161993610Y-59544825D01*
X161993612Y-59544828D01*
X162020080Y-59575374D01*
X162039363Y-59597628D01*
X162039366Y-59597631D01*
X162039367Y-59597632D01*
X162072141Y-59629257D01*
X162160476Y-59675465D01*
X162160477Y-59675465D01*
X162160477Y-59675466D01*
X162210605Y-59690184D01*
X162227515Y-59695150D01*
X162227519Y-59695150D01*
X162227521Y-59695151D01*
X162239152Y-59696823D01*
X162299500Y-59705500D01*
X168167175Y-59705500D01*
X168234214Y-59725185D01*
X168245828Y-59733637D01*
X168247655Y-59735136D01*
X168264845Y-59752322D01*
X168266347Y-59754153D01*
X168293665Y-59818459D01*
X168294500Y-59832824D01*
X168294500Y-63991218D01*
X168303666Y-64059041D01*
X168321144Y-64122515D01*
X168347987Y-64185473D01*
X168347989Y-64185477D01*
X168367069Y-64217498D01*
X168376062Y-64235893D01*
X168443596Y-64408963D01*
X168449440Y-64428592D01*
X168488374Y-64614278D01*
X168490775Y-64632040D01*
X168494762Y-64696246D01*
X168495000Y-64703931D01*
X168495000Y-69346067D01*
X168494762Y-69353752D01*
X168490775Y-69417958D01*
X168488374Y-69435719D01*
X168449440Y-69621406D01*
X168443596Y-69641035D01*
X168376067Y-69814096D01*
X168367073Y-69832494D01*
X168347995Y-69864511D01*
X168347982Y-69864535D01*
X168321146Y-69927479D01*
X168321142Y-69927491D01*
X168303668Y-69990955D01*
X168303666Y-69990963D01*
X168294500Y-70058782D01*
X168294500Y-70425502D01*
X168300338Y-70479812D01*
X168311543Y-70531318D01*
X168311546Y-70531327D01*
X168318779Y-70557692D01*
X168318783Y-70557703D01*
X168368105Y-70644318D01*
X168368110Y-70644325D01*
X168368112Y-70644328D01*
X168395685Y-70676149D01*
X168413866Y-70697131D01*
X168413871Y-70697136D01*
X168436435Y-70718909D01*
X168471009Y-70779625D01*
X168467268Y-70849394D01*
X168459832Y-70866327D01*
X168388758Y-71000063D01*
X168375380Y-71020209D01*
X168313000Y-71096739D01*
X168255390Y-71136264D01*
X168216888Y-71142393D01*
X162304625Y-71142393D01*
X162237586Y-71122708D01*
X162209038Y-71097381D01*
X162177933Y-71059736D01*
X162164319Y-71039487D01*
X162082660Y-70887587D01*
X162073273Y-70865045D01*
X162022980Y-70700101D01*
X162018192Y-70676149D01*
X162015042Y-70644326D01*
X162000603Y-70498429D01*
X162000000Y-70486216D01*
X162000000Y-65200003D01*
X162000000Y-65200000D01*
X162000000Y-64200000D01*
X161000000Y-64200000D01*
X160999997Y-64200000D01*
X158256093Y-64200000D01*
X158243939Y-64199403D01*
X158067065Y-64181982D01*
X158043224Y-64177240D01*
X157879001Y-64127424D01*
X157856543Y-64118121D01*
X157705201Y-64037227D01*
X157684989Y-64023722D01*
X157552333Y-63914854D01*
X157535145Y-63897666D01*
X157426277Y-63765010D01*
X157412772Y-63744798D01*
X157331878Y-63593456D01*
X157322575Y-63570998D01*
X157272757Y-63406769D01*
X157268018Y-63382941D01*
X157250597Y-63206061D01*
X157250000Y-63193907D01*
X157250000Y-60456092D01*
X157250597Y-60443938D01*
X157268018Y-60267056D01*
X157272757Y-60243232D01*
X157322577Y-60078994D01*
X157331875Y-60056549D01*
X157412775Y-59905195D01*
X157426272Y-59884995D01*
X157535152Y-59752326D01*
X157552328Y-59735149D01*
X157684995Y-59626272D01*
X157705195Y-59612775D01*
X157856549Y-59531875D01*
X157878994Y-59522577D01*
X158043232Y-59472757D01*
X158067056Y-59468018D01*
X158243939Y-59450597D01*
X158256093Y-59450000D01*
X161867528Y-59450000D01*
X161934567Y-59469685D01*
G37*
%TD.AperFunction*%
%TD*%
%TA.AperFunction,Conductor*%
%TO.N,GND*%
G36*
X201352065Y-49900615D02*
G01*
X201636914Y-49916612D01*
X201645150Y-49917541D01*
X201924345Y-49964978D01*
X201932428Y-49966823D01*
X202204578Y-50045227D01*
X202212390Y-50047961D01*
X202474053Y-50156345D01*
X202481503Y-50159932D01*
X202729388Y-50296934D01*
X202736394Y-50301336D01*
X202967388Y-50465235D01*
X202973856Y-50470394D01*
X203051798Y-50540047D01*
X203185025Y-50659107D01*
X203190892Y-50664974D01*
X203238150Y-50717855D01*
X203379603Y-50876141D01*
X203384766Y-50882613D01*
X203505379Y-51052601D01*
X203548661Y-51113602D01*
X203553068Y-51120616D01*
X203690063Y-51368489D01*
X203693658Y-51375956D01*
X203777537Y-51578459D01*
X203777537Y-51635096D01*
X203737488Y-51675144D01*
X203687156Y-51677427D01*
X203635112Y-51661210D01*
X203563560Y-51638914D01*
X203563556Y-51638913D01*
X203563554Y-51638913D01*
X203492987Y-51632500D01*
X203492980Y-51632500D01*
X201629748Y-51632500D01*
X201629740Y-51632500D01*
X201559173Y-51638913D01*
X201559172Y-51638913D01*
X201559169Y-51638913D01*
X201559168Y-51638914D01*
X201396758Y-51689522D01*
X201396756Y-51689522D01*
X201396756Y-51689523D01*
X201251178Y-51777528D01*
X201130892Y-51897814D01*
X201042888Y-52043391D01*
X201042886Y-52043394D01*
X200992278Y-52205804D01*
X200992277Y-52205808D01*
X200992277Y-52205809D01*
X200985864Y-52276376D01*
X200985864Y-53389623D01*
X200992277Y-53460190D01*
X200992277Y-53460191D01*
X200992277Y-53460193D01*
X200992278Y-53460196D01*
X201042886Y-53622606D01*
X201130892Y-53768185D01*
X201251179Y-53888472D01*
X201396758Y-53976478D01*
X201559168Y-54027086D01*
X201572741Y-54028319D01*
X201583571Y-54029304D01*
X201633721Y-54055625D01*
X201650570Y-54109697D01*
X201624249Y-54159847D01*
X201583571Y-54176696D01*
X201559173Y-54178913D01*
X201559172Y-54178913D01*
X201559169Y-54178913D01*
X201559168Y-54178914D01*
X201396758Y-54229522D01*
X201396756Y-54229522D01*
X201396756Y-54229523D01*
X201251178Y-54317528D01*
X201130892Y-54437814D01*
X201056343Y-54561133D01*
X201042886Y-54583394D01*
X201004200Y-54707545D01*
X200992277Y-54745808D01*
X200992277Y-54745809D01*
X200985864Y-54816376D01*
X200985864Y-55117877D01*
X200964190Y-55170203D01*
X193713794Y-62420598D01*
X193661468Y-62442272D01*
X193609142Y-62420598D01*
X193588221Y-62378801D01*
X193586352Y-62365804D01*
X193585165Y-62357543D01*
X193525377Y-62226627D01*
X193431128Y-62117857D01*
X193337701Y-62057815D01*
X193310054Y-62040047D01*
X193310050Y-62040046D01*
X193171964Y-61999500D01*
X193171961Y-61999500D01*
X193028039Y-61999500D01*
X193028036Y-61999500D01*
X192889949Y-62040046D01*
X192889945Y-62040047D01*
X192768875Y-62117855D01*
X192768868Y-62117860D01*
X192674623Y-62226626D01*
X192614834Y-62357545D01*
X192594353Y-62500000D01*
X192614834Y-62642454D01*
X192614834Y-62642455D01*
X192614835Y-62642457D01*
X192653571Y-62727275D01*
X192674623Y-62773373D01*
X192768868Y-62882139D01*
X192768869Y-62882140D01*
X192768872Y-62882143D01*
X192889947Y-62959953D01*
X192996403Y-62991211D01*
X193028035Y-63000499D01*
X193028037Y-63000500D01*
X193028039Y-63000500D01*
X193171963Y-63000500D01*
X193171964Y-63000499D01*
X193310053Y-62959953D01*
X193385495Y-62911469D01*
X193441229Y-62901414D01*
X193487753Y-62933715D01*
X193499500Y-62973723D01*
X193499500Y-64457766D01*
X193477826Y-64510092D01*
X193472715Y-64514211D01*
X193472872Y-64514392D01*
X193468868Y-64517860D01*
X193374623Y-64626626D01*
X193314834Y-64757545D01*
X193294353Y-64900000D01*
X193314834Y-65042454D01*
X193314834Y-65042455D01*
X193314835Y-65042457D01*
X193349271Y-65117860D01*
X193374623Y-65173373D01*
X193468868Y-65282139D01*
X193468869Y-65282140D01*
X193468872Y-65282143D01*
X193589947Y-65359953D01*
X193673660Y-65384533D01*
X193728035Y-65400499D01*
X193728037Y-65400500D01*
X193728039Y-65400500D01*
X193871963Y-65400500D01*
X193871964Y-65400499D01*
X194010053Y-65359953D01*
X194131128Y-65282143D01*
X194225377Y-65173373D01*
X194285165Y-65042457D01*
X194305647Y-64900000D01*
X194285165Y-64757543D01*
X194225377Y-64626627D01*
X194131128Y-64517857D01*
X194131126Y-64517855D01*
X194127128Y-64514392D01*
X194129041Y-64512183D01*
X194102183Y-64473459D01*
X194100500Y-64457766D01*
X194100500Y-62914486D01*
X194122173Y-62862161D01*
X196419704Y-60564629D01*
X196472029Y-60542956D01*
X196524355Y-60564630D01*
X196545276Y-60606425D01*
X196564834Y-60742454D01*
X196564834Y-60742455D01*
X196564835Y-60742457D01*
X196613624Y-60849288D01*
X196624623Y-60873373D01*
X196718868Y-60982139D01*
X196718869Y-60982140D01*
X196718872Y-60982143D01*
X196839947Y-61059953D01*
X196946403Y-61091211D01*
X196978035Y-61100499D01*
X196978037Y-61100500D01*
X196978039Y-61100500D01*
X197121963Y-61100500D01*
X197121964Y-61100499D01*
X197260053Y-61059953D01*
X197381128Y-60982143D01*
X197475377Y-60873373D01*
X197535165Y-60742457D01*
X197555647Y-60600000D01*
X197535165Y-60457543D01*
X197475377Y-60326627D01*
X197381128Y-60217857D01*
X197324182Y-60181260D01*
X197260054Y-60140047D01*
X197260050Y-60140046D01*
X197121964Y-60099500D01*
X197121961Y-60099500D01*
X197063486Y-60099500D01*
X197011160Y-60077826D01*
X196989486Y-60025500D01*
X197011160Y-59973174D01*
X198945546Y-58038788D01*
X200903786Y-56080547D01*
X200956111Y-56058874D01*
X201008437Y-56080548D01*
X201026760Y-56110858D01*
X201042884Y-56162603D01*
X201042886Y-56162607D01*
X201123800Y-56296454D01*
X201130892Y-56308185D01*
X201251179Y-56428472D01*
X201396758Y-56516478D01*
X201559168Y-56567086D01*
X201572741Y-56568319D01*
X201583571Y-56569304D01*
X201633721Y-56595625D01*
X201650570Y-56649697D01*
X201624249Y-56699847D01*
X201583571Y-56716696D01*
X201559173Y-56718913D01*
X201559172Y-56718913D01*
X201559169Y-56718913D01*
X201559168Y-56718914D01*
X201396758Y-56769522D01*
X201396756Y-56769522D01*
X201396756Y-56769523D01*
X201251178Y-56857528D01*
X201130892Y-56977814D01*
X201043868Y-57121769D01*
X201042886Y-57123394D01*
X201001657Y-57255706D01*
X200992277Y-57285808D01*
X200992277Y-57285809D01*
X200985864Y-57356376D01*
X200985864Y-58469623D01*
X200992277Y-58540190D01*
X200992277Y-58540191D01*
X200992277Y-58540193D01*
X200992278Y-58540196D01*
X201042886Y-58702606D01*
X201042887Y-58702607D01*
X201130893Y-58848187D01*
X201132925Y-58850780D01*
X201148138Y-58905335D01*
X201127003Y-58948747D01*
X196165489Y-63910262D01*
X196109540Y-63966210D01*
X196069979Y-64034731D01*
X196069977Y-64034736D01*
X196049500Y-64111157D01*
X196049500Y-64457766D01*
X196027826Y-64510092D01*
X196022715Y-64514211D01*
X196022872Y-64514392D01*
X196018868Y-64517860D01*
X195924623Y-64626626D01*
X195864834Y-64757545D01*
X195844353Y-64900000D01*
X195864834Y-65042454D01*
X195864834Y-65042455D01*
X195864835Y-65042457D01*
X195899271Y-65117860D01*
X195924623Y-65173373D01*
X196018868Y-65282139D01*
X196018869Y-65282140D01*
X196018872Y-65282143D01*
X196139947Y-65359953D01*
X196223660Y-65384533D01*
X196278035Y-65400499D01*
X196278037Y-65400500D01*
X196278039Y-65400500D01*
X196421963Y-65400500D01*
X196421964Y-65400499D01*
X196560053Y-65359953D01*
X196681128Y-65282143D01*
X196775377Y-65173373D01*
X196835165Y-65042457D01*
X196855647Y-64900000D01*
X196835165Y-64757543D01*
X196775377Y-64626627D01*
X196681128Y-64517857D01*
X196681126Y-64517855D01*
X196677128Y-64514392D01*
X196679041Y-64512183D01*
X196652183Y-64473459D01*
X196650500Y-64457766D01*
X196650500Y-64305845D01*
X196672174Y-64253519D01*
X200859538Y-60066155D01*
X200911864Y-60044481D01*
X200964190Y-60066155D01*
X200985864Y-60118481D01*
X200985864Y-61009623D01*
X200992277Y-61080190D01*
X200992277Y-61080191D01*
X200992277Y-61080193D01*
X200992278Y-61080196D01*
X201042886Y-61242606D01*
X201130892Y-61388185D01*
X201251179Y-61508472D01*
X201396758Y-61596478D01*
X201559168Y-61647086D01*
X201572741Y-61648319D01*
X201583571Y-61649304D01*
X201633721Y-61675625D01*
X201650570Y-61729697D01*
X201624249Y-61779847D01*
X201583571Y-61796696D01*
X201559173Y-61798913D01*
X201559172Y-61798913D01*
X201559169Y-61798913D01*
X201559168Y-61798914D01*
X201396758Y-61849522D01*
X201396756Y-61849522D01*
X201396756Y-61849523D01*
X201251178Y-61937528D01*
X201130892Y-62057814D01*
X201042887Y-62203392D01*
X201042886Y-62203394D01*
X200994852Y-62357543D01*
X200992277Y-62365808D01*
X200992277Y-62365809D01*
X200985864Y-62436376D01*
X200985864Y-63549623D01*
X200992277Y-63620190D01*
X200992277Y-63620191D01*
X200992277Y-63620193D01*
X200992278Y-63620196D01*
X201042886Y-63782606D01*
X201130892Y-63928185D01*
X201251179Y-64048472D01*
X201396758Y-64136478D01*
X201559168Y-64187086D01*
X201571537Y-64188210D01*
X201583571Y-64189304D01*
X201633721Y-64215625D01*
X201650570Y-64269697D01*
X201624249Y-64319847D01*
X201583571Y-64336696D01*
X201559173Y-64338913D01*
X201559172Y-64338913D01*
X201559169Y-64338913D01*
X201559168Y-64338914D01*
X201396758Y-64389522D01*
X201396756Y-64389522D01*
X201396756Y-64389523D01*
X201251178Y-64477528D01*
X201130892Y-64597814D01*
X201042887Y-64743392D01*
X201042886Y-64743394D01*
X200994087Y-64900000D01*
X200992277Y-64905808D01*
X200992277Y-64905809D01*
X200985864Y-64976376D01*
X200985864Y-66089623D01*
X200992277Y-66160190D01*
X200992277Y-66160191D01*
X200992277Y-66160193D01*
X200992278Y-66160196D01*
X201042886Y-66322606D01*
X201130892Y-66468185D01*
X201251179Y-66588472D01*
X201396758Y-66676478D01*
X201559168Y-66727086D01*
X201572741Y-66728319D01*
X201583571Y-66729304D01*
X201633721Y-66755625D01*
X201650570Y-66809697D01*
X201624249Y-66859847D01*
X201583571Y-66876696D01*
X201559173Y-66878913D01*
X201559172Y-66878913D01*
X201559169Y-66878913D01*
X201559168Y-66878914D01*
X201396758Y-66929522D01*
X201396756Y-66929522D01*
X201396756Y-66929523D01*
X201251178Y-67017528D01*
X201130892Y-67137814D01*
X201063230Y-67249741D01*
X201042886Y-67283394D01*
X200994021Y-67440210D01*
X200992277Y-67445808D01*
X200992277Y-67445809D01*
X200985864Y-67516376D01*
X200985864Y-68629623D01*
X200992277Y-68700190D01*
X200992277Y-68700191D01*
X200992277Y-68700193D01*
X200992278Y-68700196D01*
X201042886Y-68862606D01*
X201130892Y-69008185D01*
X201251179Y-69128472D01*
X201396758Y-69216478D01*
X201559168Y-69267086D01*
X201629748Y-69273500D01*
X201629750Y-69273500D01*
X203492978Y-69273500D01*
X203492980Y-69273500D01*
X203563560Y-69267086D01*
X203725970Y-69216478D01*
X203830632Y-69153206D01*
X203886624Y-69144685D01*
X203932243Y-69178252D01*
X203942915Y-69216564D01*
X203942417Y-70480013D01*
X203942393Y-70480357D01*
X203942393Y-70538738D01*
X203941928Y-70547023D01*
X203928296Y-70668015D01*
X203924608Y-70684171D01*
X203885779Y-70795136D01*
X203878590Y-70810065D01*
X203816039Y-70909616D01*
X203805707Y-70922572D01*
X203722572Y-71005707D01*
X203709616Y-71016039D01*
X203610065Y-71078590D01*
X203595136Y-71085779D01*
X203505566Y-71117121D01*
X203484169Y-71124608D01*
X203468015Y-71128296D01*
X203347023Y-71141928D01*
X203338738Y-71142393D01*
X180448847Y-71142393D01*
X180396521Y-71120719D01*
X180374847Y-71068393D01*
X180376268Y-71053961D01*
X180378300Y-71043748D01*
X180378300Y-70547052D01*
X180366667Y-70488569D01*
X180364491Y-70485313D01*
X180342396Y-70452245D01*
X180331346Y-70396696D01*
X180347998Y-70362673D01*
X180425377Y-70273373D01*
X180485165Y-70142457D01*
X180505647Y-70000000D01*
X180485165Y-69857543D01*
X180438443Y-69755239D01*
X180436423Y-69698640D01*
X180475016Y-69657187D01*
X180505757Y-69650500D01*
X180621963Y-69650500D01*
X180621964Y-69650499D01*
X180690069Y-69630502D01*
X180760053Y-69609953D01*
X180760059Y-69609948D01*
X180761557Y-69609265D01*
X180762512Y-69609230D01*
X180765131Y-69608462D01*
X180765327Y-69609130D01*
X180818158Y-69607242D01*
X180859612Y-69645834D01*
X180866300Y-69676577D01*
X180866300Y-69697548D01*
X180871454Y-69723459D01*
X180877933Y-69756032D01*
X180885835Y-69767857D01*
X180922248Y-69822352D01*
X180964003Y-69850252D01*
X180988567Y-69866666D01*
X180988568Y-69866666D01*
X180988569Y-69866667D01*
X181047052Y-69878300D01*
X181047054Y-69878300D01*
X181543746Y-69878300D01*
X181543748Y-69878300D01*
X181602231Y-69866667D01*
X181668552Y-69822352D01*
X181668553Y-69822349D01*
X181668730Y-69822174D01*
X181668963Y-69822077D01*
X181674612Y-69818303D01*
X181675362Y-69819426D01*
X181721056Y-69800500D01*
X181876477Y-69800500D01*
X181928803Y-69822174D01*
X181949724Y-69863969D01*
X181968233Y-69992706D01*
X181968233Y-69992707D01*
X181968234Y-69992709D01*
X182014955Y-70095012D01*
X182016976Y-70151612D01*
X181978383Y-70193065D01*
X181947642Y-70199752D01*
X181721056Y-70199752D01*
X181675362Y-70180825D01*
X181674612Y-70181949D01*
X181668963Y-70178174D01*
X181668730Y-70178078D01*
X181668551Y-70177899D01*
X181602232Y-70133585D01*
X181602233Y-70133585D01*
X181572989Y-70127768D01*
X181543748Y-70121952D01*
X181047052Y-70121952D01*
X181017810Y-70127768D01*
X180988567Y-70133585D01*
X180922249Y-70177899D01*
X180922247Y-70177901D01*
X180877933Y-70244219D01*
X180870177Y-70283209D01*
X180866300Y-70302704D01*
X180866300Y-70697800D01*
X180871810Y-70725499D01*
X180877933Y-70756284D01*
X180900170Y-70789562D01*
X180922248Y-70822604D01*
X180966360Y-70852079D01*
X180988567Y-70866918D01*
X180988568Y-70866918D01*
X180988569Y-70866919D01*
X181047052Y-70878552D01*
X181047054Y-70878552D01*
X181543746Y-70878552D01*
X181543748Y-70878552D01*
X181602231Y-70866919D01*
X181668552Y-70822604D01*
X181668553Y-70822601D01*
X181668730Y-70822426D01*
X181668963Y-70822329D01*
X181674612Y-70818555D01*
X181675362Y-70819678D01*
X181721056Y-70800752D01*
X183289312Y-70800752D01*
X183289312Y-70800751D01*
X183365737Y-70780273D01*
X183374988Y-70774931D01*
X183429699Y-70767165D01*
X183564944Y-70800500D01*
X183564948Y-70800500D01*
X183735052Y-70800500D01*
X183735056Y-70800500D01*
X183900225Y-70759790D01*
X184050852Y-70680734D01*
X184178183Y-70567929D01*
X184274818Y-70427930D01*
X184335140Y-70268872D01*
X184345461Y-70183870D01*
X184355645Y-70100003D01*
X184355645Y-70099996D01*
X184335140Y-69931128D01*
X184274818Y-69772070D01*
X184178183Y-69632071D01*
X184050856Y-69519269D01*
X184050853Y-69519267D01*
X184050852Y-69519266D01*
X183900225Y-69440210D01*
X183900222Y-69440209D01*
X183735058Y-69399500D01*
X183735056Y-69399500D01*
X183564944Y-69399500D01*
X183564941Y-69399500D01*
X183399777Y-69440209D01*
X183249146Y-69519267D01*
X183249143Y-69519269D01*
X183121816Y-69632071D01*
X183064776Y-69714708D01*
X183017213Y-69745459D01*
X182961838Y-69733572D01*
X182936562Y-69703412D01*
X182933883Y-69697545D01*
X182878776Y-69576879D01*
X182828855Y-69519267D01*
X182784530Y-69468112D01*
X182784528Y-69468111D01*
X182784527Y-69468109D01*
X182707522Y-69418621D01*
X182663453Y-69390299D01*
X182663449Y-69390298D01*
X182594218Y-69369970D01*
X182550118Y-69334432D01*
X182544064Y-69278120D01*
X182562738Y-69246644D01*
X182987209Y-68822174D01*
X183039535Y-68800500D01*
X183085052Y-68800500D01*
X183085056Y-68800500D01*
X183250225Y-68759790D01*
X183400852Y-68680734D01*
X183528183Y-68567929D01*
X183624818Y-68427930D01*
X183685140Y-68268872D01*
X183697115Y-68170250D01*
X183705645Y-68100003D01*
X183705645Y-68099996D01*
X183685140Y-67931128D01*
X183624818Y-67772070D01*
X183528183Y-67632071D01*
X183400856Y-67519269D01*
X183400853Y-67519267D01*
X183400852Y-67519266D01*
X183250225Y-67440210D01*
X183250222Y-67440209D01*
X183085058Y-67399500D01*
X183085056Y-67399500D01*
X182914944Y-67399500D01*
X182914941Y-67399500D01*
X182749777Y-67440209D01*
X182599146Y-67519267D01*
X182599143Y-67519269D01*
X182471816Y-67632071D01*
X182375181Y-67772070D01*
X182314859Y-67931128D01*
X182294355Y-68099996D01*
X182294355Y-68100003D01*
X182314859Y-68268871D01*
X182375181Y-68427929D01*
X182403988Y-68469663D01*
X182415875Y-68525039D01*
X182395413Y-68564026D01*
X181781615Y-69177826D01*
X181729289Y-69199500D01*
X181721056Y-69199500D01*
X181675362Y-69180573D01*
X181674612Y-69181697D01*
X181668963Y-69177922D01*
X181668730Y-69177826D01*
X181668551Y-69177647D01*
X181602232Y-69133333D01*
X181602233Y-69133333D01*
X181572989Y-69127516D01*
X181543748Y-69121700D01*
X181543746Y-69121700D01*
X181115700Y-69121700D01*
X181063374Y-69100026D01*
X181042453Y-69058231D01*
X181035165Y-69007545D01*
X181035165Y-69007543D01*
X180975377Y-68876627D01*
X180910997Y-68802328D01*
X180881131Y-68767860D01*
X180877128Y-68764392D01*
X180879041Y-68762183D01*
X180852183Y-68723459D01*
X180850500Y-68707766D01*
X180850500Y-68558262D01*
X180862972Y-68517149D01*
X180866793Y-68511431D01*
X180878426Y-68452948D01*
X180878426Y-68148209D01*
X180882246Y-68129002D01*
X180881856Y-68128925D01*
X180883278Y-68121776D01*
X180883278Y-68022120D01*
X180881856Y-68014972D01*
X180882246Y-68014894D01*
X180878426Y-67995687D01*
X180878426Y-67956253D01*
X180877282Y-67950500D01*
X180866793Y-67897769D01*
X180866792Y-67897767D01*
X180850551Y-67873461D01*
X180839501Y-67817913D01*
X180870966Y-67770820D01*
X180872001Y-67770140D01*
X180931128Y-67732143D01*
X180985058Y-67669903D01*
X181035703Y-67644552D01*
X181089442Y-67662437D01*
X181108295Y-67687621D01*
X181124622Y-67723372D01*
X181218868Y-67832139D01*
X181218869Y-67832140D01*
X181218872Y-67832143D01*
X181339947Y-67909953D01*
X181446403Y-67941211D01*
X181478035Y-67950499D01*
X181478037Y-67950500D01*
X181478039Y-67950500D01*
X181621963Y-67950500D01*
X181621964Y-67950499D01*
X181760053Y-67909953D01*
X181881128Y-67832143D01*
X181975377Y-67723373D01*
X182035165Y-67592457D01*
X182055647Y-67450000D01*
X182035165Y-67307543D01*
X181986051Y-67200000D01*
X184744353Y-67200000D01*
X184764834Y-67342454D01*
X184764834Y-67342455D01*
X184764835Y-67342457D01*
X184812035Y-67445809D01*
X184816586Y-67455774D01*
X184822969Y-67493211D01*
X184820864Y-67516373D01*
X184820864Y-68568758D01*
X184814177Y-68599498D01*
X184764834Y-68707544D01*
X184764834Y-68707546D01*
X184744353Y-68850000D01*
X184764834Y-68992454D01*
X184764834Y-68992455D01*
X184764835Y-68992457D01*
X184794330Y-69057042D01*
X184824623Y-69123373D01*
X184918868Y-69232139D01*
X184918869Y-69232140D01*
X184918872Y-69232143D01*
X185039947Y-69309953D01*
X185123316Y-69334432D01*
X185178035Y-69350499D01*
X185178037Y-69350500D01*
X185178039Y-69350500D01*
X185321963Y-69350500D01*
X185321964Y-69350499D01*
X185328677Y-69348528D01*
X185460053Y-69309953D01*
X185498496Y-69285246D01*
X185538503Y-69273500D01*
X187261497Y-69273500D01*
X187301503Y-69285246D01*
X187339947Y-69309953D01*
X187423316Y-69334432D01*
X187478035Y-69350499D01*
X187478037Y-69350500D01*
X187478039Y-69350500D01*
X187621963Y-69350500D01*
X187621964Y-69350499D01*
X187628677Y-69348528D01*
X187760053Y-69309953D01*
X187881128Y-69232143D01*
X187975377Y-69123373D01*
X188035165Y-68992457D01*
X188055647Y-68850000D01*
X188035165Y-68707543D01*
X187978551Y-68583577D01*
X187971864Y-68552836D01*
X187971864Y-67516385D01*
X187970965Y-67506498D01*
X187977347Y-67469057D01*
X188035165Y-67342457D01*
X188055647Y-67200000D01*
X188035165Y-67057543D01*
X187975377Y-66926627D01*
X187893506Y-66832142D01*
X187881131Y-66817860D01*
X187881129Y-66817859D01*
X187881128Y-66817857D01*
X187822136Y-66779945D01*
X187760054Y-66740047D01*
X187760050Y-66740046D01*
X187621964Y-66699500D01*
X187621961Y-66699500D01*
X187478039Y-66699500D01*
X187478036Y-66699500D01*
X187339949Y-66740046D01*
X187339945Y-66740047D01*
X187218875Y-66817855D01*
X187218871Y-66817858D01*
X187216899Y-66820134D01*
X187193653Y-66846960D01*
X187143008Y-66872311D01*
X187137729Y-66872500D01*
X185662271Y-66872500D01*
X185609945Y-66850826D01*
X185606354Y-66846970D01*
X185581128Y-66817857D01*
X185522136Y-66779945D01*
X185460054Y-66740047D01*
X185460050Y-66740046D01*
X185321964Y-66699500D01*
X185321961Y-66699500D01*
X185178039Y-66699500D01*
X185178036Y-66699500D01*
X185039949Y-66740046D01*
X185039945Y-66740047D01*
X184918875Y-66817855D01*
X184918868Y-66817860D01*
X184824623Y-66926626D01*
X184764834Y-67057545D01*
X184744353Y-67200000D01*
X181986051Y-67200000D01*
X181975377Y-67176627D01*
X181951814Y-67149434D01*
X181881131Y-67067860D01*
X181881129Y-67067859D01*
X181881128Y-67067857D01*
X181794605Y-67012252D01*
X181762304Y-66965730D01*
X181772360Y-66909993D01*
X181794606Y-66887747D01*
X181881128Y-66832143D01*
X181975377Y-66723373D01*
X182035165Y-66592457D01*
X182055647Y-66450000D01*
X182035165Y-66307543D01*
X181975377Y-66176627D01*
X181951814Y-66149434D01*
X181881131Y-66067860D01*
X181877128Y-66064392D01*
X181878746Y-66062524D01*
X181851207Y-66022876D01*
X181861253Y-65967137D01*
X181883504Y-65944881D01*
X181981128Y-65882143D01*
X182075377Y-65773373D01*
X182135165Y-65642457D01*
X182155647Y-65500000D01*
X182135165Y-65357543D01*
X182075377Y-65226627D01*
X182035106Y-65180151D01*
X181981131Y-65117860D01*
X181981129Y-65117859D01*
X181981128Y-65117857D01*
X181884139Y-65055526D01*
X181860054Y-65040047D01*
X181860050Y-65040046D01*
X181721964Y-64999500D01*
X181721961Y-64999500D01*
X181578039Y-64999500D01*
X181578036Y-64999500D01*
X181472984Y-65030346D01*
X181416672Y-65024292D01*
X181381134Y-64980192D01*
X181387188Y-64923880D01*
X181396204Y-64910891D01*
X181450377Y-64848373D01*
X181510165Y-64717457D01*
X181530647Y-64575000D01*
X181510165Y-64432543D01*
X181450377Y-64301627D01*
X181404273Y-64248420D01*
X181360549Y-64197959D01*
X181342664Y-64144221D01*
X181368016Y-64093574D01*
X181416475Y-64075500D01*
X181990249Y-64075500D01*
X181990256Y-64075500D01*
X182019849Y-64072725D01*
X182089162Y-64048471D01*
X182144473Y-64029117D01*
X182144473Y-64029116D01*
X182144475Y-64029116D01*
X182250711Y-63950711D01*
X182329116Y-63844475D01*
X182372725Y-63719849D01*
X182375500Y-63690256D01*
X182375500Y-63169244D01*
X182397174Y-63116918D01*
X182449500Y-63095244D01*
X182470352Y-63098243D01*
X182478037Y-63100500D01*
X182478039Y-63100500D01*
X182621963Y-63100500D01*
X182621964Y-63100499D01*
X182760053Y-63059953D01*
X182881128Y-62982143D01*
X182975377Y-62873373D01*
X183035165Y-62742457D01*
X183055647Y-62600000D01*
X183035165Y-62457543D01*
X182975377Y-62326627D01*
X182911770Y-62253220D01*
X182881131Y-62217860D01*
X182881129Y-62217859D01*
X182881128Y-62217857D01*
X182824182Y-62181260D01*
X182760054Y-62140047D01*
X182760050Y-62140046D01*
X182621964Y-62099500D01*
X182621961Y-62099500D01*
X182505123Y-62099500D01*
X182452797Y-62077826D01*
X182327576Y-61952605D01*
X182305902Y-61900279D01*
X182320362Y-61856336D01*
X182329117Y-61844473D01*
X182372723Y-61719854D01*
X182372722Y-61719854D01*
X182372725Y-61719849D01*
X182375500Y-61690256D01*
X182375500Y-61109744D01*
X182372725Y-61080151D01*
X182372723Y-61080145D01*
X182329117Y-60955526D01*
X182270886Y-60876626D01*
X182250711Y-60849289D01*
X182200135Y-60811962D01*
X182144473Y-60770882D01*
X182019854Y-60727276D01*
X182019855Y-60727276D01*
X182019850Y-60727275D01*
X182019849Y-60727275D01*
X181990256Y-60724500D01*
X181284744Y-60724500D01*
X181255151Y-60727275D01*
X181255149Y-60727275D01*
X181255145Y-60727276D01*
X181130526Y-60770882D01*
X181024290Y-60849288D01*
X181024288Y-60849290D01*
X180945883Y-60955526D01*
X180912846Y-61049941D01*
X180875106Y-61092172D01*
X180842999Y-61099500D01*
X180757001Y-61099500D01*
X180704675Y-61077826D01*
X180687154Y-61049941D01*
X180672318Y-61007543D01*
X180654116Y-60955525D01*
X180575711Y-60849289D01*
X180525135Y-60811962D01*
X180469473Y-60770882D01*
X180344854Y-60727276D01*
X180344855Y-60727276D01*
X180344850Y-60727275D01*
X180344849Y-60727275D01*
X180315256Y-60724500D01*
X180130486Y-60724500D01*
X180078160Y-60702826D01*
X180056486Y-60650500D01*
X180078160Y-60598174D01*
X180090476Y-60588248D01*
X180144060Y-60553813D01*
X180238309Y-60445043D01*
X180298097Y-60314127D01*
X180318579Y-60171670D01*
X180298097Y-60029213D01*
X180284756Y-60000000D01*
X180444353Y-60000000D01*
X180464834Y-60142454D01*
X180464834Y-60142455D01*
X180464835Y-60142457D01*
X180499271Y-60217860D01*
X180524623Y-60273373D01*
X180618868Y-60382139D01*
X180618869Y-60382140D01*
X180618872Y-60382143D01*
X180711474Y-60441654D01*
X180716746Y-60445043D01*
X180739947Y-60459953D01*
X180846403Y-60491211D01*
X180878035Y-60500499D01*
X180878037Y-60500500D01*
X180878039Y-60500500D01*
X181021963Y-60500500D01*
X181021964Y-60500499D01*
X181160053Y-60459953D01*
X181281128Y-60382143D01*
X181375377Y-60273373D01*
X181435165Y-60142457D01*
X181451753Y-60027082D01*
X181464965Y-60004814D01*
X181460976Y-59995184D01*
X181585034Y-59995184D01*
X181598246Y-60027082D01*
X181600624Y-60043617D01*
X181614834Y-60142454D01*
X181614834Y-60142455D01*
X181614835Y-60142457D01*
X181649271Y-60217860D01*
X181674623Y-60273373D01*
X181768868Y-60382139D01*
X181768869Y-60382140D01*
X181768872Y-60382143D01*
X181861474Y-60441654D01*
X181866746Y-60445043D01*
X181889947Y-60459953D01*
X181996403Y-60491211D01*
X182028035Y-60500499D01*
X182028037Y-60500500D01*
X182028039Y-60500500D01*
X182171963Y-60500500D01*
X182171964Y-60500499D01*
X182310053Y-60459953D01*
X182431128Y-60382143D01*
X182525377Y-60273373D01*
X182585165Y-60142457D01*
X182605647Y-60000000D01*
X182585165Y-59857543D01*
X182525377Y-59726627D01*
X182431128Y-59617857D01*
X182374182Y-59581260D01*
X182310054Y-59540047D01*
X182310050Y-59540046D01*
X182171964Y-59499500D01*
X182171961Y-59499500D01*
X182028039Y-59499500D01*
X182028036Y-59499500D01*
X181889949Y-59540046D01*
X181889945Y-59540047D01*
X181768875Y-59617855D01*
X181768868Y-59617860D01*
X181674623Y-59726626D01*
X181614834Y-59857545D01*
X181598247Y-59972916D01*
X181585034Y-59995184D01*
X181460976Y-59995184D01*
X181451753Y-59972916D01*
X181435165Y-59857545D01*
X181435165Y-59857543D01*
X181375377Y-59726627D01*
X181281128Y-59617857D01*
X181224182Y-59581260D01*
X181160054Y-59540047D01*
X181160050Y-59540046D01*
X181021964Y-59499500D01*
X181021961Y-59499500D01*
X180878039Y-59499500D01*
X180878036Y-59499500D01*
X180739949Y-59540046D01*
X180739945Y-59540047D01*
X180618875Y-59617855D01*
X180618868Y-59617860D01*
X180524623Y-59726626D01*
X180464834Y-59857545D01*
X180444353Y-60000000D01*
X180284756Y-60000000D01*
X180238309Y-59898297D01*
X180214746Y-59871104D01*
X180144063Y-59789530D01*
X180144061Y-59789529D01*
X180144060Y-59789527D01*
X180087114Y-59752930D01*
X180022986Y-59711717D01*
X180022982Y-59711716D01*
X179884896Y-59671170D01*
X179884893Y-59671170D01*
X179740971Y-59671170D01*
X179740968Y-59671170D01*
X179602881Y-59711716D01*
X179602877Y-59711717D01*
X179481807Y-59789525D01*
X179481800Y-59789530D01*
X179387555Y-59898296D01*
X179327766Y-60029215D01*
X179307285Y-60171670D01*
X179327766Y-60314124D01*
X179327766Y-60314125D01*
X179327767Y-60314127D01*
X179358829Y-60382143D01*
X179387555Y-60445043D01*
X179481800Y-60553809D01*
X179481801Y-60553810D01*
X179481804Y-60553813D01*
X179553673Y-60600000D01*
X179563633Y-60606401D01*
X179595935Y-60652924D01*
X179585879Y-60708661D01*
X179548067Y-60738501D01*
X179455526Y-60770882D01*
X179349290Y-60849288D01*
X179349288Y-60849290D01*
X179270882Y-60955526D01*
X179227276Y-61080145D01*
X179227275Y-61080149D01*
X179227275Y-61080151D01*
X179224500Y-61109744D01*
X179224500Y-61690256D01*
X179227275Y-61719849D01*
X179227275Y-61719851D01*
X179227276Y-61719854D01*
X179270882Y-61844473D01*
X179287415Y-61866874D01*
X179349289Y-61950711D01*
X179416074Y-62000000D01*
X179455526Y-62029117D01*
X179580145Y-62072723D01*
X179580151Y-62072725D01*
X179609744Y-62075500D01*
X179609751Y-62075500D01*
X180315249Y-62075500D01*
X180315256Y-62075500D01*
X180344849Y-62072725D01*
X180401532Y-62052890D01*
X180469473Y-62029117D01*
X180469473Y-62029116D01*
X180469475Y-62029116D01*
X180575711Y-61950711D01*
X180654116Y-61844475D01*
X180687154Y-61750059D01*
X180724894Y-61707828D01*
X180757001Y-61700500D01*
X180842999Y-61700500D01*
X180895325Y-61722174D01*
X180912846Y-61750059D01*
X180944334Y-61840047D01*
X180945884Y-61844475D01*
X181024289Y-61950711D01*
X181091074Y-62000000D01*
X181130526Y-62029117D01*
X181255145Y-62072723D01*
X181255151Y-62072725D01*
X181284744Y-62075500D01*
X181569877Y-62075500D01*
X181622203Y-62097174D01*
X182028301Y-62503272D01*
X182049975Y-62555598D01*
X182049222Y-62566127D01*
X182045750Y-62590281D01*
X182044353Y-62600000D01*
X182050099Y-62639969D01*
X182036093Y-62694846D01*
X181987385Y-62723747D01*
X181976853Y-62724500D01*
X181284744Y-62724500D01*
X181255151Y-62727275D01*
X181255149Y-62727275D01*
X181255145Y-62727276D01*
X181130526Y-62770882D01*
X181024290Y-62849288D01*
X181024288Y-62849290D01*
X180945882Y-62955526D01*
X180902276Y-63080145D01*
X180902275Y-63080149D01*
X180902275Y-63080151D01*
X180899500Y-63109744D01*
X180899500Y-63690256D01*
X180902275Y-63719849D01*
X180902275Y-63719851D01*
X180902276Y-63719854D01*
X180945882Y-63844473D01*
X180962415Y-63866874D01*
X181024289Y-63950711D01*
X181024290Y-63950711D01*
X181027582Y-63955172D01*
X181025337Y-63956828D01*
X181043427Y-64000500D01*
X181021753Y-64052826D01*
X180969427Y-64074500D01*
X180953036Y-64074500D01*
X180814949Y-64115046D01*
X180814945Y-64115047D01*
X180693875Y-64192855D01*
X180693868Y-64192860D01*
X180599623Y-64301626D01*
X180539834Y-64432545D01*
X180519353Y-64575000D01*
X180539834Y-64717454D01*
X180539834Y-64717455D01*
X180539835Y-64717457D01*
X180589988Y-64827275D01*
X180599623Y-64848373D01*
X180693868Y-64957139D01*
X180693869Y-64957140D01*
X180693872Y-64957143D01*
X180814947Y-65034953D01*
X180921403Y-65066211D01*
X180953035Y-65075499D01*
X180953037Y-65075500D01*
X180953039Y-65075500D01*
X181096962Y-65075500D01*
X181120563Y-65068569D01*
X181202016Y-65044653D01*
X181258327Y-65050706D01*
X181293865Y-65094806D01*
X181287812Y-65151119D01*
X181278789Y-65164114D01*
X181224624Y-65226625D01*
X181164834Y-65357545D01*
X181144353Y-65500000D01*
X181164834Y-65642454D01*
X181164834Y-65642455D01*
X181164835Y-65642457D01*
X181168952Y-65651472D01*
X181224623Y-65773373D01*
X181318868Y-65882139D01*
X181318870Y-65882140D01*
X181318872Y-65882143D01*
X181318874Y-65882144D01*
X181322872Y-65885608D01*
X181321252Y-65887477D01*
X181348790Y-65927114D01*
X181338751Y-65982855D01*
X181316494Y-66005118D01*
X181218877Y-66067853D01*
X181218868Y-66067860D01*
X181124621Y-66176628D01*
X181121761Y-66181080D01*
X181119884Y-66179873D01*
X181084084Y-66213189D01*
X181027484Y-66211155D01*
X181002316Y-66192309D01*
X180985346Y-66172725D01*
X180981131Y-66167860D01*
X180981129Y-66167859D01*
X180981128Y-66167857D01*
X180920846Y-66129116D01*
X180860054Y-66090047D01*
X180860050Y-66090046D01*
X180721964Y-66049500D01*
X180721961Y-66049500D01*
X180578039Y-66049500D01*
X180578036Y-66049500D01*
X180439949Y-66090046D01*
X180439945Y-66090047D01*
X180318875Y-66167855D01*
X180318868Y-66167860D01*
X180224623Y-66276626D01*
X180164834Y-66407545D01*
X180144353Y-66550000D01*
X180164834Y-66692454D01*
X180164834Y-66692455D01*
X180164835Y-66692457D01*
X180189644Y-66746780D01*
X180224623Y-66823373D01*
X180267355Y-66872689D01*
X180285240Y-66926428D01*
X180267355Y-66969607D01*
X180174623Y-67076626D01*
X180114834Y-67207545D01*
X180094353Y-67350000D01*
X180102445Y-67406285D01*
X180088438Y-67461163D01*
X180039729Y-67490063D01*
X180000880Y-67485183D01*
X179977502Y-67475500D01*
X179699828Y-67475500D01*
X179130522Y-67475500D01*
X179130514Y-67475499D01*
X179121902Y-67475499D01*
X179022247Y-67475499D01*
X178981308Y-67492457D01*
X178930177Y-67513635D01*
X178930176Y-67513637D01*
X178859709Y-67584104D01*
X178553788Y-67890023D01*
X178501462Y-67911697D01*
X178449136Y-67890023D01*
X178409674Y-67850561D01*
X178388000Y-67798235D01*
X178388000Y-66249500D01*
X178409674Y-66197174D01*
X178462000Y-66175500D01*
X178490249Y-66175500D01*
X178490256Y-66175500D01*
X178519849Y-66172725D01*
X178576532Y-66152890D01*
X178644473Y-66129117D01*
X178644473Y-66129116D01*
X178644475Y-66129116D01*
X178750711Y-66050711D01*
X178829116Y-65944475D01*
X178872725Y-65819849D01*
X178875500Y-65790256D01*
X178875500Y-65209744D01*
X178872725Y-65180151D01*
X178870353Y-65173373D01*
X178829117Y-65055526D01*
X178773518Y-64980192D01*
X178750711Y-64949289D01*
X178673931Y-64892623D01*
X178644473Y-64870882D01*
X178519854Y-64827276D01*
X178519855Y-64827276D01*
X178519850Y-64827275D01*
X178519849Y-64827275D01*
X178490256Y-64824500D01*
X177784744Y-64824500D01*
X177755151Y-64827275D01*
X177755149Y-64827275D01*
X177755145Y-64827276D01*
X177630526Y-64870882D01*
X177524290Y-64949288D01*
X177524288Y-64949290D01*
X177445882Y-65055526D01*
X177402276Y-65180145D01*
X177402275Y-65180149D01*
X177402275Y-65180151D01*
X177399500Y-65209744D01*
X177399500Y-65790256D01*
X177402275Y-65819849D01*
X177402275Y-65819851D01*
X177402276Y-65819854D01*
X177445882Y-65944473D01*
X177462609Y-65967137D01*
X177524289Y-66050711D01*
X177577587Y-66090046D01*
X177630526Y-66129117D01*
X177755145Y-66172723D01*
X177755151Y-66172725D01*
X177784744Y-66175500D01*
X177813000Y-66175500D01*
X177865326Y-66197174D01*
X177887000Y-66249500D01*
X177887000Y-67982477D01*
X177925134Y-68074542D01*
X177925136Y-68074545D01*
X178094308Y-68243717D01*
X178253826Y-68403234D01*
X178275500Y-68455560D01*
X178275500Y-68697296D01*
X178280704Y-68723459D01*
X178283074Y-68735377D01*
X178283074Y-68764245D01*
X178275500Y-68802326D01*
X178275500Y-68802328D01*
X178275500Y-68802329D01*
X178275500Y-68993945D01*
X178253826Y-69046271D01*
X178201500Y-69067945D01*
X178149174Y-69046271D01*
X178145575Y-69042405D01*
X178140443Y-69036482D01*
X178140441Y-69036480D01*
X178140439Y-69036478D01*
X178071936Y-68992454D01*
X178019365Y-68958668D01*
X178019361Y-68958667D01*
X177881275Y-68918121D01*
X177881272Y-68918121D01*
X177737350Y-68918121D01*
X177737347Y-68918121D01*
X177599260Y-68958667D01*
X177599256Y-68958668D01*
X177478186Y-69036476D01*
X177478179Y-69036481D01*
X177383934Y-69145247D01*
X177380299Y-69153207D01*
X177342718Y-69235499D01*
X177341813Y-69237480D01*
X177300360Y-69276073D01*
X177243759Y-69274052D01*
X177205166Y-69232599D01*
X177200500Y-69206739D01*
X177200500Y-64892623D01*
X177222174Y-64840297D01*
X177965297Y-64097174D01*
X178017623Y-64075500D01*
X178590249Y-64075500D01*
X178590256Y-64075500D01*
X178619849Y-64072725D01*
X178689162Y-64048471D01*
X178744473Y-64029117D01*
X178744473Y-64029116D01*
X178744475Y-64029116D01*
X178850711Y-63950711D01*
X178929116Y-63844475D01*
X178972725Y-63719849D01*
X178975500Y-63690256D01*
X178975500Y-63109744D01*
X178972725Y-63080151D01*
X178968601Y-63068366D01*
X178929117Y-62955526D01*
X178896602Y-62911470D01*
X178850711Y-62849289D01*
X178747848Y-62773373D01*
X178744473Y-62770882D01*
X178619854Y-62727276D01*
X178619855Y-62727276D01*
X178619850Y-62727275D01*
X178619849Y-62727275D01*
X178605087Y-62725890D01*
X178555016Y-62699424D01*
X178538000Y-62652214D01*
X178538000Y-62147785D01*
X178559674Y-62095459D01*
X178605089Y-62074108D01*
X178619849Y-62072725D01*
X178676532Y-62052890D01*
X178744473Y-62029117D01*
X178744473Y-62029116D01*
X178744475Y-62029116D01*
X178850711Y-61950711D01*
X178929116Y-61844475D01*
X178930666Y-61840047D01*
X178972723Y-61719854D01*
X178972722Y-61719854D01*
X178972725Y-61719849D01*
X178975500Y-61690256D01*
X178975500Y-61109744D01*
X178972725Y-61080151D01*
X178972723Y-61080145D01*
X178929117Y-60955526D01*
X178870886Y-60876626D01*
X178850711Y-60849289D01*
X178800135Y-60811962D01*
X178744473Y-60770882D01*
X178619854Y-60727276D01*
X178619855Y-60727276D01*
X178619850Y-60727275D01*
X178619849Y-60727275D01*
X178590256Y-60724500D01*
X177884744Y-60724500D01*
X177855151Y-60727275D01*
X177855149Y-60727275D01*
X177855145Y-60727276D01*
X177730526Y-60770882D01*
X177624290Y-60849288D01*
X177624288Y-60849290D01*
X177545882Y-60955526D01*
X177502276Y-61080145D01*
X177502275Y-61080149D01*
X177502275Y-61080151D01*
X177499500Y-61109744D01*
X177499500Y-61690256D01*
X177502275Y-61719849D01*
X177502275Y-61719851D01*
X177502276Y-61719854D01*
X177545882Y-61844473D01*
X177562415Y-61866874D01*
X177624289Y-61950711D01*
X177691074Y-62000000D01*
X177730526Y-62029117D01*
X177855145Y-62072723D01*
X177855151Y-62072725D01*
X177869909Y-62074108D01*
X177919982Y-62100572D01*
X177937000Y-62147785D01*
X177937000Y-62652214D01*
X177915326Y-62704540D01*
X177869912Y-62725890D01*
X177855151Y-62727275D01*
X177855149Y-62727275D01*
X177855144Y-62727276D01*
X177730526Y-62770882D01*
X177624290Y-62849288D01*
X177624288Y-62849290D01*
X177545882Y-62955526D01*
X177502276Y-63080145D01*
X177502275Y-63080149D01*
X177502275Y-63080151D01*
X177500579Y-63098243D01*
X177499500Y-63109749D01*
X177499500Y-63682376D01*
X177477826Y-63734702D01*
X176715489Y-64497040D01*
X176659540Y-64552988D01*
X176619979Y-64621509D01*
X176619977Y-64621514D01*
X176599500Y-64697935D01*
X176599500Y-69707766D01*
X176577826Y-69760092D01*
X176572715Y-69764211D01*
X176572872Y-69764392D01*
X176568868Y-69767860D01*
X176474623Y-69876626D01*
X176414834Y-70007545D01*
X176394353Y-70150000D01*
X176399222Y-70183870D01*
X176385214Y-70238748D01*
X176378301Y-70246726D01*
X176047203Y-70577826D01*
X175994877Y-70599500D01*
X175400000Y-70599500D01*
X175400000Y-59689971D01*
X175644540Y-59934511D01*
X175700489Y-59990460D01*
X175769011Y-60030021D01*
X175769012Y-60030021D01*
X175769014Y-60030022D01*
X175807224Y-60040260D01*
X175845435Y-60050499D01*
X175845436Y-60050500D01*
X175845438Y-60050500D01*
X177837492Y-60050500D01*
X177889818Y-60072174D01*
X177910739Y-60113969D01*
X177914834Y-60142454D01*
X177914834Y-60142455D01*
X177914835Y-60142457D01*
X177949271Y-60217860D01*
X177974623Y-60273373D01*
X178068868Y-60382139D01*
X178068869Y-60382140D01*
X178068872Y-60382143D01*
X178161474Y-60441654D01*
X178166746Y-60445043D01*
X178189947Y-60459953D01*
X178296403Y-60491211D01*
X178328035Y-60500499D01*
X178328037Y-60500500D01*
X178328039Y-60500500D01*
X178471963Y-60500500D01*
X178471964Y-60500499D01*
X178610053Y-60459953D01*
X178731128Y-60382143D01*
X178825377Y-60273373D01*
X178885165Y-60142457D01*
X178905647Y-60000000D01*
X178885165Y-59857543D01*
X178825377Y-59726627D01*
X178731128Y-59617857D01*
X178674182Y-59581260D01*
X178610054Y-59540047D01*
X178610050Y-59540046D01*
X178471964Y-59499500D01*
X178471961Y-59499500D01*
X178336950Y-59499500D01*
X178299950Y-59489586D01*
X178265991Y-59469980D01*
X178265985Y-59469977D01*
X178189564Y-59449500D01*
X178189562Y-59449500D01*
X176040123Y-59449500D01*
X175987797Y-59427826D01*
X175400000Y-58840029D01*
X175400000Y-55100000D01*
X175400000Y-55050000D01*
X174650500Y-55047049D01*
X174650500Y-53760436D01*
X174650499Y-53760435D01*
X174630022Y-53684014D01*
X174630020Y-53684009D01*
X174614415Y-53656980D01*
X174590460Y-53615489D01*
X174534511Y-53559540D01*
X174401797Y-53426826D01*
X174380123Y-53374500D01*
X174401797Y-53322174D01*
X174454123Y-53300500D01*
X176538913Y-53300500D01*
X176591239Y-53322174D01*
X176612913Y-53374500D01*
X176606225Y-53405242D01*
X176599404Y-53420177D01*
X176557951Y-53458770D01*
X176517656Y-53462013D01*
X176487102Y-53455935D01*
X176454748Y-53449500D01*
X175715252Y-53449500D01*
X175686010Y-53455316D01*
X175656767Y-53461133D01*
X175590449Y-53505447D01*
X175590447Y-53505449D01*
X175546133Y-53571767D01*
X175534500Y-53630253D01*
X175534500Y-54369746D01*
X175546133Y-54428232D01*
X175554028Y-54440047D01*
X175590448Y-54494552D01*
X175634560Y-54524027D01*
X175656767Y-54538866D01*
X175656768Y-54538866D01*
X175656769Y-54538867D01*
X175715252Y-54550500D01*
X176360500Y-54550500D01*
X176412826Y-54572174D01*
X176434500Y-54624500D01*
X176434500Y-56296454D01*
X176412826Y-56348780D01*
X176360500Y-56370454D01*
X176308174Y-56348780D01*
X176304575Y-56344914D01*
X176281132Y-56317859D01*
X176281130Y-56317857D01*
X176281128Y-56317855D01*
X176224182Y-56281258D01*
X176160054Y-56240045D01*
X176160050Y-56240044D01*
X176021964Y-56199498D01*
X176021961Y-56199498D01*
X175878039Y-56199498D01*
X175878036Y-56199498D01*
X175739949Y-56240044D01*
X175739945Y-56240045D01*
X175618875Y-56317853D01*
X175618868Y-56317858D01*
X175524623Y-56426624D01*
X175464834Y-56557543D01*
X175444353Y-56699998D01*
X175464834Y-56842452D01*
X175464834Y-56842453D01*
X175464835Y-56842455D01*
X175497190Y-56913302D01*
X175524623Y-56973371D01*
X175555797Y-57009348D01*
X175573682Y-57063087D01*
X175561400Y-57098919D01*
X175546133Y-57121767D01*
X175542018Y-57142457D01*
X175534500Y-57180252D01*
X175534500Y-57919748D01*
X175539272Y-57943737D01*
X175546133Y-57978232D01*
X175567329Y-58009953D01*
X175590448Y-58044552D01*
X175634560Y-58074027D01*
X175656767Y-58088866D01*
X175656768Y-58088866D01*
X175656769Y-58088867D01*
X175715252Y-58100500D01*
X175715254Y-58100500D01*
X176454746Y-58100500D01*
X176454748Y-58100500D01*
X176513231Y-58088867D01*
X176513232Y-58088865D01*
X176516695Y-58088177D01*
X176572244Y-58099226D01*
X176583458Y-58108429D01*
X177342826Y-58867797D01*
X177364500Y-58920123D01*
X177364500Y-59019746D01*
X177376133Y-59078232D01*
X177399699Y-59113500D01*
X177420448Y-59144552D01*
X177464560Y-59174027D01*
X177486767Y-59188866D01*
X177486768Y-59188866D01*
X177486769Y-59188867D01*
X177545252Y-59200500D01*
X177545254Y-59200500D01*
X178284746Y-59200500D01*
X178284748Y-59200500D01*
X178343231Y-59188867D01*
X178409552Y-59144552D01*
X178453867Y-59078231D01*
X178465500Y-59019748D01*
X178465500Y-58537424D01*
X178487174Y-58485098D01*
X178539500Y-58463424D01*
X178579504Y-58475169D01*
X178689947Y-58546147D01*
X178796403Y-58577405D01*
X178828035Y-58586693D01*
X178828037Y-58586694D01*
X178828039Y-58586694D01*
X178971963Y-58586694D01*
X178971964Y-58586693D01*
X179110053Y-58546147D01*
X179231128Y-58468337D01*
X179325377Y-58359567D01*
X179385165Y-58228651D01*
X179405647Y-58086194D01*
X179388954Y-57970092D01*
X179402961Y-57915217D01*
X179406242Y-57913269D01*
X179389919Y-57912433D01*
X179354389Y-57876348D01*
X179325377Y-57812821D01*
X179286575Y-57768041D01*
X179231131Y-57704054D01*
X179231129Y-57704053D01*
X179231128Y-57704051D01*
X179110053Y-57626241D01*
X179093699Y-57621439D01*
X179049600Y-57585900D01*
X179043547Y-57529587D01*
X179079086Y-57485488D01*
X179093688Y-57479439D01*
X179160053Y-57459953D01*
X179281128Y-57382143D01*
X179281136Y-57382133D01*
X179285128Y-57378676D01*
X179286330Y-57380063D01*
X179330963Y-57357712D01*
X179384705Y-57375589D01*
X179410066Y-57426231D01*
X179410082Y-57426472D01*
X179414200Y-57486677D01*
X179414203Y-57486697D01*
X179472663Y-57768023D01*
X179472668Y-57768041D01*
X179491428Y-57820825D01*
X179488528Y-57877388D01*
X179472690Y-57891681D01*
X179506547Y-57900323D01*
X179531928Y-57934782D01*
X179568892Y-58038788D01*
X179568894Y-58038794D01*
X179701098Y-58293935D01*
X179701103Y-58293942D01*
X179775621Y-58399511D01*
X179866811Y-58528698D01*
X180062947Y-58738708D01*
X180285853Y-58920055D01*
X180531375Y-59069361D01*
X180794942Y-59183844D01*
X181071642Y-59261371D01*
X181356322Y-59300500D01*
X181356329Y-59300500D01*
X181643671Y-59300500D01*
X181643678Y-59300500D01*
X181928358Y-59261371D01*
X182205058Y-59183844D01*
X182468625Y-59069361D01*
X182714147Y-58920055D01*
X182937053Y-58738708D01*
X183133189Y-58528698D01*
X183298901Y-58293936D01*
X183431104Y-58038797D01*
X183441356Y-58009952D01*
X183527331Y-57768041D01*
X183527331Y-57768038D01*
X183527334Y-57768032D01*
X183547533Y-57670827D01*
X183585796Y-57486697D01*
X183585799Y-57486677D01*
X183605408Y-57200007D01*
X183605408Y-57199992D01*
X183585799Y-56913322D01*
X183585796Y-56913302D01*
X183527336Y-56631976D01*
X183527331Y-56631958D01*
X183431107Y-56361210D01*
X183431105Y-56361205D01*
X183347833Y-56200499D01*
X183298901Y-56106064D01*
X183133189Y-55871302D01*
X182937053Y-55661292D01*
X182714147Y-55479945D01*
X182714141Y-55479941D01*
X182714138Y-55479939D01*
X182576548Y-55396269D01*
X182468625Y-55330639D01*
X182468622Y-55330637D01*
X182468621Y-55330637D01*
X182205056Y-55216155D01*
X181928356Y-55138628D01*
X181643682Y-55099500D01*
X181643678Y-55099500D01*
X181356322Y-55099500D01*
X181356317Y-55099500D01*
X181071643Y-55138628D01*
X180794943Y-55216155D01*
X180531378Y-55330637D01*
X180531375Y-55330639D01*
X180285861Y-55479939D01*
X180285853Y-55479945D01*
X180076213Y-55650500D01*
X180062945Y-55661294D01*
X179866809Y-55871304D01*
X179701103Y-56106057D01*
X179701098Y-56106064D01*
X179568894Y-56361205D01*
X179568892Y-56361210D01*
X179472668Y-56631958D01*
X179472664Y-56631973D01*
X179468412Y-56652437D01*
X179436544Y-56699258D01*
X179380903Y-56709832D01*
X179340034Y-56685839D01*
X179281131Y-56617860D01*
X179281129Y-56617859D01*
X179281128Y-56617857D01*
X179202127Y-56567086D01*
X179160054Y-56540047D01*
X179160050Y-56540046D01*
X179021964Y-56499500D01*
X179021961Y-56499500D01*
X178878039Y-56499500D01*
X178878036Y-56499500D01*
X178739949Y-56540046D01*
X178739945Y-56540047D01*
X178618875Y-56617855D01*
X178618868Y-56617860D01*
X178524623Y-56726626D01*
X178464834Y-56857545D01*
X178450715Y-56955748D01*
X178421815Y-57004457D01*
X178366937Y-57018464D01*
X178349152Y-57013585D01*
X178343233Y-57011133D01*
X178313989Y-57005316D01*
X178284748Y-56999500D01*
X177545252Y-56999500D01*
X177516010Y-57005316D01*
X177486767Y-57011133D01*
X177420449Y-57055447D01*
X177420447Y-57055449D01*
X177376133Y-57121767D01*
X177364500Y-57180253D01*
X177364500Y-57860877D01*
X177342826Y-57913203D01*
X177290500Y-57934877D01*
X177238174Y-57913203D01*
X177057174Y-57732203D01*
X177035500Y-57679877D01*
X177035500Y-55374123D01*
X177057174Y-55321797D01*
X177109500Y-55300123D01*
X177161826Y-55321797D01*
X177180489Y-55340460D01*
X177249011Y-55380021D01*
X177309654Y-55396270D01*
X177354586Y-55430748D01*
X177364067Y-55466134D01*
X177364143Y-55466127D01*
X177364187Y-55466583D01*
X177364500Y-55467748D01*
X177364500Y-55469748D01*
X177372255Y-55508736D01*
X177376133Y-55528232D01*
X177405608Y-55572343D01*
X177420448Y-55594552D01*
X177464560Y-55624027D01*
X177486767Y-55638866D01*
X177486768Y-55638866D01*
X177486769Y-55638867D01*
X177545252Y-55650500D01*
X178123114Y-55650500D01*
X178175440Y-55672174D01*
X178196361Y-55713969D01*
X178214834Y-55842454D01*
X178214834Y-55842455D01*
X178214835Y-55842457D01*
X178228009Y-55871304D01*
X178274623Y-55973373D01*
X178368868Y-56082139D01*
X178368869Y-56082140D01*
X178368872Y-56082143D01*
X178489947Y-56159953D01*
X178596403Y-56191211D01*
X178628035Y-56200499D01*
X178628037Y-56200500D01*
X178628039Y-56200500D01*
X178771963Y-56200500D01*
X178771964Y-56200499D01*
X178910053Y-56159953D01*
X179031128Y-56082143D01*
X179125377Y-55973373D01*
X179185165Y-55842457D01*
X179205647Y-55700000D01*
X179200776Y-55666128D01*
X179214782Y-55611253D01*
X179221690Y-55603279D01*
X179990460Y-54834511D01*
X179998850Y-54819979D01*
X180030021Y-54765989D01*
X180050499Y-54689564D01*
X180050500Y-54689564D01*
X180050500Y-54292233D01*
X180072174Y-54239907D01*
X180077288Y-54235787D01*
X180077131Y-54235606D01*
X180081131Y-54232140D01*
X180127251Y-54178914D01*
X180175377Y-54123373D01*
X180235165Y-53992457D01*
X180255647Y-53850000D01*
X180235165Y-53707543D01*
X180175377Y-53576627D01*
X180117241Y-53509534D01*
X180093885Y-53482579D01*
X180076000Y-53428840D01*
X180101352Y-53378194D01*
X180149811Y-53360120D01*
X180234109Y-53360120D01*
X180234109Y-53360119D01*
X180310534Y-53339641D01*
X180340788Y-53322174D01*
X180361158Y-53310414D01*
X180398157Y-53300500D01*
X183755286Y-53300500D01*
X183755286Y-53300499D01*
X183831711Y-53280021D01*
X183900233Y-53240460D01*
X183956182Y-53184511D01*
X184694538Y-52446155D01*
X184746864Y-52424481D01*
X184799190Y-52446155D01*
X184820864Y-52498481D01*
X184820864Y-53389623D01*
X184827277Y-53460190D01*
X184827277Y-53460191D01*
X184827277Y-53460193D01*
X184827278Y-53460196D01*
X184877886Y-53622606D01*
X184965892Y-53768185D01*
X185086179Y-53888472D01*
X185231758Y-53976478D01*
X185394168Y-54027086D01*
X185407741Y-54028319D01*
X185418571Y-54029304D01*
X185468721Y-54055625D01*
X185485570Y-54109697D01*
X185459249Y-54159847D01*
X185418571Y-54176696D01*
X185394173Y-54178913D01*
X185394172Y-54178913D01*
X185394169Y-54178913D01*
X185394168Y-54178914D01*
X185231758Y-54229522D01*
X185231756Y-54229522D01*
X185231756Y-54229523D01*
X185086178Y-54317528D01*
X184965892Y-54437814D01*
X184891343Y-54561133D01*
X184877886Y-54583394D01*
X184839200Y-54707545D01*
X184827277Y-54745808D01*
X184827277Y-54745809D01*
X184820864Y-54816376D01*
X184820864Y-55929623D01*
X184827277Y-56000190D01*
X184827277Y-56000191D01*
X184827277Y-56000193D01*
X184827278Y-56000196D01*
X184877886Y-56162606D01*
X184965892Y-56308185D01*
X185086179Y-56428472D01*
X185231758Y-56516478D01*
X185394168Y-56567086D01*
X185407741Y-56568319D01*
X185418571Y-56569304D01*
X185468721Y-56595625D01*
X185485570Y-56649697D01*
X185459249Y-56699847D01*
X185418571Y-56716696D01*
X185394173Y-56718913D01*
X185394172Y-56718913D01*
X185394169Y-56718913D01*
X185394168Y-56718914D01*
X185231758Y-56769522D01*
X185231756Y-56769522D01*
X185231756Y-56769523D01*
X185086178Y-56857528D01*
X184965892Y-56977814D01*
X184878868Y-57121769D01*
X184877886Y-57123394D01*
X184836657Y-57255706D01*
X184827277Y-57285808D01*
X184827277Y-57285809D01*
X184820864Y-57356376D01*
X184820864Y-58469623D01*
X184827277Y-58540190D01*
X184827277Y-58540191D01*
X184827277Y-58540193D01*
X184827278Y-58540196D01*
X184877886Y-58702606D01*
X184965892Y-58848185D01*
X185086179Y-58968472D01*
X185231758Y-59056478D01*
X185394168Y-59107086D01*
X185407741Y-59108319D01*
X185418571Y-59109304D01*
X185468721Y-59135625D01*
X185485570Y-59189697D01*
X185459249Y-59239847D01*
X185418571Y-59256696D01*
X185394173Y-59258913D01*
X185394172Y-59258913D01*
X185394169Y-59258913D01*
X185394168Y-59258914D01*
X185231758Y-59309522D01*
X185231756Y-59309522D01*
X185231756Y-59309523D01*
X185086178Y-59397528D01*
X184965892Y-59517814D01*
X184952452Y-59540047D01*
X184877886Y-59663394D01*
X184838583Y-59789525D01*
X184827277Y-59825808D01*
X184827277Y-59825809D01*
X184820864Y-59896376D01*
X184820864Y-61009623D01*
X184827277Y-61080190D01*
X184827277Y-61080191D01*
X184827277Y-61080193D01*
X184827278Y-61080196D01*
X184877886Y-61242606D01*
X184965892Y-61388185D01*
X185086179Y-61508472D01*
X185231758Y-61596478D01*
X185394168Y-61647086D01*
X185407741Y-61648319D01*
X185418571Y-61649304D01*
X185468721Y-61675625D01*
X185485570Y-61729697D01*
X185459249Y-61779847D01*
X185418571Y-61796696D01*
X185394172Y-61798913D01*
X185394169Y-61798913D01*
X185394168Y-61798914D01*
X185381263Y-61802934D01*
X185379543Y-61803471D01*
X185336685Y-61803823D01*
X185321961Y-61799500D01*
X185178039Y-61799500D01*
X185178036Y-61799500D01*
X185039949Y-61840046D01*
X185039945Y-61840047D01*
X184918875Y-61917855D01*
X184918868Y-61917860D01*
X184824623Y-62026626D01*
X184764834Y-62157545D01*
X184744353Y-62300000D01*
X184764834Y-62442454D01*
X184764834Y-62442455D01*
X184764835Y-62442457D01*
X184792609Y-62503272D01*
X184814177Y-62550499D01*
X184820864Y-62581240D01*
X184820864Y-63418758D01*
X184814177Y-63449498D01*
X184764834Y-63557544D01*
X184764834Y-63557546D01*
X184744353Y-63700000D01*
X184764834Y-63842454D01*
X184764834Y-63842455D01*
X184764835Y-63842457D01*
X184816311Y-63955172D01*
X184824623Y-63973373D01*
X184918868Y-64082139D01*
X184918869Y-64082140D01*
X184918872Y-64082143D01*
X185039947Y-64159953D01*
X185140525Y-64189485D01*
X185178035Y-64200499D01*
X185178037Y-64200500D01*
X185178039Y-64200500D01*
X185321959Y-64200500D01*
X185321961Y-64200500D01*
X185360907Y-64189063D01*
X185390174Y-64187760D01*
X185390268Y-64186732D01*
X185435183Y-64190813D01*
X185464748Y-64193500D01*
X185464750Y-64193500D01*
X187327980Y-64193500D01*
X187372153Y-64189485D01*
X187399700Y-64192179D01*
X187428037Y-64200500D01*
X187428039Y-64200500D01*
X187571963Y-64200500D01*
X187571964Y-64200499D01*
X187710053Y-64159953D01*
X187831128Y-64082143D01*
X187925377Y-63973373D01*
X187985165Y-63842457D01*
X188005647Y-63700000D01*
X187985165Y-63557543D01*
X187978549Y-63543057D01*
X187971864Y-63512320D01*
X187971864Y-62597163D01*
X187978551Y-62566422D01*
X187979136Y-62565142D01*
X188035165Y-62442457D01*
X188055647Y-62300000D01*
X188035165Y-62157543D01*
X187975377Y-62026627D01*
X187898173Y-61937528D01*
X187881131Y-61917860D01*
X187881129Y-61917859D01*
X187881128Y-61917857D01*
X187801797Y-61866874D01*
X187760054Y-61840047D01*
X187760050Y-61840046D01*
X187621964Y-61799500D01*
X187621961Y-61799500D01*
X187478039Y-61799500D01*
X187459568Y-61804923D01*
X187416711Y-61804570D01*
X187398560Y-61798914D01*
X187398556Y-61798913D01*
X187398554Y-61798913D01*
X187374156Y-61796696D01*
X187324006Y-61770376D01*
X187307157Y-61716303D01*
X187333477Y-61666153D01*
X187374156Y-61649304D01*
X187382272Y-61648566D01*
X187398560Y-61647086D01*
X187560970Y-61596478D01*
X187706549Y-61508472D01*
X187826836Y-61388185D01*
X187914842Y-61242606D01*
X187943699Y-61150000D01*
X189394353Y-61150000D01*
X189414834Y-61292454D01*
X189414834Y-61292455D01*
X189414835Y-61292457D01*
X189447125Y-61363161D01*
X189474623Y-61423373D01*
X189568868Y-61532139D01*
X189568869Y-61532140D01*
X189568872Y-61532143D01*
X189689947Y-61609953D01*
X189781510Y-61636838D01*
X189828035Y-61650499D01*
X189828037Y-61650500D01*
X189828039Y-61650500D01*
X189971963Y-61650500D01*
X189971964Y-61650499D01*
X189983588Y-61647086D01*
X190110053Y-61609953D01*
X190231128Y-61532143D01*
X190325377Y-61423373D01*
X190385165Y-61292457D01*
X190405647Y-61150000D01*
X190385165Y-61007543D01*
X190325377Y-60876627D01*
X190233751Y-60770884D01*
X190231131Y-60767860D01*
X190231129Y-60767859D01*
X190231128Y-60767857D01*
X190163663Y-60724500D01*
X190110054Y-60690047D01*
X190110050Y-60690046D01*
X189971964Y-60649500D01*
X189971961Y-60649500D01*
X189828039Y-60649500D01*
X189828036Y-60649500D01*
X189689949Y-60690046D01*
X189689945Y-60690047D01*
X189568875Y-60767855D01*
X189568868Y-60767860D01*
X189474623Y-60876626D01*
X189414834Y-61007545D01*
X189394353Y-61150000D01*
X187943699Y-61150000D01*
X187965450Y-61080196D01*
X187971864Y-61009616D01*
X187971864Y-59896384D01*
X187965450Y-59825804D01*
X187914842Y-59663394D01*
X187826836Y-59517815D01*
X187706549Y-59397528D01*
X187560970Y-59309522D01*
X187398560Y-59258914D01*
X187398557Y-59258913D01*
X187398555Y-59258913D01*
X187374156Y-59256696D01*
X187324006Y-59230376D01*
X187307157Y-59176303D01*
X187333477Y-59126153D01*
X187374156Y-59109304D01*
X187382272Y-59108566D01*
X187398560Y-59107086D01*
X187560970Y-59056478D01*
X187706549Y-58968472D01*
X187826836Y-58848185D01*
X187914842Y-58702606D01*
X187965450Y-58540196D01*
X187971864Y-58469616D01*
X187971864Y-58000000D01*
X191894353Y-58000000D01*
X191914834Y-58142454D01*
X191914834Y-58142455D01*
X191914835Y-58142457D01*
X191954198Y-58228648D01*
X191974623Y-58273373D01*
X192068868Y-58382139D01*
X192068869Y-58382140D01*
X192068872Y-58382143D01*
X192189947Y-58459953D01*
X192275584Y-58485098D01*
X192328035Y-58500499D01*
X192328037Y-58500500D01*
X192328039Y-58500500D01*
X192471963Y-58500500D01*
X192471964Y-58500499D01*
X192610053Y-58459953D01*
X192731128Y-58382143D01*
X192825377Y-58273373D01*
X192885165Y-58142457D01*
X192905647Y-58000000D01*
X192885165Y-57857543D01*
X192825377Y-57726627D01*
X192784868Y-57679877D01*
X192731131Y-57617860D01*
X192731129Y-57617859D01*
X192731128Y-57617857D01*
X192674182Y-57581260D01*
X192625541Y-57550000D01*
X196644353Y-57550000D01*
X196664834Y-57692454D01*
X196664834Y-57692455D01*
X196664835Y-57692457D01*
X196719804Y-57812820D01*
X196724623Y-57823373D01*
X196818868Y-57932139D01*
X196818869Y-57932140D01*
X196818872Y-57932143D01*
X196939947Y-58009953D01*
X197038151Y-58038788D01*
X197078035Y-58050499D01*
X197078037Y-58050500D01*
X197078039Y-58050500D01*
X197221963Y-58050500D01*
X197221964Y-58050499D01*
X197360053Y-58009953D01*
X197481128Y-57932143D01*
X197575377Y-57823373D01*
X197635165Y-57692457D01*
X197655647Y-57550000D01*
X197635165Y-57407543D01*
X197575377Y-57276627D01*
X197491869Y-57180253D01*
X197481131Y-57167860D01*
X197481129Y-57167859D01*
X197481128Y-57167857D01*
X197409414Y-57121769D01*
X197360054Y-57090047D01*
X197360050Y-57090046D01*
X197221964Y-57049500D01*
X197221961Y-57049500D01*
X197078039Y-57049500D01*
X197078036Y-57049500D01*
X196939949Y-57090046D01*
X196939945Y-57090047D01*
X196818875Y-57167855D01*
X196818868Y-57167860D01*
X196724623Y-57276626D01*
X196664834Y-57407545D01*
X196644353Y-57550000D01*
X192625541Y-57550000D01*
X192610054Y-57540047D01*
X192610050Y-57540046D01*
X192471964Y-57499500D01*
X192471961Y-57499500D01*
X192328039Y-57499500D01*
X192328036Y-57499500D01*
X192189949Y-57540046D01*
X192189945Y-57540047D01*
X192068875Y-57617855D01*
X192068868Y-57617860D01*
X191974623Y-57726626D01*
X191914834Y-57857545D01*
X191894353Y-58000000D01*
X187971864Y-58000000D01*
X187971864Y-57356384D01*
X187965450Y-57285804D01*
X187914842Y-57123394D01*
X187826836Y-56977815D01*
X187706549Y-56857528D01*
X187560970Y-56769522D01*
X187398560Y-56718914D01*
X187398557Y-56718913D01*
X187398555Y-56718913D01*
X187374156Y-56716696D01*
X187324006Y-56690376D01*
X187307157Y-56636303D01*
X187333477Y-56586153D01*
X187374156Y-56569304D01*
X187382272Y-56568566D01*
X187398560Y-56567086D01*
X187560970Y-56516478D01*
X187706549Y-56428472D01*
X187826836Y-56308185D01*
X187914842Y-56162606D01*
X187965450Y-56000196D01*
X187971864Y-55929616D01*
X187971864Y-54900000D01*
X191944353Y-54900000D01*
X191964834Y-55042454D01*
X191964834Y-55042455D01*
X191964835Y-55042457D01*
X191999279Y-55117877D01*
X192024623Y-55173373D01*
X192118868Y-55282139D01*
X192118869Y-55282140D01*
X192118872Y-55282143D01*
X192239947Y-55359953D01*
X192346403Y-55391211D01*
X192378035Y-55400499D01*
X192378037Y-55400500D01*
X192378039Y-55400500D01*
X192521963Y-55400500D01*
X192521964Y-55400499D01*
X192660053Y-55359953D01*
X192781128Y-55282143D01*
X192875377Y-55173373D01*
X192935165Y-55042457D01*
X192955647Y-54900000D01*
X192935165Y-54757543D01*
X192875377Y-54626627D01*
X192808547Y-54549500D01*
X192781131Y-54517860D01*
X192781129Y-54517859D01*
X192781128Y-54517857D01*
X192703331Y-54467860D01*
X192660054Y-54440047D01*
X192660050Y-54440046D01*
X192521964Y-54399500D01*
X192521961Y-54399500D01*
X192378039Y-54399500D01*
X192378036Y-54399500D01*
X192239949Y-54440046D01*
X192239945Y-54440047D01*
X192118875Y-54517855D01*
X192118868Y-54517860D01*
X192024623Y-54626626D01*
X191964834Y-54757545D01*
X191944353Y-54900000D01*
X187971864Y-54900000D01*
X187971864Y-54816384D01*
X187965450Y-54745804D01*
X187914842Y-54583394D01*
X187826836Y-54437815D01*
X187706549Y-54317528D01*
X187560970Y-54229522D01*
X187398560Y-54178914D01*
X187398557Y-54178913D01*
X187398555Y-54178913D01*
X187374156Y-54176696D01*
X187324006Y-54150376D01*
X187307157Y-54096303D01*
X187333477Y-54046153D01*
X187374156Y-54029304D01*
X187382272Y-54028566D01*
X187398560Y-54027086D01*
X187560970Y-53976478D01*
X187706549Y-53888472D01*
X187826836Y-53768185D01*
X187914842Y-53622606D01*
X187965450Y-53460196D01*
X187971864Y-53389616D01*
X187971864Y-52276384D01*
X187965450Y-52205804D01*
X187914842Y-52043394D01*
X187874474Y-51976618D01*
X187855834Y-51945783D01*
X187847312Y-51889791D01*
X187880879Y-51844172D01*
X187919162Y-51833500D01*
X190977877Y-51833500D01*
X191030203Y-51855174D01*
X194209540Y-55034511D01*
X194265489Y-55090460D01*
X194334011Y-55130021D01*
X194334012Y-55130021D01*
X194334014Y-55130022D01*
X194366132Y-55138628D01*
X194410435Y-55150499D01*
X194410436Y-55150500D01*
X194410438Y-55150500D01*
X194489562Y-55150500D01*
X194564333Y-55150500D01*
X194616659Y-55172174D01*
X194620259Y-55176041D01*
X194668868Y-55232139D01*
X194668871Y-55232142D01*
X194668872Y-55232143D01*
X194789947Y-55309953D01*
X194893842Y-55340459D01*
X194928035Y-55350499D01*
X194928037Y-55350500D01*
X194928039Y-55350500D01*
X195071963Y-55350500D01*
X195071964Y-55350499D01*
X195210053Y-55309953D01*
X195331128Y-55232143D01*
X195425377Y-55123373D01*
X195485165Y-54992457D01*
X195505647Y-54850000D01*
X195485165Y-54707543D01*
X195425377Y-54576627D01*
X195354259Y-54494552D01*
X195331131Y-54467860D01*
X195331129Y-54467859D01*
X195331128Y-54467857D01*
X195266971Y-54426626D01*
X195210054Y-54390047D01*
X195210050Y-54390046D01*
X195071964Y-54349500D01*
X195071961Y-54349500D01*
X194928039Y-54349500D01*
X194928036Y-54349500D01*
X194789949Y-54390046D01*
X194789945Y-54390047D01*
X194668871Y-54467857D01*
X194668867Y-54467860D01*
X194639194Y-54502106D01*
X194588548Y-54527457D01*
X194534809Y-54509571D01*
X194530943Y-54505972D01*
X193174971Y-53150000D01*
X194494353Y-53150000D01*
X194514834Y-53292454D01*
X194514834Y-53292455D01*
X194514835Y-53292457D01*
X194544230Y-53356822D01*
X194574623Y-53423373D01*
X194668868Y-53532139D01*
X194668869Y-53532140D01*
X194668872Y-53532143D01*
X194789947Y-53609953D01*
X194884701Y-53637775D01*
X194928035Y-53650499D01*
X194928037Y-53650500D01*
X194928039Y-53650500D01*
X195071963Y-53650500D01*
X195071964Y-53650499D01*
X195210053Y-53609953D01*
X195331128Y-53532143D01*
X195425377Y-53423373D01*
X195485165Y-53292457D01*
X195505647Y-53150000D01*
X195485165Y-53007543D01*
X195425377Y-52876627D01*
X195347453Y-52786697D01*
X195331131Y-52767860D01*
X195331129Y-52767859D01*
X195331128Y-52767857D01*
X195274182Y-52731260D01*
X195210054Y-52690047D01*
X195210050Y-52690046D01*
X195071964Y-52649500D01*
X195071961Y-52649500D01*
X194928039Y-52649500D01*
X194928036Y-52649500D01*
X194789949Y-52690046D01*
X194789945Y-52690047D01*
X194668875Y-52767855D01*
X194668868Y-52767860D01*
X194574623Y-52876626D01*
X194514834Y-53007545D01*
X194494353Y-53150000D01*
X193174971Y-53150000D01*
X192524971Y-52500000D01*
X196544353Y-52500000D01*
X196564834Y-52642454D01*
X196564834Y-52642455D01*
X196564835Y-52642457D01*
X196586569Y-52690047D01*
X196624623Y-52773373D01*
X196718868Y-52882139D01*
X196718869Y-52882140D01*
X196718872Y-52882143D01*
X196839947Y-52959953D01*
X196946403Y-52991211D01*
X196978035Y-53000499D01*
X196978037Y-53000500D01*
X196978039Y-53000500D01*
X197121963Y-53000500D01*
X197121964Y-53000499D01*
X197260053Y-52959953D01*
X197381128Y-52882143D01*
X197475377Y-52773373D01*
X197535165Y-52642457D01*
X197555647Y-52500000D01*
X197535165Y-52357543D01*
X197475377Y-52226627D01*
X197420476Y-52163267D01*
X197381131Y-52117860D01*
X197381129Y-52117859D01*
X197381128Y-52117857D01*
X197308077Y-52070910D01*
X197260054Y-52040047D01*
X197260050Y-52040046D01*
X197121964Y-51999500D01*
X197121961Y-51999500D01*
X196978039Y-51999500D01*
X196978036Y-51999500D01*
X196839949Y-52040046D01*
X196839945Y-52040047D01*
X196718875Y-52117855D01*
X196718868Y-52117860D01*
X196624623Y-52226626D01*
X196564834Y-52357545D01*
X196544353Y-52500000D01*
X192524971Y-52500000D01*
X191712865Y-51687894D01*
X191691191Y-51635568D01*
X191712865Y-51583242D01*
X191744346Y-51564565D01*
X191760050Y-51559954D01*
X191760050Y-51559953D01*
X191760053Y-51559953D01*
X191881128Y-51482143D01*
X191975377Y-51373373D01*
X192035165Y-51242457D01*
X192055647Y-51100000D01*
X192041269Y-51000000D01*
X192844353Y-51000000D01*
X192864834Y-51142454D01*
X192864834Y-51142455D01*
X192864835Y-51142457D01*
X192878009Y-51171304D01*
X192924623Y-51273373D01*
X193018868Y-51382139D01*
X193018869Y-51382140D01*
X193018872Y-51382143D01*
X193139947Y-51459953D01*
X193239326Y-51489133D01*
X193278035Y-51500499D01*
X193278037Y-51500500D01*
X193278039Y-51500500D01*
X193421963Y-51500500D01*
X193421964Y-51500499D01*
X193560053Y-51459953D01*
X193681128Y-51382143D01*
X193775377Y-51273373D01*
X193835165Y-51142457D01*
X193855647Y-51000000D01*
X196644353Y-51000000D01*
X196664834Y-51142454D01*
X196664834Y-51142455D01*
X196664835Y-51142457D01*
X196678009Y-51171304D01*
X196724623Y-51273373D01*
X196818868Y-51382139D01*
X196818869Y-51382140D01*
X196818872Y-51382143D01*
X196939947Y-51459953D01*
X197039326Y-51489133D01*
X197078035Y-51500499D01*
X197078037Y-51500500D01*
X197078039Y-51500500D01*
X197221963Y-51500500D01*
X197221964Y-51500499D01*
X197360053Y-51459953D01*
X197481128Y-51382143D01*
X197575377Y-51273373D01*
X197635165Y-51142457D01*
X197655647Y-51000000D01*
X197635165Y-50857543D01*
X197575377Y-50726627D01*
X197521955Y-50664974D01*
X197481131Y-50617860D01*
X197481129Y-50617859D01*
X197481128Y-50617857D01*
X197424182Y-50581260D01*
X197360054Y-50540047D01*
X197360050Y-50540046D01*
X197221964Y-50499500D01*
X197221961Y-50499500D01*
X197078039Y-50499500D01*
X197078036Y-50499500D01*
X196939949Y-50540046D01*
X196939945Y-50540047D01*
X196818875Y-50617855D01*
X196818868Y-50617860D01*
X196724623Y-50726626D01*
X196664834Y-50857545D01*
X196644353Y-51000000D01*
X193855647Y-51000000D01*
X193835165Y-50857543D01*
X193775377Y-50726627D01*
X193721955Y-50664974D01*
X193681131Y-50617860D01*
X193681129Y-50617859D01*
X193681128Y-50617857D01*
X193624182Y-50581260D01*
X193560054Y-50540047D01*
X193560050Y-50540046D01*
X193421964Y-50499500D01*
X193421961Y-50499500D01*
X193278039Y-50499500D01*
X193278036Y-50499500D01*
X193139949Y-50540046D01*
X193139945Y-50540047D01*
X193018875Y-50617855D01*
X193018868Y-50617860D01*
X192924623Y-50726626D01*
X192864834Y-50857545D01*
X192844353Y-51000000D01*
X192041269Y-51000000D01*
X192035165Y-50957543D01*
X191975377Y-50826627D01*
X191929740Y-50773959D01*
X191881131Y-50717860D01*
X191881129Y-50717859D01*
X191881128Y-50717857D01*
X191824182Y-50681260D01*
X191760054Y-50640047D01*
X191760050Y-50640046D01*
X191621964Y-50599500D01*
X191621961Y-50599500D01*
X191478039Y-50599500D01*
X191478036Y-50599500D01*
X191339949Y-50640046D01*
X191339945Y-50640047D01*
X191218871Y-50717857D01*
X191218868Y-50717860D01*
X191170259Y-50773959D01*
X191119612Y-50799311D01*
X191114333Y-50799500D01*
X185010472Y-50799500D01*
X184934047Y-50819978D01*
X184874116Y-50854578D01*
X184874117Y-50854579D01*
X184865528Y-50859538D01*
X184865526Y-50859539D01*
X183768380Y-51956685D01*
X183716054Y-51978359D01*
X180370058Y-51978359D01*
X180345359Y-51984977D01*
X180289207Y-51977584D01*
X180254728Y-51932650D01*
X180252962Y-51924042D01*
X180244785Y-51867163D01*
X180184997Y-51736247D01*
X180132385Y-51675529D01*
X180090751Y-51627480D01*
X180090749Y-51627479D01*
X180090748Y-51627477D01*
X180021917Y-51583242D01*
X179969674Y-51549667D01*
X179969670Y-51549666D01*
X179831584Y-51509120D01*
X179831581Y-51509120D01*
X179687659Y-51509120D01*
X179687656Y-51509120D01*
X179549569Y-51549666D01*
X179549565Y-51549667D01*
X179428491Y-51627477D01*
X179428488Y-51627480D01*
X179379879Y-51683579D01*
X179329232Y-51708931D01*
X179323953Y-51709120D01*
X178539500Y-51709120D01*
X178487174Y-51687446D01*
X178465500Y-51635120D01*
X178465500Y-51541459D01*
X178487174Y-51489133D01*
X178539500Y-51467459D01*
X178560349Y-51470457D01*
X178652577Y-51497538D01*
X178652579Y-51497538D01*
X178796503Y-51497538D01*
X178796504Y-51497537D01*
X178934593Y-51456991D01*
X179055668Y-51379181D01*
X179149917Y-51270411D01*
X179209705Y-51139495D01*
X179230187Y-50997038D01*
X179209705Y-50854581D01*
X179149917Y-50723665D01*
X179126354Y-50696472D01*
X179055671Y-50614898D01*
X179055669Y-50614897D01*
X179055668Y-50614895D01*
X178998722Y-50578298D01*
X178934594Y-50537085D01*
X178934590Y-50537084D01*
X178796504Y-50496538D01*
X178796501Y-50496538D01*
X178679663Y-50496538D01*
X178627337Y-50474864D01*
X178487174Y-50334701D01*
X178465500Y-50282375D01*
X178465500Y-50080253D01*
X178465500Y-50080252D01*
X178453867Y-50021769D01*
X178449753Y-50015613D01*
X178438703Y-49960065D01*
X178470168Y-49912972D01*
X178511282Y-49900500D01*
X201292417Y-49900500D01*
X201347917Y-49900500D01*
X201352065Y-49900615D01*
G37*
%TD.AperFunction*%
%TA.AperFunction,Conductor*%
G36*
X179600026Y-67998174D02*
G01*
X179621700Y-68050500D01*
X179621700Y-68452946D01*
X179633333Y-68511432D01*
X179649625Y-68535814D01*
X179677648Y-68577752D01*
X179696399Y-68590281D01*
X179743967Y-68622066D01*
X179743968Y-68622066D01*
X179743969Y-68622067D01*
X179802452Y-68633700D01*
X179802454Y-68633700D01*
X180175500Y-68633700D01*
X180227826Y-68655374D01*
X180249500Y-68707700D01*
X180249500Y-68707766D01*
X180227826Y-68760092D01*
X180222715Y-68764211D01*
X180222872Y-68764392D01*
X180218868Y-68767860D01*
X180124623Y-68876626D01*
X180064834Y-69007545D01*
X180044353Y-69150000D01*
X180064834Y-69292454D01*
X180064834Y-69292455D01*
X180064835Y-69292457D01*
X180111556Y-69394760D01*
X180113577Y-69451360D01*
X180074984Y-69492813D01*
X180044243Y-69499500D01*
X179928036Y-69499500D01*
X179789949Y-69540046D01*
X179789945Y-69540047D01*
X179668875Y-69617855D01*
X179668868Y-69617860D01*
X179574623Y-69726626D01*
X179514834Y-69857545D01*
X179494353Y-70000000D01*
X179514834Y-70142454D01*
X179514834Y-70142455D01*
X179514835Y-70142457D01*
X179566761Y-70256157D01*
X179569228Y-70261559D01*
X179571249Y-70318160D01*
X179532656Y-70359613D01*
X179501915Y-70366300D01*
X179302326Y-70366300D01*
X179273084Y-70372116D01*
X179243841Y-70377933D01*
X179186173Y-70416467D01*
X179176960Y-70418299D01*
X179171741Y-70430899D01*
X179133207Y-70488567D01*
X179133207Y-70488569D01*
X179122447Y-70542666D01*
X179121574Y-70547053D01*
X179121574Y-70625500D01*
X179099900Y-70677826D01*
X179047574Y-70699500D01*
X178382361Y-70699500D01*
X178330035Y-70677826D01*
X178261771Y-70609562D01*
X178240097Y-70557236D01*
X178246784Y-70526497D01*
X178285165Y-70442457D01*
X178288246Y-70421024D01*
X178317144Y-70372316D01*
X178372022Y-70358307D01*
X178390464Y-70365372D01*
X178391032Y-70364003D01*
X178397766Y-70366792D01*
X178397768Y-70366792D01*
X178397769Y-70366793D01*
X178456252Y-70378426D01*
X178456254Y-70378426D01*
X178952946Y-70378426D01*
X178952948Y-70378426D01*
X179011431Y-70366793D01*
X179069102Y-70328257D01*
X179078313Y-70326424D01*
X179083528Y-70313832D01*
X179122067Y-70256157D01*
X179133700Y-70197674D01*
X179133700Y-69802578D01*
X179126125Y-69764496D01*
X179126125Y-69735629D01*
X179133700Y-69697548D01*
X179133700Y-69302452D01*
X179126125Y-69264370D01*
X179126125Y-69235503D01*
X179133700Y-69197422D01*
X179133700Y-68802326D01*
X179126125Y-68764244D01*
X179126125Y-68735377D01*
X179133700Y-68697296D01*
X179133700Y-68302200D01*
X179122067Y-68243717D01*
X179077752Y-68177396D01*
X179077751Y-68177395D01*
X179073703Y-68171337D01*
X179075329Y-68170250D01*
X179056996Y-68125989D01*
X179078669Y-68073664D01*
X179154160Y-67998174D01*
X179206486Y-67976500D01*
X179547700Y-67976500D01*
X179600026Y-67998174D01*
G37*
%TD.AperFunction*%
%TA.AperFunction,Conductor*%
G36*
X166820905Y-49922174D02*
G01*
X166842579Y-49974500D01*
X166820905Y-50026826D01*
X166804374Y-50043356D01*
X166722319Y-50182104D01*
X166677346Y-50336899D01*
X166674500Y-50373065D01*
X166674500Y-51626934D01*
X166674501Y-51626935D01*
X166677346Y-51663098D01*
X166722319Y-51817896D01*
X166786049Y-51925657D01*
X166804374Y-51956643D01*
X166918357Y-52070626D01*
X167057106Y-52152681D01*
X167211902Y-52197654D01*
X167248065Y-52200500D01*
X168251934Y-52200499D01*
X168288098Y-52197654D01*
X168442894Y-52152681D01*
X168581643Y-52070626D01*
X168695626Y-51956643D01*
X168777681Y-51817894D01*
X168822654Y-51663098D01*
X168825500Y-51626935D01*
X168825499Y-50373066D01*
X168822654Y-50336902D01*
X168777681Y-50182106D01*
X168777680Y-50182104D01*
X168777680Y-50182103D01*
X168717445Y-50080252D01*
X168695626Y-50043357D01*
X168679095Y-50026826D01*
X168657421Y-49974500D01*
X168679095Y-49922174D01*
X168731421Y-49900500D01*
X169268579Y-49900500D01*
X169320905Y-49922174D01*
X169342579Y-49974500D01*
X169320905Y-50026826D01*
X169304374Y-50043356D01*
X169222319Y-50182104D01*
X169177346Y-50336899D01*
X169174500Y-50373065D01*
X169174500Y-51626934D01*
X169174501Y-51626935D01*
X169177346Y-51663098D01*
X169222319Y-51817896D01*
X169286049Y-51925657D01*
X169304374Y-51956643D01*
X169418357Y-52070626D01*
X169557106Y-52152681D01*
X169711902Y-52197654D01*
X169748065Y-52200500D01*
X170751934Y-52200499D01*
X170788098Y-52197654D01*
X170927847Y-52157052D01*
X170984140Y-52163267D01*
X171000817Y-52175788D01*
X171173203Y-52348174D01*
X171194877Y-52400500D01*
X171173203Y-52452826D01*
X171120877Y-52474500D01*
X163214499Y-52474500D01*
X163162173Y-52452826D01*
X163140499Y-52400500D01*
X163140499Y-52070919D01*
X163140499Y-52070914D01*
X163140499Y-52070910D01*
X163137645Y-52040463D01*
X163137499Y-52040047D01*
X163104515Y-51945783D01*
X163092772Y-51912223D01*
X163012093Y-51802907D01*
X162988717Y-51785655D01*
X162921772Y-51736247D01*
X162902777Y-51722228D01*
X162902775Y-51722227D01*
X162774543Y-51677356D01*
X162774538Y-51677355D01*
X162770731Y-51676998D01*
X162744091Y-51674500D01*
X162744084Y-51674500D01*
X161335919Y-51674500D01*
X161335906Y-51674501D01*
X161305465Y-51677354D01*
X161305459Y-51677355D01*
X161177224Y-51722227D01*
X161067907Y-51802906D01*
X161067906Y-51802907D01*
X160987227Y-51912224D01*
X160942356Y-52040456D01*
X160942355Y-52040461D01*
X160941539Y-52049161D01*
X160939501Y-52070906D01*
X160939500Y-52070914D01*
X160939500Y-53479080D01*
X160939501Y-53479093D01*
X160942354Y-53509534D01*
X160942355Y-53509540D01*
X160984595Y-53630252D01*
X160987228Y-53637777D01*
X161067907Y-53747093D01*
X161177223Y-53827772D01*
X161206516Y-53838022D01*
X161305456Y-53872643D01*
X161305458Y-53872643D01*
X161305463Y-53872645D01*
X161335909Y-53875500D01*
X162744090Y-53875499D01*
X162774537Y-53872645D01*
X162902777Y-53827772D01*
X163012093Y-53747093D01*
X163092772Y-53637777D01*
X163137645Y-53509537D01*
X163140500Y-53479091D01*
X163140500Y-53149500D01*
X163162174Y-53097174D01*
X163214500Y-53075500D01*
X173169877Y-53075500D01*
X173222203Y-53097174D01*
X174027826Y-53902797D01*
X174049500Y-53955123D01*
X174049500Y-55044683D01*
X150401465Y-54951580D01*
X150401445Y-54900000D01*
X150401109Y-54046153D01*
X150400500Y-52502067D01*
X150400558Y-52499992D01*
X150894592Y-52499992D01*
X150894592Y-52500007D01*
X150914200Y-52786677D01*
X150914203Y-52786697D01*
X150972663Y-53068023D01*
X150972668Y-53068041D01*
X151068892Y-53338789D01*
X151068894Y-53338794D01*
X151201098Y-53593935D01*
X151201103Y-53593942D01*
X151281291Y-53707543D01*
X151366811Y-53828698D01*
X151562947Y-54038708D01*
X151785853Y-54220055D01*
X152031375Y-54369361D01*
X152294942Y-54483844D01*
X152571642Y-54561371D01*
X152856322Y-54600500D01*
X152856329Y-54600500D01*
X153143671Y-54600500D01*
X153143678Y-54600500D01*
X153428358Y-54561371D01*
X153705058Y-54483844D01*
X153968625Y-54369361D01*
X154214147Y-54220055D01*
X154437053Y-54038708D01*
X154633189Y-53828698D01*
X154798901Y-53593936D01*
X154931104Y-53338797D01*
X154941191Y-53310414D01*
X155027331Y-53068041D01*
X155027331Y-53068038D01*
X155027334Y-53068032D01*
X155041367Y-53000500D01*
X155085796Y-52786697D01*
X155085799Y-52786677D01*
X155086598Y-52774996D01*
X155854785Y-52774996D01*
X155854785Y-52775003D01*
X155873601Y-52978076D01*
X155873602Y-52978082D01*
X155922376Y-53149500D01*
X155929418Y-53174250D01*
X156020327Y-53356821D01*
X156020328Y-53356822D01*
X156020329Y-53356825D01*
X156143234Y-53519578D01*
X156143235Y-53519579D01*
X156248443Y-53615488D01*
X156293959Y-53656981D01*
X156467363Y-53764348D01*
X156657544Y-53838024D01*
X156858024Y-53875500D01*
X156858026Y-53875500D01*
X157061974Y-53875500D01*
X157061976Y-53875500D01*
X157262456Y-53838024D01*
X157452637Y-53764348D01*
X157626041Y-53656981D01*
X157776764Y-53519579D01*
X157784348Y-53509537D01*
X157899670Y-53356825D01*
X157899670Y-53356824D01*
X157899673Y-53356821D01*
X157990582Y-53174250D01*
X158046397Y-52978083D01*
X158055288Y-52882139D01*
X158065215Y-52775003D01*
X158065215Y-52774996D01*
X158046398Y-52571923D01*
X158046397Y-52571917D01*
X158026531Y-52502097D01*
X157990582Y-52375750D01*
X157899673Y-52193179D01*
X157899670Y-52193175D01*
X157899670Y-52193174D01*
X157776765Y-52030421D01*
X157776764Y-52030420D01*
X157626041Y-51893019D01*
X157529914Y-51833500D01*
X157452637Y-51785652D01*
X157262456Y-51711976D01*
X157174407Y-51695516D01*
X157061979Y-51674500D01*
X157061976Y-51674500D01*
X156858024Y-51674500D01*
X156858020Y-51674500D01*
X156708116Y-51702522D01*
X156657544Y-51711976D01*
X156657542Y-51711976D01*
X156657540Y-51711977D01*
X156467368Y-51785650D01*
X156467363Y-51785652D01*
X156467358Y-51785654D01*
X156467358Y-51785655D01*
X156293958Y-51893019D01*
X156293957Y-51893019D01*
X156143235Y-52030420D01*
X156143234Y-52030421D01*
X156020329Y-52193174D01*
X156020328Y-52193177D01*
X155929418Y-52375750D01*
X155929416Y-52375755D01*
X155873602Y-52571917D01*
X155873601Y-52571923D01*
X155854785Y-52774996D01*
X155086598Y-52774996D01*
X155105408Y-52500007D01*
X155105408Y-52499992D01*
X155085799Y-52213322D01*
X155085796Y-52213302D01*
X155027336Y-51931976D01*
X155027331Y-51931958D01*
X154931107Y-51661210D01*
X154931105Y-51661205D01*
X154922930Y-51645429D01*
X154798901Y-51406064D01*
X154633189Y-51171302D01*
X154437053Y-50961292D01*
X154214147Y-50779945D01*
X154214141Y-50779941D01*
X154214138Y-50779939D01*
X154025086Y-50664974D01*
X153968625Y-50630639D01*
X153968622Y-50630637D01*
X153968621Y-50630637D01*
X153705056Y-50516155D01*
X153428356Y-50438628D01*
X153143682Y-50399500D01*
X153143678Y-50399500D01*
X152856322Y-50399500D01*
X152856317Y-50399500D01*
X152571643Y-50438628D01*
X152294943Y-50516155D01*
X152031378Y-50630637D01*
X152031375Y-50630639D01*
X151785861Y-50779939D01*
X151785853Y-50779945D01*
X151567556Y-50957543D01*
X151562945Y-50961294D01*
X151366809Y-51171304D01*
X151201103Y-51406057D01*
X151201098Y-51406064D01*
X151068894Y-51661205D01*
X151068892Y-51661210D01*
X150972668Y-51931958D01*
X150972663Y-51931976D01*
X150914203Y-52213302D01*
X150914200Y-52213322D01*
X150894592Y-52499992D01*
X150400558Y-52499992D01*
X150400615Y-52497949D01*
X150416612Y-52213083D01*
X150417542Y-52204843D01*
X150418281Y-52200499D01*
X150464979Y-51925650D01*
X150466824Y-51917567D01*
X150545229Y-51645416D01*
X150547959Y-51637615D01*
X150656348Y-51375938D01*
X150659929Y-51368503D01*
X150796938Y-51120603D01*
X150801330Y-51113613D01*
X150965241Y-50882602D01*
X150970387Y-50876151D01*
X151159111Y-50664969D01*
X151164969Y-50659111D01*
X151376151Y-50470387D01*
X151382602Y-50465241D01*
X151613613Y-50301330D01*
X151620603Y-50296938D01*
X151868503Y-50159929D01*
X151875938Y-50156348D01*
X152137615Y-50047959D01*
X152145416Y-50045229D01*
X152417575Y-49966822D01*
X152425650Y-49964979D01*
X152704851Y-49917541D01*
X152713083Y-49916612D01*
X152997934Y-49900615D01*
X153002083Y-49900500D01*
X153057583Y-49900500D01*
X166768579Y-49900500D01*
X166820905Y-49922174D01*
G37*
%TD.AperFunction*%
%TA.AperFunction,Conductor*%
G36*
X175541044Y-49922174D02*
G01*
X175562718Y-49974500D01*
X175550246Y-50015614D01*
X175546133Y-50021768D01*
X175546133Y-50021769D01*
X175534500Y-50080252D01*
X175534500Y-50819748D01*
X175541428Y-50854578D01*
X175546133Y-50878232D01*
X175549066Y-50882621D01*
X175590448Y-50944552D01*
X175615501Y-50961292D01*
X175656767Y-50988866D01*
X175656768Y-50988866D01*
X175656769Y-50988867D01*
X175715252Y-51000500D01*
X176379877Y-51000500D01*
X176432203Y-51022174D01*
X176624339Y-51214310D01*
X176646013Y-51266636D01*
X176627939Y-51315095D01*
X176574624Y-51376625D01*
X176574623Y-51376626D01*
X176574623Y-51376627D01*
X176561183Y-51406057D01*
X176514834Y-51507545D01*
X176494353Y-51650000D01*
X176514834Y-51792454D01*
X176514834Y-51792455D01*
X176514835Y-51792457D01*
X176574623Y-51923373D01*
X176610908Y-51965249D01*
X176629462Y-51986661D01*
X176647347Y-52040399D01*
X176621995Y-52091046D01*
X176573536Y-52109120D01*
X174314743Y-52109120D01*
X174262417Y-52087446D01*
X173847173Y-51672202D01*
X173825499Y-51619878D01*
X173825499Y-50373066D01*
X173822654Y-50336902D01*
X173777681Y-50182106D01*
X173777680Y-50182104D01*
X173777680Y-50182103D01*
X173717445Y-50080252D01*
X173695626Y-50043357D01*
X173679095Y-50026826D01*
X173657421Y-49974500D01*
X173679095Y-49922174D01*
X173731421Y-49900500D01*
X175488718Y-49900500D01*
X175541044Y-49922174D01*
G37*
%TD.AperFunction*%
%TD*%
M02*
