%TF.GenerationSoftware,KiCad,Pcbnew,8.0.4*%
%TF.CreationDate,2025-03-19T01:09:58-05:00*%
%TF.ProjectId,Melty,4d656c74-792e-46b6-9963-61645f706362,rev?*%
%TF.SameCoordinates,Original*%
%TF.FileFunction,Copper,L4,Inr*%
%TF.FilePolarity,Positive*%
%FSLAX46Y46*%
G04 Gerber Fmt 4.6, Leading zero omitted, Abs format (unit mm)*
G04 Created by KiCad (PCBNEW 8.0.4) date 2025-03-19 01:09:58*
%MOMM*%
%LPD*%
G01*
G04 APERTURE LIST*
G04 Aperture macros list*
%AMRoundRect*
0 Rectangle with rounded corners*
0 $1 Rounding radius*
0 $2 $3 $4 $5 $6 $7 $8 $9 X,Y pos of 4 corners*
0 Add a 4 corners polygon primitive as box body*
4,1,4,$2,$3,$4,$5,$6,$7,$8,$9,$2,$3,0*
0 Add four circle primitives for the rounded corners*
1,1,$1+$1,$2,$3*
1,1,$1+$1,$4,$5*
1,1,$1+$1,$6,$7*
1,1,$1+$1,$8,$9*
0 Add four rect primitives between the rounded corners*
20,1,$1+$1,$2,$3,$4,$5,0*
20,1,$1+$1,$4,$5,$6,$7,0*
20,1,$1+$1,$6,$7,$8,$9,0*
20,1,$1+$1,$8,$9,$2,$3,0*%
G04 Aperture macros list end*
%TA.AperFunction,ComponentPad*%
%ADD10C,3.800000*%
%TD*%
%TA.AperFunction,ComponentPad*%
%ADD11RoundRect,0.250200X0.649800X0.649800X-0.649800X0.649800X-0.649800X-0.649800X0.649800X-0.649800X0*%
%TD*%
%TA.AperFunction,ComponentPad*%
%ADD12C,1.800000*%
%TD*%
%TA.AperFunction,ComponentPad*%
%ADD13R,3.000000X3.000000*%
%TD*%
%TA.AperFunction,ComponentPad*%
%ADD14C,3.000000*%
%TD*%
%TA.AperFunction,ViaPad*%
%ADD15C,0.600000*%
%TD*%
%TA.AperFunction,ViaPad*%
%ADD16C,0.450000*%
%TD*%
%TA.AperFunction,Conductor*%
%ADD17C,0.200000*%
%TD*%
G04 APERTURE END LIST*
D10*
%TO.N,N/C*%
%TO.C,REF\u002A\u002A*%
X153000000Y-52500000D03*
%TD*%
%TO.N,N/C*%
%TO.C,REF\u002A\u002A*%
X181500000Y-57200000D03*
%TD*%
%TO.N,N/C*%
%TO.C,REF\u002A\u002A*%
X153000000Y-68500000D03*
%TD*%
D11*
%TO.N,/IR*%
%TO.C,U5*%
X162040000Y-52775000D03*
D12*
%TO.N,GND*%
X159500000Y-52775000D03*
%TO.N,+3V3*%
X156960000Y-52775000D03*
%TD*%
D13*
%TO.N,Net-(J4-Pin_1)*%
%TO.C,J4*%
X153000000Y-63000000D03*
D14*
%TO.N,GND*%
X153000000Y-58000000D03*
%TD*%
D15*
%TO.N,+5V*%
X181650000Y-65500000D03*
D16*
%TO.N,GND*%
X175000000Y-65400000D03*
X172000000Y-69400000D03*
X173000000Y-66400000D03*
X174000000Y-68400000D03*
D15*
X195100000Y-64850000D03*
X175275460Y-58100000D03*
X179650000Y-69150000D03*
D16*
X171000000Y-66400000D03*
X171000000Y-68400000D03*
D15*
X183800000Y-66450000D03*
D16*
X175000000Y-69400000D03*
X172000000Y-67400000D03*
D15*
X182600000Y-66450000D03*
D16*
X174000000Y-65400000D03*
D15*
X186400000Y-65550000D03*
D16*
X173000000Y-68400000D03*
D15*
X175275460Y-51002962D03*
D16*
X171000000Y-67400000D03*
D15*
X187550000Y-66250000D03*
X185250000Y-64800000D03*
X189900000Y-62900000D03*
D16*
X173000000Y-67400000D03*
X173000000Y-69400000D03*
D15*
X187500000Y-64800000D03*
D16*
X174000000Y-66400000D03*
D15*
X165250000Y-51050000D03*
X185250000Y-66250000D03*
D16*
X172000000Y-66400000D03*
X174000000Y-67400000D03*
X173000000Y-65400000D03*
X175000000Y-67400000D03*
X175000000Y-66400000D03*
D15*
X192650000Y-64900000D03*
D16*
X171000000Y-69400000D03*
D15*
X175275460Y-54550000D03*
D16*
X172000000Y-68400000D03*
X172000000Y-65400000D03*
X171000000Y-65400000D03*
X175000000Y-68400000D03*
X174000000Y-69400000D03*
%TO.N,+BATT*%
X166100000Y-68400000D03*
X166100000Y-66400000D03*
X168100000Y-67400000D03*
X168100000Y-66400000D03*
X168100000Y-69400000D03*
X160500000Y-62000000D03*
X161500000Y-60100000D03*
X161500000Y-62000000D03*
X165100000Y-67400000D03*
X168100000Y-65400000D03*
X160500000Y-60100000D03*
X159500000Y-60100000D03*
X164100000Y-66400000D03*
X165100000Y-68400000D03*
X157500000Y-61000000D03*
X160500000Y-61000000D03*
X166100000Y-69400000D03*
X157500000Y-60100000D03*
X167100000Y-68400000D03*
X157500000Y-62000000D03*
X165100000Y-69400000D03*
X167100000Y-65400000D03*
X168100000Y-68400000D03*
X166100000Y-65400000D03*
X159500000Y-62000000D03*
X167100000Y-67400000D03*
X164100000Y-65400000D03*
X166100000Y-67400000D03*
X164100000Y-67400000D03*
D15*
X176900000Y-70150000D03*
D16*
X165100000Y-66400000D03*
X158500000Y-62000000D03*
X164100000Y-69400000D03*
X158500000Y-61000000D03*
X159500000Y-61000000D03*
X165100000Y-65400000D03*
X158500000Y-60100000D03*
X167100000Y-69400000D03*
X164100000Y-68400000D03*
X161500000Y-61000000D03*
X167100000Y-66400000D03*
D15*
%TO.N,+5V*%
X181550000Y-67450000D03*
X181550000Y-66450000D03*
X167750000Y-51000000D03*
X180950000Y-60000000D03*
X182100000Y-60000000D03*
X193100000Y-62500000D03*
X180600000Y-67350000D03*
X195000000Y-53150000D03*
X187550000Y-67200000D03*
X178900000Y-58086194D03*
X185250000Y-68850000D03*
X185250000Y-67200000D03*
X178724540Y-50997038D03*
X193350000Y-51000000D03*
X181025000Y-64575000D03*
X178800000Y-54700000D03*
X180650000Y-66550000D03*
X179812932Y-60171670D03*
X181692463Y-63442463D03*
X186400000Y-68100000D03*
X187550000Y-68850000D03*
%TO.N,+3V3*%
X197050000Y-60600000D03*
X185250000Y-62300000D03*
X192450000Y-54900000D03*
X182453399Y-69850252D03*
X197150000Y-57550000D03*
X177950000Y-65509620D03*
X197150000Y-51000000D03*
X180550000Y-69150000D03*
X189900000Y-61150000D03*
X192400000Y-58000000D03*
X185250000Y-63700000D03*
X187550000Y-62300000D03*
X186400000Y-63000000D03*
X197050000Y-52500000D03*
X187500000Y-63700000D03*
%TO.N,Net-(D1-DIN)*%
X179759620Y-52009620D03*
%TO.N,Net-(D1-DOUT)*%
X177067505Y-53600000D03*
X177000000Y-51650000D03*
%TO.N,Net-(D3-DOUT)*%
X175950000Y-56699998D03*
X178950000Y-57000000D03*
%TO.N,/VSense*%
X202550000Y-68150000D03*
X182550000Y-62600000D03*
%TO.N,/ESC2*%
X193800000Y-64900000D03*
%TO.N,/ESC1*%
X196350000Y-64900000D03*
%TO.N,/RX*%
X186350000Y-52850000D03*
%TO.N,Net-(Q1-D)*%
X191550000Y-51100000D03*
%TO.N,/TX*%
X202561364Y-52833000D03*
%TO.N,Net-(Q2-D)*%
X195000000Y-54850000D03*
%TO.N,/LED*%
X202561364Y-60453000D03*
%TO.N,/SCK*%
X177809311Y-69418621D03*
X186400000Y-55350000D03*
%TO.N,/MOSI*%
X177800000Y-70300000D03*
X186350000Y-60500000D03*
%TO.N,/IR*%
X178400000Y-60000000D03*
X202550000Y-63050000D03*
%TO.N,/MISO*%
X186534620Y-58034620D03*
X180000000Y-70000000D03*
D16*
%TO.N,Net-(J4-Pin_1)*%
X156500000Y-62000000D03*
X157500000Y-67000000D03*
X155500000Y-64000000D03*
X156500000Y-66000000D03*
X157500000Y-70000000D03*
X155500000Y-62000000D03*
X160500000Y-69000000D03*
X158500000Y-68000000D03*
X156500000Y-69000000D03*
X160500000Y-68000000D03*
X161500000Y-68000000D03*
X160500000Y-67000000D03*
X159500000Y-70000000D03*
X156500000Y-70000000D03*
X157500000Y-68000000D03*
X161500000Y-67000000D03*
X159500000Y-68000000D03*
X156500000Y-65000000D03*
X156500000Y-64000000D03*
X156500000Y-61000000D03*
X158500000Y-67000000D03*
X161500000Y-70000000D03*
X161500000Y-69000000D03*
X160500000Y-70000000D03*
X155500000Y-63000000D03*
X159500000Y-67000000D03*
X159500000Y-69000000D03*
X158500000Y-70000000D03*
X156500000Y-67000000D03*
X156500000Y-68000000D03*
X157500000Y-69000000D03*
X155500000Y-61000000D03*
X158500000Y-69000000D03*
X155500000Y-65000000D03*
X156500000Y-63000000D03*
D15*
%TO.N,Net-(D5-DOUT)*%
X179750000Y-53850000D03*
X178700000Y-55700000D03*
%TD*%
D17*
%TO.N,/SCK*%
X177300000Y-68909310D02*
X177809311Y-69418621D01*
X186400000Y-56548529D02*
X178088909Y-64859620D01*
X186400000Y-55350000D02*
X186400000Y-56548529D01*
X177300000Y-65240381D02*
X177300000Y-68909310D01*
X178088909Y-64859620D02*
X177680761Y-64859620D01*
X177680761Y-64859620D02*
X177300000Y-65240381D01*
%TO.N,/MOSI*%
X186600000Y-57050000D02*
X178600000Y-65050000D01*
X178600000Y-65050000D02*
X178600000Y-69500000D01*
X186350000Y-60500000D02*
X187150000Y-59700000D01*
X187150000Y-57350000D02*
X186850000Y-57050000D01*
X178600000Y-69500000D02*
X177800000Y-70300000D01*
X186850000Y-57050000D02*
X186600000Y-57050000D01*
X187150000Y-59700000D02*
X187150000Y-57350000D01*
%TO.N,/MISO*%
X186181066Y-58034620D02*
X186534620Y-58034620D01*
X179630761Y-70000000D02*
X179050000Y-69419239D01*
X179050000Y-69419239D02*
X179050000Y-65165686D01*
X179050000Y-65165686D02*
X186181066Y-58034620D01*
X180000000Y-70000000D02*
X179630761Y-70000000D01*
%TD*%
%TA.AperFunction,Conductor*%
%TO.N,GND*%
G36*
X174397862Y-55046054D02*
G01*
X174409983Y-55046696D01*
X174586347Y-55064724D01*
X174610111Y-55069536D01*
X174773766Y-55119752D01*
X174796138Y-55129096D01*
X174946882Y-55210197D01*
X174967010Y-55223717D01*
X175099095Y-55332606D01*
X175116207Y-55349785D01*
X175224578Y-55482300D01*
X175238019Y-55502481D01*
X175318527Y-55653547D01*
X175327784Y-55675959D01*
X175377352Y-55839801D01*
X175382071Y-55863584D01*
X175399406Y-56040024D01*
X175400000Y-56052148D01*
X175400000Y-56651993D01*
X175398939Y-56668178D01*
X175394750Y-56699996D01*
X175394750Y-56699998D01*
X175398939Y-56731815D01*
X175400000Y-56748001D01*
X175400000Y-70486557D01*
X175399397Y-70498767D01*
X175381815Y-70676448D01*
X175377029Y-70700396D01*
X175326759Y-70865301D01*
X175317373Y-70887845D01*
X175235753Y-71039711D01*
X175222130Y-71059979D01*
X175191250Y-71097363D01*
X175133380Y-71136513D01*
X175095648Y-71142393D01*
X168883388Y-71142393D01*
X168816349Y-71122708D01*
X168787284Y-71096751D01*
X168757302Y-71059979D01*
X168724692Y-71019983D01*
X168711309Y-70999835D01*
X168631128Y-70849000D01*
X168621913Y-70826639D01*
X168572547Y-70663096D01*
X168567851Y-70639370D01*
X168550592Y-70463310D01*
X168550000Y-70451213D01*
X168550000Y-69586251D01*
X168559177Y-69544065D01*
X168558433Y-69543847D01*
X168560927Y-69535349D01*
X168560931Y-69535342D01*
X168580390Y-69400000D01*
X168560931Y-69264658D01*
X168558432Y-69256147D01*
X168559175Y-69255928D01*
X168550000Y-69213746D01*
X168550000Y-68586251D01*
X168559177Y-68544065D01*
X168558433Y-68543847D01*
X168560927Y-68535349D01*
X168560931Y-68535342D01*
X168580390Y-68400000D01*
X168560931Y-68264658D01*
X168558432Y-68256147D01*
X168559175Y-68255928D01*
X168550000Y-68213746D01*
X168550000Y-67586251D01*
X168559177Y-67544065D01*
X168558433Y-67543847D01*
X168560927Y-67535349D01*
X168560931Y-67535342D01*
X168580390Y-67400000D01*
X168560931Y-67264658D01*
X168558432Y-67256147D01*
X168559175Y-67255928D01*
X168550000Y-67213746D01*
X168550000Y-66586251D01*
X168559177Y-66544065D01*
X168558433Y-66543847D01*
X168560927Y-66535349D01*
X168560931Y-66535342D01*
X168580390Y-66400000D01*
X168560931Y-66264658D01*
X168558432Y-66256147D01*
X168559175Y-66255928D01*
X168550000Y-66213746D01*
X168550000Y-65586251D01*
X168559177Y-65544065D01*
X168558433Y-65543847D01*
X168560927Y-65535349D01*
X168560931Y-65535342D01*
X168580390Y-65400000D01*
X168560931Y-65264658D01*
X168558432Y-65256147D01*
X168559175Y-65255928D01*
X168550000Y-65213746D01*
X168550000Y-60450003D01*
X168550000Y-60450000D01*
X168550000Y-59450000D01*
X167550000Y-59450000D01*
X167549997Y-59450000D01*
X157774992Y-59450000D01*
X157250000Y-59450000D01*
X157250000Y-59695436D01*
X157185413Y-59736942D01*
X157185409Y-59736946D01*
X157095872Y-59840278D01*
X157095867Y-59840285D01*
X157039070Y-59964654D01*
X157039068Y-59964662D01*
X157019610Y-60100000D01*
X157039068Y-60235341D01*
X157039069Y-60235345D01*
X157050394Y-60260141D01*
X157060338Y-60329300D01*
X157031313Y-60392855D01*
X157013086Y-60410029D01*
X157000451Y-60419724D01*
X156972418Y-60435909D01*
X156875961Y-60475863D01*
X156844694Y-60484241D01*
X156746010Y-60497233D01*
X156733058Y-60498939D01*
X156716874Y-60500000D01*
X151008845Y-60500000D01*
X150996694Y-60499403D01*
X150819866Y-60481991D01*
X150796030Y-60477251D01*
X150631850Y-60427460D01*
X150609398Y-60418163D01*
X150514640Y-60367530D01*
X150469105Y-60343198D01*
X150419255Y-60294243D01*
X150403546Y-60233886D01*
X150401571Y-55220296D01*
X150421229Y-55153251D01*
X150467398Y-55110741D01*
X150610506Y-55034722D01*
X150633039Y-55025464D01*
X150797874Y-54976024D01*
X150821793Y-54971351D01*
X150857348Y-54967980D01*
X150999220Y-54954533D01*
X151011407Y-54953981D01*
X174397862Y-55046054D01*
G37*
%TD.AperFunction*%
%TD*%
%TA.AperFunction,Conductor*%
%TO.N,Net-(J4-Pin_1)*%
G36*
X150563752Y-60673799D02*
G01*
X150721868Y-60721751D01*
X150721874Y-60721752D01*
X150721879Y-60721754D01*
X150746197Y-60727844D01*
X150770033Y-60732584D01*
X150794828Y-60736261D01*
X150794834Y-60736261D01*
X150794837Y-60736262D01*
X150971645Y-60753672D01*
X150971648Y-60753672D01*
X150971656Y-60753673D01*
X150984156Y-60754595D01*
X150996307Y-60755192D01*
X151008845Y-60755500D01*
X151008864Y-60755500D01*
X156716862Y-60755500D01*
X156716874Y-60755500D01*
X156733588Y-60754953D01*
X156749772Y-60753892D01*
X156766424Y-60752251D01*
X156779376Y-60750545D01*
X156779375Y-60750544D01*
X156781044Y-60750324D01*
X156854318Y-60740678D01*
X156923352Y-60751444D01*
X156975607Y-60797825D01*
X156994500Y-60863617D01*
X156994500Y-63193907D01*
X156994723Y-63202984D01*
X156994808Y-63206450D01*
X156995406Y-63218618D01*
X156996325Y-63231086D01*
X157013745Y-63407958D01*
X157013751Y-63408009D01*
X157017421Y-63432756D01*
X157017427Y-63432785D01*
X157022169Y-63456627D01*
X157028249Y-63480899D01*
X157028257Y-63480928D01*
X157078079Y-63645171D01*
X157086523Y-63668772D01*
X157086524Y-63668775D01*
X157095826Y-63691231D01*
X157106550Y-63713905D01*
X157106557Y-63713919D01*
X157187430Y-63865220D01*
X157187456Y-63865267D01*
X157200331Y-63886747D01*
X157213807Y-63906917D01*
X157213853Y-63906983D01*
X157228761Y-63927082D01*
X157228773Y-63927098D01*
X157298844Y-64012480D01*
X157337644Y-64059758D01*
X157354473Y-64078326D01*
X157371672Y-64095525D01*
X157390240Y-64112354D01*
X157390245Y-64112358D01*
X157522901Y-64221226D01*
X157522916Y-64221237D01*
X157543015Y-64236145D01*
X157543081Y-64236191D01*
X157563251Y-64249667D01*
X157584731Y-64262542D01*
X157584747Y-64262551D01*
X157584759Y-64262558D01*
X157584778Y-64262568D01*
X157736079Y-64343441D01*
X157736093Y-64343448D01*
X157736097Y-64343450D01*
X157736101Y-64343452D01*
X157758762Y-64354170D01*
X157781220Y-64363473D01*
X157804834Y-64371922D01*
X157969057Y-64421738D01*
X157993381Y-64427831D01*
X158017222Y-64432573D01*
X158035462Y-64435278D01*
X158042020Y-64436252D01*
X158059984Y-64438021D01*
X158218895Y-64453673D01*
X158231404Y-64454595D01*
X158243558Y-64455192D01*
X158256093Y-64455500D01*
X161620500Y-64455500D01*
X161687539Y-64475185D01*
X161733294Y-64527989D01*
X161744500Y-64579500D01*
X161744500Y-70486231D01*
X161744809Y-70498804D01*
X161745413Y-70511023D01*
X161746345Y-70523603D01*
X161762762Y-70689480D01*
X161763931Y-70701287D01*
X161763940Y-70701357D01*
X161767647Y-70726222D01*
X161772433Y-70750168D01*
X161778588Y-70774617D01*
X161778589Y-70774622D01*
X161828884Y-70939574D01*
X161834860Y-70956187D01*
X161839026Y-71025933D01*
X161814032Y-71076817D01*
X161797422Y-71097056D01*
X161739679Y-71136391D01*
X161701569Y-71142393D01*
X151014064Y-71142393D01*
X151000181Y-71141613D01*
X150975195Y-71138797D01*
X150887588Y-71128927D01*
X150860518Y-71122749D01*
X150760178Y-71087639D01*
X150735160Y-71075591D01*
X150645150Y-71019034D01*
X150623441Y-71001721D01*
X150548278Y-70926558D01*
X150530965Y-70904849D01*
X150474408Y-70814839D01*
X150462360Y-70789821D01*
X150457138Y-70774898D01*
X150427248Y-70689474D01*
X150421072Y-70662410D01*
X150420024Y-70653112D01*
X150408387Y-70549819D01*
X150407607Y-70535936D01*
X150407607Y-70476531D01*
X150407580Y-70476166D01*
X150406801Y-68500000D01*
X150844475Y-68500000D01*
X150864551Y-68793511D01*
X150864552Y-68793513D01*
X150924404Y-69081543D01*
X150924409Y-69081559D01*
X151022927Y-69358762D01*
X151158278Y-69619977D01*
X151158282Y-69619983D01*
X151327932Y-69860323D01*
X151528743Y-70075338D01*
X151656384Y-70179181D01*
X151756951Y-70260999D01*
X151756953Y-70261000D01*
X151756954Y-70261001D01*
X152008319Y-70413860D01*
X152008324Y-70413862D01*
X152260975Y-70523603D01*
X152278159Y-70531067D01*
X152561445Y-70610440D01*
X152817681Y-70645659D01*
X152852901Y-70650500D01*
X152852902Y-70650500D01*
X153147099Y-70650500D01*
X153178520Y-70646180D01*
X153438555Y-70610440D01*
X153721841Y-70531067D01*
X153991682Y-70413859D01*
X154243049Y-70260999D01*
X154471260Y-70075335D01*
X154672065Y-69860326D01*
X154841722Y-69619976D01*
X154977072Y-69358764D01*
X155075592Y-69081554D01*
X155075592Y-69081549D01*
X155075595Y-69081543D01*
X155108511Y-68923135D01*
X155135448Y-68793511D01*
X155155525Y-68500000D01*
X155135448Y-68206489D01*
X155118089Y-68122955D01*
X155075595Y-67918456D01*
X155075590Y-67918440D01*
X154977072Y-67641237D01*
X154977072Y-67641236D01*
X154841722Y-67380024D01*
X154841721Y-67380022D01*
X154841717Y-67380016D01*
X154672067Y-67139676D01*
X154471256Y-66924661D01*
X154243045Y-66738998D01*
X153991680Y-66586139D01*
X153991675Y-66586137D01*
X153721845Y-66468934D01*
X153438560Y-66389561D01*
X153438556Y-66389560D01*
X153438555Y-66389560D01*
X153292826Y-66369530D01*
X153147099Y-66349500D01*
X153147098Y-66349500D01*
X152852902Y-66349500D01*
X152852901Y-66349500D01*
X152561445Y-66389560D01*
X152561439Y-66389561D01*
X152278154Y-66468934D01*
X152008324Y-66586137D01*
X152008319Y-66586139D01*
X151756954Y-66738998D01*
X151528743Y-66924661D01*
X151327932Y-67139676D01*
X151158282Y-67380016D01*
X151158278Y-67380022D01*
X151022927Y-67641237D01*
X150924409Y-67918440D01*
X150924404Y-67918456D01*
X150864552Y-68206486D01*
X150864551Y-68206488D01*
X150844475Y-68500000D01*
X150406801Y-68500000D01*
X150403765Y-60792508D01*
X150423423Y-60725464D01*
X150476209Y-60679688D01*
X150545364Y-60669717D01*
X150563752Y-60673799D01*
G37*
%TD.AperFunction*%
%TD*%
%TA.AperFunction,Conductor*%
%TO.N,+BATT*%
G36*
X168234214Y-59725185D02*
G01*
X168245828Y-59733637D01*
X168247655Y-59735136D01*
X168264845Y-59752322D01*
X168266347Y-59754153D01*
X168293665Y-59818459D01*
X168294500Y-59832824D01*
X168294500Y-65213746D01*
X168300338Y-65268056D01*
X168308108Y-65303778D01*
X168309679Y-65312483D01*
X168319725Y-65382352D01*
X168319725Y-65417647D01*
X168309681Y-65487505D01*
X168308110Y-65496211D01*
X168300338Y-65531941D01*
X168294500Y-65586254D01*
X168294500Y-66213746D01*
X168300338Y-66268056D01*
X168308108Y-66303778D01*
X168309679Y-66312483D01*
X168319725Y-66382352D01*
X168319725Y-66417647D01*
X168309681Y-66487505D01*
X168308110Y-66496211D01*
X168300338Y-66531941D01*
X168294500Y-66586254D01*
X168294500Y-67213746D01*
X168300338Y-67268056D01*
X168308108Y-67303778D01*
X168309679Y-67312483D01*
X168319725Y-67382352D01*
X168319725Y-67417647D01*
X168309681Y-67487505D01*
X168308110Y-67496211D01*
X168300338Y-67531941D01*
X168294500Y-67586254D01*
X168294500Y-68213746D01*
X168300338Y-68268056D01*
X168308108Y-68303778D01*
X168309679Y-68312483D01*
X168319725Y-68382352D01*
X168319725Y-68417647D01*
X168309681Y-68487505D01*
X168308110Y-68496211D01*
X168300338Y-68531941D01*
X168294500Y-68586254D01*
X168294500Y-69213746D01*
X168300338Y-69268056D01*
X168308108Y-69303778D01*
X168309679Y-69312483D01*
X168319725Y-69382352D01*
X168319725Y-69417647D01*
X168309681Y-69487505D01*
X168308110Y-69496211D01*
X168300338Y-69531941D01*
X168294500Y-69586254D01*
X168294500Y-70451215D01*
X168294804Y-70463696D01*
X168295397Y-70475822D01*
X168296310Y-70488235D01*
X168313565Y-70664259D01*
X168313572Y-70664311D01*
X168317209Y-70688958D01*
X168317210Y-70688959D01*
X168317213Y-70688978D01*
X168319415Y-70700101D01*
X168321911Y-70712715D01*
X168327940Y-70736898D01*
X168327948Y-70736929D01*
X168339409Y-70774898D01*
X168377316Y-70900479D01*
X168382972Y-70916367D01*
X168386910Y-70986126D01*
X168362269Y-71036294D01*
X168313000Y-71096738D01*
X168255391Y-71136264D01*
X168216888Y-71142393D01*
X162304625Y-71142393D01*
X162237586Y-71122708D01*
X162209038Y-71097381D01*
X162177933Y-71059736D01*
X162164319Y-71039487D01*
X162082660Y-70887587D01*
X162073273Y-70865045D01*
X162022980Y-70700101D01*
X162018192Y-70676149D01*
X162017020Y-70664311D01*
X162000603Y-70498429D01*
X162000000Y-70486216D01*
X162000000Y-65200003D01*
X162000000Y-65200000D01*
X162000000Y-64200000D01*
X161000000Y-64200000D01*
X160999997Y-64200000D01*
X158256093Y-64200000D01*
X158243939Y-64199403D01*
X158067065Y-64181982D01*
X158043224Y-64177240D01*
X157879001Y-64127424D01*
X157856543Y-64118121D01*
X157705201Y-64037227D01*
X157684989Y-64023722D01*
X157552333Y-63914854D01*
X157535145Y-63897666D01*
X157426277Y-63765010D01*
X157412772Y-63744798D01*
X157331878Y-63593456D01*
X157322575Y-63570998D01*
X157272757Y-63406769D01*
X157268018Y-63382941D01*
X157250597Y-63206061D01*
X157250000Y-63193907D01*
X157250000Y-60556007D01*
X157263605Y-60505535D01*
X157261231Y-60504451D01*
X157263723Y-60498995D01*
X157292748Y-60435440D01*
X157307902Y-60392485D01*
X157313237Y-60292937D01*
X157303293Y-60223778D01*
X157301602Y-60218022D01*
X157301602Y-60148154D01*
X157301806Y-60147467D01*
X157322579Y-60078987D01*
X157331871Y-60056556D01*
X157412775Y-59905195D01*
X157426272Y-59884995D01*
X157535152Y-59752326D01*
X157552367Y-59735117D01*
X157553040Y-59734564D01*
X157554198Y-59733616D01*
X157618519Y-59706328D01*
X157632825Y-59705500D01*
X168167175Y-59705500D01*
X168234214Y-59725185D01*
G37*
%TD.AperFunction*%
%TD*%
%TA.AperFunction,Conductor*%
%TO.N,+5V*%
G36*
X201352065Y-49900615D02*
G01*
X201636914Y-49916612D01*
X201645150Y-49917541D01*
X201924345Y-49964978D01*
X201932428Y-49966823D01*
X202204578Y-50045227D01*
X202212390Y-50047961D01*
X202474053Y-50156345D01*
X202481503Y-50159932D01*
X202729388Y-50296934D01*
X202736394Y-50301336D01*
X202967388Y-50465235D01*
X202973856Y-50470394D01*
X203116006Y-50597427D01*
X203185025Y-50659107D01*
X203190892Y-50664974D01*
X203238150Y-50717855D01*
X203379603Y-50876141D01*
X203384766Y-50882613D01*
X203440593Y-50961294D01*
X203548661Y-51113602D01*
X203553068Y-51120616D01*
X203690063Y-51368489D01*
X203693657Y-51375953D01*
X203797841Y-51627477D01*
X203802033Y-51637596D01*
X203804774Y-51645429D01*
X203883175Y-51917567D01*
X203885021Y-51925657D01*
X203932457Y-52204843D01*
X203933387Y-52213090D01*
X203949383Y-52497919D01*
X203949499Y-52502097D01*
X203942417Y-70480013D01*
X203942393Y-70480357D01*
X203942393Y-70538738D01*
X203941928Y-70547023D01*
X203928296Y-70668015D01*
X203924608Y-70684171D01*
X203885779Y-70795136D01*
X203878590Y-70810065D01*
X203816039Y-70909616D01*
X203805707Y-70922572D01*
X203722572Y-71005707D01*
X203709616Y-71016039D01*
X203610065Y-71078590D01*
X203595136Y-71085779D01*
X203505566Y-71117121D01*
X203484169Y-71124608D01*
X203468015Y-71128296D01*
X203347023Y-71141928D01*
X203338738Y-71142393D01*
X175594412Y-71142393D01*
X175542086Y-71120719D01*
X175520412Y-71068393D01*
X175529230Y-71033361D01*
X175542416Y-71008826D01*
X175542419Y-71008818D01*
X175542429Y-71008801D01*
X175553246Y-70986049D01*
X175562632Y-70963505D01*
X175571155Y-70939803D01*
X175621425Y-70774898D01*
X175627575Y-70750467D01*
X175632361Y-70726519D01*
X175636073Y-70701608D01*
X175636102Y-70701321D01*
X175641130Y-70650499D01*
X175653655Y-70523927D01*
X175654586Y-70511370D01*
X175655189Y-70499160D01*
X175655190Y-70499137D01*
X175655500Y-70486577D01*
X175655500Y-70150000D01*
X176394353Y-70150000D01*
X176414834Y-70292454D01*
X176414834Y-70292455D01*
X176414835Y-70292457D01*
X176440442Y-70348528D01*
X176474623Y-70423373D01*
X176568868Y-70532139D01*
X176568869Y-70532140D01*
X176568872Y-70532143D01*
X176689947Y-70609953D01*
X176796403Y-70641211D01*
X176828035Y-70650499D01*
X176828037Y-70650500D01*
X176828039Y-70650500D01*
X176971963Y-70650500D01*
X176971964Y-70650499D01*
X177110053Y-70609953D01*
X177231128Y-70532143D01*
X177237361Y-70524949D01*
X177288005Y-70499597D01*
X177341745Y-70517481D01*
X177360599Y-70542666D01*
X177374622Y-70573372D01*
X177468868Y-70682139D01*
X177468869Y-70682140D01*
X177468872Y-70682143D01*
X177537923Y-70726519D01*
X177574747Y-70750185D01*
X177589947Y-70759953D01*
X177696403Y-70791211D01*
X177728035Y-70800499D01*
X177728037Y-70800500D01*
X177728039Y-70800500D01*
X177871963Y-70800500D01*
X177871964Y-70800499D01*
X177890229Y-70795136D01*
X178010053Y-70759953D01*
X178131128Y-70682143D01*
X178225377Y-70573373D01*
X178285165Y-70442457D01*
X178305647Y-70300000D01*
X178300776Y-70266128D01*
X178314782Y-70211253D01*
X178321690Y-70203279D01*
X178813055Y-69711915D01*
X178865380Y-69690242D01*
X178917706Y-69711916D01*
X179390301Y-70184511D01*
X179446250Y-70240460D01*
X179514772Y-70280021D01*
X179514773Y-70280021D01*
X179514775Y-70280022D01*
X179578308Y-70297046D01*
X179615081Y-70320065D01*
X179668868Y-70382139D01*
X179668871Y-70382142D01*
X179668872Y-70382143D01*
X179668874Y-70382144D01*
X179762722Y-70442457D01*
X179789947Y-70459953D01*
X179879392Y-70486216D01*
X179928035Y-70500499D01*
X179928037Y-70500500D01*
X179928039Y-70500500D01*
X180071963Y-70500500D01*
X180071964Y-70500499D01*
X180075036Y-70499597D01*
X180210053Y-70459953D01*
X180331128Y-70382143D01*
X180425377Y-70273373D01*
X180485165Y-70142457D01*
X180505647Y-70000000D01*
X180485165Y-69857543D01*
X180481835Y-69850252D01*
X181947752Y-69850252D01*
X181968233Y-69992706D01*
X181968233Y-69992707D01*
X181968234Y-69992709D01*
X182028022Y-70123625D01*
X182122267Y-70232391D01*
X182122268Y-70232392D01*
X182122271Y-70232395D01*
X182214873Y-70291906D01*
X182228244Y-70300500D01*
X182243346Y-70310205D01*
X182349802Y-70341463D01*
X182381434Y-70350751D01*
X182381436Y-70350752D01*
X182381438Y-70350752D01*
X182525362Y-70350752D01*
X182525363Y-70350751D01*
X182532934Y-70348528D01*
X182663452Y-70310205D01*
X182784527Y-70232395D01*
X182878776Y-70123625D01*
X182938564Y-69992709D01*
X182959046Y-69850252D01*
X182938564Y-69707795D01*
X182878776Y-69576879D01*
X182784527Y-69468109D01*
X182707522Y-69418621D01*
X182663453Y-69390299D01*
X182663449Y-69390298D01*
X182525363Y-69349752D01*
X182525360Y-69349752D01*
X182381438Y-69349752D01*
X182381435Y-69349752D01*
X182243348Y-69390298D01*
X182243344Y-69390299D01*
X182122274Y-69468107D01*
X182122267Y-69468112D01*
X182028022Y-69576878D01*
X181968233Y-69707797D01*
X181947752Y-69850252D01*
X180481835Y-69850252D01*
X180438443Y-69755239D01*
X180436423Y-69698640D01*
X180475016Y-69657187D01*
X180505757Y-69650500D01*
X180621963Y-69650500D01*
X180621964Y-69650499D01*
X180760053Y-69609953D01*
X180881128Y-69532143D01*
X180975377Y-69423373D01*
X181035165Y-69292457D01*
X181055647Y-69150000D01*
X181035165Y-69007543D01*
X180975377Y-68876627D01*
X180944075Y-68840502D01*
X180881131Y-68767860D01*
X180881129Y-68767859D01*
X180881128Y-68767857D01*
X180824182Y-68731260D01*
X180760054Y-68690047D01*
X180760050Y-68690046D01*
X180621964Y-68649500D01*
X180621961Y-68649500D01*
X180478039Y-68649500D01*
X180478036Y-68649500D01*
X180339949Y-68690046D01*
X180339945Y-68690047D01*
X180240143Y-68754187D01*
X180218872Y-68767857D01*
X180155924Y-68840502D01*
X180105279Y-68865853D01*
X180051540Y-68847968D01*
X180044079Y-68840507D01*
X179981128Y-68767857D01*
X179924182Y-68731260D01*
X179860054Y-68690047D01*
X179860050Y-68690046D01*
X179721964Y-68649500D01*
X179721961Y-68649500D01*
X179578039Y-68649500D01*
X179578036Y-68649500D01*
X179445348Y-68688461D01*
X179389036Y-68682407D01*
X179353498Y-68638307D01*
X179350500Y-68617459D01*
X179350500Y-68150000D01*
X202044353Y-68150000D01*
X202064834Y-68292454D01*
X202124623Y-68423373D01*
X202218868Y-68532139D01*
X202218869Y-68532140D01*
X202218872Y-68532143D01*
X202339947Y-68609953D01*
X202436513Y-68638307D01*
X202478035Y-68650499D01*
X202478037Y-68650500D01*
X202478039Y-68650500D01*
X202621963Y-68650500D01*
X202621964Y-68650499D01*
X202760053Y-68609953D01*
X202881128Y-68532143D01*
X202975377Y-68423373D01*
X203035165Y-68292457D01*
X203055647Y-68150000D01*
X203035165Y-68007543D01*
X202975377Y-67876627D01*
X202881128Y-67767857D01*
X202824182Y-67731260D01*
X202760054Y-67690047D01*
X202760050Y-67690046D01*
X202621964Y-67649500D01*
X202621961Y-67649500D01*
X202478039Y-67649500D01*
X202478036Y-67649500D01*
X202339949Y-67690046D01*
X202339945Y-67690047D01*
X202218875Y-67767855D01*
X202218868Y-67767860D01*
X202124623Y-67876626D01*
X202064834Y-68007545D01*
X202044353Y-68150000D01*
X179350500Y-68150000D01*
X179350500Y-66450000D01*
X182094353Y-66450000D01*
X182114834Y-66592454D01*
X182114834Y-66592455D01*
X182114835Y-66592457D01*
X182132959Y-66632143D01*
X182174623Y-66723373D01*
X182268868Y-66832139D01*
X182268869Y-66832140D01*
X182268872Y-66832143D01*
X182389947Y-66909953D01*
X182496403Y-66941211D01*
X182528035Y-66950499D01*
X182528037Y-66950500D01*
X182528039Y-66950500D01*
X182671963Y-66950500D01*
X182671964Y-66950499D01*
X182810053Y-66909953D01*
X182931128Y-66832143D01*
X183025377Y-66723373D01*
X183085165Y-66592457D01*
X183105647Y-66450000D01*
X183294353Y-66450000D01*
X183314834Y-66592454D01*
X183314834Y-66592455D01*
X183314835Y-66592457D01*
X183332959Y-66632143D01*
X183374623Y-66723373D01*
X183468868Y-66832139D01*
X183468869Y-66832140D01*
X183468872Y-66832143D01*
X183589947Y-66909953D01*
X183696403Y-66941211D01*
X183728035Y-66950499D01*
X183728037Y-66950500D01*
X183728039Y-66950500D01*
X183871963Y-66950500D01*
X183871964Y-66950499D01*
X184010053Y-66909953D01*
X184131128Y-66832143D01*
X184225377Y-66723373D01*
X184285165Y-66592457D01*
X184305647Y-66450000D01*
X184285165Y-66307543D01*
X184258886Y-66250000D01*
X184744353Y-66250000D01*
X184764834Y-66392454D01*
X184764834Y-66392455D01*
X184764835Y-66392457D01*
X184821327Y-66516156D01*
X184824623Y-66523373D01*
X184918868Y-66632139D01*
X184918869Y-66632140D01*
X184918872Y-66632143D01*
X185039947Y-66709953D01*
X185146403Y-66741211D01*
X185178035Y-66750499D01*
X185178037Y-66750500D01*
X185178039Y-66750500D01*
X185321963Y-66750500D01*
X185321964Y-66750499D01*
X185334630Y-66746780D01*
X185460053Y-66709953D01*
X185581128Y-66632143D01*
X185675377Y-66523373D01*
X185735165Y-66392457D01*
X185755647Y-66250000D01*
X187044353Y-66250000D01*
X187064834Y-66392454D01*
X187064834Y-66392455D01*
X187064835Y-66392457D01*
X187121327Y-66516156D01*
X187124623Y-66523373D01*
X187218868Y-66632139D01*
X187218869Y-66632140D01*
X187218872Y-66632143D01*
X187339947Y-66709953D01*
X187446403Y-66741211D01*
X187478035Y-66750499D01*
X187478037Y-66750500D01*
X187478039Y-66750500D01*
X187621963Y-66750500D01*
X187621964Y-66750499D01*
X187634630Y-66746780D01*
X187760053Y-66709953D01*
X187881128Y-66632143D01*
X187975377Y-66523373D01*
X188035165Y-66392457D01*
X188055647Y-66250000D01*
X188035165Y-66107543D01*
X187975377Y-65976627D01*
X187901843Y-65891763D01*
X187881131Y-65867860D01*
X187881129Y-65867859D01*
X187881128Y-65867857D01*
X187824182Y-65831260D01*
X187760054Y-65790047D01*
X187760050Y-65790046D01*
X187621964Y-65749500D01*
X187621961Y-65749500D01*
X187478039Y-65749500D01*
X187478036Y-65749500D01*
X187339949Y-65790046D01*
X187339945Y-65790047D01*
X187218875Y-65867855D01*
X187218868Y-65867860D01*
X187124623Y-65976626D01*
X187064834Y-66107545D01*
X187044353Y-66250000D01*
X185755647Y-66250000D01*
X185735165Y-66107543D01*
X185675377Y-65976627D01*
X185601843Y-65891763D01*
X185581131Y-65867860D01*
X185581129Y-65867859D01*
X185581128Y-65867857D01*
X185524182Y-65831260D01*
X185460054Y-65790047D01*
X185460050Y-65790046D01*
X185321964Y-65749500D01*
X185321961Y-65749500D01*
X185178039Y-65749500D01*
X185178036Y-65749500D01*
X185039949Y-65790046D01*
X185039945Y-65790047D01*
X184918875Y-65867855D01*
X184918868Y-65867860D01*
X184824623Y-65976626D01*
X184764834Y-66107545D01*
X184744353Y-66250000D01*
X184258886Y-66250000D01*
X184225377Y-66176627D01*
X184201814Y-66149434D01*
X184131131Y-66067860D01*
X184131129Y-66067859D01*
X184131128Y-66067857D01*
X184074182Y-66031260D01*
X184010054Y-65990047D01*
X184010050Y-65990046D01*
X183871964Y-65949500D01*
X183871961Y-65949500D01*
X183728039Y-65949500D01*
X183728036Y-65949500D01*
X183589949Y-65990046D01*
X183589945Y-65990047D01*
X183468875Y-66067855D01*
X183468868Y-66067860D01*
X183374623Y-66176626D01*
X183314834Y-66307545D01*
X183294353Y-66450000D01*
X183105647Y-66450000D01*
X183085165Y-66307543D01*
X183025377Y-66176627D01*
X183001814Y-66149434D01*
X182931131Y-66067860D01*
X182931129Y-66067859D01*
X182931128Y-66067857D01*
X182874182Y-66031260D01*
X182810054Y-65990047D01*
X182810050Y-65990046D01*
X182671964Y-65949500D01*
X182671961Y-65949500D01*
X182528039Y-65949500D01*
X182528036Y-65949500D01*
X182389949Y-65990046D01*
X182389945Y-65990047D01*
X182268875Y-66067855D01*
X182268868Y-66067860D01*
X182174623Y-66176626D01*
X182114834Y-66307545D01*
X182094353Y-66450000D01*
X179350500Y-66450000D01*
X179350500Y-65550000D01*
X185894353Y-65550000D01*
X185914834Y-65692454D01*
X185974623Y-65823373D01*
X186068868Y-65932139D01*
X186068869Y-65932140D01*
X186068872Y-65932143D01*
X186189947Y-66009953D01*
X186296403Y-66041211D01*
X186328035Y-66050499D01*
X186328037Y-66050500D01*
X186328039Y-66050500D01*
X186471963Y-66050500D01*
X186471964Y-66050499D01*
X186610053Y-66009953D01*
X186731128Y-65932143D01*
X186825377Y-65823373D01*
X186885165Y-65692457D01*
X186905647Y-65550000D01*
X186885165Y-65407543D01*
X186825377Y-65276627D01*
X186743507Y-65182143D01*
X186731131Y-65167860D01*
X186731129Y-65167859D01*
X186731128Y-65167857D01*
X186663492Y-65124390D01*
X186610054Y-65090047D01*
X186610050Y-65090046D01*
X186471964Y-65049500D01*
X186471961Y-65049500D01*
X186328039Y-65049500D01*
X186328036Y-65049500D01*
X186189949Y-65090046D01*
X186189945Y-65090047D01*
X186068875Y-65167855D01*
X186068868Y-65167860D01*
X185974623Y-65276626D01*
X185914834Y-65407545D01*
X185894353Y-65550000D01*
X179350500Y-65550000D01*
X179350500Y-65320808D01*
X179372173Y-65268483D01*
X180940655Y-63700000D01*
X184744353Y-63700000D01*
X184764834Y-63842454D01*
X184764834Y-63842455D01*
X184764835Y-63842457D01*
X184803490Y-63927098D01*
X184824623Y-63973373D01*
X184918868Y-64082139D01*
X184918869Y-64082140D01*
X184918872Y-64082143D01*
X185039947Y-64159953D01*
X185084908Y-64173154D01*
X185104808Y-64178998D01*
X185148907Y-64214536D01*
X185154961Y-64270849D01*
X185119423Y-64314948D01*
X185104808Y-64321002D01*
X185039947Y-64340047D01*
X185039945Y-64340047D01*
X184918875Y-64417855D01*
X184918868Y-64417860D01*
X184824623Y-64526626D01*
X184764834Y-64657545D01*
X184744353Y-64800000D01*
X184764834Y-64942454D01*
X184764834Y-64942455D01*
X184764835Y-64942457D01*
X184816629Y-65055869D01*
X184824623Y-65073373D01*
X184918868Y-65182139D01*
X184918869Y-65182140D01*
X184918872Y-65182143D01*
X185039947Y-65259953D01*
X185142814Y-65290157D01*
X185178035Y-65300499D01*
X185178037Y-65300500D01*
X185178039Y-65300500D01*
X185321963Y-65300500D01*
X185321964Y-65300499D01*
X185460053Y-65259953D01*
X185581128Y-65182143D01*
X185675377Y-65073373D01*
X185735165Y-64942457D01*
X185755647Y-64800000D01*
X185735165Y-64657543D01*
X185675377Y-64526627D01*
X185613479Y-64455192D01*
X185581131Y-64417860D01*
X185581129Y-64417859D01*
X185581128Y-64417857D01*
X185496505Y-64363473D01*
X185460054Y-64340047D01*
X185460050Y-64340046D01*
X185395192Y-64321002D01*
X185351092Y-64285464D01*
X185345038Y-64229152D01*
X185380576Y-64185052D01*
X185395192Y-64178998D01*
X185412181Y-64174009D01*
X185460053Y-64159953D01*
X185581128Y-64082143D01*
X185675377Y-63973373D01*
X185735165Y-63842457D01*
X185755647Y-63700000D01*
X186994353Y-63700000D01*
X187014834Y-63842454D01*
X187014834Y-63842455D01*
X187014835Y-63842457D01*
X187053490Y-63927098D01*
X187074623Y-63973373D01*
X187168868Y-64082139D01*
X187168869Y-64082140D01*
X187168872Y-64082143D01*
X187289947Y-64159953D01*
X187334908Y-64173154D01*
X187354808Y-64178998D01*
X187398907Y-64214536D01*
X187404961Y-64270849D01*
X187369423Y-64314948D01*
X187354808Y-64321002D01*
X187289947Y-64340047D01*
X187289945Y-64340047D01*
X187168875Y-64417855D01*
X187168868Y-64417860D01*
X187074623Y-64526626D01*
X187014834Y-64657545D01*
X186994353Y-64800000D01*
X187014834Y-64942454D01*
X187014834Y-64942455D01*
X187014835Y-64942457D01*
X187066629Y-65055869D01*
X187074623Y-65073373D01*
X187168868Y-65182139D01*
X187168869Y-65182140D01*
X187168872Y-65182143D01*
X187289947Y-65259953D01*
X187392814Y-65290157D01*
X187428035Y-65300499D01*
X187428037Y-65300500D01*
X187428039Y-65300500D01*
X187571963Y-65300500D01*
X187571964Y-65300499D01*
X187710053Y-65259953D01*
X187831128Y-65182143D01*
X187925377Y-65073373D01*
X187985165Y-64942457D01*
X187991269Y-64900000D01*
X192144353Y-64900000D01*
X192164834Y-65042454D01*
X192164834Y-65042455D01*
X192164835Y-65042457D01*
X192186569Y-65090047D01*
X192224623Y-65173373D01*
X192318868Y-65282139D01*
X192318869Y-65282140D01*
X192318872Y-65282143D01*
X192439947Y-65359953D01*
X192546403Y-65391211D01*
X192578035Y-65400499D01*
X192578037Y-65400500D01*
X192578039Y-65400500D01*
X192721963Y-65400500D01*
X192721964Y-65400499D01*
X192860053Y-65359953D01*
X192981128Y-65282143D01*
X193075377Y-65173373D01*
X193135165Y-65042457D01*
X193151753Y-64927082D01*
X193164965Y-64904814D01*
X193160976Y-64895184D01*
X193285034Y-64895184D01*
X193298247Y-64927083D01*
X193314834Y-65042454D01*
X193314834Y-65042455D01*
X193314835Y-65042457D01*
X193336569Y-65090047D01*
X193374623Y-65173373D01*
X193468868Y-65282139D01*
X193468869Y-65282140D01*
X193468872Y-65282143D01*
X193589947Y-65359953D01*
X193696403Y-65391211D01*
X193728035Y-65400499D01*
X193728037Y-65400500D01*
X193728039Y-65400500D01*
X193871963Y-65400500D01*
X193871964Y-65400499D01*
X194010053Y-65359953D01*
X194131128Y-65282143D01*
X194225377Y-65173373D01*
X194285165Y-65042457D01*
X194305647Y-64900000D01*
X194298458Y-64850000D01*
X194594353Y-64850000D01*
X194614834Y-64992454D01*
X194614834Y-64992455D01*
X194614835Y-64992457D01*
X194640886Y-65049500D01*
X194674623Y-65123373D01*
X194768868Y-65232139D01*
X194768869Y-65232140D01*
X194768872Y-65232143D01*
X194889947Y-65309953D01*
X194996403Y-65341211D01*
X195028035Y-65350499D01*
X195028037Y-65350500D01*
X195028039Y-65350500D01*
X195171963Y-65350500D01*
X195171964Y-65350499D01*
X195178677Y-65348528D01*
X195310053Y-65309953D01*
X195431128Y-65232143D01*
X195525377Y-65123373D01*
X195585165Y-64992457D01*
X195598458Y-64900000D01*
X195844353Y-64900000D01*
X195864834Y-65042454D01*
X195864834Y-65042455D01*
X195864835Y-65042457D01*
X195886569Y-65090047D01*
X195924623Y-65173373D01*
X196018868Y-65282139D01*
X196018869Y-65282140D01*
X196018872Y-65282143D01*
X196139947Y-65359953D01*
X196246403Y-65391211D01*
X196278035Y-65400499D01*
X196278037Y-65400500D01*
X196278039Y-65400500D01*
X196421963Y-65400500D01*
X196421964Y-65400499D01*
X196560053Y-65359953D01*
X196681128Y-65282143D01*
X196775377Y-65173373D01*
X196835165Y-65042457D01*
X196855647Y-64900000D01*
X196835165Y-64757543D01*
X196775377Y-64626627D01*
X196725613Y-64569196D01*
X196681131Y-64517860D01*
X196681129Y-64517859D01*
X196681128Y-64517857D01*
X196603331Y-64467860D01*
X196560054Y-64440047D01*
X196560050Y-64440046D01*
X196421964Y-64399500D01*
X196421961Y-64399500D01*
X196278039Y-64399500D01*
X196278036Y-64399500D01*
X196139949Y-64440046D01*
X196139945Y-64440047D01*
X196018875Y-64517855D01*
X196018868Y-64517860D01*
X195924623Y-64626626D01*
X195864834Y-64757545D01*
X195844353Y-64900000D01*
X195598458Y-64900000D01*
X195605647Y-64850000D01*
X195585165Y-64707543D01*
X195525377Y-64576627D01*
X195482051Y-64526626D01*
X195431131Y-64467860D01*
X195431129Y-64467859D01*
X195431128Y-64467857D01*
X195368846Y-64427831D01*
X195310054Y-64390047D01*
X195310050Y-64390046D01*
X195171964Y-64349500D01*
X195171961Y-64349500D01*
X195028039Y-64349500D01*
X195028036Y-64349500D01*
X194889949Y-64390046D01*
X194889945Y-64390047D01*
X194768875Y-64467855D01*
X194768868Y-64467860D01*
X194674623Y-64576626D01*
X194614834Y-64707545D01*
X194594353Y-64850000D01*
X194298458Y-64850000D01*
X194285165Y-64757543D01*
X194225377Y-64626627D01*
X194175613Y-64569196D01*
X194131131Y-64517860D01*
X194131129Y-64517859D01*
X194131128Y-64517857D01*
X194053331Y-64467860D01*
X194010054Y-64440047D01*
X194010050Y-64440046D01*
X193871964Y-64399500D01*
X193871961Y-64399500D01*
X193728039Y-64399500D01*
X193728036Y-64399500D01*
X193589949Y-64440046D01*
X193589945Y-64440047D01*
X193468875Y-64517855D01*
X193468868Y-64517860D01*
X193374623Y-64626626D01*
X193314834Y-64757545D01*
X193298247Y-64872916D01*
X193285034Y-64895184D01*
X193160976Y-64895184D01*
X193151753Y-64872916D01*
X193135165Y-64757545D01*
X193135165Y-64757543D01*
X193075377Y-64626627D01*
X193025613Y-64569196D01*
X192981131Y-64517860D01*
X192981129Y-64517859D01*
X192981128Y-64517857D01*
X192903331Y-64467860D01*
X192860054Y-64440047D01*
X192860050Y-64440046D01*
X192721964Y-64399500D01*
X192721961Y-64399500D01*
X192578039Y-64399500D01*
X192578036Y-64399500D01*
X192439949Y-64440046D01*
X192439945Y-64440047D01*
X192318875Y-64517855D01*
X192318868Y-64517860D01*
X192224623Y-64626626D01*
X192164834Y-64757545D01*
X192144353Y-64900000D01*
X187991269Y-64900000D01*
X188005647Y-64800000D01*
X187985165Y-64657543D01*
X187925377Y-64526627D01*
X187863479Y-64455192D01*
X187831131Y-64417860D01*
X187831129Y-64417859D01*
X187831128Y-64417857D01*
X187746505Y-64363473D01*
X187710054Y-64340047D01*
X187710050Y-64340046D01*
X187645192Y-64321002D01*
X187601092Y-64285464D01*
X187595038Y-64229152D01*
X187630576Y-64185052D01*
X187645192Y-64178998D01*
X187662181Y-64174009D01*
X187710053Y-64159953D01*
X187831128Y-64082143D01*
X187925377Y-63973373D01*
X187985165Y-63842457D01*
X188005647Y-63700000D01*
X187985165Y-63557543D01*
X187925377Y-63426627D01*
X187867603Y-63359952D01*
X187831131Y-63317860D01*
X187831129Y-63317859D01*
X187831128Y-63317857D01*
X187774182Y-63281260D01*
X187710054Y-63240047D01*
X187710050Y-63240046D01*
X187571964Y-63199500D01*
X187571961Y-63199500D01*
X187428039Y-63199500D01*
X187428036Y-63199500D01*
X187289949Y-63240046D01*
X187289945Y-63240047D01*
X187168875Y-63317855D01*
X187168868Y-63317860D01*
X187074623Y-63426626D01*
X187014834Y-63557545D01*
X186994353Y-63700000D01*
X185755647Y-63700000D01*
X185735165Y-63557543D01*
X185675377Y-63426627D01*
X185617603Y-63359952D01*
X185581131Y-63317860D01*
X185581129Y-63317859D01*
X185581128Y-63317857D01*
X185524182Y-63281260D01*
X185460054Y-63240047D01*
X185460050Y-63240046D01*
X185321964Y-63199500D01*
X185321961Y-63199500D01*
X185178039Y-63199500D01*
X185178036Y-63199500D01*
X185039949Y-63240046D01*
X185039945Y-63240047D01*
X184918875Y-63317855D01*
X184918868Y-63317860D01*
X184824623Y-63426626D01*
X184764834Y-63557545D01*
X184744353Y-63700000D01*
X180940655Y-63700000D01*
X181939354Y-62701301D01*
X181991679Y-62679628D01*
X182044005Y-62701302D01*
X182062228Y-62737701D01*
X182063342Y-62737375D01*
X182064832Y-62742451D01*
X182124623Y-62873373D01*
X182218868Y-62982139D01*
X182218869Y-62982140D01*
X182218872Y-62982143D01*
X182339947Y-63059953D01*
X182446403Y-63091211D01*
X182478035Y-63100499D01*
X182478037Y-63100500D01*
X182478039Y-63100500D01*
X182621963Y-63100500D01*
X182621964Y-63100499D01*
X182760053Y-63059953D01*
X182853342Y-63000000D01*
X185894353Y-63000000D01*
X185914834Y-63142454D01*
X185914834Y-63142455D01*
X185914835Y-63142457D01*
X185938332Y-63193907D01*
X185974623Y-63273373D01*
X186068868Y-63382139D01*
X186068869Y-63382140D01*
X186068872Y-63382143D01*
X186189947Y-63459953D01*
X186296403Y-63491211D01*
X186328035Y-63500499D01*
X186328037Y-63500500D01*
X186328039Y-63500500D01*
X186471963Y-63500500D01*
X186471964Y-63500499D01*
X186610053Y-63459953D01*
X186731128Y-63382143D01*
X186825377Y-63273373D01*
X186885165Y-63142457D01*
X186905647Y-63000000D01*
X186891269Y-62900000D01*
X189394353Y-62900000D01*
X189414834Y-63042454D01*
X189414834Y-63042455D01*
X189414835Y-63042457D01*
X189441342Y-63100499D01*
X189474623Y-63173373D01*
X189568868Y-63282139D01*
X189568869Y-63282140D01*
X189568872Y-63282143D01*
X189689947Y-63359953D01*
X189796403Y-63391211D01*
X189828035Y-63400499D01*
X189828037Y-63400500D01*
X189828039Y-63400500D01*
X189971963Y-63400500D01*
X189971964Y-63400499D01*
X190110053Y-63359953D01*
X190231128Y-63282143D01*
X190325377Y-63173373D01*
X190381720Y-63050000D01*
X202044353Y-63050000D01*
X202064834Y-63192454D01*
X202064834Y-63192455D01*
X202064835Y-63192457D01*
X202086569Y-63240047D01*
X202124623Y-63323373D01*
X202218868Y-63432139D01*
X202218869Y-63432140D01*
X202218872Y-63432143D01*
X202339947Y-63509953D01*
X202446403Y-63541211D01*
X202478035Y-63550499D01*
X202478037Y-63550500D01*
X202478039Y-63550500D01*
X202621963Y-63550500D01*
X202621964Y-63550499D01*
X202760053Y-63509953D01*
X202881128Y-63432143D01*
X202975377Y-63323373D01*
X203035165Y-63192457D01*
X203055647Y-63050000D01*
X203035165Y-62907543D01*
X202975377Y-62776627D01*
X202893507Y-62682143D01*
X202881131Y-62667860D01*
X202881129Y-62667859D01*
X202881128Y-62667857D01*
X202803331Y-62617860D01*
X202760054Y-62590047D01*
X202760050Y-62590046D01*
X202621964Y-62549500D01*
X202621961Y-62549500D01*
X202478039Y-62549500D01*
X202478036Y-62549500D01*
X202339949Y-62590046D01*
X202339945Y-62590047D01*
X202218875Y-62667855D01*
X202218868Y-62667860D01*
X202124623Y-62776626D01*
X202064834Y-62907545D01*
X202044353Y-63050000D01*
X190381720Y-63050000D01*
X190385165Y-63042457D01*
X190405647Y-62900000D01*
X190385165Y-62757543D01*
X190325377Y-62626627D01*
X190293883Y-62590281D01*
X190231131Y-62517860D01*
X190231129Y-62517859D01*
X190231128Y-62517857D01*
X190174182Y-62481260D01*
X190110054Y-62440047D01*
X190110050Y-62440046D01*
X189971964Y-62399500D01*
X189971961Y-62399500D01*
X189828039Y-62399500D01*
X189828036Y-62399500D01*
X189689949Y-62440046D01*
X189689945Y-62440047D01*
X189568875Y-62517855D01*
X189568868Y-62517860D01*
X189474623Y-62626626D01*
X189414834Y-62757545D01*
X189394353Y-62900000D01*
X186891269Y-62900000D01*
X186885165Y-62857543D01*
X186825377Y-62726627D01*
X186786828Y-62682139D01*
X186731131Y-62617860D01*
X186731129Y-62617859D01*
X186731128Y-62617857D01*
X186674182Y-62581260D01*
X186610054Y-62540047D01*
X186610050Y-62540046D01*
X186471964Y-62499500D01*
X186471961Y-62499500D01*
X186328039Y-62499500D01*
X186328036Y-62499500D01*
X186189949Y-62540046D01*
X186189945Y-62540047D01*
X186068875Y-62617855D01*
X186068868Y-62617860D01*
X185974623Y-62726626D01*
X185914834Y-62857545D01*
X185894353Y-63000000D01*
X182853342Y-63000000D01*
X182881128Y-62982143D01*
X182975377Y-62873373D01*
X183035165Y-62742457D01*
X183055647Y-62600000D01*
X183035165Y-62457543D01*
X182975377Y-62326627D01*
X182952305Y-62300000D01*
X184744353Y-62300000D01*
X184764834Y-62442454D01*
X184764834Y-62442455D01*
X184764835Y-62442457D01*
X184822715Y-62569196D01*
X184824623Y-62573373D01*
X184918868Y-62682139D01*
X184918869Y-62682140D01*
X184918872Y-62682143D01*
X185039947Y-62759953D01*
X185146403Y-62791211D01*
X185178035Y-62800499D01*
X185178037Y-62800500D01*
X185178039Y-62800500D01*
X185321963Y-62800500D01*
X185321964Y-62800499D01*
X185460053Y-62759953D01*
X185581128Y-62682143D01*
X185675377Y-62573373D01*
X185735165Y-62442457D01*
X185755647Y-62300000D01*
X187044353Y-62300000D01*
X187064834Y-62442454D01*
X187064834Y-62442455D01*
X187064835Y-62442457D01*
X187122715Y-62569196D01*
X187124623Y-62573373D01*
X187218868Y-62682139D01*
X187218869Y-62682140D01*
X187218872Y-62682143D01*
X187339947Y-62759953D01*
X187446403Y-62791211D01*
X187478035Y-62800499D01*
X187478037Y-62800500D01*
X187478039Y-62800500D01*
X187621963Y-62800500D01*
X187621964Y-62800499D01*
X187760053Y-62759953D01*
X187881128Y-62682143D01*
X187975377Y-62573373D01*
X188035165Y-62442457D01*
X188055647Y-62300000D01*
X188035165Y-62157543D01*
X187975377Y-62026627D01*
X187881128Y-61917857D01*
X187801797Y-61866874D01*
X187760054Y-61840047D01*
X187760050Y-61840046D01*
X187621964Y-61799500D01*
X187621961Y-61799500D01*
X187478039Y-61799500D01*
X187478036Y-61799500D01*
X187339949Y-61840046D01*
X187339945Y-61840047D01*
X187218875Y-61917855D01*
X187218868Y-61917860D01*
X187124623Y-62026626D01*
X187064834Y-62157545D01*
X187044353Y-62300000D01*
X185755647Y-62300000D01*
X185735165Y-62157543D01*
X185675377Y-62026627D01*
X185581128Y-61917857D01*
X185501797Y-61866874D01*
X185460054Y-61840047D01*
X185460050Y-61840046D01*
X185321964Y-61799500D01*
X185321961Y-61799500D01*
X185178039Y-61799500D01*
X185178036Y-61799500D01*
X185039949Y-61840046D01*
X185039945Y-61840047D01*
X184918875Y-61917855D01*
X184918868Y-61917860D01*
X184824623Y-62026626D01*
X184764834Y-62157545D01*
X184744353Y-62300000D01*
X182952305Y-62300000D01*
X182881128Y-62217857D01*
X182760053Y-62140047D01*
X182736482Y-62133126D01*
X182679165Y-62116296D01*
X182635066Y-62080758D01*
X182629012Y-62024445D01*
X182647686Y-61992970D01*
X183490656Y-61150000D01*
X189394353Y-61150000D01*
X189414834Y-61292454D01*
X189414834Y-61292455D01*
X189414835Y-61292457D01*
X189468387Y-61409719D01*
X189474623Y-61423373D01*
X189568868Y-61532139D01*
X189568869Y-61532140D01*
X189568872Y-61532143D01*
X189689947Y-61609953D01*
X189796403Y-61641211D01*
X189828035Y-61650499D01*
X189828037Y-61650500D01*
X189828039Y-61650500D01*
X189971963Y-61650500D01*
X189971964Y-61650499D01*
X190110053Y-61609953D01*
X190231128Y-61532143D01*
X190325377Y-61423373D01*
X190385165Y-61292457D01*
X190405647Y-61150000D01*
X190385165Y-61007543D01*
X190325377Y-60876627D01*
X190231128Y-60767857D01*
X190168866Y-60727844D01*
X190110054Y-60690047D01*
X190110050Y-60690046D01*
X189971964Y-60649500D01*
X189971961Y-60649500D01*
X189828039Y-60649500D01*
X189828036Y-60649500D01*
X189689949Y-60690046D01*
X189689945Y-60690047D01*
X189568875Y-60767855D01*
X189568868Y-60767860D01*
X189474623Y-60876626D01*
X189414834Y-61007545D01*
X189394353Y-61150000D01*
X183490656Y-61150000D01*
X186173745Y-58466910D01*
X186226070Y-58445237D01*
X186266077Y-58456984D01*
X186324503Y-58494532D01*
X186324567Y-58494573D01*
X186431023Y-58525831D01*
X186462655Y-58535119D01*
X186462657Y-58535120D01*
X186462659Y-58535120D01*
X186606583Y-58535120D01*
X186606584Y-58535119D01*
X186744673Y-58494573D01*
X186744679Y-58494568D01*
X186744762Y-58494532D01*
X186744819Y-58494529D01*
X186749751Y-58493082D01*
X186750120Y-58494340D01*
X186801363Y-58492513D01*
X186842814Y-58531108D01*
X186849500Y-58561846D01*
X186849500Y-59544876D01*
X186827826Y-59597202D01*
X186447202Y-59977826D01*
X186394876Y-59999500D01*
X186278036Y-59999500D01*
X186139949Y-60040046D01*
X186139945Y-60040047D01*
X186018875Y-60117855D01*
X186018868Y-60117860D01*
X185924623Y-60226626D01*
X185864834Y-60357545D01*
X185844353Y-60500000D01*
X185864834Y-60642454D01*
X185864834Y-60642455D01*
X185864835Y-60642457D01*
X185896555Y-60711914D01*
X185924623Y-60773373D01*
X186018868Y-60882139D01*
X186018869Y-60882140D01*
X186018872Y-60882143D01*
X186139947Y-60959953D01*
X186246403Y-60991211D01*
X186278035Y-61000499D01*
X186278037Y-61000500D01*
X186278039Y-61000500D01*
X186421963Y-61000500D01*
X186421964Y-61000499D01*
X186560053Y-60959953D01*
X186681128Y-60882143D01*
X186775377Y-60773373D01*
X186835165Y-60642457D01*
X186841269Y-60600000D01*
X196544353Y-60600000D01*
X196564834Y-60742454D01*
X196564834Y-60742455D01*
X196564835Y-60742457D01*
X196578954Y-60773373D01*
X196624623Y-60873373D01*
X196718868Y-60982139D01*
X196718869Y-60982140D01*
X196718872Y-60982143D01*
X196839947Y-61059953D01*
X196946403Y-61091211D01*
X196978035Y-61100499D01*
X196978037Y-61100500D01*
X196978039Y-61100500D01*
X197121963Y-61100500D01*
X197121964Y-61100499D01*
X197260053Y-61059953D01*
X197381128Y-60982143D01*
X197475377Y-60873373D01*
X197535165Y-60742457D01*
X197555647Y-60600000D01*
X197535165Y-60457543D01*
X197533090Y-60453000D01*
X202055717Y-60453000D01*
X202076198Y-60595454D01*
X202076198Y-60595455D01*
X202076199Y-60595457D01*
X202100880Y-60649500D01*
X202135987Y-60726373D01*
X202230232Y-60835139D01*
X202230233Y-60835140D01*
X202230236Y-60835143D01*
X202351311Y-60912953D01*
X202457767Y-60944211D01*
X202489399Y-60953499D01*
X202489401Y-60953500D01*
X202489403Y-60953500D01*
X202633327Y-60953500D01*
X202633328Y-60953499D01*
X202771417Y-60912953D01*
X202892492Y-60835143D01*
X202986741Y-60726373D01*
X203046529Y-60595457D01*
X203067011Y-60453000D01*
X203046529Y-60310543D01*
X202986741Y-60179627D01*
X202933220Y-60117860D01*
X202892495Y-60070860D01*
X202892493Y-60070859D01*
X202892492Y-60070857D01*
X202835546Y-60034260D01*
X202771418Y-59993047D01*
X202771414Y-59993046D01*
X202633328Y-59952500D01*
X202633325Y-59952500D01*
X202489403Y-59952500D01*
X202489400Y-59952500D01*
X202351313Y-59993046D01*
X202351309Y-59993047D01*
X202230239Y-60070855D01*
X202230232Y-60070860D01*
X202135987Y-60179626D01*
X202076198Y-60310545D01*
X202055717Y-60453000D01*
X197533090Y-60453000D01*
X197475377Y-60326627D01*
X197429233Y-60273373D01*
X197381131Y-60217860D01*
X197381129Y-60217859D01*
X197381128Y-60217857D01*
X197321639Y-60179626D01*
X197260054Y-60140047D01*
X197260050Y-60140046D01*
X197121964Y-60099500D01*
X197121961Y-60099500D01*
X196978039Y-60099500D01*
X196978036Y-60099500D01*
X196839949Y-60140046D01*
X196839945Y-60140047D01*
X196718875Y-60217855D01*
X196718868Y-60217860D01*
X196624623Y-60326626D01*
X196564834Y-60457545D01*
X196544353Y-60600000D01*
X186841269Y-60600000D01*
X186855647Y-60500000D01*
X186850776Y-60466128D01*
X186864782Y-60411253D01*
X186871690Y-60403279D01*
X187390460Y-59884511D01*
X187420301Y-59832824D01*
X187430021Y-59815989D01*
X187450499Y-59739564D01*
X187450500Y-59739564D01*
X187450500Y-58000000D01*
X191894353Y-58000000D01*
X191914834Y-58142454D01*
X191974623Y-58273373D01*
X192068868Y-58382139D01*
X192068869Y-58382140D01*
X192068872Y-58382143D01*
X192189947Y-58459953D01*
X192296403Y-58491211D01*
X192328035Y-58500499D01*
X192328037Y-58500500D01*
X192328039Y-58500500D01*
X192471963Y-58500500D01*
X192471964Y-58500499D01*
X192610053Y-58459953D01*
X192731128Y-58382143D01*
X192825377Y-58273373D01*
X192885165Y-58142457D01*
X192905647Y-58000000D01*
X192885165Y-57857543D01*
X192825377Y-57726627D01*
X192731128Y-57617857D01*
X192663923Y-57574667D01*
X192625541Y-57550000D01*
X196644353Y-57550000D01*
X196664834Y-57692454D01*
X196664834Y-57692455D01*
X196664835Y-57692457D01*
X196702214Y-57774304D01*
X196724623Y-57823373D01*
X196818868Y-57932139D01*
X196818869Y-57932140D01*
X196818872Y-57932143D01*
X196939947Y-58009953D01*
X197038155Y-58038789D01*
X197078035Y-58050499D01*
X197078037Y-58050500D01*
X197078039Y-58050500D01*
X197221963Y-58050500D01*
X197221964Y-58050499D01*
X197360053Y-58009953D01*
X197481128Y-57932143D01*
X197575377Y-57823373D01*
X197635165Y-57692457D01*
X197655647Y-57550000D01*
X197635165Y-57407543D01*
X197575377Y-57276627D01*
X197532567Y-57227221D01*
X197481131Y-57167860D01*
X197481129Y-57167859D01*
X197481128Y-57167857D01*
X197390385Y-57109540D01*
X197360054Y-57090047D01*
X197360050Y-57090046D01*
X197221964Y-57049500D01*
X197221961Y-57049500D01*
X197078039Y-57049500D01*
X197078036Y-57049500D01*
X196939949Y-57090046D01*
X196939945Y-57090047D01*
X196818875Y-57167855D01*
X196818868Y-57167860D01*
X196724623Y-57276626D01*
X196664834Y-57407545D01*
X196644353Y-57550000D01*
X192625541Y-57550000D01*
X192610054Y-57540047D01*
X192610050Y-57540046D01*
X192471964Y-57499500D01*
X192471961Y-57499500D01*
X192328039Y-57499500D01*
X192328036Y-57499500D01*
X192189949Y-57540046D01*
X192189945Y-57540047D01*
X192068875Y-57617855D01*
X192068868Y-57617860D01*
X191974623Y-57726626D01*
X191914834Y-57857545D01*
X191894353Y-58000000D01*
X187450500Y-58000000D01*
X187450500Y-57310436D01*
X187450499Y-57310435D01*
X187430022Y-57234014D01*
X187430019Y-57234007D01*
X187399808Y-57181681D01*
X187390460Y-57165489D01*
X187334511Y-57109540D01*
X187034511Y-56809540D01*
X186998915Y-56788989D01*
X186965990Y-56769979D01*
X186965985Y-56769977D01*
X186889564Y-56749500D01*
X186889562Y-56749500D01*
X186753689Y-56749500D01*
X186701363Y-56727826D01*
X186679689Y-56675500D01*
X186682211Y-56656347D01*
X186688746Y-56631958D01*
X186700500Y-56588091D01*
X186700500Y-56508967D01*
X186700500Y-55792233D01*
X186722174Y-55739907D01*
X186727288Y-55735787D01*
X186727131Y-55735606D01*
X186731131Y-55732140D01*
X186758980Y-55700000D01*
X186825377Y-55623373D01*
X186885165Y-55492457D01*
X186905647Y-55350000D01*
X186885165Y-55207543D01*
X186825377Y-55076627D01*
X186767604Y-55009953D01*
X186731131Y-54967860D01*
X186731129Y-54967859D01*
X186731128Y-54967857D01*
X186636355Y-54906950D01*
X186625541Y-54900000D01*
X191944353Y-54900000D01*
X191964834Y-55042454D01*
X191964834Y-55042455D01*
X191964835Y-55042457D01*
X191980440Y-55076626D01*
X192024623Y-55173373D01*
X192118868Y-55282139D01*
X192118869Y-55282140D01*
X192118872Y-55282143D01*
X192239947Y-55359953D01*
X192316130Y-55382322D01*
X192378035Y-55400499D01*
X192378037Y-55400500D01*
X192378039Y-55400500D01*
X192521963Y-55400500D01*
X192521964Y-55400499D01*
X192660053Y-55359953D01*
X192781128Y-55282143D01*
X192875377Y-55173373D01*
X192935165Y-55042457D01*
X192955647Y-54900000D01*
X192948458Y-54850000D01*
X194494353Y-54850000D01*
X194514834Y-54992454D01*
X194514834Y-54992455D01*
X194514835Y-54992457D01*
X194574623Y-55123373D01*
X194668868Y-55232139D01*
X194668869Y-55232140D01*
X194668872Y-55232143D01*
X194789947Y-55309953D01*
X194894493Y-55340650D01*
X194928035Y-55350499D01*
X194928037Y-55350500D01*
X194928039Y-55350500D01*
X195071963Y-55350500D01*
X195071964Y-55350499D01*
X195210053Y-55309953D01*
X195331128Y-55232143D01*
X195425377Y-55123373D01*
X195485165Y-54992457D01*
X195505647Y-54850000D01*
X195485165Y-54707543D01*
X195425377Y-54576627D01*
X195331128Y-54467857D01*
X195274182Y-54431260D01*
X195210054Y-54390047D01*
X195210050Y-54390046D01*
X195071964Y-54349500D01*
X195071961Y-54349500D01*
X194928039Y-54349500D01*
X194928036Y-54349500D01*
X194789949Y-54390046D01*
X194789945Y-54390047D01*
X194668875Y-54467855D01*
X194668868Y-54467860D01*
X194574623Y-54576626D01*
X194514834Y-54707545D01*
X194494353Y-54850000D01*
X192948458Y-54850000D01*
X192935165Y-54757543D01*
X192875377Y-54626627D01*
X192781128Y-54517857D01*
X192703331Y-54467860D01*
X192660054Y-54440047D01*
X192660050Y-54440046D01*
X192521964Y-54399500D01*
X192521961Y-54399500D01*
X192378039Y-54399500D01*
X192378036Y-54399500D01*
X192239949Y-54440046D01*
X192239945Y-54440047D01*
X192118875Y-54517855D01*
X192118868Y-54517860D01*
X192024623Y-54626626D01*
X191964834Y-54757545D01*
X191944353Y-54900000D01*
X186625541Y-54900000D01*
X186610054Y-54890047D01*
X186610050Y-54890046D01*
X186471964Y-54849500D01*
X186471961Y-54849500D01*
X186328039Y-54849500D01*
X186328036Y-54849500D01*
X186189949Y-54890046D01*
X186189945Y-54890047D01*
X186068875Y-54967855D01*
X186068868Y-54967860D01*
X185974623Y-55076626D01*
X185914834Y-55207545D01*
X185894353Y-55350000D01*
X185914834Y-55492454D01*
X185914834Y-55492455D01*
X185914835Y-55492457D01*
X185964839Y-55601950D01*
X185974623Y-55623373D01*
X186068868Y-55732140D01*
X186072869Y-55735606D01*
X186070946Y-55737825D01*
X186097803Y-55776476D01*
X186099500Y-55792233D01*
X186099500Y-56393406D01*
X186077826Y-56445732D01*
X177986112Y-64537446D01*
X177933786Y-64559120D01*
X177641197Y-64559120D01*
X177564775Y-64579597D01*
X177564770Y-64579599D01*
X177538949Y-64594508D01*
X177496249Y-64619160D01*
X177059540Y-65055869D01*
X177019979Y-65124390D01*
X177019977Y-65124395D01*
X176999500Y-65200816D01*
X176999500Y-68948874D01*
X177019977Y-69025295D01*
X177019979Y-69025300D01*
X177035090Y-69051472D01*
X177059540Y-69093821D01*
X177287612Y-69321893D01*
X177309286Y-69374219D01*
X177308533Y-69384748D01*
X177303664Y-69418619D01*
X177303664Y-69418620D01*
X177324145Y-69561075D01*
X177324145Y-69561076D01*
X177324146Y-69561078D01*
X177364984Y-69650499D01*
X177383934Y-69691994D01*
X177481649Y-69804764D01*
X177480199Y-69806019D01*
X177502450Y-69850472D01*
X177484562Y-69904210D01*
X177472846Y-69914362D01*
X177472872Y-69914392D01*
X177468864Y-69917864D01*
X177462634Y-69925054D01*
X177411987Y-69950403D01*
X177358249Y-69932513D01*
X177339400Y-69907334D01*
X177325377Y-69876627D01*
X177283847Y-69828698D01*
X177231131Y-69767860D01*
X177231129Y-69767859D01*
X177231128Y-69767857D01*
X177137673Y-69707797D01*
X177110054Y-69690047D01*
X177110050Y-69690046D01*
X176971964Y-69649500D01*
X176971961Y-69649500D01*
X176828039Y-69649500D01*
X176828036Y-69649500D01*
X176689949Y-69690046D01*
X176689945Y-69690047D01*
X176568875Y-69767855D01*
X176568868Y-69767860D01*
X176474623Y-69876626D01*
X176414834Y-70007545D01*
X176394353Y-70150000D01*
X175655500Y-70150000D01*
X175655500Y-60000000D01*
X177894353Y-60000000D01*
X177914834Y-60142454D01*
X177914834Y-60142455D01*
X177914835Y-60142457D01*
X177949271Y-60217860D01*
X177974623Y-60273373D01*
X178068868Y-60382139D01*
X178068869Y-60382140D01*
X178068872Y-60382143D01*
X178189947Y-60459953D01*
X178296403Y-60491211D01*
X178328035Y-60500499D01*
X178328037Y-60500500D01*
X178328039Y-60500500D01*
X178471963Y-60500500D01*
X178471964Y-60500499D01*
X178473660Y-60500001D01*
X178610053Y-60459953D01*
X178731128Y-60382143D01*
X178825377Y-60273373D01*
X178885165Y-60142457D01*
X178905647Y-60000000D01*
X178885165Y-59857543D01*
X178825377Y-59726627D01*
X178731128Y-59617857D01*
X178665264Y-59575529D01*
X178610054Y-59540047D01*
X178610050Y-59540046D01*
X178471964Y-59499500D01*
X178471961Y-59499500D01*
X178328039Y-59499500D01*
X178328036Y-59499500D01*
X178189949Y-59540046D01*
X178189945Y-59540047D01*
X178068875Y-59617855D01*
X178068868Y-59617860D01*
X177974623Y-59726626D01*
X177914834Y-59857545D01*
X177894353Y-60000000D01*
X175655500Y-60000000D01*
X175655500Y-58453295D01*
X175673575Y-58404835D01*
X175700837Y-58373373D01*
X175760625Y-58242457D01*
X175781107Y-58100000D01*
X175760625Y-57957543D01*
X175700837Y-57826627D01*
X175673574Y-57795163D01*
X175655500Y-57746704D01*
X175655500Y-57234007D01*
X175677174Y-57181681D01*
X175729500Y-57160007D01*
X175750348Y-57163005D01*
X175878035Y-57200497D01*
X175878037Y-57200498D01*
X175878039Y-57200498D01*
X176021963Y-57200498D01*
X176021964Y-57200497D01*
X176023684Y-57199992D01*
X176160053Y-57159951D01*
X176281128Y-57082141D01*
X176352303Y-57000000D01*
X178444353Y-57000000D01*
X178464834Y-57142454D01*
X178464834Y-57142455D01*
X178464835Y-57142457D01*
X178491341Y-57200497D01*
X178524623Y-57273373D01*
X178618868Y-57382139D01*
X178618869Y-57382140D01*
X178618872Y-57382143D01*
X178739947Y-57459953D01*
X178831030Y-57486697D01*
X178878035Y-57500499D01*
X178878037Y-57500500D01*
X178878039Y-57500500D01*
X179021963Y-57500500D01*
X179021964Y-57500499D01*
X179160053Y-57459953D01*
X179281128Y-57382143D01*
X179281136Y-57382133D01*
X179285128Y-57378676D01*
X179286330Y-57380063D01*
X179330963Y-57357712D01*
X179384705Y-57375589D01*
X179410066Y-57426231D01*
X179410082Y-57426472D01*
X179414200Y-57486677D01*
X179414203Y-57486697D01*
X179472663Y-57768023D01*
X179472668Y-57768041D01*
X179568892Y-58038789D01*
X179568894Y-58038794D01*
X179701098Y-58293935D01*
X179701103Y-58293942D01*
X179793433Y-58424744D01*
X179866811Y-58528698D01*
X180062947Y-58738708D01*
X180285853Y-58920055D01*
X180531375Y-59069361D01*
X180794942Y-59183844D01*
X181071642Y-59261371D01*
X181356322Y-59300500D01*
X181356329Y-59300500D01*
X181643671Y-59300500D01*
X181643678Y-59300500D01*
X181928358Y-59261371D01*
X182205058Y-59183844D01*
X182468625Y-59069361D01*
X182714147Y-58920055D01*
X182937053Y-58738708D01*
X183133189Y-58528698D01*
X183298901Y-58293936D01*
X183431104Y-58038797D01*
X183441356Y-58009952D01*
X183527331Y-57768041D01*
X183527331Y-57768038D01*
X183527334Y-57768032D01*
X183543039Y-57692454D01*
X183585796Y-57486697D01*
X183585799Y-57486677D01*
X183605408Y-57200007D01*
X183605408Y-57199992D01*
X183585799Y-56913322D01*
X183585796Y-56913302D01*
X183527336Y-56631976D01*
X183527331Y-56631958D01*
X183431107Y-56361210D01*
X183431105Y-56361205D01*
X183347833Y-56200499D01*
X183298901Y-56106064D01*
X183133189Y-55871302D01*
X182937053Y-55661292D01*
X182714147Y-55479945D01*
X182714141Y-55479941D01*
X182714138Y-55479939D01*
X182583504Y-55400499D01*
X182468625Y-55330639D01*
X182468622Y-55330637D01*
X182468621Y-55330637D01*
X182205056Y-55216155D01*
X181928356Y-55138628D01*
X181643682Y-55099500D01*
X181643678Y-55099500D01*
X181356322Y-55099500D01*
X181356317Y-55099500D01*
X181071643Y-55138628D01*
X180794943Y-55216155D01*
X180531378Y-55330637D01*
X180531375Y-55330639D01*
X180285861Y-55479939D01*
X180285853Y-55479945D01*
X180135862Y-55601972D01*
X180062945Y-55661294D01*
X179866809Y-55871304D01*
X179701103Y-56106057D01*
X179701098Y-56106064D01*
X179568894Y-56361205D01*
X179568892Y-56361210D01*
X179472668Y-56631958D01*
X179472664Y-56631973D01*
X179468412Y-56652437D01*
X179436544Y-56699258D01*
X179380903Y-56709832D01*
X179340034Y-56685839D01*
X179331075Y-56675500D01*
X179293362Y-56631976D01*
X179281131Y-56617860D01*
X179281129Y-56617859D01*
X179281128Y-56617857D01*
X179224182Y-56581260D01*
X179160054Y-56540047D01*
X179160050Y-56540046D01*
X179021964Y-56499500D01*
X179021961Y-56499500D01*
X178878039Y-56499500D01*
X178878036Y-56499500D01*
X178739949Y-56540046D01*
X178739945Y-56540047D01*
X178618875Y-56617855D01*
X178618868Y-56617860D01*
X178524623Y-56726626D01*
X178464834Y-56857545D01*
X178444353Y-57000000D01*
X176352303Y-57000000D01*
X176375377Y-56973371D01*
X176435165Y-56842455D01*
X176455647Y-56699998D01*
X176435165Y-56557541D01*
X176375377Y-56426625D01*
X176281128Y-56317855D01*
X176224182Y-56281258D01*
X176160054Y-56240045D01*
X176160050Y-56240044D01*
X176021964Y-56199498D01*
X176021961Y-56199498D01*
X175878039Y-56199498D01*
X175750348Y-56236991D01*
X175694035Y-56230936D01*
X175658497Y-56186836D01*
X175655500Y-56165988D01*
X175655500Y-56052152D01*
X175655500Y-56052148D01*
X175655194Y-56039645D01*
X175654600Y-56027521D01*
X175653682Y-56015042D01*
X175636726Y-55842457D01*
X175636351Y-55838636D01*
X175636349Y-55838620D01*
X175636348Y-55838615D01*
X175636347Y-55838602D01*
X175632685Y-55813857D01*
X175632282Y-55811827D01*
X175627970Y-55790092D01*
X175627963Y-55790062D01*
X175621909Y-55765831D01*
X175621899Y-55765795D01*
X175611717Y-55732140D01*
X175601994Y-55700000D01*
X178194353Y-55700000D01*
X178214834Y-55842454D01*
X178214834Y-55842455D01*
X178214835Y-55842457D01*
X178228009Y-55871304D01*
X178274623Y-55973373D01*
X178368868Y-56082139D01*
X178368869Y-56082140D01*
X178368872Y-56082143D01*
X178489947Y-56159953D01*
X178581503Y-56186836D01*
X178628035Y-56200499D01*
X178628037Y-56200500D01*
X178628039Y-56200500D01*
X178771963Y-56200500D01*
X178771964Y-56200499D01*
X178910053Y-56159953D01*
X179031128Y-56082143D01*
X179125377Y-55973373D01*
X179185165Y-55842457D01*
X179205647Y-55700000D01*
X179185165Y-55557543D01*
X179125377Y-55426627D01*
X179086982Y-55382316D01*
X179031131Y-55317860D01*
X179031129Y-55317859D01*
X179031128Y-55317857D01*
X178951688Y-55266804D01*
X178910054Y-55240047D01*
X178910050Y-55240046D01*
X178771964Y-55199500D01*
X178771961Y-55199500D01*
X178628039Y-55199500D01*
X178628036Y-55199500D01*
X178489949Y-55240046D01*
X178489945Y-55240047D01*
X178368875Y-55317855D01*
X178368868Y-55317860D01*
X178274623Y-55426626D01*
X178214834Y-55557545D01*
X178194353Y-55700000D01*
X175601994Y-55700000D01*
X175572337Y-55601973D01*
X175563933Y-55578420D01*
X175554676Y-55556008D01*
X175544006Y-55533382D01*
X175463498Y-55382316D01*
X175450671Y-55360850D01*
X175437230Y-55340669D01*
X175437226Y-55340664D01*
X175437217Y-55340650D01*
X175422375Y-55320571D01*
X175422367Y-55320562D01*
X175422361Y-55320553D01*
X175416713Y-55313647D01*
X175400000Y-55266804D01*
X175400000Y-55090457D01*
X175421674Y-55038131D01*
X175453148Y-55019455D01*
X175485513Y-55009953D01*
X175606588Y-54932143D01*
X175700837Y-54823373D01*
X175760625Y-54692457D01*
X175781107Y-54550000D01*
X175760625Y-54407543D01*
X175700837Y-54276627D01*
X175651822Y-54220060D01*
X175606591Y-54167860D01*
X175606589Y-54167859D01*
X175606588Y-54167857D01*
X175549642Y-54131260D01*
X175485514Y-54090047D01*
X175485510Y-54090046D01*
X175347424Y-54049500D01*
X175347421Y-54049500D01*
X175203499Y-54049500D01*
X175203496Y-54049500D01*
X175065409Y-54090046D01*
X175065405Y-54090047D01*
X174944335Y-54167855D01*
X174944328Y-54167860D01*
X174850083Y-54276626D01*
X174790294Y-54407545D01*
X174769813Y-54550000D01*
X174790294Y-54692456D01*
X174809579Y-54734684D01*
X174811600Y-54791285D01*
X174773006Y-54832737D01*
X174720560Y-54836168D01*
X174685060Y-54825276D01*
X174685048Y-54825273D01*
X174685045Y-54825272D01*
X174660828Y-54819120D01*
X174637052Y-54814305D01*
X174637046Y-54814304D01*
X174612326Y-54810547D01*
X174435988Y-54792521D01*
X174423509Y-54791554D01*
X174411360Y-54790911D01*
X174398848Y-54790555D01*
X153442037Y-54708048D01*
X153389796Y-54686168D01*
X153368329Y-54633758D01*
X153390209Y-54581517D01*
X153425989Y-54562286D01*
X153425924Y-54562053D01*
X153426967Y-54561760D01*
X153427272Y-54561597D01*
X153428353Y-54561372D01*
X153428355Y-54561371D01*
X153428358Y-54561371D01*
X153705058Y-54483844D01*
X153968625Y-54369361D01*
X154214147Y-54220055D01*
X154437053Y-54038708D01*
X154633189Y-53828698D01*
X154798901Y-53593936D01*
X154931104Y-53338797D01*
X154974087Y-53217855D01*
X155027331Y-53068041D01*
X155027331Y-53068038D01*
X155027334Y-53068032D01*
X155041367Y-53000500D01*
X155085796Y-52786697D01*
X155085799Y-52786677D01*
X155086598Y-52774996D01*
X155854785Y-52774996D01*
X155854785Y-52775003D01*
X155873601Y-52978076D01*
X155873602Y-52978082D01*
X155910105Y-53106373D01*
X155929418Y-53174250D01*
X156020327Y-53356821D01*
X156020328Y-53356822D01*
X156020329Y-53356825D01*
X156143234Y-53519578D01*
X156143235Y-53519579D01*
X156272891Y-53637775D01*
X156293959Y-53656981D01*
X156467363Y-53764348D01*
X156657544Y-53838024D01*
X156858024Y-53875500D01*
X156858026Y-53875500D01*
X157061974Y-53875500D01*
X157061976Y-53875500D01*
X157262456Y-53838024D01*
X157452637Y-53764348D01*
X157626041Y-53656981D01*
X157776764Y-53519579D01*
X157784348Y-53509537D01*
X157899670Y-53356825D01*
X157899670Y-53356824D01*
X157899673Y-53356821D01*
X157990582Y-53174250D01*
X158046397Y-52978083D01*
X158046641Y-52975457D01*
X158065215Y-52775003D01*
X158065215Y-52774996D01*
X158394785Y-52774996D01*
X158394785Y-52775003D01*
X158413601Y-52978076D01*
X158413602Y-52978082D01*
X158450105Y-53106373D01*
X158469418Y-53174250D01*
X158560327Y-53356821D01*
X158560328Y-53356822D01*
X158560329Y-53356825D01*
X158683234Y-53519578D01*
X158683235Y-53519579D01*
X158812891Y-53637775D01*
X158833959Y-53656981D01*
X159007363Y-53764348D01*
X159197544Y-53838024D01*
X159398024Y-53875500D01*
X159398026Y-53875500D01*
X159601974Y-53875500D01*
X159601976Y-53875500D01*
X159802456Y-53838024D01*
X159992637Y-53764348D01*
X160166041Y-53656981D01*
X160316764Y-53519579D01*
X160324348Y-53509537D01*
X160439670Y-53356825D01*
X160439670Y-53356824D01*
X160439673Y-53356821D01*
X160530582Y-53174250D01*
X160586397Y-52978083D01*
X160586641Y-52975457D01*
X160605215Y-52775003D01*
X160605215Y-52774996D01*
X160586398Y-52571923D01*
X160586397Y-52571917D01*
X160566531Y-52502097D01*
X160530582Y-52375750D01*
X160439673Y-52193179D01*
X160439670Y-52193175D01*
X160439670Y-52193174D01*
X160347344Y-52070914D01*
X160939500Y-52070914D01*
X160939500Y-53479080D01*
X160939501Y-53479093D01*
X160942354Y-53509534D01*
X160942355Y-53509540D01*
X160974009Y-53600000D01*
X160987228Y-53637777D01*
X161067907Y-53747093D01*
X161177223Y-53827772D01*
X161206516Y-53838022D01*
X161305456Y-53872643D01*
X161305458Y-53872643D01*
X161305463Y-53872645D01*
X161335909Y-53875500D01*
X162744090Y-53875499D01*
X162774537Y-53872645D01*
X162902777Y-53827772D01*
X163012093Y-53747093D01*
X163092772Y-53637777D01*
X163105991Y-53600000D01*
X176561858Y-53600000D01*
X176582339Y-53742454D01*
X176582339Y-53742455D01*
X176582340Y-53742457D01*
X176631454Y-53850000D01*
X176642128Y-53873373D01*
X176736373Y-53982139D01*
X176736374Y-53982140D01*
X176736377Y-53982143D01*
X176857452Y-54059953D01*
X176959941Y-54090046D01*
X176995540Y-54100499D01*
X176995542Y-54100500D01*
X176995544Y-54100500D01*
X177139468Y-54100500D01*
X177139469Y-54100499D01*
X177277558Y-54059953D01*
X177398633Y-53982143D01*
X177492882Y-53873373D01*
X177503556Y-53850000D01*
X179244353Y-53850000D01*
X179264834Y-53992454D01*
X179264834Y-53992455D01*
X179264835Y-53992457D01*
X179290886Y-54049500D01*
X179324623Y-54123373D01*
X179418868Y-54232139D01*
X179418869Y-54232140D01*
X179418872Y-54232143D01*
X179539947Y-54309953D01*
X179646403Y-54341211D01*
X179678035Y-54350499D01*
X179678037Y-54350500D01*
X179678039Y-54350500D01*
X179821963Y-54350500D01*
X179821964Y-54350499D01*
X179960053Y-54309953D01*
X180081128Y-54232143D01*
X180175377Y-54123373D01*
X180235165Y-53992457D01*
X180255647Y-53850000D01*
X180235165Y-53707543D01*
X180175377Y-53576627D01*
X180090864Y-53479093D01*
X180081131Y-53467860D01*
X180081129Y-53467859D01*
X180081128Y-53467857D01*
X180024182Y-53431260D01*
X179960054Y-53390047D01*
X179960050Y-53390046D01*
X179821964Y-53349500D01*
X179821961Y-53349500D01*
X179678039Y-53349500D01*
X179678036Y-53349500D01*
X179539949Y-53390046D01*
X179539945Y-53390047D01*
X179418875Y-53467855D01*
X179418868Y-53467860D01*
X179324623Y-53576626D01*
X179264834Y-53707545D01*
X179244353Y-53850000D01*
X177503556Y-53850000D01*
X177552670Y-53742457D01*
X177573152Y-53600000D01*
X177552670Y-53457543D01*
X177492882Y-53326627D01*
X177411012Y-53232143D01*
X177398636Y-53217860D01*
X177398634Y-53217859D01*
X177398633Y-53217857D01*
X177330779Y-53174250D01*
X177277559Y-53140047D01*
X177277555Y-53140046D01*
X177139469Y-53099500D01*
X177139466Y-53099500D01*
X176995544Y-53099500D01*
X176995541Y-53099500D01*
X176857454Y-53140046D01*
X176857450Y-53140047D01*
X176736380Y-53217855D01*
X176736373Y-53217860D01*
X176642128Y-53326626D01*
X176582339Y-53457545D01*
X176561858Y-53600000D01*
X163105991Y-53600000D01*
X163137645Y-53509537D01*
X163140500Y-53479091D01*
X163140500Y-52850000D01*
X185844353Y-52850000D01*
X185864834Y-52992454D01*
X185864834Y-52992455D01*
X185864835Y-52992457D01*
X185916859Y-53106373D01*
X185924623Y-53123373D01*
X186018868Y-53232139D01*
X186018869Y-53232140D01*
X186018872Y-53232143D01*
X186139947Y-53309953D01*
X186220142Y-53333500D01*
X186278035Y-53350499D01*
X186278037Y-53350500D01*
X186278039Y-53350500D01*
X186421963Y-53350500D01*
X186421964Y-53350499D01*
X186560053Y-53309953D01*
X186681128Y-53232143D01*
X186775377Y-53123373D01*
X186835165Y-52992457D01*
X186855647Y-52850000D01*
X186835165Y-52707543D01*
X186775377Y-52576627D01*
X186708980Y-52500000D01*
X196544353Y-52500000D01*
X196564834Y-52642454D01*
X196564834Y-52642455D01*
X196564835Y-52642457D01*
X196594559Y-52707543D01*
X196624623Y-52773373D01*
X196718868Y-52882139D01*
X196718869Y-52882140D01*
X196718872Y-52882143D01*
X196839947Y-52959953D01*
X196946403Y-52991211D01*
X196978035Y-53000499D01*
X196978037Y-53000500D01*
X196978039Y-53000500D01*
X197121963Y-53000500D01*
X197121964Y-53000499D01*
X197260053Y-52959953D01*
X197381128Y-52882143D01*
X197423710Y-52833000D01*
X202055717Y-52833000D01*
X202076198Y-52975454D01*
X202076198Y-52975455D01*
X202076199Y-52975457D01*
X202087636Y-53000500D01*
X202135987Y-53106373D01*
X202230232Y-53215139D01*
X202230233Y-53215140D01*
X202230236Y-53215143D01*
X202351311Y-53292953D01*
X202457767Y-53324211D01*
X202489399Y-53333499D01*
X202489401Y-53333500D01*
X202489403Y-53333500D01*
X202633327Y-53333500D01*
X202633328Y-53333499D01*
X202771417Y-53292953D01*
X202892492Y-53215143D01*
X202986741Y-53106373D01*
X203046529Y-52975457D01*
X203067011Y-52833000D01*
X203046529Y-52690543D01*
X202986741Y-52559627D01*
X202943843Y-52510120D01*
X202892495Y-52450860D01*
X202892493Y-52450859D01*
X202892492Y-52450857D01*
X202835546Y-52414260D01*
X202771418Y-52373047D01*
X202771414Y-52373046D01*
X202633328Y-52332500D01*
X202633325Y-52332500D01*
X202489403Y-52332500D01*
X202489400Y-52332500D01*
X202351313Y-52373046D01*
X202351309Y-52373047D01*
X202230239Y-52450855D01*
X202230232Y-52450860D01*
X202135987Y-52559626D01*
X202076198Y-52690545D01*
X202055717Y-52833000D01*
X197423710Y-52833000D01*
X197475377Y-52773373D01*
X197535165Y-52642457D01*
X197555647Y-52500000D01*
X197535165Y-52357543D01*
X197475377Y-52226627D01*
X197381128Y-52117857D01*
X197308077Y-52070910D01*
X197260054Y-52040047D01*
X197260050Y-52040046D01*
X197121964Y-51999500D01*
X197121961Y-51999500D01*
X196978039Y-51999500D01*
X196978036Y-51999500D01*
X196839949Y-52040046D01*
X196839945Y-52040047D01*
X196718875Y-52117855D01*
X196718868Y-52117860D01*
X196624623Y-52226626D01*
X196564834Y-52357545D01*
X196544353Y-52500000D01*
X186708980Y-52500000D01*
X186681128Y-52467857D01*
X186624182Y-52431260D01*
X186560054Y-52390047D01*
X186560050Y-52390046D01*
X186421964Y-52349500D01*
X186421961Y-52349500D01*
X186278039Y-52349500D01*
X186278036Y-52349500D01*
X186139949Y-52390046D01*
X186139945Y-52390047D01*
X186018875Y-52467855D01*
X186018868Y-52467860D01*
X185924623Y-52576626D01*
X185864834Y-52707545D01*
X185844353Y-52850000D01*
X163140500Y-52850000D01*
X163140499Y-52070910D01*
X163137645Y-52040463D01*
X163137499Y-52040047D01*
X163099681Y-51931968D01*
X163092772Y-51912223D01*
X163012093Y-51802907D01*
X162988717Y-51785655D01*
X162921772Y-51736247D01*
X162902777Y-51722228D01*
X162902775Y-51722227D01*
X162774543Y-51677356D01*
X162774538Y-51677355D01*
X162770731Y-51676998D01*
X162744091Y-51674500D01*
X162744084Y-51674500D01*
X161335919Y-51674500D01*
X161335906Y-51674501D01*
X161305465Y-51677354D01*
X161305459Y-51677355D01*
X161177224Y-51722227D01*
X161067907Y-51802906D01*
X161067906Y-51802907D01*
X160987227Y-51912224D01*
X160942356Y-52040456D01*
X160942355Y-52040461D01*
X160942355Y-52040463D01*
X160939501Y-52070906D01*
X160939500Y-52070914D01*
X160347344Y-52070914D01*
X160316765Y-52030421D01*
X160316764Y-52030420D01*
X160166041Y-51893019D01*
X160124282Y-51867163D01*
X159992637Y-51785652D01*
X159802456Y-51711976D01*
X159714407Y-51695516D01*
X159601979Y-51674500D01*
X159601976Y-51674500D01*
X159398024Y-51674500D01*
X159398020Y-51674500D01*
X159248116Y-51702522D01*
X159197544Y-51711976D01*
X159197542Y-51711976D01*
X159197540Y-51711977D01*
X159007368Y-51785650D01*
X159007363Y-51785652D01*
X159007358Y-51785654D01*
X159007358Y-51785655D01*
X158833958Y-51893019D01*
X158833957Y-51893019D01*
X158683235Y-52030420D01*
X158683234Y-52030421D01*
X158560329Y-52193174D01*
X158560328Y-52193177D01*
X158469418Y-52375750D01*
X158469416Y-52375755D01*
X158413602Y-52571917D01*
X158413601Y-52571923D01*
X158394785Y-52774996D01*
X158065215Y-52774996D01*
X158046398Y-52571923D01*
X158046397Y-52571917D01*
X158026531Y-52502097D01*
X157990582Y-52375750D01*
X157899673Y-52193179D01*
X157899670Y-52193175D01*
X157899670Y-52193174D01*
X157776765Y-52030421D01*
X157776764Y-52030420D01*
X157626041Y-51893019D01*
X157584282Y-51867163D01*
X157452637Y-51785652D01*
X157262456Y-51711976D01*
X157174407Y-51695516D01*
X157061979Y-51674500D01*
X157061976Y-51674500D01*
X156858024Y-51674500D01*
X156858020Y-51674500D01*
X156708116Y-51702522D01*
X156657544Y-51711976D01*
X156657542Y-51711976D01*
X156657540Y-51711977D01*
X156467368Y-51785650D01*
X156467363Y-51785652D01*
X156467358Y-51785654D01*
X156467358Y-51785655D01*
X156293958Y-51893019D01*
X156293957Y-51893019D01*
X156143235Y-52030420D01*
X156143234Y-52030421D01*
X156020329Y-52193174D01*
X156020328Y-52193177D01*
X155929418Y-52375750D01*
X155929416Y-52375755D01*
X155873602Y-52571917D01*
X155873601Y-52571923D01*
X155854785Y-52774996D01*
X155086598Y-52774996D01*
X155105408Y-52500007D01*
X155105408Y-52499992D01*
X155085799Y-52213322D01*
X155085796Y-52213302D01*
X155027336Y-51931976D01*
X155027331Y-51931958D01*
X154931107Y-51661210D01*
X154931105Y-51661205D01*
X154925299Y-51650000D01*
X176494353Y-51650000D01*
X176514834Y-51792454D01*
X176514834Y-51792455D01*
X176514835Y-51792457D01*
X176560761Y-51893019D01*
X176574623Y-51923373D01*
X176668868Y-52032139D01*
X176668869Y-52032140D01*
X176668872Y-52032143D01*
X176789947Y-52109953D01*
X176896403Y-52141211D01*
X176928035Y-52150499D01*
X176928037Y-52150500D01*
X176928039Y-52150500D01*
X177071963Y-52150500D01*
X177071964Y-52150499D01*
X177210053Y-52109953D01*
X177331128Y-52032143D01*
X177350644Y-52009620D01*
X179253973Y-52009620D01*
X179274454Y-52152074D01*
X179274454Y-52152075D01*
X179274455Y-52152077D01*
X179302425Y-52213322D01*
X179334243Y-52282993D01*
X179428488Y-52391759D01*
X179428489Y-52391760D01*
X179428492Y-52391763D01*
X179514990Y-52447352D01*
X179546901Y-52467860D01*
X179549567Y-52469573D01*
X179646106Y-52497919D01*
X179687655Y-52510119D01*
X179687657Y-52510120D01*
X179687659Y-52510120D01*
X179831583Y-52510120D01*
X179831584Y-52510119D01*
X179969673Y-52469573D01*
X180090748Y-52391763D01*
X180184997Y-52282993D01*
X180244785Y-52152077D01*
X180265267Y-52009620D01*
X180244785Y-51867163D01*
X180184997Y-51736247D01*
X180131494Y-51674501D01*
X180090751Y-51627480D01*
X180090749Y-51627479D01*
X180090748Y-51627477D01*
X180033802Y-51590880D01*
X179969674Y-51549667D01*
X179969670Y-51549666D01*
X179831584Y-51509120D01*
X179831581Y-51509120D01*
X179687659Y-51509120D01*
X179687656Y-51509120D01*
X179549569Y-51549666D01*
X179549565Y-51549667D01*
X179428495Y-51627475D01*
X179428488Y-51627480D01*
X179334243Y-51736246D01*
X179274454Y-51867165D01*
X179253973Y-52009620D01*
X177350644Y-52009620D01*
X177425377Y-51923373D01*
X177485165Y-51792457D01*
X177505647Y-51650000D01*
X177485165Y-51507543D01*
X177425377Y-51376627D01*
X177379233Y-51323373D01*
X177331131Y-51267860D01*
X177331129Y-51267859D01*
X177331128Y-51267857D01*
X177274182Y-51231260D01*
X177210054Y-51190047D01*
X177210050Y-51190046D01*
X177071964Y-51149500D01*
X177071961Y-51149500D01*
X176928039Y-51149500D01*
X176928036Y-51149500D01*
X176789949Y-51190046D01*
X176789945Y-51190047D01*
X176668875Y-51267855D01*
X176668868Y-51267860D01*
X176574623Y-51376626D01*
X176514834Y-51507545D01*
X176494353Y-51650000D01*
X154925299Y-51650000D01*
X154922930Y-51645429D01*
X154798901Y-51406064D01*
X154633189Y-51171302D01*
X154519901Y-51050000D01*
X164744353Y-51050000D01*
X164764834Y-51192454D01*
X164764834Y-51192455D01*
X164764835Y-51192457D01*
X164799271Y-51267860D01*
X164824623Y-51323373D01*
X164918868Y-51432139D01*
X164918869Y-51432140D01*
X164918872Y-51432143D01*
X164996674Y-51482143D01*
X165038650Y-51509120D01*
X165039947Y-51509953D01*
X165146403Y-51541211D01*
X165178035Y-51550499D01*
X165178037Y-51550500D01*
X165178039Y-51550500D01*
X165321963Y-51550500D01*
X165321964Y-51550499D01*
X165324801Y-51549666D01*
X165460053Y-51509953D01*
X165581128Y-51432143D01*
X165675377Y-51323373D01*
X165735165Y-51192457D01*
X165755647Y-51050000D01*
X165748884Y-51002962D01*
X174769813Y-51002962D01*
X174790294Y-51145416D01*
X174790294Y-51145417D01*
X174790295Y-51145419D01*
X174811777Y-51192457D01*
X174850083Y-51276335D01*
X174944328Y-51385101D01*
X174944329Y-51385102D01*
X174944332Y-51385105D01*
X175065407Y-51462915D01*
X175130896Y-51482144D01*
X175203495Y-51503461D01*
X175203497Y-51503462D01*
X175203499Y-51503462D01*
X175347423Y-51503462D01*
X175347424Y-51503461D01*
X175485513Y-51462915D01*
X175606588Y-51385105D01*
X175700837Y-51276335D01*
X175760625Y-51145419D01*
X175767155Y-51100000D01*
X191044353Y-51100000D01*
X191064834Y-51242454D01*
X191064834Y-51242455D01*
X191064835Y-51242457D01*
X191078954Y-51273373D01*
X191124623Y-51373373D01*
X191218868Y-51482139D01*
X191218869Y-51482140D01*
X191218872Y-51482143D01*
X191311474Y-51541654D01*
X191323941Y-51549667D01*
X191339947Y-51559953D01*
X191446403Y-51591211D01*
X191478035Y-51600499D01*
X191478037Y-51600500D01*
X191478039Y-51600500D01*
X191621963Y-51600500D01*
X191621964Y-51600499D01*
X191760053Y-51559953D01*
X191881128Y-51482143D01*
X191975377Y-51373373D01*
X192035165Y-51242457D01*
X192055647Y-51100000D01*
X192041269Y-51000000D01*
X196644353Y-51000000D01*
X196664834Y-51142454D01*
X196664834Y-51142455D01*
X196664835Y-51142457D01*
X196710503Y-51242454D01*
X196724623Y-51273373D01*
X196818868Y-51382139D01*
X196818869Y-51382140D01*
X196818872Y-51382143D01*
X196939947Y-51459953D01*
X197046403Y-51491211D01*
X197078035Y-51500499D01*
X197078037Y-51500500D01*
X197078039Y-51500500D01*
X197221963Y-51500500D01*
X197221964Y-51500499D01*
X197360053Y-51459953D01*
X197481128Y-51382143D01*
X197575377Y-51273373D01*
X197635165Y-51142457D01*
X197655647Y-51000000D01*
X197635165Y-50857543D01*
X197575377Y-50726627D01*
X197521955Y-50664974D01*
X197481131Y-50617860D01*
X197481129Y-50617859D01*
X197481128Y-50617857D01*
X197424182Y-50581260D01*
X197360054Y-50540047D01*
X197360050Y-50540046D01*
X197221964Y-50499500D01*
X197221961Y-50499500D01*
X197078039Y-50499500D01*
X197078036Y-50499500D01*
X196939949Y-50540046D01*
X196939945Y-50540047D01*
X196818875Y-50617855D01*
X196818868Y-50617860D01*
X196724623Y-50726626D01*
X196664834Y-50857545D01*
X196644353Y-51000000D01*
X192041269Y-51000000D01*
X192035165Y-50957543D01*
X191975377Y-50826627D01*
X191891293Y-50729588D01*
X191881131Y-50717860D01*
X191881129Y-50717859D01*
X191881128Y-50717857D01*
X191803331Y-50667860D01*
X191760054Y-50640047D01*
X191760050Y-50640046D01*
X191621964Y-50599500D01*
X191621961Y-50599500D01*
X191478039Y-50599500D01*
X191478036Y-50599500D01*
X191339949Y-50640046D01*
X191339945Y-50640047D01*
X191218875Y-50717855D01*
X191218868Y-50717860D01*
X191124623Y-50826626D01*
X191064834Y-50957545D01*
X191044353Y-51100000D01*
X175767155Y-51100000D01*
X175781107Y-51002962D01*
X175760625Y-50860505D01*
X175700837Y-50729589D01*
X175647349Y-50667860D01*
X175606591Y-50620822D01*
X175606589Y-50620821D01*
X175606588Y-50620819D01*
X175549642Y-50584222D01*
X175485514Y-50543009D01*
X175485510Y-50543008D01*
X175347424Y-50502462D01*
X175347421Y-50502462D01*
X175203499Y-50502462D01*
X175203496Y-50502462D01*
X175065409Y-50543008D01*
X175065405Y-50543009D01*
X174944335Y-50620817D01*
X174944328Y-50620822D01*
X174850083Y-50729588D01*
X174790294Y-50860507D01*
X174769813Y-51002962D01*
X165748884Y-51002962D01*
X165735165Y-50907543D01*
X165675377Y-50776627D01*
X165581128Y-50667857D01*
X165507940Y-50620822D01*
X165460054Y-50590047D01*
X165460050Y-50590046D01*
X165321964Y-50549500D01*
X165321961Y-50549500D01*
X165178039Y-50549500D01*
X165178036Y-50549500D01*
X165039949Y-50590046D01*
X165039945Y-50590047D01*
X164918875Y-50667855D01*
X164918868Y-50667860D01*
X164824623Y-50776626D01*
X164764834Y-50907545D01*
X164744353Y-51050000D01*
X154519901Y-51050000D01*
X154437053Y-50961292D01*
X154214147Y-50779945D01*
X154214141Y-50779941D01*
X154214138Y-50779939D01*
X154100159Y-50710627D01*
X153968625Y-50630639D01*
X153968622Y-50630637D01*
X153968621Y-50630637D01*
X153705056Y-50516155D01*
X153428356Y-50438628D01*
X153143682Y-50399500D01*
X153143678Y-50399500D01*
X152856322Y-50399500D01*
X152856317Y-50399500D01*
X152571643Y-50438628D01*
X152294943Y-50516155D01*
X152031378Y-50630637D01*
X152031375Y-50630639D01*
X151785861Y-50779939D01*
X151785853Y-50779945D01*
X151567556Y-50957543D01*
X151562945Y-50961294D01*
X151366809Y-51171304D01*
X151201103Y-51406057D01*
X151201098Y-51406064D01*
X151068894Y-51661205D01*
X151068892Y-51661210D01*
X150972668Y-51931958D01*
X150972663Y-51931976D01*
X150914203Y-52213302D01*
X150914200Y-52213322D01*
X150894592Y-52499992D01*
X150894592Y-52500007D01*
X150914200Y-52786677D01*
X150914203Y-52786697D01*
X150972663Y-53068023D01*
X150972668Y-53068041D01*
X151068892Y-53338789D01*
X151068894Y-53338794D01*
X151192129Y-53576626D01*
X151201099Y-53593936D01*
X151366811Y-53828698D01*
X151562947Y-54038708D01*
X151785853Y-54220055D01*
X152031375Y-54369361D01*
X152294942Y-54483844D01*
X152564097Y-54559257D01*
X152608634Y-54594244D01*
X152615387Y-54650477D01*
X152580399Y-54695015D01*
X152543840Y-54704511D01*
X151012425Y-54698482D01*
X150999840Y-54698743D01*
X150987685Y-54699293D01*
X150975102Y-54700173D01*
X150833231Y-54713620D01*
X150833232Y-54713621D01*
X150797683Y-54716991D01*
X150797664Y-54716993D01*
X150772820Y-54720588D01*
X150748867Y-54725268D01*
X150748866Y-54725269D01*
X150724510Y-54731284D01*
X150724444Y-54731302D01*
X150559673Y-54780723D01*
X150559624Y-54780739D01*
X150535927Y-54789138D01*
X150513405Y-54798392D01*
X150506832Y-54801479D01*
X150450256Y-54804101D01*
X150408396Y-54765949D01*
X150401379Y-54734529D01*
X150400500Y-52502067D01*
X150400615Y-52497949D01*
X150416612Y-52213083D01*
X150417542Y-52204843D01*
X150419525Y-52193177D01*
X150464979Y-51925650D01*
X150466824Y-51917567D01*
X150545229Y-51645416D01*
X150547959Y-51637615D01*
X150656348Y-51375938D01*
X150659929Y-51368503D01*
X150796938Y-51120603D01*
X150801330Y-51113613D01*
X150965241Y-50882602D01*
X150970387Y-50876151D01*
X151159111Y-50664969D01*
X151164969Y-50659111D01*
X151376151Y-50470387D01*
X151382602Y-50465241D01*
X151613613Y-50301330D01*
X151620603Y-50296938D01*
X151868503Y-50159929D01*
X151875938Y-50156348D01*
X152137615Y-50047959D01*
X152145416Y-50045229D01*
X152417575Y-49966822D01*
X152425650Y-49964979D01*
X152704851Y-49917541D01*
X152713083Y-49916612D01*
X152997934Y-49900615D01*
X153002083Y-49900500D01*
X153057583Y-49900500D01*
X201292417Y-49900500D01*
X201347917Y-49900500D01*
X201352065Y-49900615D01*
G37*
%TD.AperFunction*%
%TD*%
M02*
