%TF.GenerationSoftware,KiCad,Pcbnew,8.0.4*%
%TF.CreationDate,2025-03-19T01:09:58-05:00*%
%TF.ProjectId,Melty,4d656c74-792e-46b6-9963-61645f706362,rev?*%
%TF.SameCoordinates,Original*%
%TF.FileFunction,Legend,Top*%
%TF.FilePolarity,Positive*%
%FSLAX46Y46*%
G04 Gerber Fmt 4.6, Leading zero omitted, Abs format (unit mm)*
G04 Created by KiCad (PCBNEW 8.0.4) date 2025-03-19 01:09:58*
%MOMM*%
%LPD*%
G01*
G04 APERTURE LIST*
G04 Aperture macros list*
%AMRoundRect*
0 Rectangle with rounded corners*
0 $1 Rounding radius*
0 $2 $3 $4 $5 $6 $7 $8 $9 X,Y pos of 4 corners*
0 Add a 4 corners polygon primitive as box body*
4,1,4,$2,$3,$4,$5,$6,$7,$8,$9,$2,$3,0*
0 Add four circle primitives for the rounded corners*
1,1,$1+$1,$2,$3*
1,1,$1+$1,$4,$5*
1,1,$1+$1,$6,$7*
1,1,$1+$1,$8,$9*
0 Add four rect primitives between the rounded corners*
20,1,$1+$1,$2,$3,$4,$5,0*
20,1,$1+$1,$4,$5,$6,$7,0*
20,1,$1+$1,$6,$7,$8,$9,0*
20,1,$1+$1,$8,$9,$2,$3,0*%
G04 Aperture macros list end*
%ADD10C,0.200000*%
%ADD11C,0.150000*%
%ADD12C,0.100000*%
%ADD13C,0.120000*%
%ADD14C,0.152400*%
%ADD15C,0.000000*%
%ADD16C,0.127000*%
%ADD17C,0.504000*%
%ADD18C,1.000000*%
%ADD19R,0.457200X0.355600*%
%ADD20R,0.355600X0.457200*%
%ADD21RoundRect,0.237500X-0.300000X-0.237500X0.300000X-0.237500X0.300000X0.237500X-0.300000X0.237500X0*%
%ADD22RoundRect,0.437500X0.437500X0.562500X-0.437500X0.562500X-0.437500X-0.562500X0.437500X-0.562500X0*%
%ADD23C,3.800000*%
%ADD24RoundRect,1.250000X-1.250000X-2.250000X1.250000X-2.250000X1.250000X2.250000X-1.250000X2.250000X0*%
%ADD25R,0.700000X0.700000*%
%ADD26RoundRect,0.250200X0.649800X0.649800X-0.649800X0.649800X-0.649800X-0.649800X0.649800X-0.649800X0*%
%ADD27C,1.800000*%
%ADD28RoundRect,1.250000X1.250000X-2.750000X1.250000X2.750000X-1.250000X2.750000X-1.250000X-2.750000X0*%
%ADD29R,3.000000X3.000000*%
%ADD30C,3.000000*%
%ADD31RoundRect,0.525400X0.900400X0.525400X-0.900400X0.525400X-0.900400X-0.525400X0.900400X-0.525400X0*%
G04 APERTURE END LIST*
D10*
G36*
X156773796Y-68829658D02*
G01*
X156772086Y-68862875D01*
X156766957Y-68884368D01*
X156758408Y-68896336D01*
X156746929Y-68900000D01*
X156300453Y-68900000D01*
X156262351Y-68886566D01*
X156246964Y-68842847D01*
X156246964Y-68066154D01*
X156262351Y-68022435D01*
X156300453Y-68009002D01*
X156744242Y-68009002D01*
X156755233Y-68012421D01*
X156763538Y-68024389D01*
X156768667Y-68046371D01*
X156770376Y-68080076D01*
X156768667Y-68112561D01*
X156763538Y-68134054D01*
X156755233Y-68146022D01*
X156744242Y-68149685D01*
X156426727Y-68149685D01*
X156426727Y-68368527D01*
X156695394Y-68368527D01*
X156706873Y-68372435D01*
X156715422Y-68384403D01*
X156720551Y-68405896D01*
X156722260Y-68439113D01*
X156720551Y-68472819D01*
X156715422Y-68494068D01*
X156706873Y-68505792D01*
X156695394Y-68509211D01*
X156426727Y-68509211D01*
X156426727Y-68759316D01*
X156746929Y-68759316D01*
X156758408Y-68763224D01*
X156766957Y-68775191D01*
X156772086Y-68796685D01*
X156773796Y-68829658D01*
G37*
G36*
X157261549Y-68820865D02*
G01*
X157257641Y-68866050D01*
X157247627Y-68888032D01*
X157229553Y-68899511D01*
X157201465Y-68908060D01*
X157166294Y-68913677D01*
X157128192Y-68915631D01*
X157077296Y-68911909D01*
X157038799Y-68902442D01*
X156995007Y-68879456D01*
X156976517Y-68862630D01*
X156949715Y-68821052D01*
X156940125Y-68794487D01*
X156930977Y-68746425D01*
X156928401Y-68697034D01*
X156928401Y-68384159D01*
X156855129Y-68384159D01*
X156835101Y-68368039D01*
X156828289Y-68318465D01*
X156828262Y-68313817D01*
X156829972Y-68280111D01*
X156835101Y-68258374D01*
X156843649Y-68246894D01*
X156855617Y-68243475D01*
X156928401Y-68243475D01*
X156928401Y-68101570D01*
X156932065Y-68088625D01*
X156945987Y-68079099D01*
X156972609Y-68073482D01*
X157014375Y-68071528D01*
X157056385Y-68073482D01*
X157082763Y-68079099D01*
X157096685Y-68088625D01*
X157100837Y-68101570D01*
X157100837Y-68243475D01*
X157234193Y-68243475D01*
X157246161Y-68246894D01*
X157254710Y-68258374D01*
X157259839Y-68280111D01*
X157261549Y-68313817D01*
X157256313Y-68363612D01*
X157254710Y-68368039D01*
X157234682Y-68384159D01*
X157100837Y-68384159D01*
X157100837Y-68674075D01*
X157105783Y-68722796D01*
X157116468Y-68749790D01*
X157160821Y-68774333D01*
X157172889Y-68774947D01*
X157197557Y-68772505D01*
X157217096Y-68767131D01*
X157231751Y-68761514D01*
X157242254Y-68759071D01*
X157250069Y-68761514D01*
X157255931Y-68771284D01*
X157259839Y-68790334D01*
X157261549Y-68820865D01*
G37*
G36*
X157968876Y-68872889D02*
G01*
X157964724Y-68884856D01*
X157950802Y-68893161D01*
X157924424Y-68898290D01*
X157882903Y-68900000D01*
X157840648Y-68898290D01*
X157814270Y-68893405D01*
X157800593Y-68885101D01*
X157796441Y-68873133D01*
X157796441Y-68532170D01*
X157793600Y-68483208D01*
X157789846Y-68464026D01*
X157771039Y-68421528D01*
X157739043Y-68393928D01*
X157693370Y-68384159D01*
X157645593Y-68396272D01*
X157626692Y-68407606D01*
X157587923Y-68440785D01*
X157556594Y-68475994D01*
X157556594Y-68873133D01*
X157552442Y-68885101D01*
X157538276Y-68893405D01*
X157511898Y-68898290D01*
X157469888Y-68900000D01*
X157427878Y-68898290D01*
X157401500Y-68893161D01*
X157387578Y-68884612D01*
X157383426Y-68872644D01*
X157383426Y-67975785D01*
X157387578Y-67963572D01*
X157401500Y-67954291D01*
X157427878Y-67948674D01*
X157469888Y-67946475D01*
X157511898Y-67948674D01*
X157538276Y-67954535D01*
X157552442Y-67963817D01*
X157556594Y-67976029D01*
X157556594Y-68314061D01*
X157596031Y-68280274D01*
X157639011Y-68253516D01*
X157647697Y-68249337D01*
X157695019Y-68233217D01*
X157744173Y-68227843D01*
X157795143Y-68231770D01*
X157844236Y-68245875D01*
X157849685Y-68248360D01*
X157892791Y-68275957D01*
X157919050Y-68304047D01*
X157944089Y-68347478D01*
X157957152Y-68386601D01*
X157965567Y-68435248D01*
X157968693Y-68484615D01*
X157968876Y-68501151D01*
X157968876Y-68872889D01*
G37*
G36*
X158437372Y-68229801D02*
G01*
X158486047Y-68236340D01*
X158509385Y-68241765D01*
X158556097Y-68259473D01*
X158593649Y-68284752D01*
X158625102Y-68322430D01*
X158641765Y-68359002D01*
X158653122Y-68408705D01*
X158656849Y-68459208D01*
X158656908Y-68466957D01*
X158656908Y-68874842D01*
X158650069Y-68889986D01*
X158628332Y-68897801D01*
X158584856Y-68900000D01*
X158539672Y-68897557D01*
X158519888Y-68889741D01*
X158514026Y-68874598D01*
X158514026Y-68825750D01*
X158476227Y-68860272D01*
X158433812Y-68887817D01*
X158427808Y-68890963D01*
X158380109Y-68908669D01*
X158331330Y-68915414D01*
X158320341Y-68915631D01*
X158270715Y-68912047D01*
X158230704Y-68902930D01*
X158183917Y-68882284D01*
X158159874Y-68865317D01*
X158126445Y-68827465D01*
X158113468Y-68803524D01*
X158099804Y-68755219D01*
X158097103Y-68717306D01*
X158097796Y-68710711D01*
X158266120Y-68710711D01*
X158279858Y-68757606D01*
X158290544Y-68769330D01*
X158335369Y-68788898D01*
X158358199Y-68790579D01*
X158407485Y-68781368D01*
X158425122Y-68772749D01*
X158465613Y-68741874D01*
X158487159Y-68719993D01*
X158487159Y-68618632D01*
X158421214Y-68618632D01*
X158371656Y-68621261D01*
X158349895Y-68624738D01*
X158302950Y-68641826D01*
X158301779Y-68642568D01*
X158274668Y-68671632D01*
X158266120Y-68710711D01*
X158097796Y-68710711D01*
X158102355Y-68667358D01*
X158118108Y-68624494D01*
X158148230Y-68584583D01*
X158180635Y-68559525D01*
X158227224Y-68537238D01*
X158276304Y-68523246D01*
X158283949Y-68521667D01*
X158333076Y-68514077D01*
X158382998Y-68510196D01*
X158427320Y-68509211D01*
X158487159Y-68509211D01*
X158487159Y-68471109D01*
X158482007Y-68421893D01*
X158481297Y-68419085D01*
X158462002Y-68381960D01*
X158426343Y-68359979D01*
X158377232Y-68352958D01*
X158371144Y-68352896D01*
X158320731Y-68356712D01*
X158293963Y-68362665D01*
X158247435Y-68378419D01*
X158233879Y-68384159D01*
X158190160Y-68405652D01*
X158161828Y-68415422D01*
X158148394Y-68410537D01*
X158138625Y-68396127D01*
X158132763Y-68373412D01*
X158130809Y-68343370D01*
X158134228Y-68308443D01*
X158147173Y-68285240D01*
X158180879Y-68264968D01*
X158227421Y-68249525D01*
X158237299Y-68246894D01*
X158286672Y-68236372D01*
X158307641Y-68233217D01*
X158358701Y-68228478D01*
X158386287Y-68227843D01*
X158437372Y-68229801D01*
G37*
G36*
X159410886Y-68872889D02*
G01*
X159406734Y-68884856D01*
X159392812Y-68893161D01*
X159366434Y-68898290D01*
X159324912Y-68900000D01*
X159282658Y-68898290D01*
X159256280Y-68893405D01*
X159242602Y-68885101D01*
X159238450Y-68873133D01*
X159238450Y-68532170D01*
X159235610Y-68483208D01*
X159231856Y-68464026D01*
X159213049Y-68421528D01*
X159181053Y-68393928D01*
X159135380Y-68384159D01*
X159087603Y-68396272D01*
X159068702Y-68407606D01*
X159029933Y-68440785D01*
X158998604Y-68475994D01*
X158998604Y-68873133D01*
X158994452Y-68885101D01*
X158980286Y-68893405D01*
X158953907Y-68898290D01*
X158911898Y-68900000D01*
X158869888Y-68898290D01*
X158843510Y-68893405D01*
X158829588Y-68884856D01*
X158825436Y-68872889D01*
X158825436Y-68270586D01*
X158828855Y-68258618D01*
X158841067Y-68250314D01*
X158864270Y-68245184D01*
X158899685Y-68243475D01*
X158936078Y-68245184D01*
X158958304Y-68250314D01*
X158969783Y-68258618D01*
X158973203Y-68270341D01*
X158973203Y-68339951D01*
X159008331Y-68304788D01*
X159047114Y-68273933D01*
X159076517Y-68255931D01*
X159123474Y-68236730D01*
X159172020Y-68228282D01*
X159186182Y-68227843D01*
X159237153Y-68231770D01*
X159286246Y-68245875D01*
X159291695Y-68248360D01*
X159334800Y-68275880D01*
X159361060Y-68303803D01*
X159386099Y-68346882D01*
X159399162Y-68385624D01*
X159407955Y-68437220D01*
X159410783Y-68486066D01*
X159410886Y-68498220D01*
X159410886Y-68872889D01*
G37*
G36*
X160518527Y-68754187D02*
G01*
X160517550Y-68782030D01*
X160514375Y-68801814D01*
X160509002Y-68815980D01*
X160498011Y-68831367D01*
X160468702Y-68855547D01*
X160425238Y-68879820D01*
X160415701Y-68884124D01*
X160368443Y-68900517D01*
X160344138Y-68906594D01*
X160294247Y-68914140D01*
X160257431Y-68915631D01*
X160207459Y-68913390D01*
X160155243Y-68905643D01*
X160106509Y-68892362D01*
X160092568Y-68887299D01*
X160044622Y-68864530D01*
X160001871Y-68835182D01*
X159967515Y-68802791D01*
X159934913Y-68760851D01*
X159910183Y-68716964D01*
X159890129Y-68667590D01*
X159888381Y-68662351D01*
X159875157Y-68612770D01*
X159866261Y-68558822D01*
X159861987Y-68507203D01*
X159861025Y-68466224D01*
X159862918Y-68410903D01*
X159868597Y-68358757D01*
X159878061Y-68309787D01*
X159891311Y-68263991D01*
X159910241Y-68216498D01*
X159935714Y-68168985D01*
X159965863Y-68127006D01*
X159975819Y-68115491D01*
X160011831Y-68080778D01*
X160052088Y-68051740D01*
X160096591Y-68028380D01*
X160106001Y-68024389D01*
X160154978Y-68008031D01*
X160206961Y-67997732D01*
X160256315Y-67993643D01*
X160273307Y-67993370D01*
X160322969Y-67996372D01*
X160344626Y-67999720D01*
X160393261Y-68011215D01*
X160408129Y-68016085D01*
X160453415Y-68035418D01*
X160460886Y-68039532D01*
X160493614Y-68062247D01*
X160506315Y-68077878D01*
X160511688Y-68094242D01*
X160514863Y-68117445D01*
X160515840Y-68150418D01*
X160514375Y-68186322D01*
X160509734Y-68210258D01*
X160501430Y-68223691D01*
X160490439Y-68227843D01*
X160464305Y-68215875D01*
X160423272Y-68188764D01*
X160378383Y-68167274D01*
X160363677Y-68161898D01*
X160315077Y-68151403D01*
X160280879Y-68149685D01*
X160230748Y-68155059D01*
X160186357Y-68171179D01*
X160145687Y-68199254D01*
X160115526Y-68232728D01*
X160089942Y-68276936D01*
X160072278Y-68325923D01*
X160071318Y-68329448D01*
X160061514Y-68377866D01*
X160056900Y-68426782D01*
X160056175Y-68457187D01*
X160058080Y-68508300D01*
X160064503Y-68558463D01*
X160072295Y-68592254D01*
X160089018Y-68638262D01*
X160114542Y-68681569D01*
X160118213Y-68686287D01*
X160153579Y-68720165D01*
X160190509Y-68741242D01*
X160238368Y-68755344D01*
X160285519Y-68759316D01*
X160335477Y-68755452D01*
X160368562Y-68747103D01*
X160413947Y-68728062D01*
X160428890Y-68719993D01*
X160470167Y-68693126D01*
X160495080Y-68681158D01*
X160506071Y-68683845D01*
X160512909Y-68694347D01*
X160517062Y-68716329D01*
X160518527Y-68754187D01*
G37*
G36*
X160936465Y-68229801D02*
G01*
X160985140Y-68236340D01*
X161008478Y-68241765D01*
X161055190Y-68259473D01*
X161092742Y-68284752D01*
X161124195Y-68322430D01*
X161140858Y-68359002D01*
X161152215Y-68408705D01*
X161155942Y-68459208D01*
X161156001Y-68466957D01*
X161156001Y-68874842D01*
X161149162Y-68889986D01*
X161127424Y-68897801D01*
X161083949Y-68900000D01*
X161038764Y-68897557D01*
X161018981Y-68889741D01*
X161013119Y-68874598D01*
X161013119Y-68825750D01*
X160975320Y-68860272D01*
X160932905Y-68887817D01*
X160926901Y-68890963D01*
X160879202Y-68908669D01*
X160830422Y-68915414D01*
X160819434Y-68915631D01*
X160769807Y-68912047D01*
X160729797Y-68902930D01*
X160683009Y-68882284D01*
X160658967Y-68865317D01*
X160625537Y-68827465D01*
X160612561Y-68803524D01*
X160598897Y-68755219D01*
X160596196Y-68717306D01*
X160596889Y-68710711D01*
X160765212Y-68710711D01*
X160778951Y-68757606D01*
X160789637Y-68769330D01*
X160834462Y-68788898D01*
X160857292Y-68790579D01*
X160906577Y-68781368D01*
X160924214Y-68772749D01*
X160964706Y-68741874D01*
X160986252Y-68719993D01*
X160986252Y-68618632D01*
X160920307Y-68618632D01*
X160870749Y-68621261D01*
X160848988Y-68624738D01*
X160802043Y-68641826D01*
X160800872Y-68642568D01*
X160773761Y-68671632D01*
X160765212Y-68710711D01*
X160596889Y-68710711D01*
X160601448Y-68667358D01*
X160617201Y-68624494D01*
X160647323Y-68584583D01*
X160679727Y-68559525D01*
X160726317Y-68537238D01*
X160775397Y-68523246D01*
X160783042Y-68521667D01*
X160832169Y-68514077D01*
X160882090Y-68510196D01*
X160926413Y-68509211D01*
X160986252Y-68509211D01*
X160986252Y-68471109D01*
X160981100Y-68421893D01*
X160980390Y-68419085D01*
X160961095Y-68381960D01*
X160925436Y-68359979D01*
X160876325Y-68352958D01*
X160870237Y-68352896D01*
X160819824Y-68356712D01*
X160793056Y-68362665D01*
X160746528Y-68378419D01*
X160732972Y-68384159D01*
X160689253Y-68405652D01*
X160660921Y-68415422D01*
X160647487Y-68410537D01*
X160637718Y-68396127D01*
X160631856Y-68373412D01*
X160629902Y-68343370D01*
X160633321Y-68308443D01*
X160646266Y-68285240D01*
X160679972Y-68264968D01*
X160726513Y-68249525D01*
X160736392Y-68246894D01*
X160785765Y-68236372D01*
X160806734Y-68233217D01*
X160857794Y-68228478D01*
X160885380Y-68227843D01*
X160936465Y-68229801D01*
G37*
G36*
X161672779Y-68230014D02*
G01*
X161722047Y-68237415D01*
X161766120Y-68250069D01*
X161811868Y-68271595D01*
X161853381Y-68302529D01*
X161866259Y-68315526D01*
X161896954Y-68356973D01*
X161918423Y-68402325D01*
X161924877Y-68421528D01*
X161936635Y-68471216D01*
X161942646Y-68521350D01*
X161944173Y-68565631D01*
X161941719Y-68617580D01*
X161934360Y-68666297D01*
X161923412Y-68707780D01*
X161905002Y-68753484D01*
X161878237Y-68797416D01*
X161860886Y-68818667D01*
X161823404Y-68852905D01*
X161778828Y-68880210D01*
X161755861Y-68890474D01*
X161705578Y-68905804D01*
X161654174Y-68913641D01*
X161608339Y-68915631D01*
X161559299Y-68913437D01*
X161510205Y-68905954D01*
X161466189Y-68893161D01*
X161420519Y-68871359D01*
X161378818Y-68840398D01*
X161365806Y-68827459D01*
X161334897Y-68786013D01*
X161313229Y-68740661D01*
X161306699Y-68721458D01*
X161295090Y-68671724D01*
X161289155Y-68621790D01*
X161287648Y-68577843D01*
X161287975Y-68571004D01*
X161465457Y-68571004D01*
X161468126Y-68621090D01*
X161473028Y-68652581D01*
X161488707Y-68701028D01*
X161497452Y-68717306D01*
X161532739Y-68753696D01*
X161543126Y-68759804D01*
X161591621Y-68773749D01*
X161614445Y-68774947D01*
X161663550Y-68768482D01*
X161682588Y-68761270D01*
X161722650Y-68730585D01*
X161729972Y-68721214D01*
X161752320Y-68675830D01*
X161757327Y-68657955D01*
X161765093Y-68607236D01*
X161766364Y-68572958D01*
X161763781Y-68522958D01*
X161759036Y-68491625D01*
X161744449Y-68444976D01*
X161734612Y-68426901D01*
X161700892Y-68391231D01*
X161688939Y-68383914D01*
X161640515Y-68369744D01*
X161617376Y-68368527D01*
X161568932Y-68375107D01*
X161549965Y-68382449D01*
X161509903Y-68413221D01*
X161502581Y-68422749D01*
X161479959Y-68468361D01*
X161474738Y-68486252D01*
X161466762Y-68536761D01*
X161465457Y-68571004D01*
X161287975Y-68571004D01*
X161290130Y-68525865D01*
X161297576Y-68477062D01*
X161308653Y-68435450D01*
X161327326Y-68389517D01*
X161354144Y-68345647D01*
X161371423Y-68324563D01*
X161408982Y-68290523D01*
X161453394Y-68263417D01*
X161476203Y-68253244D01*
X161526338Y-68237766D01*
X161577665Y-68229852D01*
X161623482Y-68227843D01*
X161672779Y-68230014D01*
G37*
G36*
X157282798Y-70551179D02*
G01*
X157278890Y-70563635D01*
X157265212Y-70572428D01*
X157238834Y-70578046D01*
X157197069Y-70580000D01*
X157155547Y-70578046D01*
X157129658Y-70572428D01*
X157115980Y-70563635D01*
X157111828Y-70551179D01*
X157111828Y-69829685D01*
X157110362Y-69829685D01*
X156852686Y-70550446D01*
X156843649Y-70565345D01*
X156826796Y-70574626D01*
X156799685Y-70579023D01*
X156760118Y-70580000D01*
X156720062Y-70578290D01*
X156692951Y-70572916D01*
X156676099Y-70563635D01*
X156668039Y-70550446D01*
X156419399Y-69829685D01*
X156417934Y-69829685D01*
X156417934Y-70551179D01*
X156414026Y-70563635D01*
X156400104Y-70572428D01*
X156373726Y-70578046D01*
X156332205Y-70580000D01*
X156290683Y-70578046D01*
X156264305Y-70572428D01*
X156250628Y-70563635D01*
X156246964Y-70551179D01*
X156246964Y-69761053D01*
X156260179Y-69713764D01*
X156265526Y-69707564D01*
X156311064Y-69689074D01*
X156314863Y-69689002D01*
X156433077Y-69689002D01*
X156483004Y-69693214D01*
X156487299Y-69694131D01*
X156526378Y-69711228D01*
X156553977Y-69742735D01*
X156572751Y-69789303D01*
X156573272Y-69791095D01*
X156765491Y-70319637D01*
X156768178Y-70319637D01*
X156967480Y-69792561D01*
X156985713Y-69746464D01*
X156987020Y-69743956D01*
X157011688Y-69711716D01*
X157045150Y-69694131D01*
X157089846Y-69689002D01*
X157211235Y-69689002D01*
X157243230Y-69693886D01*
X157265212Y-69707808D01*
X157278157Y-69730523D01*
X157282798Y-69761053D01*
X157282798Y-70551179D01*
G37*
G36*
X157786840Y-69910527D02*
G01*
X157835589Y-69919578D01*
X157868004Y-69930558D01*
X157912089Y-69953799D01*
X157950918Y-69986171D01*
X157957641Y-69993572D01*
X157986481Y-70034627D01*
X158007057Y-70082230D01*
X158009176Y-70089071D01*
X158020530Y-70139194D01*
X158025379Y-70189001D01*
X158025785Y-70208995D01*
X158025785Y-70236594D01*
X158011618Y-70283489D01*
X157972784Y-70298632D01*
X157599825Y-70298632D01*
X157604212Y-70349353D01*
X157609106Y-70370195D01*
X157630317Y-70414374D01*
X157638660Y-70424661D01*
X157679341Y-70454081D01*
X157690928Y-70458855D01*
X157740809Y-70469434D01*
X157767376Y-70470579D01*
X157817362Y-70467996D01*
X157846999Y-70463251D01*
X157895144Y-70450908D01*
X157906594Y-70447131D01*
X157948115Y-70431011D01*
X157974982Y-70423684D01*
X157985240Y-70426127D01*
X157992079Y-70434431D01*
X157995987Y-70451528D01*
X157996964Y-70479127D01*
X157996231Y-70504284D01*
X157994033Y-70522114D01*
X157990125Y-70534570D01*
X157982798Y-70544096D01*
X157958374Y-70557529D01*
X157911404Y-70573801D01*
X157907571Y-70574870D01*
X157858538Y-70585672D01*
X157836741Y-70589281D01*
X157787570Y-70594583D01*
X157751744Y-70595631D01*
X157702585Y-70593627D01*
X157653084Y-70586795D01*
X157608374Y-70575115D01*
X157561869Y-70554978D01*
X157519180Y-70525540D01*
X157505792Y-70513077D01*
X157473695Y-70472371D01*
X157451090Y-70427122D01*
X157444242Y-70407808D01*
X157431889Y-70356941D01*
X157425574Y-70304942D01*
X157423970Y-70258576D01*
X157426045Y-70209317D01*
X157428860Y-70189211D01*
X157599825Y-70189211D01*
X157858234Y-70189211D01*
X157855028Y-70138870D01*
X157839481Y-70091339D01*
X157828925Y-70074661D01*
X157789174Y-70043337D01*
X157740468Y-70033059D01*
X157732449Y-70032896D01*
X157682893Y-70041763D01*
X157675052Y-70045352D01*
X157636555Y-70075978D01*
X157634508Y-70078569D01*
X157611508Y-70122859D01*
X157609839Y-70128150D01*
X157600624Y-70177167D01*
X157599825Y-70189211D01*
X157428860Y-70189211D01*
X157433121Y-70158769D01*
X157445219Y-70112030D01*
X157463870Y-70065754D01*
X157490198Y-70021978D01*
X157507013Y-70001144D01*
X157542857Y-69967780D01*
X157584506Y-69941511D01*
X157605687Y-69931779D01*
X157655336Y-69916281D01*
X157705459Y-69908989D01*
X157736601Y-69907843D01*
X157786840Y-69910527D01*
G37*
G36*
X158337194Y-70552644D02*
G01*
X158333042Y-70564612D01*
X158318876Y-70573161D01*
X158292498Y-70578290D01*
X158250488Y-70580000D01*
X158208478Y-70578290D01*
X158182100Y-70573161D01*
X158168178Y-70564612D01*
X158164026Y-70552644D01*
X158164026Y-69655785D01*
X158168178Y-69643572D01*
X158182100Y-69634291D01*
X158208478Y-69628674D01*
X158250488Y-69626475D01*
X158292498Y-69628674D01*
X158318876Y-69634291D01*
X158333042Y-69643572D01*
X158337194Y-69655785D01*
X158337194Y-70552644D01*
G37*
G36*
X158870621Y-70500865D02*
G01*
X158866713Y-70546050D01*
X158856699Y-70568032D01*
X158838625Y-70579511D01*
X158810537Y-70588060D01*
X158775366Y-70593677D01*
X158737264Y-70595631D01*
X158686368Y-70591909D01*
X158647871Y-70582442D01*
X158604078Y-70559456D01*
X158585589Y-70542630D01*
X158558787Y-70501052D01*
X158549197Y-70474487D01*
X158540049Y-70426425D01*
X158537473Y-70377034D01*
X158537473Y-70064159D01*
X158464200Y-70064159D01*
X158444173Y-70048039D01*
X158437360Y-69998465D01*
X158437334Y-69993817D01*
X158439043Y-69960111D01*
X158444173Y-69938374D01*
X158452721Y-69926894D01*
X158464689Y-69923475D01*
X158537473Y-69923475D01*
X158537473Y-69781570D01*
X158541137Y-69768625D01*
X158555059Y-69759099D01*
X158581681Y-69753482D01*
X158623447Y-69751528D01*
X158665457Y-69753482D01*
X158691835Y-69759099D01*
X158705757Y-69768625D01*
X158709909Y-69781570D01*
X158709909Y-69923475D01*
X158843265Y-69923475D01*
X158855233Y-69926894D01*
X158863782Y-69938374D01*
X158868911Y-69960111D01*
X158870621Y-69993817D01*
X158865385Y-70043612D01*
X158863782Y-70048039D01*
X158843754Y-70064159D01*
X158709909Y-70064159D01*
X158709909Y-70354075D01*
X158714855Y-70402796D01*
X158725540Y-70429790D01*
X158769893Y-70454333D01*
X158781960Y-70454947D01*
X158806629Y-70452505D01*
X158826168Y-70447131D01*
X158840823Y-70441514D01*
X158851325Y-70439071D01*
X158859141Y-70441514D01*
X158865003Y-70451284D01*
X158868911Y-70470334D01*
X158870621Y-70500865D01*
G37*
G36*
X159347627Y-70580000D02*
G01*
X159273621Y-70797620D01*
X159239916Y-70822533D01*
X159190181Y-70829365D01*
X159159560Y-70830104D01*
X159115352Y-70827662D01*
X159090683Y-70819602D01*
X159081891Y-70805924D01*
X159086043Y-70785896D01*
X159167864Y-70580000D01*
X159151500Y-70567543D01*
X159140997Y-70549469D01*
X158929972Y-69992107D01*
X158921179Y-69955959D01*
X158929239Y-69936175D01*
X158957083Y-69926161D01*
X159007089Y-69923477D01*
X159009106Y-69923475D01*
X159055512Y-69924452D01*
X159082379Y-69929581D01*
X159096789Y-69942281D01*
X159106559Y-69966217D01*
X159250907Y-70372149D01*
X159252861Y-70372149D01*
X159384752Y-69958157D01*
X159395254Y-69934710D01*
X159416992Y-69926161D01*
X159467649Y-69923477D01*
X159469993Y-69923475D01*
X159519085Y-69926161D01*
X159547906Y-69936420D01*
X159557187Y-69956448D01*
X159551814Y-69986001D01*
X159347627Y-70580000D01*
G37*
G36*
X160424249Y-70544584D02*
G01*
X160415212Y-70563391D01*
X160397383Y-70574382D01*
X160363677Y-70579023D01*
X160314532Y-70579991D01*
X160308234Y-70580000D01*
X160261095Y-70579755D01*
X160227878Y-70578046D01*
X160205408Y-70573893D01*
X160190997Y-70567055D01*
X160182205Y-70557285D01*
X160176343Y-70542386D01*
X159911828Y-69760076D01*
X159901814Y-69721242D01*
X159908653Y-69699748D01*
X159937718Y-69690711D01*
X159986578Y-69689028D01*
X159995603Y-69689002D01*
X160044940Y-69690467D01*
X160072295Y-69695108D01*
X160085729Y-69705366D01*
X160093056Y-69722463D01*
X160309455Y-70403412D01*
X160310188Y-70403412D01*
X160522435Y-69725882D01*
X160529274Y-69707076D01*
X160543196Y-69695840D01*
X160571772Y-69690467D01*
X160622575Y-69689002D01*
X160671667Y-69691200D01*
X160695847Y-69700969D01*
X160700000Y-69723196D01*
X160689253Y-69761297D01*
X160424249Y-70544584D01*
G37*
G36*
X161360921Y-70510635D02*
G01*
X161358722Y-70543607D01*
X161352861Y-70565101D01*
X161344312Y-70576580D01*
X161333565Y-70580000D01*
X160843126Y-70580000D01*
X160832623Y-70576580D01*
X160824075Y-70565101D01*
X160818213Y-70543607D01*
X160816259Y-70510635D01*
X160817969Y-70477173D01*
X160823342Y-70455191D01*
X160831891Y-70443224D01*
X160843126Y-70439316D01*
X161008478Y-70439316D01*
X161008478Y-69860949D01*
X160865596Y-69939106D01*
X160839706Y-69948387D01*
X160824075Y-69944235D01*
X160816015Y-69924452D01*
X160814061Y-69884884D01*
X160814794Y-69858506D01*
X160818213Y-69840676D01*
X160825540Y-69828464D01*
X160838729Y-69818450D01*
X161029727Y-69697794D01*
X161038276Y-69693398D01*
X161051709Y-69690711D01*
X161073447Y-69689490D01*
X161108129Y-69689002D01*
X161150383Y-69689979D01*
X161174563Y-69693398D01*
X161185554Y-69699993D01*
X161188485Y-69710251D01*
X161188485Y-70439316D01*
X161333321Y-70439316D01*
X161344801Y-70443224D01*
X161353593Y-70455191D01*
X161359211Y-70477173D01*
X161360921Y-70510635D01*
G37*
D11*
X181738095Y-66106819D02*
X182309523Y-66106819D01*
X182023809Y-67106819D02*
X182023809Y-66106819D01*
X182642857Y-67106819D02*
X182642857Y-66106819D01*
X182642857Y-66106819D02*
X183023809Y-66106819D01*
X183023809Y-66106819D02*
X183119047Y-66154438D01*
X183119047Y-66154438D02*
X183166666Y-66202057D01*
X183166666Y-66202057D02*
X183214285Y-66297295D01*
X183214285Y-66297295D02*
X183214285Y-66440152D01*
X183214285Y-66440152D02*
X183166666Y-66535390D01*
X183166666Y-66535390D02*
X183119047Y-66583009D01*
X183119047Y-66583009D02*
X183023809Y-66630628D01*
X183023809Y-66630628D02*
X182642857Y-66630628D01*
X184166666Y-67106819D02*
X183595238Y-67106819D01*
X183880952Y-67106819D02*
X183880952Y-66106819D01*
X183880952Y-66106819D02*
X183785714Y-66249676D01*
X183785714Y-66249676D02*
X183690476Y-66344914D01*
X183690476Y-66344914D02*
X183595238Y-66392533D01*
X177891800Y-67704504D02*
X177891800Y-67942599D01*
X177653705Y-67847361D02*
X177891800Y-67942599D01*
X177891800Y-67942599D02*
X178129895Y-67847361D01*
X177748943Y-68133075D02*
X177891800Y-67942599D01*
X177891800Y-67942599D02*
X178034657Y-68133075D01*
X177891800Y-67704504D02*
X177891800Y-67942599D01*
X177653705Y-67847361D02*
X177891800Y-67942599D01*
X177891800Y-67942599D02*
X178129895Y-67847361D01*
X177748943Y-68133075D02*
X177891800Y-67942599D01*
X177891800Y-67942599D02*
X178034657Y-68133075D01*
X182333333Y-65209580D02*
X182285714Y-65257200D01*
X182285714Y-65257200D02*
X182142857Y-65304819D01*
X182142857Y-65304819D02*
X182047619Y-65304819D01*
X182047619Y-65304819D02*
X181904762Y-65257200D01*
X181904762Y-65257200D02*
X181809524Y-65161961D01*
X181809524Y-65161961D02*
X181761905Y-65066723D01*
X181761905Y-65066723D02*
X181714286Y-64876247D01*
X181714286Y-64876247D02*
X181714286Y-64733390D01*
X181714286Y-64733390D02*
X181761905Y-64542914D01*
X181761905Y-64542914D02*
X181809524Y-64447676D01*
X181809524Y-64447676D02*
X181904762Y-64352438D01*
X181904762Y-64352438D02*
X182047619Y-64304819D01*
X182047619Y-64304819D02*
X182142857Y-64304819D01*
X182142857Y-64304819D02*
X182285714Y-64352438D01*
X182285714Y-64352438D02*
X182333333Y-64400057D01*
X182714286Y-64400057D02*
X182761905Y-64352438D01*
X182761905Y-64352438D02*
X182857143Y-64304819D01*
X182857143Y-64304819D02*
X183095238Y-64304819D01*
X183095238Y-64304819D02*
X183190476Y-64352438D01*
X183190476Y-64352438D02*
X183238095Y-64400057D01*
X183238095Y-64400057D02*
X183285714Y-64495295D01*
X183285714Y-64495295D02*
X183285714Y-64590533D01*
X183285714Y-64590533D02*
X183238095Y-64733390D01*
X183238095Y-64733390D02*
X182666667Y-65304819D01*
X182666667Y-65304819D02*
X183285714Y-65304819D01*
X187988095Y-69604819D02*
X188559523Y-69604819D01*
X188273809Y-70604819D02*
X188273809Y-69604819D01*
X188892857Y-70604819D02*
X188892857Y-69604819D01*
X188892857Y-69604819D02*
X189273809Y-69604819D01*
X189273809Y-69604819D02*
X189369047Y-69652438D01*
X189369047Y-69652438D02*
X189416666Y-69700057D01*
X189416666Y-69700057D02*
X189464285Y-69795295D01*
X189464285Y-69795295D02*
X189464285Y-69938152D01*
X189464285Y-69938152D02*
X189416666Y-70033390D01*
X189416666Y-70033390D02*
X189369047Y-70081009D01*
X189369047Y-70081009D02*
X189273809Y-70128628D01*
X189273809Y-70128628D02*
X188892857Y-70128628D01*
X189845238Y-69700057D02*
X189892857Y-69652438D01*
X189892857Y-69652438D02*
X189988095Y-69604819D01*
X189988095Y-69604819D02*
X190226190Y-69604819D01*
X190226190Y-69604819D02*
X190321428Y-69652438D01*
X190321428Y-69652438D02*
X190369047Y-69700057D01*
X190369047Y-69700057D02*
X190416666Y-69795295D01*
X190416666Y-69795295D02*
X190416666Y-69890533D01*
X190416666Y-69890533D02*
X190369047Y-70033390D01*
X190369047Y-70033390D02*
X189797619Y-70604819D01*
X189797619Y-70604819D02*
X190416666Y-70604819D01*
D12*
X165553884Y-62766466D02*
X166315789Y-62766466D01*
X165934836Y-63147419D02*
X165934836Y-62385514D01*
X172553884Y-62766466D02*
X173315789Y-62766466D01*
D11*
X176233333Y-66009580D02*
X176185714Y-66057200D01*
X176185714Y-66057200D02*
X176042857Y-66104819D01*
X176042857Y-66104819D02*
X175947619Y-66104819D01*
X175947619Y-66104819D02*
X175804762Y-66057200D01*
X175804762Y-66057200D02*
X175709524Y-65961961D01*
X175709524Y-65961961D02*
X175661905Y-65866723D01*
X175661905Y-65866723D02*
X175614286Y-65676247D01*
X175614286Y-65676247D02*
X175614286Y-65533390D01*
X175614286Y-65533390D02*
X175661905Y-65342914D01*
X175661905Y-65342914D02*
X175709524Y-65247676D01*
X175709524Y-65247676D02*
X175804762Y-65152438D01*
X175804762Y-65152438D02*
X175947619Y-65104819D01*
X175947619Y-65104819D02*
X176042857Y-65104819D01*
X176042857Y-65104819D02*
X176185714Y-65152438D01*
X176185714Y-65152438D02*
X176233333Y-65200057D01*
X177138095Y-65104819D02*
X176661905Y-65104819D01*
X176661905Y-65104819D02*
X176614286Y-65581009D01*
X176614286Y-65581009D02*
X176661905Y-65533390D01*
X176661905Y-65533390D02*
X176757143Y-65485771D01*
X176757143Y-65485771D02*
X176995238Y-65485771D01*
X176995238Y-65485771D02*
X177090476Y-65533390D01*
X177090476Y-65533390D02*
X177138095Y-65581009D01*
X177138095Y-65581009D02*
X177185714Y-65676247D01*
X177185714Y-65676247D02*
X177185714Y-65914342D01*
X177185714Y-65914342D02*
X177138095Y-66009580D01*
X177138095Y-66009580D02*
X177090476Y-66057200D01*
X177090476Y-66057200D02*
X176995238Y-66104819D01*
X176995238Y-66104819D02*
X176757143Y-66104819D01*
X176757143Y-66104819D02*
X176661905Y-66057200D01*
X176661905Y-66057200D02*
X176614286Y-66009580D01*
X176283333Y-63809580D02*
X176235714Y-63857200D01*
X176235714Y-63857200D02*
X176092857Y-63904819D01*
X176092857Y-63904819D02*
X175997619Y-63904819D01*
X175997619Y-63904819D02*
X175854762Y-63857200D01*
X175854762Y-63857200D02*
X175759524Y-63761961D01*
X175759524Y-63761961D02*
X175711905Y-63666723D01*
X175711905Y-63666723D02*
X175664286Y-63476247D01*
X175664286Y-63476247D02*
X175664286Y-63333390D01*
X175664286Y-63333390D02*
X175711905Y-63142914D01*
X175711905Y-63142914D02*
X175759524Y-63047676D01*
X175759524Y-63047676D02*
X175854762Y-62952438D01*
X175854762Y-62952438D02*
X175997619Y-62904819D01*
X175997619Y-62904819D02*
X176092857Y-62904819D01*
X176092857Y-62904819D02*
X176235714Y-62952438D01*
X176235714Y-62952438D02*
X176283333Y-63000057D01*
X177235714Y-63904819D02*
X176664286Y-63904819D01*
X176950000Y-63904819D02*
X176950000Y-62904819D01*
X176950000Y-62904819D02*
X176854762Y-63047676D01*
X176854762Y-63047676D02*
X176759524Y-63142914D01*
X176759524Y-63142914D02*
X176664286Y-63190533D01*
X182333333Y-60424819D02*
X182000000Y-59948628D01*
X181761905Y-60424819D02*
X181761905Y-59424819D01*
X181761905Y-59424819D02*
X182142857Y-59424819D01*
X182142857Y-59424819D02*
X182238095Y-59472438D01*
X182238095Y-59472438D02*
X182285714Y-59520057D01*
X182285714Y-59520057D02*
X182333333Y-59615295D01*
X182333333Y-59615295D02*
X182333333Y-59758152D01*
X182333333Y-59758152D02*
X182285714Y-59853390D01*
X182285714Y-59853390D02*
X182238095Y-59901009D01*
X182238095Y-59901009D02*
X182142857Y-59948628D01*
X182142857Y-59948628D02*
X181761905Y-59948628D01*
X182904762Y-59853390D02*
X182809524Y-59805771D01*
X182809524Y-59805771D02*
X182761905Y-59758152D01*
X182761905Y-59758152D02*
X182714286Y-59662914D01*
X182714286Y-59662914D02*
X182714286Y-59615295D01*
X182714286Y-59615295D02*
X182761905Y-59520057D01*
X182761905Y-59520057D02*
X182809524Y-59472438D01*
X182809524Y-59472438D02*
X182904762Y-59424819D01*
X182904762Y-59424819D02*
X183095238Y-59424819D01*
X183095238Y-59424819D02*
X183190476Y-59472438D01*
X183190476Y-59472438D02*
X183238095Y-59520057D01*
X183238095Y-59520057D02*
X183285714Y-59615295D01*
X183285714Y-59615295D02*
X183285714Y-59662914D01*
X183285714Y-59662914D02*
X183238095Y-59758152D01*
X183238095Y-59758152D02*
X183190476Y-59805771D01*
X183190476Y-59805771D02*
X183095238Y-59853390D01*
X183095238Y-59853390D02*
X182904762Y-59853390D01*
X182904762Y-59853390D02*
X182809524Y-59901009D01*
X182809524Y-59901009D02*
X182761905Y-59948628D01*
X182761905Y-59948628D02*
X182714286Y-60043866D01*
X182714286Y-60043866D02*
X182714286Y-60234342D01*
X182714286Y-60234342D02*
X182761905Y-60329580D01*
X182761905Y-60329580D02*
X182809524Y-60377200D01*
X182809524Y-60377200D02*
X182904762Y-60424819D01*
X182904762Y-60424819D02*
X183095238Y-60424819D01*
X183095238Y-60424819D02*
X183190476Y-60377200D01*
X183190476Y-60377200D02*
X183238095Y-60329580D01*
X183238095Y-60329580D02*
X183285714Y-60234342D01*
X183285714Y-60234342D02*
X183285714Y-60043866D01*
X183285714Y-60043866D02*
X183238095Y-59948628D01*
X183238095Y-59948628D02*
X183190476Y-59901009D01*
X183190476Y-59901009D02*
X183095238Y-59853390D01*
X176183333Y-61854819D02*
X175850000Y-61378628D01*
X175611905Y-61854819D02*
X175611905Y-60854819D01*
X175611905Y-60854819D02*
X175992857Y-60854819D01*
X175992857Y-60854819D02*
X176088095Y-60902438D01*
X176088095Y-60902438D02*
X176135714Y-60950057D01*
X176135714Y-60950057D02*
X176183333Y-61045295D01*
X176183333Y-61045295D02*
X176183333Y-61188152D01*
X176183333Y-61188152D02*
X176135714Y-61283390D01*
X176135714Y-61283390D02*
X176088095Y-61331009D01*
X176088095Y-61331009D02*
X175992857Y-61378628D01*
X175992857Y-61378628D02*
X175611905Y-61378628D01*
X176516667Y-60854819D02*
X177183333Y-60854819D01*
X177183333Y-60854819D02*
X176754762Y-61854819D01*
D13*
%TO.C,TP1*%
X183700000Y-68100000D02*
G75*
G02*
X182300000Y-68100000I-700000J0D01*
G01*
X182300000Y-68100000D02*
G75*
G02*
X183700000Y-68100000I700000J0D01*
G01*
D14*
%TO.C,U2*%
X178298200Y-67798200D02*
X178298200Y-68130967D01*
X178298200Y-70869033D02*
X178298200Y-71201800D01*
X178298200Y-71201800D02*
X179131093Y-71201800D01*
X179131093Y-67798200D02*
X178298200Y-67798200D01*
X180868907Y-71201800D02*
X181701800Y-71201800D01*
X181701800Y-67798200D02*
X180868907Y-67798200D01*
X181701800Y-68130967D02*
X181701800Y-67798200D01*
X181701800Y-71201800D02*
X181701800Y-70869033D01*
D15*
G36*
X181981200Y-70190626D02*
G01*
X181727200Y-70190626D01*
X181727200Y-69809626D01*
X181981200Y-69809626D01*
X181981200Y-70190626D01*
G37*
D13*
%TO.C,C2*%
X182353733Y-62890000D02*
X182646267Y-62890000D01*
X182353733Y-63910000D02*
X182646267Y-63910000D01*
%TO.C,TP2*%
X184350000Y-70100000D02*
G75*
G02*
X182950000Y-70100000I-700000J0D01*
G01*
X182950000Y-70100000D02*
G75*
G02*
X184350000Y-70100000I700000J0D01*
G01*
%TO.C,U4*%
D12*
X174000000Y-61250000D02*
X164000000Y-61250000D01*
X164000000Y-51250000D01*
X174000000Y-51250000D01*
X174000000Y-61250000D01*
D13*
%TO.C,D2*%
X175580000Y-53400000D02*
X175580000Y-54050000D01*
X175580000Y-53400000D02*
X178420000Y-53400000D01*
X175580000Y-55700000D02*
X178420000Y-55700000D01*
%TO.C,C5*%
X178853733Y-64990000D02*
X179146267Y-64990000D01*
X178853733Y-66010000D02*
X179146267Y-66010000D01*
%TO.C,D3*%
X175580000Y-56950000D02*
X175580000Y-57600000D01*
X175580000Y-56950000D02*
X178420000Y-56950000D01*
X175580000Y-59250000D02*
X178420000Y-59250000D01*
%TO.C,C1*%
X178953733Y-62890000D02*
X179246267Y-62890000D01*
X178953733Y-63910000D02*
X179246267Y-63910000D01*
%TO.C,U5*%
X156900000Y-51275000D02*
X161990000Y-51275000D01*
X156900000Y-51615000D02*
X156900000Y-51275000D01*
X156900000Y-53935000D02*
X156900000Y-54285000D01*
X156900000Y-54285000D02*
X159500000Y-54285000D01*
X157400000Y-51275000D02*
G75*
G02*
X161599917Y-51273264I2100000J-100000D01*
G01*
%TO.C,R8*%
X182353733Y-60890000D02*
X182646267Y-60890000D01*
X182353733Y-61910000D02*
X182646267Y-61910000D01*
%TO.C,J4*%
X150290000Y-55290000D02*
X155710000Y-55290000D01*
X150290000Y-64010000D02*
X150290000Y-55290000D01*
X151590000Y-65710000D02*
X150290000Y-64010000D01*
X151590000Y-65710000D02*
X154410000Y-65710000D01*
X154410000Y-65710000D02*
X155710000Y-64010000D01*
X155710000Y-64010000D02*
X155710000Y-55290000D01*
%TO.C,R7*%
X178953733Y-60890000D02*
X179246267Y-60890000D01*
X178953733Y-61910000D02*
X179246267Y-61910000D01*
D12*
%TO.C,U1*%
X185616364Y-51940000D02*
X185616364Y-69085000D01*
X187521364Y-70990000D02*
X201491364Y-70990000D01*
D16*
X190002364Y-72000000D02*
X190002364Y-70990000D01*
X198497636Y-72500000D02*
X190502364Y-72500000D01*
X199001364Y-70990000D02*
X198997636Y-72000272D01*
D12*
X201491364Y-50035000D02*
X187521364Y-50035000D01*
X203396364Y-51940000D02*
X203396364Y-69085000D01*
X185616364Y-51940000D02*
G75*
G02*
X187521364Y-50034994I1904996J10D01*
G01*
X187521364Y-70990000D02*
G75*
G02*
X185616360Y-69085000I6J1905010D01*
G01*
D16*
X190502364Y-72500000D02*
G75*
G02*
X190002370Y-72000000I-4J499990D01*
G01*
X198997636Y-72000272D02*
G75*
G02*
X198497636Y-72499999I-500018J291D01*
G01*
D12*
X201491364Y-50035000D02*
G75*
G02*
X203396364Y-51940000I-1J-1905001D01*
G01*
X203396364Y-69089000D02*
G75*
G02*
X201491364Y-70994000I-1905001J1D01*
G01*
D17*
X202641364Y-69851000D02*
G75*
G02*
X202137364Y-69851000I-252000J0D01*
G01*
X202137364Y-69851000D02*
G75*
G02*
X202641364Y-69851000I252000J0D01*
G01*
X203858364Y-70574000D02*
G75*
G02*
X203354364Y-70574000I-252000J0D01*
G01*
X203354364Y-70574000D02*
G75*
G02*
X203858364Y-70574000I252000J0D01*
G01*
D13*
%TO.C,D1*%
X175580000Y-49850000D02*
X175580000Y-50500000D01*
X175580000Y-49850000D02*
X178420000Y-49850000D01*
X175580000Y-52150000D02*
X178420000Y-52150000D01*
%TD*%
%LPC*%
D18*
%TO.C,TP1*%
X183000000Y-68100000D03*
%TD*%
D19*
%TO.C,U2*%
X178704600Y-68499748D03*
X178704600Y-68999874D03*
X178704600Y-69500000D03*
X178704600Y-70000126D03*
X178704600Y-70500252D03*
D20*
X179499874Y-70795400D03*
X180000000Y-70795400D03*
X180500126Y-70795400D03*
D19*
X181295400Y-70500252D03*
X181295400Y-70000126D03*
X181295400Y-69500000D03*
X181295400Y-68999874D03*
X181295400Y-68499748D03*
D20*
X180500126Y-68204600D03*
X180000000Y-68204600D03*
X179499874Y-68204600D03*
%TD*%
D21*
%TO.C,C2*%
X181637500Y-63400000D03*
X183362500Y-63400000D03*
%TD*%
D18*
%TO.C,TP2*%
X183650000Y-70100000D03*
%TD*%
D22*
%TO.C,U4*%
X172750000Y-51000000D03*
X170250000Y-51000000D03*
X167750000Y-51000000D03*
X165250000Y-51000000D03*
%TD*%
D23*
%TO.C,REF\u002A\u002A*%
X153000000Y-52500000D03*
%TD*%
D24*
%TO.C,J3*%
X166000000Y-67025000D03*
X173000000Y-67025000D03*
%TD*%
D23*
%TO.C,REF\u002A\u002A*%
X181500000Y-57200000D03*
%TD*%
D25*
%TO.C,D2*%
X176085000Y-54000000D03*
X176085000Y-55100000D03*
X177915000Y-55100000D03*
X177915000Y-54000000D03*
%TD*%
D21*
%TO.C,C5*%
X178137500Y-65500000D03*
X179862500Y-65500000D03*
%TD*%
D25*
%TO.C,D3*%
X176085000Y-57550000D03*
X176085000Y-58650000D03*
X177915000Y-58650000D03*
X177915000Y-57550000D03*
%TD*%
D23*
%TO.C,REF\u002A\u002A*%
X153000000Y-68500000D03*
%TD*%
D21*
%TO.C,C1*%
X178237500Y-63400000D03*
X179962500Y-63400000D03*
%TD*%
D26*
%TO.C,U5*%
X162040000Y-52775000D03*
D27*
X159500000Y-52775000D03*
X156960000Y-52775000D03*
%TD*%
D21*
%TO.C,R8*%
X181637500Y-61400000D03*
X183362500Y-61400000D03*
%TD*%
D28*
%TO.C,J5*%
X159425000Y-61450000D03*
%TD*%
D29*
%TO.C,J4*%
X153000000Y-63000000D03*
D30*
X153000000Y-58000000D03*
%TD*%
D21*
%TO.C,R7*%
X178237500Y-61400000D03*
X179962500Y-61400000D03*
%TD*%
D31*
%TO.C,U1*%
X202561364Y-68073000D03*
X202561364Y-65533000D03*
X202561364Y-62993000D03*
X202561364Y-60453000D03*
X202561364Y-57913000D03*
X202561364Y-55373000D03*
X202561364Y-52833000D03*
X186396364Y-52833000D03*
X186396364Y-55373000D03*
X186396364Y-57913000D03*
X186396364Y-60453000D03*
X186396364Y-62993000D03*
X186396364Y-65533000D03*
X186396364Y-68073000D03*
%TD*%
D25*
%TO.C,D1*%
X176085000Y-50450000D03*
X176085000Y-51550000D03*
X177915000Y-51550000D03*
X177915000Y-50450000D03*
%TD*%
%LPD*%
M02*
